<svg width="500" height="500" viewBox="0 0 500 500" fill="none" xmlns="http://www.w3.org/2000/svg">
<g clip-path="url(#clip0_837_5002)">
<path d="M424.6 312.419L109.536 60.6672L129.049 36.4102L444.113 288.162L424.6 312.419Z" fill="#F5F5F5"/>
<path d="M430.128 296.889L447.015 275.897L450.132 295.692L453.248 315.488L433.245 316.684L413.242 317.88L430.128 296.889Z" fill="#F5F5F5"/>
<path d="M299.403 106.616L225.51 47.1758L208.219 68.67L282.113 128.111L299.403 106.616Z" fill="#F5F5F5"/>
<path d="M287.004 114.349L301.966 95.749L304.728 113.289L307.49 130.829L289.766 131.889L272.041 132.949L287.004 114.349Z" fill="#F5F5F5"/>
<path d="M120.732 277.192C133.278 264.262 147.334 257.195 165.282 255.633C161.044 249.028 153.511 236.154 149.273 229.55C126.717 229.67 109.191 242.392 97.3359 261.348C105.674 267.356 112.395 271.184 120.732 277.192Z" fill="#E0E0E0"/>
<path d="M44.229 152.335C56.775 139.405 70.831 132.338 88.779 130.776C84.54 124.171 77.008 111.297 72.77 104.693C50.214 104.813 32.689 117.535 20.833 136.491C29.171 142.499 35.892 146.327 44.229 152.335Z" fill="#E0E0E0"/>
<path d="M299.528 383.763C312.074 370.833 326.13 363.766 344.079 362.204C339.841 355.599 332.308 342.726 328.07 336.121C305.514 336.241 287.989 348.962 276.133 367.919C284.47 373.926 291.191 377.755 299.528 383.763Z" fill="#E0E0E0"/>
<path d="M24.7441 310.06C25.7211 317.895 31.7411 324.363 38.7281 328.039C45.7161 331.716 53.6471 333.086 61.4131 334.512C69.1791 335.938 77.1031 337.535 83.8821 341.584L97.3371 304.158C97.3371 304.158 80.7411 296.477 63.5661 297.159C49.6681 297.711 38.6341 279.299 38.6341 279.299L24.7441 310.06Z" fill="#E0E0E0"/>
<path d="M479.166 470.273C479.166 470.417 376.557 470.533 250.011 470.533C123.421 470.533 20.834 470.416 20.834 470.273C20.834 470.129 123.421 470.013 250.011 470.013C376.557 470.013 479.166 470.129 479.166 470.273Z" fill="#263238"/>
<path d="M312.108 274.662H250.677V470.273H312.108V274.662Z" fill="#3798FF"/>
<g opacity="0.3">
<path d="M312.107 274.662H293.064V470.273H312.107V274.662Z" fill="#7B7575"/>
</g>
<path d="M293.065 470.273C292.921 470.273 292.805 426.975 292.805 373.576C292.805 320.159 292.922 276.87 293.065 276.87C293.209 276.87 293.325 320.159 293.325 373.576C293.325 426.975 293.208 470.273 293.065 470.273Z" fill="#6D7C83"/>
<path d="M222.271 180.256H160.84V470.476H222.271V180.256Z" fill="#3798FF"/>
<g opacity="0.3">
<path d="M222.271 180.256H203.228V470.476H222.271V180.256Z" fill="#7B7575"/>
</g>
<path d="M203.228 470.476C203.084 470.476 202.968 406.236 202.968 327.011C202.968 247.758 203.085 183.532 203.228 183.532C203.372 183.532 203.488 247.758 203.488 327.011C203.488 406.236 203.372 470.476 203.228 470.476Z" fill="#6D7C83"/>
<path d="M411.091 387.854H349.66V470.24H411.091V387.854Z" fill="#3798FF"/>
<g opacity="0.3">
<path d="M411.092 387.854H392.049V470.24H411.092V387.854Z" fill="#7B7575"/>
</g>
<path d="M392.049 470.241C391.905 470.241 391.789 452.005 391.789 429.515C391.789 407.017 391.906 388.785 392.049 388.785C392.193 388.785 392.309 407.017 392.309 429.515C392.309 452.004 392.192 470.241 392.049 470.241Z" fill="#6D7C83"/>
<path d="M125.636 95.748H64.2051V470.042H125.636V95.748Z" fill="#3798FF"/>
<g opacity="0.3">
<path d="M125.636 95.748H106.593V470.042H125.636V95.748Z" fill="#7B7575"/>
</g>
<path d="M106.593 471.564C106.449 471.564 106.333 388.374 106.333 285.778C106.333 183.146 106.45 99.9736 106.593 99.9736C106.736 99.9736 106.853 183.146 106.853 285.778C106.853 388.374 106.737 471.564 106.593 471.564Z" fill="#6D7C83"/>
<path d="M148.805 407.584C161.351 394.654 175.407 387.587 193.355 386.025C189.117 379.42 181.584 366.547 177.346 359.942C154.79 360.062 137.265 372.783 125.409 391.74C133.747 397.747 140.468 401.576 148.805 407.584Z" fill="#E0E0E0"/>
<path d="M148.805 407.584C148.806 407.595 148.669 407.509 148.396 407.328C148.092 407.123 147.686 406.849 147.168 406.499C146.069 405.762 144.5 404.711 142.496 403.367C138.438 400.653 132.391 396.989 125.274 391.927L125.096 391.8L125.213 391.616C127.26 388.394 129.638 384.982 132.489 381.58C135.374 378.212 138.729 374.858 142.633 371.807C146.532 368.758 150.994 366.026 155.947 363.952C160.893 361.873 166.323 360.472 171.969 359.928C172.867 359.803 173.767 359.76 174.665 359.734C175.562 359.698 176.455 359.662 177.343 359.626L177.513 359.619L177.609 359.77C183.443 369.001 188.59 377.979 193.595 385.868L193.847 386.265L193.379 386.307C185.951 386.971 179.182 388.556 173.497 390.851C167.777 393.075 163.155 395.915 159.529 398.48C155.907 401.068 153.281 403.425 151.503 405.046C150.643 405.862 149.971 406.499 149.489 406.957C149.279 407.153 149.111 407.309 148.977 407.435C148.864 407.543 148.806 407.592 148.805 407.584C148.804 407.576 148.861 407.511 148.972 407.391C149.102 407.254 149.262 407.084 149.465 406.87C149.905 406.419 150.521 405.749 151.379 404.916C153.12 403.249 155.718 400.844 159.329 398.204C162.943 395.587 167.572 392.689 173.322 390.412C179.036 388.063 185.853 386.433 193.33 385.74L193.114 386.179C188.072 378.289 182.906 369.318 177.081 360.111L177.347 360.255C176.468 360.291 175.584 360.327 174.697 360.363C173.809 360.388 172.918 360.431 172.03 360.555C166.446 361.093 161.079 362.474 156.185 364.523C151.285 366.566 146.864 369.26 142.992 372.269C139.115 375.28 135.775 378.594 132.894 381.926C130.047 385.292 127.664 388.671 125.605 391.862L125.544 391.551C132.608 396.646 138.62 400.371 142.639 403.153C144.659 404.528 146.203 405.633 147.245 406.389C147.733 406.756 148.116 407.044 148.402 407.259C148.665 407.463 148.804 407.573 148.805 407.584Z" fill="#263238"/>
<path d="M135.772 386.842C135.877 386.704 139.52 389.301 143.907 392.642C148.295 395.984 151.766 398.804 151.661 398.943C151.556 399.081 147.914 396.485 143.526 393.143C139.139 389.801 135.667 386.98 135.772 386.842Z" fill="#263238"/>
<path d="M140.392 380.988C140.509 380.86 143.907 383.769 147.98 387.486C152.055 391.204 155.262 394.321 155.145 394.449C155.028 394.577 151.631 391.668 147.556 387.95C143.483 384.234 140.275 381.116 140.392 380.988Z" fill="#263238"/>
<path d="M147.281 375.505C147.352 375.447 148.107 376.258 149.318 377.573C150.528 378.889 152.214 380.687 154.097 382.663C155.981 384.638 157.661 386.464 158.801 387.852C159.946 389.235 160.58 390.15 160.516 390.201C160.445 390.259 159.691 389.447 158.468 388.146C157.071 386.684 155.441 384.979 153.641 383.096C151.755 381.118 150.11 379.26 148.982 377.865C147.853 376.47 147.218 375.557 147.281 375.505Z" fill="#263238"/>
<path d="M166.358 388.085C166.296 388.137 165.519 387.349 164.376 385.976C163.235 384.602 161.745 382.63 160.234 380.364C158.718 378.099 157.453 375.985 156.555 374.447C155.66 372.907 155.136 371.937 155.209 371.89C155.38 371.779 157.772 375.49 160.756 380.015C162.259 382.27 163.681 384.267 164.726 385.704C165.775 387.138 166.429 388.025 166.358 388.085Z" fill="#263238"/>
<path d="M171.78 385.811C171.711 385.858 171.072 385.069 170.139 383.723C169.206 382.378 167.99 380.467 166.768 378.286C165.547 376.104 164.554 374.068 163.894 372.569C163.234 371.07 162.896 370.113 162.972 370.079C163.139 370.004 164.882 373.645 167.316 377.979C169.738 382.318 171.931 385.707 171.78 385.811Z" fill="#263238"/>
<path d="M179.035 383.46C178.964 383.508 178.319 382.698 177.357 381.334C176.395 379.97 175.122 378.046 173.796 375.871C172.47 373.695 171.343 371.682 170.571 370.202C169.799 368.722 169.375 367.778 169.45 367.737C169.528 367.695 170.088 368.562 170.958 369.983C171.95 371.617 173.083 373.484 174.333 375.544C175.591 377.599 176.731 379.46 177.73 381.091C178.594 382.514 179.108 383.411 179.035 383.46Z" fill="#263238"/>
<path d="M204.228 239.054C193.572 253.873 180.534 263.041 162.778 267.269C168.006 273.259 177.464 285.044 182.691 291.035C205.279 287.569 220.955 272.22 230.025 251.463C220.778 246.679 213.475 243.838 204.228 239.054Z" fill="#EBEBEB"/>
<path d="M204.228 239.055C204.225 239.044 204.375 239.11 204.676 239.251C205.01 239.411 205.458 239.626 206.029 239.9C207.239 240.475 208.967 241.297 211.175 242.346C215.644 244.464 222.248 247.239 230.131 251.257L230.326 251.356L230.237 251.555C228.663 255.087 226.786 258.859 224.433 262.692C222.041 266.495 219.177 270.354 215.716 273.99C212.26 277.624 208.194 281.024 203.539 283.836C198.891 286.653 193.657 288.863 188.08 290.245C187.199 290.503 186.303 290.68 185.407 290.839C184.514 291.008 183.624 291.177 182.739 291.344L182.571 291.376L182.454 291.24C175.237 282.855 168.748 274.62 162.562 267.456L162.254 267.1L162.711 266.99C170.057 265.222 176.606 262.63 181.963 259.485C187.366 256.407 191.577 252.875 194.83 249.766C198.076 246.635 200.358 243.883 201.899 241.994C202.64 241.048 203.219 240.31 203.634 239.78C203.816 239.551 203.96 239.37 204.076 239.225C204.176 239.105 204.227 239.047 204.228 239.055C204.23 239.063 204.183 239.136 204.089 239.272C203.98 239.428 203.843 239.622 203.672 239.867C203.298 240.384 202.779 241.146 202.043 242.109C200.545 244.037 198.298 246.833 195.071 250.015C191.837 253.174 187.628 256.764 182.204 259.899C176.826 263.1 170.236 265.744 162.846 267.548L162.995 267.082C169.218 274.241 175.726 282.466 182.929 290.829L182.645 290.725C183.521 290.559 184.401 290.392 185.285 290.224C186.172 290.067 187.058 289.892 187.929 289.636C193.446 288.268 198.62 286.088 203.221 283.309C207.829 280.534 211.86 277.178 215.294 273.588C218.733 269.995 221.589 266.178 223.982 262.411C226.336 258.615 228.223 254.875 229.813 251.371L229.919 251.669C222.083 247.61 215.505 244.77 211.065 242.579C208.837 241.501 207.125 240.623 205.969 240.02C205.425 239.724 204.998 239.493 204.68 239.32C204.386 239.155 204.231 239.066 204.228 239.055Z" fill="#263238"/>
<path d="M220.367 257.909C220.283 258.061 216.248 255.997 211.356 253.3C206.462 250.601 202.564 248.292 202.648 248.14C202.732 247.988 206.766 250.051 211.659 252.75C216.552 255.446 220.451 257.757 220.367 257.909Z" fill="#263238"/>
<path d="M216.605 264.459C216.508 264.603 212.672 262.189 208.038 259.069C203.403 255.947 199.725 253.301 199.822 253.157C199.919 253.013 203.754 255.426 208.389 258.548C213.024 261.668 216.702 264.315 216.605 264.459Z" fill="#263238"/>
<path d="M210.514 270.977C210.452 271.045 209.575 270.343 208.168 269.204C206.761 268.064 204.805 266.511 202.624 264.811C200.443 263.111 198.488 261.53 197.139 260.31C195.786 259.094 195.014 258.273 195.07 258.212C195.132 258.144 196.007 258.847 197.426 259.97C199.039 261.225 200.926 262.693 203.012 264.316C205.195 266.019 207.12 267.636 208.458 268.867C209.797 270.097 210.569 270.916 210.514 270.977Z" fill="#263238"/>
<path d="M189.529 261.2C189.583 261.139 190.477 261.815 191.827 263.022C193.173 264.23 194.959 265.985 196.809 268.033C198.664 270.078 200.246 272.008 201.374 273.416C202.5 274.826 203.17 275.72 203.104 275.777C202.95 275.912 200.004 272.547 196.343 268.454C194.502 266.417 192.781 264.627 191.519 263.342C190.256 262.061 189.468 261.269 189.529 261.2Z" fill="#263238"/>
<path d="M184.432 264.283C184.493 264.226 185.25 264.922 186.384 266.134C187.518 267.345 189.02 269.079 190.568 271.083C192.115 273.089 193.413 274.981 194.297 276.385C195.182 277.789 195.663 278.697 195.593 278.742C195.438 278.841 193.153 275.449 190.071 271.467C187 267.478 184.298 264.408 184.432 264.283Z" fill="#263238"/>
<path d="M177.51 267.715C177.573 267.658 178.339 268.373 179.505 269.599C180.671 270.824 182.232 272.564 183.883 274.546C185.535 276.53 186.963 278.38 187.957 279.749C188.951 281.117 189.516 282 189.449 282.052C189.378 282.105 188.688 281.318 187.607 280.023C186.374 278.536 184.961 276.832 183.401 274.949C181.833 273.074 180.413 271.376 179.173 269.894C178.094 268.596 177.444 267.775 177.51 267.715Z" fill="#263238"/>
<path d="M413.363 173.027C409.314 173.018 406.636 172.11 403.011 169.965C402.406 169.607 396.561 171.724 396.561 171.724L398.767 165.443C396.65 162.582 396.226 159.658 396.235 155.824C396.255 146.344 403.957 138.676 413.437 138.696C422.918 138.717 430.586 146.419 430.565 155.899C430.545 165.379 422.844 173.047 413.363 173.027Z" fill="white"/>
<path d="M430.571 155.896C430.578 155.896 430.58 155.794 430.577 155.597C430.571 155.379 430.563 155.089 430.554 154.717C430.545 154.525 430.546 154.307 430.526 154.07C430.493 153.832 430.458 153.573 430.419 153.294C430.379 153.013 430.337 152.711 430.29 152.389C430.213 152.072 430.129 151.735 430.042 151.378C429.68 149.957 429.059 148.235 427.916 146.473C426.792 144.713 425.182 142.882 422.992 141.395C420.799 139.935 418.039 138.807 414.937 138.503C414.161 138.473 413.371 138.378 412.569 138.451C412.168 138.478 411.76 138.469 411.357 138.527C410.953 138.587 410.546 138.647 410.136 138.708C408.516 139.035 406.857 139.513 405.31 140.344C403.76 141.156 402.285 142.203 400.97 143.484C399.682 144.789 398.564 146.315 397.701 148.013C396.831 149.707 396.228 151.585 395.992 153.54C395.895 154.025 395.894 154.521 395.863 155.015C395.829 155.51 395.81 156.007 395.833 156.506C395.871 157.504 395.994 158.505 396.203 159.494C396.656 161.643 397.526 163.667 398.692 165.445L398.674 165.264C397.843 167.323 397.027 169.343 396.231 171.316L396.086 171.674L396.459 171.573C398.683 170.967 400.845 170.377 402.937 169.806L402.778 169.776C405.032 171.48 407.61 172.569 410.169 173.024C411.448 173.252 412.725 173.35 413.959 173.268C414.578 173.243 415.187 173.214 415.78 173.099C416.078 173.054 416.373 173.009 416.666 172.964C416.957 172.91 417.24 172.823 417.524 172.754C422.084 171.594 425.457 168.794 427.389 166.018C428.372 164.629 429.078 163.258 429.519 162.002C429.632 161.689 429.741 161.387 429.845 161.097C429.922 160.798 429.995 160.512 430.065 160.237C430.134 159.963 430.2 159.701 430.262 159.451C430.311 159.199 430.338 158.955 430.373 158.727C430.432 158.269 430.512 157.867 430.531 157.515C430.543 157.168 430.554 156.872 430.562 156.625C430.568 156.4 430.572 156.221 430.575 156.081C430.578 155.958 430.576 155.895 430.571 155.896C430.565 155.896 430.557 155.957 430.546 156.079C430.534 156.217 430.52 156.396 430.501 156.62C430.485 156.865 430.464 157.16 430.44 157.504C430.412 157.854 430.323 158.252 430.255 158.705C429.924 160.487 429.208 163.157 427.206 165.883C425.272 168.605 421.932 171.333 417.45 172.449C417.17 172.515 416.893 172.6 416.607 172.651C416.319 172.693 416.028 172.736 415.736 172.78C415.154 172.89 414.555 172.914 413.948 172.936C412.737 173.012 411.485 172.911 410.233 172.683C407.726 172.228 405.207 171.154 403.002 169.479L402.93 169.425L402.842 169.448C400.749 170.014 398.585 170.6 396.36 171.201L396.587 171.458C397.386 169.487 398.204 167.468 399.039 165.409L399.077 165.315L399.021 165.229C397.882 163.489 397.032 161.511 396.59 159.41C396.385 158.444 396.265 157.466 396.226 156.49C396.204 156.002 396.223 155.516 396.256 155.032C396.286 154.549 396.285 154.063 396.381 153.591C396.611 151.679 397.198 149.843 398.047 148.186C398.889 146.523 399.98 145.029 401.237 143.748C402.522 142.492 403.963 141.464 405.479 140.664C406.99 139.846 408.614 139.374 410.2 139.046C410.601 138.985 411 138.925 411.396 138.864C411.792 138.806 412.191 138.814 412.584 138.785C413.372 138.709 414.147 138.801 414.91 138.827C417.955 139.111 420.672 140.204 422.84 141.625C425.005 143.074 426.606 144.864 427.734 146.591C428.881 148.319 429.515 150.013 429.896 151.416C429.989 151.768 430.077 152.101 430.16 152.415C430.212 152.734 430.26 153.032 430.305 153.31C430.351 153.586 430.392 153.843 430.431 154.078C430.456 154.314 430.462 154.53 430.477 154.721C430.503 155.09 430.523 155.38 430.539 155.596C430.552 155.794 430.564 155.895 430.571 155.896Z" fill="#263238"/>
<path d="M407.929 152.001L408.205 153.127L411.706 153.657C413.035 152.787 414.816 153.159 415.686 154.488C416.151 155.198 416.261 156.037 416.06 156.798L416.334 156.756L418.927 159.275C418.993 159.16 419.056 159.044 419.115 158.926L420.735 158.898L421.283 156.274L419.809 155.601C419.778 155.024 419.671 154.447 419.484 153.884L420.61 152.72L419.141 150.477L417.624 151.043C417.183 150.648 416.697 150.319 416.18 150.059L416.152 148.439L413.529 147.892L412.856 149.366C412.278 149.396 411.701 149.504 411.138 149.69L409.974 148.565L407.732 150.033L408.297 151.55C408.167 151.696 408.045 151.846 407.929 152.001Z" fill="#263238"/>
<path d="M410.129 162.278L410.157 163.898L412.781 164.446L413.454 162.973C414.031 162.942 414.609 162.835 415.171 162.648L416.335 163.773L418.578 162.305L418.012 160.788C418.179 160.602 418.237 160.527 418.38 160.326L415.978 157.897L415.717 157.967C415.507 158.506 415.258 158.545 414.737 158.886C413.408 159.756 411.626 159.384 410.756 158.055C409.974 156.861 409.939 155.568 410.958 154.633L407.638 154.185L407.194 153.412C407.107 153.557 407.269 153.262 407.194 153.412L405.574 153.44L405.027 156.064L406.5 156.737C406.532 157.314 406.638 157.892 406.825 158.454L405.7 159.619L407.168 161.861L408.685 161.295C409.126 161.69 409.612 162.019 410.129 162.278Z" fill="#263238"/>
<path d="M331.483 462.291L333.827 476.567H341.762V460.993L331.483 462.291Z" fill="#D68981"/>
<path d="M331.483 472.818V479.596H366.468C366.468 479.596 364.845 474.26 360.517 473.539C356.189 472.818 350.418 474.837 347.894 472.818C345.369 470.799 343.746 467.338 343.746 467.338C343.746 467.338 335.811 472.385 331.483 472.818Z" fill="#1D1D1B"/>
<path d="M399.313 462.291L401.658 476.567H409.592V460.993L399.313 462.291Z" fill="#D68981"/>
<path d="M334.337 302.516L371.411 301H385.796C385.796 301 387.425 312.712 392.314 323.529C397.202 334.347 413.958 464.225 413.958 464.225L398.846 470L356.196 340.627H353.145L351.458 466.535L321.607 464.225C321.607 464.225 321.944 344.38 321.607 336.295C321.271 328.21 317.687 313.417 331.791 301L334.337 302.516Z" fill="#595955"/>
<path d="M368.958 340H354.958L374.958 397L368.958 340Z" fill="#1D1D1B"/>
<path d="M339.951 460H337.958C338.048 458.985 346.888 359.689 347.57 351.465C348.206 343.796 348.591 340 355.958 340L355.817 341.768C350.996 341.768 350.431 343.008 349.72 351.573C349.039 359.801 340.041 458.987 339.951 460Z" fill="#1D1D1B"/>
<path d="M404.941 462.942L380.42 364.464L382.543 364.224L407.065 462.702L404.941 462.942Z" fill="#1D1D1B"/>
<path d="M362.62 300.519H360.456V339.576H362.62V300.519Z" fill="#1D1D1B"/>
<path d="M399.313 472.818V479.596H434.298C434.298 479.596 432.675 474.26 428.347 473.539C424.019 472.818 418.248 474.837 415.724 472.818C413.199 470.799 411.576 467.338 411.576 467.338C411.576 467.338 403.641 472.385 399.313 472.818Z" fill="#1D1D1B"/>
<path d="M367.592 191.087C367.619 191.166 367.301 191.379 366.7 191.469C366.109 191.561 365.222 191.482 364.402 190.999C363.583 190.516 363.083 189.779 362.877 189.217C362.664 188.648 362.696 188.266 362.778 188.252C362.954 188.192 363.338 189.609 364.738 190.429C366.133 191.254 367.559 190.904 367.592 191.087Z" fill="#0E1C42"/>
<path d="M393.267 244.553L395.481 265.386L426.322 273.351C426.322 273.351 427.233 284.212 426.322 284.467C425.411 284.722 387.921 285.073 384.56 279.878C381.199 274.683 384.127 280.826 383.725 279.878C383.323 278.93 377.592 248.04 377.592 248.04L393.267 244.553Z" fill="#FFC7AB"/>
<path d="M417.008 283.404C417.008 283.404 425.529 284.413 427.521 284.465C429.513 284.517 435.144 283.098 435.144 283.098C435.144 283.098 444.343 284.86 444.817 284.373C445.291 283.886 445.917 283.334 445.351 282.929C444.786 282.524 437.762 280.234 437.762 280.234L442.569 280.168C442.569 280.168 449.468 282.081 449.997 281.892C450.526 281.704 451.244 280.862 450.844 280.172C450.444 279.482 450.444 279.482 450.444 279.482C450.444 279.482 450.969 278.185 449.824 277.595L449.176 277.333L449.36 276.754C449.36 276.754 449.667 275.406 448.323 274.453C446.979 273.5 444.156 271.401 444.156 271.401L435.302 270.03L418.296 272.56" fill="#FFBE9D"/>
<path d="M418.333 280.282C418.374 280.247 418.644 280.675 419.364 281.167C420.071 281.659 421.281 282.158 422.836 282.161C424.39 282.185 426.192 281.61 428.096 280.776C430.003 279.976 432.133 278.869 434.651 278.737C435.279 278.696 435.897 278.807 436.4 278.71C436.895 278.657 437.28 278.189 437.211 277.821C437.148 277.455 436.558 277.339 436.028 277.214C435.496 277.084 434.975 276.956 434.465 276.831C432.459 276.329 430.636 275.872 429.065 275.479C427.608 275.096 426.39 274.775 425.435 274.524C424.581 274.287 424.112 274.14 424.121 274.105C424.129 274.07 424.614 274.151 425.483 274.327C426.448 274.536 427.679 274.802 429.152 275.121C430.73 275.483 432.562 275.902 434.578 276.364C435.089 276.484 435.612 276.606 436.145 276.731C436.41 276.798 436.68 276.842 436.981 276.956C437.268 277.061 437.623 277.305 437.71 277.711C437.844 278.515 437.157 279.122 436.501 279.219C435.837 279.336 435.254 279.213 434.675 279.258C432.313 279.376 430.216 280.431 428.283 281.219C426.353 282.035 424.468 282.604 422.829 282.53C421.198 282.479 419.945 281.897 419.245 281.331C418.885 281.055 418.661 280.78 418.515 280.595C418.38 280.399 418.318 280.293 418.333 280.282Z" fill="#FFBE9D"/>
<path d="M434.316 274.647C434.33 274.489 437.674 274.89 441.753 274.395C442.26 274.338 442.752 274.264 443.228 274.193L443.345 274.175L443.432 274.247C446.039 276.406 448.672 276.868 448.613 277.015C448.603 277.069 447.95 277.022 446.913 276.698C445.881 276.378 444.469 275.739 443.109 274.642L443.312 274.696C442.83 274.776 442.33 274.855 441.814 274.912C439.743 275.158 437.848 275.133 436.491 275.015C435.132 274.898 434.307 274.713 434.316 274.647Z" fill="#FFBE9D"/>
<path d="M442.443 277.523C442.508 277.383 444.235 278.121 446.477 278.598C448.716 279.092 450.593 279.135 450.594 279.29C450.606 279.422 448.678 279.615 446.367 279.107C444.053 278.613 442.378 277.639 442.443 277.523Z" fill="#FFBE9D"/>
<path d="M389.958 318C389.958 318 387.488 254.992 386.245 244.061C385.003 233.129 381.983 213.473 381.983 213.473L371.508 209.82L371.546 209.911C371.664 211.13 371.584 216.037 367.568 216.765C356.809 218.716 347.248 207.45 347.248 207.45L326.126 217.34L328.489 274.526L322.233 314.91L389.958 318Z" fill="#FF725E"/>
<path d="M374.132 272.786L334.09 268.463L338.316 241.91L323.873 235.956H318.703C318.703 235.956 315.811 265.094 315.137 270.524C314.424 276.273 315.159 285.798 327.471 286.346C333.507 286.615 373.208 283.682 373.208 283.682L374.132 272.786Z" fill="#FFC7AB"/>
<path d="M334.424 218.71C343.006 223.737 339.929 253.804 339.929 253.804L313.848 252.984L317.231 229.124C317.899 225.447 320.03 222.313 322.724 219.723C324.167 218.335 326.415 217.039 328.319 216.767C332.224 216.209 334.424 218.71 334.424 218.71Z" fill="#FF725E"/>
<path d="M388.875 222.12C386.152 215.776 379.074 213.509 379.074 213.509L381.85 251.521L395.708 250.49C395.708 250.49 392.339 230.19 388.875 222.12Z" fill="#FF725E"/>
<path d="M382.798 226.125C382.942 226.118 383.453 233.951 383.939 243.618C384.426 253.288 384.704 261.131 384.56 261.139C384.417 261.146 383.906 253.315 383.419 243.645C382.932 233.977 382.654 226.132 382.798 226.125Z" fill="#0E1C42"/>
<path d="M369.809 283.405C369.809 283.405 378.33 284.414 380.322 284.466C382.314 284.518 387.945 283.099 387.945 283.099C387.945 283.099 397.144 284.861 397.618 284.374C398.092 283.887 398.718 283.335 398.152 282.93C397.587 282.525 390.563 280.235 390.563 280.235L395.37 280.169C395.37 280.169 402.269 282.082 402.798 281.893C403.327 281.705 404.045 280.863 403.645 280.173C403.245 279.483 403.245 279.483 403.245 279.483C403.245 279.483 403.77 278.186 402.625 277.596L401.977 277.334L402.161 276.755C402.161 276.755 402.468 275.407 401.124 274.454C399.78 273.501 396.957 271.402 396.957 271.402L388.103 270.031L371.097 272.561" fill="#FFC7AB"/>
<path d="M371.098 272.56C371.097 272.55 371.198 272.524 371.397 272.485C371.631 272.442 371.922 272.389 372.282 272.324C373.106 272.188 374.243 272 375.68 271.763C378.674 271.296 382.908 270.636 388.073 269.83L388.103 269.825L388.135 269.83C390.808 270.234 393.798 270.686 396.994 271.169L397.05 271.177L397.099 271.212C398.096 271.939 399.126 272.689 400.181 273.458C400.701 273.867 401.254 274.17 401.785 274.711C402.28 275.263 402.542 276.024 402.408 276.809L402.407 276.815L402.402 276.829C402.345 277.009 402.282 277.208 402.219 277.409L402.073 277.098C402.274 277.179 402.498 277.269 402.722 277.359L402.732 277.363L402.744 277.369C403.089 277.543 403.434 277.878 403.55 278.308C403.673 278.737 403.632 279.159 403.485 279.577L403.469 279.353C403.632 279.652 403.786 279.855 403.958 280.238C404.105 280.65 403.969 281.078 403.771 281.386C403.563 281.701 403.297 281.96 402.917 282.123C402.822 282.155 402.638 282.168 402.564 282.156L402.298 282.128L401.797 282.042C400.481 281.781 399.18 281.444 397.86 281.103C397.001 280.872 396.147 280.643 395.303 280.417L395.376 280.426C393.747 280.448 392.144 280.469 390.569 280.489L390.645 279.988C392.384 280.56 394.082 281.13 395.732 281.712C396.563 282.016 397.352 282.271 398.181 282.663C398.294 282.721 398.407 282.8 398.502 282.932C398.598 283.063 398.641 283.256 398.611 283.411C398.549 283.723 398.382 283.895 398.242 284.07C398.095 284.238 397.943 284.385 397.8 284.531C397.591 284.697 397.471 284.662 397.355 284.685C397.236 284.696 397.131 284.694 397.022 284.694C395.334 284.613 393.775 284.326 392.253 284.087C390.738 283.833 389.289 283.568 387.907 283.3L387.997 283.297C385.269 283.927 382.795 284.516 380.508 284.626C378.24 284.522 376.33 284.247 374.741 284.076C373.196 283.879 371.972 283.724 371.087 283.611C370.697 283.553 370.383 283.507 370.133 283.47C369.918 283.434 369.808 283.411 369.81 283.4C369.811 283.39 369.923 283.392 370.141 283.407C370.393 283.428 370.709 283.455 371.102 283.488C371.989 283.573 373.217 283.691 374.767 283.84C376.348 283.975 378.294 284.218 380.505 284.29C382.7 284.156 385.198 283.542 387.894 282.892L387.939 282.881L387.984 282.889C389.363 283.144 390.813 283.398 392.324 283.64C393.831 283.868 395.421 284.145 397.026 284.213C397.122 284.213 397.224 284.214 397.311 284.204C397.397 284.206 397.499 284.16 397.453 284.192C397.6 284.041 397.746 283.896 397.874 283.749C397.997 283.607 398.115 283.44 398.128 283.331C398.145 283.246 398.099 283.17 397.934 283.084C397.226 282.755 396.373 282.47 395.564 282.18C393.919 281.606 392.22 281.041 390.484 280.473L389.019 280L390.56 279.978C392.135 279.955 393.738 279.932 395.367 279.909L395.403 279.908L395.44 279.918C396.282 280.144 397.133 280.372 397.99 280.601C399.303 280.94 400.608 281.278 401.892 281.534L402.369 281.617C402.528 281.636 402.679 281.65 402.729 281.642C402.955 281.549 403.19 281.339 403.334 281.11C403.481 280.879 403.548 280.618 403.47 280.409C403.38 280.203 403.168 279.872 403.024 279.612L402.965 279.506L403.008 279.387C403.112 279.097 403.147 278.734 403.059 278.457C402.981 278.17 402.768 277.961 402.509 277.823L402.53 277.832C402.306 277.741 402.083 277.651 401.882 277.569L401.665 277.481L401.736 277.258C401.8 277.058 401.864 276.858 401.921 276.679L401.915 276.699C402.011 276.133 401.815 275.48 401.411 275.043C401.01 274.621 400.399 274.253 399.893 273.857C398.839 273.081 397.812 272.325 396.815 271.592L396.919 271.636C393.726 271.13 390.74 270.656 388.07 270.233H388.131C382.954 270.966 378.711 271.566 375.711 271.991C374.268 272.182 373.125 272.334 372.297 272.443C371.933 272.485 371.639 272.519 371.403 272.546C371.204 272.565 371.1 272.571 371.098 272.56Z" fill="#FF9A6C"/>
<path d="M389.475 275.821C389.457 275.868 390.252 276.173 391.598 276.315C392.925 276.503 394.821 276.405 396.694 277.083C397.622 277.436 398.448 277.954 399.246 278.355C400.041 278.76 400.783 279.072 401.415 279.303C402.683 279.764 403.504 279.919 403.517 279.869C403.535 279.808 402.747 279.552 401.525 279.027C400.915 278.764 400.197 278.429 399.425 278.012C398.653 277.602 397.827 277.066 396.842 276.69C395.853 276.32 394.857 276.197 393.97 276.133C393.08 276.072 392.285 276.059 391.622 276.019C390.294 275.955 389.493 275.758 389.475 275.821Z" fill="#FF9A6C"/>
<path d="M390.408 273.366C390.39 273.418 391.111 273.668 392.314 273.735C393.508 273.823 395.161 273.753 396.76 274.602C398.379 275.401 399.839 276.169 400.913 276.677C401.985 277.194 402.663 277.488 402.691 277.437C402.719 277.386 402.091 276.999 401.052 276.414C400.008 275.836 398.577 275.03 396.938 274.221C396.114 273.818 395.23 273.557 394.428 273.495C393.627 273.42 392.916 273.444 392.324 273.438C391.14 273.448 390.424 273.307 390.408 273.366Z" fill="#FF9A6C"/>
<path d="M315.55 253.037C315.55 253.019 315.712 253.007 316.018 252.999C316.385 252.997 316.827 252.995 317.357 252.992C318.603 253.01 320.264 253.034 322.277 253.064C326.431 253.147 332.168 253.299 338.504 253.498C338.987 253.513 339.467 253.529 339.938 253.544L339.67 253.813C339.516 248.969 339.375 244.54 339.262 240.982L339.264 241.004C338.972 238.339 338.869 236.18 338.754 234.675C338.707 233.979 338.668 233.406 338.637 232.941C338.613 232.543 338.599 232.334 338.621 232.33C338.639 232.327 338.693 232.533 338.756 232.927C338.82 233.322 338.897 233.904 338.983 234.654C339.166 236.147 339.333 238.325 339.667 240.945L339.669 240.958V240.967C339.813 244.524 339.993 248.952 340.19 253.794L340.201 254.072L339.922 254.063C339.451 254.048 338.971 254.033 338.488 254.018C332.152 253.819 326.417 253.609 322.266 253.432C320.255 253.335 318.596 253.255 317.351 253.195C316.822 253.159 316.382 253.129 316.015 253.104C315.709 253.078 315.549 253.055 315.55 253.037Z" fill="#0E1C42"/>
<path d="M421.587 369.204H418.133V375.681H421.587V369.204Z" fill="#E0E0E0"/>
<path d="M425.272 371.153H421.315V373.838H425.272V371.153Z" fill="#E0E0E0"/>
<path d="M439.618 292.616H424.473V385.925H439.618V292.616Z" fill="#E0E0E0"/>
<path d="M439.618 385.926C439.618 385.926 439.606 385.756 439.601 385.441C439.597 385.107 439.591 384.647 439.584 384.049C439.576 382.81 439.564 381.017 439.549 378.709C439.531 374.058 439.506 367.339 439.474 358.978C439.445 342.255 439.406 318.968 439.361 292.618L439.619 292.876C434.766 292.877 429.665 292.878 424.479 292.879H424.474L424.734 292.619C424.679 332.564 424.63 367.447 424.605 385.928L424.474 385.797C429.325 385.829 433.093 385.854 435.671 385.871C436.944 385.884 437.922 385.895 438.602 385.902C438.922 385.908 439.169 385.912 439.356 385.915C439.526 385.917 439.614 385.921 439.618 385.926C439.622 385.93 439.542 385.934 439.38 385.939C439.199 385.942 438.959 385.947 438.649 385.952C437.975 385.959 437.007 385.97 435.747 385.983C433.152 386 429.358 386.025 424.473 386.057L424.342 386.058V385.926C424.316 367.446 424.268 332.563 424.213 292.617V292.356H424.474H424.479C429.665 292.357 434.766 292.358 439.619 292.359H439.877L439.876 292.617C439.831 319.04 439.791 342.392 439.763 359.161C439.731 367.497 439.706 374.196 439.688 378.832C439.673 381.115 439.661 382.889 439.653 384.115C439.646 384.699 439.64 385.149 439.636 385.475C439.63 385.779 439.618 385.926 439.618 385.926Z" fill="#0E1C42"/>
<path d="M505.832 283.562H303.26V292.617H505.832V283.562Z" fill="#455A64"/>
<path d="M505.832 292.617C505.832 292.617 505.823 292.431 505.818 292.063C505.814 291.686 505.809 291.137 505.801 290.398C505.792 288.904 505.778 286.651 505.759 283.562L505.831 283.634C481.31 283.657 399.859 283.733 303.269 283.823H303.259L303.519 283.563C303.519 286.665 303.519 289.751 303.519 292.618L303.259 292.358C359.618 292.4 410.222 292.438 446.749 292.466C465.026 292.499 479.779 292.526 489.976 292.545C495.071 292.561 499.024 292.574 501.718 292.582C503.055 292.59 504.077 292.596 504.777 292.6C505.469 292.605 505.832 292.617 505.832 292.617C505.832 292.617 505.494 292.629 504.815 292.635C504.123 292.639 503.112 292.645 501.79 292.653C499.11 292.661 495.177 292.674 490.109 292.69C479.927 292.709 465.195 292.735 446.943 292.769C410.367 292.796 359.694 292.834 303.26 292.877H303V292.617C303 289.75 303 286.664 303 283.562V283.302H303.26H303.27C399.86 283.392 481.311 283.468 505.832 283.491H505.904V283.563C505.885 286.671 505.872 288.938 505.862 290.441C505.855 291.173 505.849 291.717 505.845 292.089C505.841 292.449 505.832 292.617 505.832 292.617Z" fill="#0E1C42"/>
<path d="M436.014 385.927H428.078V481.581H436.014V385.927Z" fill="#E0E0E0"/>
<path d="M461.596 479.768H402.217V484.021H461.596V479.768Z" fill="#E0E0E0"/>
<path d="M467.408 230.948H411.334C409.476 230.948 407.7 231.916 407.422 233.91L399.952 279.708H370.446C369.496 279.708 368.726 280.544 368.726 281.574C368.726 282.605 369.496 283.44 370.446 283.44H399.436H404.939H464.684L471.125 235.636C471.469 233.169 469.708 230.948 467.408 230.948Z" fill="#E0E0E0"/>
<path d="M467.408 230.948C467.405 230.969 467.748 230.93 468.371 231.103C468.976 231.278 469.904 231.75 470.547 232.846C470.858 233.386 471.105 234.066 471.125 234.84C471.147 235.227 471.087 235.627 471.031 236.048C470.973 236.469 470.913 236.907 470.851 237.363C470.602 239.187 470.314 241.288 469.991 243.65C468.707 253.104 466.857 266.729 464.59 283.427L464.684 283.345C440.06 283.338 408.225 283.328 373.574 283.318C372.741 283.318 371.909 283.318 371.079 283.318H370.457C370.264 283.317 370.074 283.281 369.896 283.21C369.541 283.068 369.24 282.789 369.063 282.446C368.693 281.764 368.811 280.842 369.36 280.297C369.626 280.021 369.994 279.849 370.373 279.834L371.596 279.83C374.869 279.83 378.109 279.829 381.308 279.829C387.706 279.828 393.94 279.827 399.951 279.826H400.051L400.067 279.727C402.567 264.361 404.9 250.024 406.993 237.162C407.124 236.358 407.253 235.56 407.382 234.768C407.448 234.375 407.505 233.97 407.582 233.594C407.675 233.218 407.831 232.862 408.05 232.548C408.486 231.915 409.164 231.48 409.891 231.261C410.255 231.148 410.631 231.082 411.009 231.056C411.384 231.038 411.775 231.048 412.156 231.045C415.22 231.043 418.183 231.041 421.039 231.039C426.75 231.034 432.032 231.029 436.828 231.025C446.416 231.01 454.06 230.999 459.31 230.99C461.931 230.982 463.954 230.975 465.326 230.97C466.008 230.965 466.527 230.962 466.879 230.96C467.23 230.955 467.408 230.948 467.408 230.948C467.408 230.948 467.23 230.941 466.881 230.938C466.528 230.936 466.009 230.932 465.328 230.928C463.956 230.923 461.933 230.917 459.312 230.908C454.062 230.9 446.418 230.888 436.83 230.873C432.034 230.869 426.753 230.864 421.041 230.859C418.185 230.857 415.222 230.855 412.158 230.853C411.773 230.856 411.395 230.845 410.999 230.863C410.607 230.89 410.215 230.958 409.835 231.075C409.077 231.303 408.357 231.76 407.891 232.435C407.657 232.769 407.49 233.15 407.391 233.548C407.308 233.952 407.254 234.341 407.186 234.738C407.056 235.53 406.926 236.328 406.794 237.132C404.691 249.992 402.348 264.327 399.836 279.69L399.952 279.591C393.941 279.59 387.707 279.589 381.309 279.588C378.11 279.588 374.87 279.587 371.597 279.587L370.362 279.591C369.919 279.608 369.492 279.811 369.187 280.126C368.56 280.752 368.429 281.784 368.848 282.56C369.05 282.95 369.393 283.271 369.806 283.437C370.012 283.52 370.236 283.562 370.457 283.563H371.079C371.909 283.563 372.74 283.563 373.574 283.563C408.225 283.553 440.061 283.543 464.684 283.536H464.767L464.778 283.454C467.011 266.752 468.833 253.123 470.097 243.666C470.411 241.303 470.69 239.2 470.932 237.375C470.992 236.919 471.05 236.48 471.106 236.059C471.16 235.64 471.219 235.229 471.195 234.838C471.17 234.052 470.915 233.363 470.596 232.818C469.937 231.712 468.993 231.243 468.38 231.076C468.067 230.991 467.82 230.958 467.656 230.956C467.491 230.948 467.408 230.948 467.408 230.948Z" fill="#0E1C42"/>
<path d="M433.385 258.424C433.385 260.573 435.127 262.315 437.276 262.315C439.425 262.315 441.167 260.573 441.167 258.424C441.167 256.275 439.425 254.533 437.276 254.533C435.127 254.533 433.385 256.275 433.385 258.424Z" fill="white"/>
<path d="M402.812 282.979C402.9 282.994 404.878 271.46 407.23 257.222C409.582 242.979 411.418 231.424 411.33 231.41C411.242 231.396 409.265 242.926 406.912 257.17C404.56 271.408 402.724 282.964 402.812 282.979Z" fill="#0E1C42"/>
<path d="M353.364 168.184C361.099 157.855 369.252 159.314 374.91 161.81C380.568 164.306 384.368 170.595 383.992 176.841C383.893 178.491 383.545 180.228 384.206 181.739C385.271 184.169 388.367 184.852 390.159 186.792C392.61 189.444 392.067 193.641 391.239 197.178C390.411 200.715 389.54 204.752 391.59 207.733C393.468 210.464 397.049 211.196 400.002 212.65C403.904 214.571 407.041 218.156 408.174 222.403C409.307 226.649 408.309 231.486 405.376 234.727C402.505 237.899 398.193 239.305 393.994 239.933C381.772 241.759 400.459 225.5 377.458 219C361.383 214.457 351.331 208.218 351.957 195.705" fill="#263238"/>
<path d="M374.837 162.251C374.833 162.314 373.758 162.15 372.051 162.409C370.337 162.634 368.073 163.407 365.574 164.285C363.07 165.16 360.66 165.647 358.9 165.533C358.024 165.488 357.323 165.346 356.857 165.197C356.391 165.051 356.146 164.933 356.152 164.918C356.169 164.85 357.181 165.287 358.906 165.312C360.63 165.366 362.982 164.858 365.472 163.988C367.963 163.114 370.272 162.362 372.022 162.189C372.891 162.09 373.602 162.091 374.089 162.135C374.575 162.177 374.839 162.233 374.837 162.251Z" fill="#455A64"/>
<path d="M333.286 219.058C333 220.072 333.8 221.026 334.325 221.939C335.337 223.699 335.392 225.825 335.483 227.853C335.65 231.565 336.029 235.303 337.187 238.833C338.344 242.364 340.332 245.701 343.266 247.981C346.2 250.26 350.148 251.37 353.744 250.433C357.339 249.495 360.379 246.314 360.67 242.609C360.959 238.938 358.744 235.607 357.467 232.153C356.482 229.488 356.044 226.659 355.476 223.876C354.909 221.092 354.187 218.288 352.711 215.861C351.234 213.434 348.893 211.403 346.099 210.892C343.304 210.382 340.111 211.704 338.98 214.31" fill="#BA4049"/>
<path d="M347.162 170.263L347.169 173.13L346.96 216.049C346.936 221.031 352.5 223.018 358.458 223C363.458 224 368.643 220.891 368.76 215.858C368.883 210.576 369.121 205.017 369.121 205.017C369.121 205.017 376.743 204.007 378.494 195.154C379.364 190.751 379.26 183.507 378.961 177.582C378.692 172.249 373.524 168.19 367.586 168.657L347.162 170.263Z" fill="#FFBE9D"/>
<path d="M376.63 182.982C376.642 183.584 376.083 184.089 375.381 184.112C374.681 184.134 374.102 183.666 374.091 183.064C374.079 182.463 374.638 181.957 375.338 181.934C376.04 181.912 376.618 182.381 376.63 182.982Z" fill="#263238"/>
<path d="M377.13 181.321C376.969 181.467 376.018 180.813 374.65 180.795C373.283 180.759 372.267 181.373 372.122 181.221C372.05 181.153 372.216 180.887 372.659 180.609C373.094 180.332 373.834 180.068 374.687 180.085C375.539 180.103 376.25 180.395 376.657 180.689C377.071 180.985 377.209 181.256 377.13 181.321Z" fill="#263238"/>
<path d="M363.674 182.773C363.686 183.375 363.126 183.88 362.425 183.903C361.725 183.926 361.146 183.457 361.135 182.855C361.123 182.254 361.682 181.748 362.382 181.725C363.084 181.702 363.662 182.172 363.674 182.773Z" fill="#263238"/>
<path d="M363.682 181.331C363.521 181.477 362.569 180.823 361.202 180.805C359.836 180.769 358.819 181.383 358.673 181.231C358.602 181.163 358.766 180.898 359.211 180.62C359.647 180.343 360.387 180.079 361.238 180.095C362.091 180.113 362.802 180.405 363.209 180.7C363.622 180.995 363.76 181.266 363.682 181.331Z" fill="#263238"/>
<path d="M368.464 190.496C368.459 190.427 369.312 190.309 370.694 190.173C371.044 190.147 371.376 190.089 371.439 189.876C371.526 189.652 371.386 189.312 371.224 188.945C370.911 188.183 370.582 187.384 370.238 186.546C368.87 183.131 367.887 180.325 368.041 180.277C368.195 180.229 369.429 182.958 370.797 186.373C371.125 187.215 371.44 188.018 371.739 188.786C371.864 189.143 372.084 189.55 371.896 190.017C371.797 190.249 371.537 190.414 371.312 190.465C371.087 190.523 370.89 190.523 370.717 190.529C369.328 190.574 368.468 190.566 368.464 190.496Z" fill="#263238"/>
<path d="M369.124 205.014C369.124 205.014 362.445 205.293 355.907 201.631C355.907 201.631 359.008 207.782 368.948 207.109L369.124 205.014Z" fill="#EB996E"/>
<path d="M367.827 193.449C367.347 192.859 366.491 192.525 365.633 192.594C365.038 192.642 364.433 192.889 364.063 193.316C363.694 193.743 363.606 194.357 363.926 194.775C364.286 195.245 365.056 195.365 365.712 195.209C366.369 195.053 366.938 194.677 367.479 194.302C367.629 194.198 367.782 194.09 367.877 193.946C367.972 193.802 367.996 193.612 367.884 193.49" fill="#EB996E"/>
<path d="M364.423 191.288C364.646 191.28 364.623 192.61 365.875 193.575C367.126 194.542 368.712 194.418 368.72 194.604C368.739 194.687 368.362 194.857 367.693 194.862C367.037 194.872 366.084 194.668 365.317 194.078C364.553 193.487 364.235 192.709 364.195 192.163C364.149 191.606 364.322 191.279 364.423 191.288Z" fill="#263238"/>
<path d="M364.128 176.534C363.986 176.865 362.623 176.685 361.014 176.833C359.402 176.952 358.099 177.352 357.892 177.05C357.8 176.905 358.031 176.596 358.561 176.281C359.086 175.967 359.921 175.674 360.886 175.593C361.852 175.515 362.731 175.666 363.312 175.888C363.897 176.109 364.188 176.376 364.128 176.534Z" fill="#263238"/>
<path d="M376.702 177.761C376.456 178.036 375.519 177.732 374.386 177.7C373.254 177.633 372.289 177.854 372.073 177.56C371.979 177.417 372.136 177.14 372.561 176.884C372.979 176.628 373.675 176.424 374.454 176.458C375.232 176.492 375.902 176.755 376.29 177.046C376.685 177.339 376.811 177.628 376.702 177.761Z" fill="#263238"/>
<path d="M359.601 167.188C362.284 170.684 359.576 175.697 356.555 178.906C353.535 182.115 349.852 185.843 350.728 190.162C351.742 195.169 358.636 198.316 357.665 203.332C357.311 205.163 355.885 206.735 355.897 208.6C355.918 211.966 360.289 213.559 361.573 216.671C363.333 220.935 358.651 225.251 358.624 229.863C358.609 232.483 360.116 234.911 360.222 237.528C360.437 242.891 354.131 246.879 348.917 245.611C343.702 244.342 340.089 239.301 338.904 234.066C337.72 228.832 338.503 223.377 339.291 218.069C338.794 220.334 335.363 220.789 333.668 219.205C331.973 217.621 331.746 215.002 332.102 212.711C332.994 206.965 336.717 202.071 338.457 196.523C339.978 191.674 339.938 186.496 340.574 181.454C341.211 176.412 342.72 171.148 346.533 167.789C350.347 164.429 356.999 163.955 360.149 167.943" fill="#263238"/>
<path d="M346.009 243.697C346.005 243.694 346.046 243.627 346.132 243.499C346.226 243.36 346.352 243.172 346.512 242.935C346.822 242.425 347.27 241.66 347.666 240.596C348.056 239.536 348.405 238.175 348.465 236.568C348.513 234.969 348.302 233.104 347.489 231.251C346.698 229.384 345.309 227.623 343.841 225.736C343.112 224.786 342.359 223.793 341.713 222.678C341.071 221.562 340.57 220.314 340.306 218.973C340.065 217.637 340.07 216.169 340.641 214.825C340.929 214.162 341.349 213.545 341.867 213.024C342.386 212.504 342.974 212.06 343.567 211.629C344.743 210.777 346.008 209.914 346.66 208.577C347.319 207.251 347.303 205.66 346.934 204.187C346.214 201.164 344.116 198.831 342.774 196.21C342.094 194.904 341.589 193.491 341.525 192.05C341.438 190.611 341.777 189.211 342.306 187.959C343.397 185.445 345.197 183.503 346.973 181.905C348.758 180.3 350.522 178.933 351.972 177.511C353.433 176.104 354.569 174.642 355.274 173.195C355.997 171.759 356.328 170.387 356.402 169.261C356.484 168.131 356.314 167.251 356.143 166.683C355.977 166.111 355.836 165.826 355.856 165.817C355.856 165.817 356.016 166.093 356.204 166.664C356.395 167.232 356.588 168.12 356.523 169.268C356.468 170.411 356.149 171.808 355.431 173.272C354.732 174.747 353.589 176.243 352.127 177.669C350.676 179.112 348.915 180.494 347.148 182.098C345.391 183.692 343.629 185.614 342.572 188.073C342.06 189.295 341.738 190.65 341.824 192.034C341.889 193.42 342.376 194.785 343.047 196.069C343.717 197.359 344.558 198.59 345.352 199.883C346.156 201.17 346.858 202.58 347.238 204.112C347.619 205.628 347.643 207.301 346.939 208.715C346.237 210.146 344.914 211.032 343.747 211.878C343.155 212.306 342.581 212.74 342.083 213.238C341.586 213.737 341.192 214.316 340.916 214.944C340.372 216.214 340.36 217.623 340.59 218.921C340.843 220.224 341.327 221.447 341.952 222.542C342.581 223.638 343.324 224.628 344.047 225.579C345.503 227.469 346.899 229.258 347.692 231.165C348.509 233.06 348.705 234.957 348.64 236.576C348.563 238.205 348.191 239.577 347.78 240.641C347.362 241.708 346.894 242.469 346.565 242.97C346.394 243.218 346.25 243.396 346.158 243.519C346.063 243.64 346.013 243.701 346.009 243.697Z" fill="#455A64"/>
</g>
<defs>
<clipPath id="clip0_837_5002">
<rect width="500" height="500" fill="white"/>
</clipPath>
</defs>
</svg>
