<?xml version="1.0" encoding="utf-8"?>
<!-- Generator: Adobe Illustrator 27.5.0, SVG Export Plug-In . SVG Version: 6.00 Build 0)  -->
<svg version="1.1" xmlns="http://www.w3.org/2000/svg" xmlns:xlink="http://www.w3.org/1999/xlink" x="0px" y="0px"
	 viewBox="0 0 500 500" style="enable-background:new 0 0 500 500;" xml:space="preserve">
<g id="Background_Complete">
	<g>
		<g>
			<g>
				<polygon style="fill:#F5F5F5;" points="424.6,312.419 109.536,60.667 129.049,36.41 444.113,288.162 				"/>
			</g>
		</g>
		<g>
			<g>
				<polygon style="fill:#F5F5F5;" points="430.128,296.889 447.015,275.897 450.132,295.692 453.248,315.488 433.245,316.684 
					413.242,317.88 				"/>
			</g>
		</g>
	</g>
	<g>
		<g>
			<g>
				
					<rect x="206.389" y="73.849" transform="matrix(0.7792 0.6268 -0.6268 0.7792 110.9799 -139.7326)" style="fill:#F5F5F5;" width="94.832" height="27.585"/>
			</g>
		</g>
		<g>
			<g>
				<polygon style="fill:#F5F5F5;" points="287.004,114.348 301.966,95.748 304.728,113.288 307.49,130.828 289.766,131.888 
					272.041,132.948 				"/>
			</g>
		</g>
	</g>
	<g>
		<g>
			<path style="fill:#E0E0E0;" d="M120.732,277.192c12.546-12.93,26.602-19.997,44.55-21.559
				c-4.238-6.605-11.771-19.479-16.009-26.083c-22.556,0.12-40.082,12.842-51.937,31.798
				C105.674,267.356,112.395,271.184,120.732,277.192z"/>
		</g>
	</g>
	<g>
		<g>
			<path style="fill:#E0E0E0;" d="M44.229,152.335c12.546-12.93,26.602-19.997,44.55-21.559
				c-4.239-6.605-11.771-19.479-16.009-26.083c-22.556,0.12-40.081,12.842-51.937,31.798
				C29.171,142.499,35.892,146.327,44.229,152.335z"/>
		</g>
	</g>
	<g>
		<g>
			<path style="fill:#E0E0E0;" d="M299.528,383.763c12.546-12.93,26.602-19.997,44.551-21.559
				c-4.238-6.605-11.771-19.478-16.009-26.083c-22.556,0.12-40.081,12.841-51.937,31.798
				C284.47,373.926,291.191,377.755,299.528,383.763z"/>
		</g>
	</g>
	<g>
		<g>
			<path style="fill:#E0E0E0;" d="M24.744,310.06c0.977,7.835,6.997,14.303,13.984,17.979c6.988,3.677,14.919,5.047,22.685,6.473
				c7.766,1.426,15.69,3.023,22.469,7.072l13.455-37.426c0,0-16.596-7.681-33.771-6.999c-13.898,0.552-24.932-17.86-24.932-17.86
				L24.744,310.06z"/>
		</g>
	</g>
</g>
<g id="Background_Simple" style="display:none;">
	<g style="display:inline;">
		<path style="fill:#F5F5F5;" d="M401.633,123.438l-1.991-3.28c-16.781-27.653-47.121-44.322-79.108-42.3
			c-4.112,0.26-8.206,0.817-12.246,1.681c-29.084,6.226-54.39,28.219-64.879,56.386c-6.169,16.566-7.892,35.639-19.599,48.788
			c-15.236,17.113-41.102,17.65-63.844,16.941s-48.626-0.104-63.787,17.076c-9.495,10.76-12.513,26.061-11.748,40.47
			c2.027,38.15,28.61,72.261,62.417,89.216c33.807,16.955,73.611,18.474,110.611,11.015
			c51.832-10.448,101.124-39.142,130.753-83.461C417.84,231.652,425.338,171.272,401.633,123.438z"/>
	</g>
</g>
<g id="Floor">
	<g>
		<g>
			<path style="fill:#263238;" d="M479.166,470.273c0,0.144-102.609,0.26-229.155,0.26c-126.59,0-229.177-0.117-229.177-0.26
				c0-0.144,102.587-0.26,229.177-0.26C376.557,470.013,479.166,470.129,479.166,470.273z"/>
		</g>
	</g>
</g>
<g id="Bars">
	<g>
		<g>
			<rect x="250.677" y="274.662" style="fill:#FF725E;" width="61.431" height="195.611"/>
		</g>
		<g style="opacity:0.3;">
			<rect x="293.065" y="274.662" width="19.043" height="195.611"/>
		</g>
		<g>
			<g>
				<path style="fill:#263238;" d="M293.065,470.273c-0.144,0-0.26-43.298-0.26-96.697c0-53.417,0.117-96.706,0.26-96.706
					c0.144,0,0.26,43.289,0.26,96.706C293.325,426.975,293.208,470.273,293.065,470.273z"/>
			</g>
		</g>
	</g>
	<g>
		<g>
			<rect x="160.84" y="180.256" style="fill:#FF725E;" width="61.431" height="290.22"/>
		</g>
		<g style="opacity:0.3;">
			<rect x="203.228" y="180.256" width="19.043" height="290.22"/>
		</g>
		<g>
			<g>
				<path style="fill:#263238;" d="M203.228,470.476c-0.144,0-0.26-64.24-0.26-143.465c0-79.253,0.117-143.479,0.26-143.479
					c0.144,0,0.26,64.226,0.26,143.479C203.488,406.236,203.372,470.476,203.228,470.476z"/>
			</g>
		</g>
	</g>
	<g>
		<g>
			<rect x="349.66" y="387.854" style="fill:#FF725E;" width="61.431" height="82.386"/>
		</g>
		<g style="opacity:0.3;">
			<rect x="392.049" y="387.854" width="19.043" height="82.386"/>
		</g>
		<g>
			<g>
				<path style="fill:#263238;" d="M392.049,470.241c-0.144,0-0.26-18.236-0.26-40.726c0-22.498,0.117-40.73,0.26-40.73
					c0.144,0,0.26,18.232,0.26,40.73C392.309,452.004,392.192,470.241,392.049,470.241z"/>
			</g>
		</g>
	</g>
	<g>
		<g>
			<rect x="64.205" y="95.748" style="fill:#FF725E;" width="61.431" height="374.294"/>
		</g>
		<g style="opacity:0.3;">
			<rect x="106.593" y="95.748" width="19.043" height="374.294"/>
		</g>
		<g>
			<g>
				<path style="fill:#263238;" d="M106.593,471.564c-0.144,0-0.26-83.19-0.26-185.786c0-102.632,0.117-185.804,0.26-185.804
					s0.26,83.172,0.26,185.804C106.853,388.374,106.737,471.564,106.593,471.564z"/>
			</g>
		</g>
	</g>
</g>
<g id="Sheets">
	<g>
		<g>
			<g>
				<g>
					<path style="fill:#E0E0E0;" d="M148.805,407.584c12.546-12.93,26.602-19.997,44.55-21.559
						c-4.238-6.605-11.771-19.478-16.009-26.083c-22.556,0.12-40.081,12.841-51.937,31.798
						C133.747,397.747,140.468,401.576,148.805,407.584z"/>
				</g>
			</g>
			<g>
				<g>
					<g>
						<path style="fill:#263238;" d="M148.805,407.584c0.001,0.011-0.136-0.075-0.409-0.256c-0.304-0.205-0.71-0.479-1.228-0.829
							c-1.099-0.737-2.668-1.788-4.672-3.132c-4.058-2.714-10.105-6.378-17.222-11.44l-0.178-0.127l0.117-0.184
							c2.047-3.222,4.425-6.634,7.276-10.036c2.885-3.368,6.24-6.722,10.144-9.773c3.899-3.049,8.361-5.781,13.314-7.855
							c4.946-2.079,10.376-3.48,16.022-4.024c0.898-0.125,1.798-0.168,2.696-0.194c0.897-0.036,1.79-0.072,2.678-0.108l0.17-0.007
							l0.096,0.151c5.834,9.231,10.981,18.209,15.986,26.098l0.252,0.397l-0.468,0.042c-7.428,0.664-14.197,2.249-19.882,4.544
							c-5.72,2.224-10.342,5.064-13.968,7.629c-3.622,2.588-6.248,4.945-8.026,6.566c-0.86,0.816-1.532,1.453-2.014,1.911
							c-0.21,0.196-0.378,0.352-0.512,0.478C148.864,407.543,148.806,407.592,148.805,407.584s0.056-0.073,0.167-0.193
							c0.13-0.137,0.29-0.307,0.493-0.521c0.44-0.451,1.056-1.121,1.914-1.954c1.741-1.667,4.339-4.072,7.95-6.712
							c3.614-2.617,8.243-5.515,13.993-7.792c5.714-2.349,12.531-3.979,20.008-4.672l-0.216,0.439
							c-5.042-7.89-10.208-16.861-16.033-26.068l0.266,0.144c-0.879,0.036-1.763,0.072-2.65,0.108
							c-0.888,0.025-1.779,0.068-2.667,0.192c-5.584,0.538-10.951,1.919-15.845,3.968c-4.9,2.043-9.321,4.737-13.193,7.746
							c-3.877,3.011-7.217,6.325-10.098,9.657c-2.847,3.366-5.23,6.745-7.289,9.936l-0.061-0.311
							c7.064,5.095,13.076,8.82,17.095,11.602c2.02,1.375,3.564,2.48,4.606,3.236c0.488,0.367,0.871,0.655,1.157,0.87
							C148.665,407.463,148.804,407.573,148.805,407.584z"/>
					</g>
				</g>
			</g>
		</g>
		<g>
			<g>
				<g>
					<path style="fill:#263238;" d="M135.772,386.842c0.105-0.138,3.748,2.459,8.135,5.8c4.388,3.342,7.859,6.162,7.754,6.301
						c-0.105,0.138-3.747-2.458-8.135-5.8C139.139,389.801,135.667,386.98,135.772,386.842z"/>
				</g>
			</g>
		</g>
		<g>
			<g>
				<g>
					<path style="fill:#263238;" d="M140.392,380.988c0.117-0.128,3.515,2.781,7.588,6.498c4.075,3.718,7.282,6.835,7.165,6.963
						c-0.117,0.128-3.514-2.781-7.589-6.499C143.483,384.234,140.275,381.116,140.392,380.988z"/>
				</g>
			</g>
		</g>
		<g>
			<g>
				<g>
					<path style="fill:#263238;" d="M147.281,375.505c0.071-0.058,0.826,0.753,2.037,2.068c1.21,1.316,2.896,3.114,4.779,5.09
						c1.884,1.975,3.564,3.801,4.704,5.189c1.145,1.383,1.779,2.298,1.715,2.349c-0.071,0.058-0.825-0.754-2.048-2.055
						c-1.397-1.462-3.027-3.167-4.827-5.05c-1.886-1.978-3.531-3.836-4.659-5.231C147.853,376.47,147.218,375.557,147.281,375.505z"
						/>
				</g>
			</g>
		</g>
		<g>
			<g>
				<g>
					<path style="fill:#263238;" d="M166.358,388.085c-0.062,0.052-0.839-0.736-1.982-2.109c-1.141-1.374-2.631-3.346-4.142-5.612
						c-1.516-2.265-2.781-4.379-3.679-5.917c-0.895-1.54-1.419-2.51-1.346-2.557c0.171-0.111,2.563,3.6,5.547,8.125
						c1.503,2.255,2.925,4.252,3.97,5.689C165.775,387.138,166.429,388.025,166.358,388.085z"/>
				</g>
			</g>
		</g>
		<g>
			<g>
				<g>
					<path style="fill:#263238;" d="M171.781,385.811c-0.069,0.047-0.708-0.742-1.641-2.088c-0.933-1.345-2.149-3.256-3.371-5.437
						c-1.221-2.182-2.214-4.218-2.874-5.717c-0.66-1.499-0.998-2.456-0.922-2.49c0.167-0.075,1.91,3.566,4.344,7.9
						C169.739,382.318,171.932,385.707,171.781,385.811z"/>
				</g>
			</g>
		</g>
		<g>
			<g>
				<g>
					<path style="fill:#263238;" d="M179.035,383.46c-0.071,0.048-0.716-0.762-1.678-2.126c-0.962-1.364-2.235-3.288-3.561-5.463
						c-1.326-2.176-2.453-4.189-3.225-5.669c-0.772-1.48-1.196-2.424-1.121-2.465c0.078-0.042,0.638,0.825,1.508,2.246
						c0.992,1.634,2.125,3.501,3.375,5.561c1.258,2.055,2.398,3.916,3.397,5.547C178.594,382.514,179.108,383.411,179.035,383.46z"
						/>
				</g>
			</g>
		</g>
	</g>
	<g>
		<g>
			<g>
				<g>
					<path style="fill:#EBEBEB;" d="M204.228,239.054c-10.656,14.819-23.694,23.987-41.45,28.215
						c5.228,5.99,14.686,17.775,19.913,23.766c22.588-3.466,38.264-18.815,47.334-39.572
						C220.778,246.679,213.475,243.838,204.228,239.054z"/>
				</g>
			</g>
			<g>
				<g>
					<g>
						<path style="fill:#263238;" d="M204.228,239.055c-0.003-0.011,0.147,0.055,0.448,0.196c0.334,0.16,0.782,0.375,1.353,0.649
							c1.21,0.575,2.938,1.397,5.146,2.446c4.469,2.118,11.073,4.893,18.956,8.911l0.195,0.099l-0.089,0.199
							c-1.574,3.532-3.451,7.304-5.804,11.137c-2.392,3.803-5.256,7.662-8.717,11.298c-3.456,3.634-7.522,7.034-12.177,9.846
							c-4.648,2.817-9.882,5.027-15.459,6.409c-0.881,0.258-1.777,0.435-2.673,0.594c-0.893,0.169-1.783,0.338-2.668,0.505
							l-0.168,0.032l-0.117-0.136c-7.217-8.385-13.706-16.62-19.892-23.784l-0.308-0.356l0.457-0.11
							c7.346-1.768,13.895-4.36,19.252-7.505c5.403-3.078,9.614-6.61,12.867-9.719c3.246-3.131,5.528-5.883,7.069-7.772
							c0.741-0.946,1.32-1.684,1.735-2.214c0.182-0.229,0.326-0.41,0.442-0.555C204.176,239.105,204.227,239.047,204.228,239.055
							c0.002,0.008-0.045,0.081-0.139,0.217c-0.109,0.156-0.246,0.35-0.417,0.595c-0.374,0.517-0.893,1.279-1.629,2.242
							c-1.498,1.928-3.745,4.724-6.972,7.906c-3.234,3.159-7.443,6.749-12.867,9.884c-5.378,3.201-11.968,5.845-19.358,7.649
							l0.149-0.466c6.223,7.159,12.731,15.384,19.934,23.747l-0.284-0.104c0.876-0.166,1.756-0.333,2.64-0.501
							c0.887-0.157,1.773-0.332,2.644-0.588c5.517-1.368,10.691-3.548,15.292-6.327c4.608-2.775,8.639-6.131,12.073-9.721
							c3.439-3.593,6.295-7.41,8.688-11.177c2.354-3.796,4.241-7.536,5.831-11.04l0.106,0.298
							c-7.836-4.059-14.414-6.899-18.854-9.09c-2.228-1.078-3.94-1.956-5.096-2.559c-0.544-0.296-0.971-0.527-1.289-0.7
							C204.386,239.155,204.231,239.066,204.228,239.055z"/>
					</g>
				</g>
			</g>
		</g>
		<g>
			<g>
				<g>
					<path style="fill:#263238;" d="M220.367,257.909c-0.084,0.152-4.119-1.912-9.011-4.609c-4.894-2.699-8.792-5.008-8.708-5.16
						c0.084-0.152,4.118,1.911,9.011,4.61C216.552,255.446,220.451,257.757,220.367,257.909z"/>
				</g>
			</g>
		</g>
		<g>
			<g>
				<g>
					<path style="fill:#263238;" d="M216.605,264.46c-0.097,0.144-3.933-2.27-8.567-5.39c-4.635-3.122-8.313-5.768-8.216-5.912
						c0.097-0.144,3.932,2.269,8.567,5.391C213.024,261.669,216.702,264.316,216.605,264.46z"/>
				</g>
			</g>
		</g>
		<g>
			<g>
				<g>
					<path style="fill:#263238;" d="M210.514,270.977c-0.062,0.068-0.939-0.634-2.346-1.773c-1.407-1.14-3.363-2.693-5.544-4.393
						c-2.181-1.7-4.136-3.281-5.485-4.501c-1.353-1.216-2.125-2.037-2.069-2.098c0.062-0.068,0.937,0.635,2.356,1.758
						c1.613,1.255,3.5,2.723,5.586,4.346c2.183,1.703,4.108,3.32,5.446,4.551C209.797,270.097,210.569,270.916,210.514,270.977z"/>
				</g>
			</g>
		</g>
		<g>
			<g>
				<g>
					<path style="fill:#263238;" d="M189.529,261.2c0.054-0.061,0.948,0.615,2.298,1.822c1.346,1.208,3.132,2.963,4.982,5.011
						c1.855,2.045,3.437,3.975,4.565,5.383c1.126,1.41,1.796,2.304,1.73,2.361c-0.154,0.135-3.1-3.23-6.761-7.323
						c-1.841-2.037-3.562-3.827-4.824-5.112C190.256,262.061,189.468,261.269,189.529,261.2z"/>
				</g>
			</g>
		</g>
		<g>
			<g>
				<g>
					<path style="fill:#263238;" d="M184.432,264.283c0.061-0.057,0.818,0.639,1.952,1.851c1.134,1.211,2.636,2.945,4.184,4.949
						c1.547,2.006,2.845,3.898,3.729,5.302c0.885,1.404,1.366,2.312,1.296,2.357c-0.155,0.099-2.44-3.293-5.522-7.275
						C187,267.478,184.298,264.408,184.432,264.283z"/>
				</g>
			</g>
		</g>
		<g>
			<g>
				<g>
					<path style="fill:#263238;" d="M177.511,267.715c0.063-0.057,0.829,0.658,1.995,1.884c1.166,1.225,2.727,2.965,4.378,4.947
						c1.652,1.984,3.08,3.834,4.074,5.203c0.994,1.368,1.559,2.251,1.492,2.303c-0.071,0.053-0.761-0.734-1.842-2.029
						c-1.233-1.487-2.646-3.191-4.206-5.074c-1.568-1.875-2.988-3.573-4.228-5.055C178.095,268.596,177.445,267.775,177.511,267.715
						z"/>
				</g>
			</g>
		</g>
	</g>
</g>
<g id="Speech_Bubble">
	<g>
		<g>
			<g>
				<g>
					<g>
						<g>
							<g>
								<path style="fill:#FFFFFF;" d="M372.61,140.891c1.459,6.491,0.978,11.111-1.14,17.698c-0.354,1.1,5.163,9.694,5.163,9.694
									l-10.864-1.25c-3.814,4.432-8.344,6.174-14.488,7.555c-15.195,3.415-30.281-6.134-33.696-21.329
									c-3.415-15.195,6.134-30.281,21.329-33.696S369.194,125.696,372.61,140.891z"/>
							</g>
						</g>
					</g>
				</g>
			</g>
			<g>
				<g>
					<g>
						<g>
							<g>
								<g>
									<g>
										<g>
											<g>
												<g>
													<path style="fill:#263238;" d="M338.912,119.562c-0.002-0.011-0.165,0.023-0.481,0.1
														c-0.346,0.088-0.809,0.206-1.4,0.356c-0.306,0.084-0.654,0.162-1.028,0.28c-0.369,0.139-0.77,0.29-1.203,0.454
														c-0.436,0.166-0.904,0.344-1.403,0.535c-0.48,0.24-0.99,0.496-1.53,0.766c-2.145,1.097-4.678,2.717-7.084,5.189
														c-2.411,2.442-4.758,5.687-6.344,9.735c-1.541,4.044-2.345,8.876-1.703,13.956c0.233,1.255,0.368,2.555,0.777,3.814
														c0.189,0.632,0.323,1.288,0.563,1.914c0.243,0.625,0.488,1.255,0.734,1.89c1.113,2.475,2.483,4.96,4.376,7.135
														c1.864,2.188,4.079,4.17,6.608,5.811c2.56,1.589,5.411,2.825,8.446,3.59c3.03,0.778,6.257,1.06,9.476,0.728
														c0.811-0.021,1.606-0.2,2.409-0.33c0.805-0.126,1.608-0.276,2.4-0.494c1.584-0.424,3.143-0.985,4.651-1.68
														c3.278-1.507,6.204-3.637,8.629-6.152l-0.283,0.094c3.601,0.583,7.134,1.156,10.583,1.714l0.627,0.101l-0.298-0.56
														c-1.78-3.342-3.511-6.592-5.186-9.736l0.009,0.267c1.91-4.232,2.718-8.757,2.515-13.023
														c-0.1-2.132-0.407-4.213-0.988-6.16c-0.265-0.982-0.532-1.948-0.932-2.856c-0.181-0.46-0.361-0.917-0.539-1.37
														c-0.192-0.447-0.435-0.868-0.648-1.298c-3.517-6.883-9.229-11.268-14.379-13.354c-2.584-1.07-5.037-1.702-7.209-1.952
														c-0.542-0.067-1.065-0.131-1.569-0.193c-0.506-0.014-0.991-0.027-1.457-0.04c-0.464-0.01-0.908-0.02-1.331-0.029
														c-0.422,0.013-0.822,0.059-1.2,0.085c-0.755,0.072-1.428,0.09-1.999,0.189c-0.561,0.106-1.039,0.197-1.437,0.273
														c-0.363,0.073-0.651,0.132-0.876,0.177C339.009,119.528,338.91,119.554,338.912,119.562
														c0.002,0.009,0.104,0,0.303-0.026c0.226-0.032,0.517-0.074,0.883-0.126c0.399-0.062,0.878-0.136,1.439-0.223
														c0.57-0.082,1.241-0.084,1.991-0.14c2.975-0.118,7.513,0.058,12.608,2.274c5.063,2.107,10.649,6.466,14.067,13.241
														c0.207,0.424,0.444,0.837,0.63,1.277c0.173,0.446,0.347,0.896,0.523,1.348c0.388,0.892,0.645,1.843,0.901,2.807
														c0.562,1.913,0.855,3.955,0.945,6.044c0.184,4.181-0.621,8.608-2.502,12.749l-0.061,0.136l0.07,0.132
														c1.668,3.147,3.393,6.401,5.166,9.747l0.328-0.458c-3.448-0.563-6.98-1.139-10.581-1.727l-0.166-0.027l-0.117,0.121
														c-2.373,2.458-5.233,4.539-8.437,6.011c-1.474,0.679-2.997,1.228-4.546,1.644c-0.774,0.213-1.559,0.359-2.346,0.483
														c-0.786,0.127-1.563,0.305-2.355,0.324c-3.146,0.327-6.301,0.054-9.265-0.703c-2.969-0.744-5.76-1.948-8.269-3.497
														c-2.479-1.601-4.651-3.536-6.483-5.673c-1.861-2.124-3.208-4.554-4.309-6.975c-0.244-0.621-0.486-1.238-0.727-1.85
														c-0.237-0.613-0.37-1.256-0.559-1.875c-0.408-1.234-0.543-2.509-0.779-3.74c-0.652-4.982,0.11-9.732,1.598-13.722
														c1.534-3.995,3.82-7.212,6.176-9.647c2.351-2.465,4.835-4.098,6.943-5.219c0.53-0.277,1.032-0.539,1.504-0.786
														c0.492-0.199,0.952-0.384,1.382-0.558c0.426-0.173,0.822-0.332,1.185-0.48c0.368-0.127,0.712-0.214,1.013-0.308
														c0.582-0.176,1.038-0.314,1.379-0.417C338.756,119.629,338.914,119.573,338.912,119.562z"/>
												</g>
											</g>
										</g>
									</g>
								</g>
							</g>
						</g>
					</g>
				</g>
			</g>
		</g>
	</g>
	<g>
		<g>
			<path style="fill:#263238;" d="M340.9,157.244l1.703-0.851l-0.424-5.802c-1.877-1.812-1.929-4.802-0.117-6.679
				c0.968-1.003,2.273-1.484,3.565-1.439l-0.167-0.423l3.092-5.07c-0.207-0.064-0.416-0.124-0.627-0.175l-0.634-2.585l-4.402,0.077
				l-0.542,2.606c-0.914,0.26-1.8,0.641-2.633,1.144l-2.275-1.379l-3.058,3.168l1.458,2.225c-0.473,0.85-0.823,1.749-1.051,2.671
				l-2.585,0.634l0.077,4.402l2.606,0.542c0.259,0.914,0.641,1.8,1.144,2.633l-1.379,2.275l3.168,3.058l2.225-1.458
				C340.324,156.973,340.61,157.114,340.9,157.244z"/>
		</g>
		<g>
			<path style="fill:#263238;" d="M356.565,149.981l2.585-0.634l-0.077-4.402l-2.605-0.542c-0.259-0.914-0.641-1.8-1.144-2.633
				l1.379-2.274l-3.168-3.059l-2.225,1.458c-0.359-0.2-0.499-0.266-0.874-0.422l-3.017,4.732l0.207,0.393
				c0.94,0.14,1.092,0.525,1.828,1.236c1.877,1.812,1.929,4.802,0.117,6.679c-1.629,1.687-3.687,2.213-5.555,0.921l0,0l0.489,5.482
				l-1.076,0.992c0.263,0.087-0.268-0.066,0,0l0.634,2.585l4.402-0.077l0.542-2.606c0.914-0.26,1.8-0.641,2.633-1.144l2.275,1.379
				l3.058-3.168l-1.458-2.225C355.987,151.803,356.337,150.904,356.565,149.981z"/>
		</g>
	</g>
</g>
<g id="Character_1_">
	<g>
		<g>
			<path style="fill:#263238;" d="M391.263,329.884c-2.818,0.53,23.555,52.923,23.555,52.923s4.716,23.297,5.621,34.571
				c0.905,11.274,10.86,39.156,10.86,39.156l23.687-2.169c0,0-7.883-74.457-11.505-89.004
				c-3.622-14.547-16.912-41.524-16.912-41.524l-12.745-27.274l-17.024,0.372L391.263,329.884z"/>
		</g>
		<g>
			<path style="fill:#263238;" d="M364.098,295.058c-0.604,0.475-4.826,23.146-2.849,28.444l-5.267,50.695
				c0,0-10.408,19.317-13.125,22.954c-2.716,3.637-20.335,39.112-20.335,39.112l23.31,17.073c0,0,31.155-49.743,36.712-59.093
				c8.719-14.67,19.012-69.663,19.012-69.663l1.34-27.297L364.098,295.058z"/>
		</g>
		<g>
			<g>
				<g>
					<path style="fill:#455A64;" d="M406.587,304.301c0.013,0.004-0.034,0.272-0.135,0.78c-0.114,0.546-0.269,1.284-0.464,2.214
						c-0.428,1.961-1.032,4.724-1.774,8.12c-1.515,6.852-3.613,16.315-6.056,26.731c-2.445,10.418-4.824,19.796-6.639,26.55
						c-0.908,3.376-1.659,6.103-2.199,7.979c-0.264,0.906-0.473,1.626-0.628,2.158c-0.148,0.492-0.232,0.747-0.245,0.743
						c-0.013-0.005,0.045-0.27,0.168-0.771c0.137-0.539,0.322-1.267,0.555-2.184c0.501-1.936,1.208-4.665,2.077-8.02
						c1.744-6.776,4.078-16.162,6.523-26.577c2.405-10.404,4.582-19.823,6.169-26.691c0.794-3.381,1.439-6.131,1.898-8.083
						c0.225-0.92,0.405-1.651,0.537-2.191C406.5,304.557,406.573,304.296,406.587,304.301z"/>
				</g>
			</g>
		</g>
		<g>
			<g>
				<g>
					<g>
						<g>
							<g>
								<g>
									<g>
										<g>
											<g>
												<g>
													<g>
														<g>
															<g>
																<g>
																	<path style="fill:#263238;" d="M450.076,439.035l0.176,19.565c0,0,19.946,6.393,20.331,10.005l-37.924,1.703
																		l-1.525-30.474L450.076,439.035z"/>
																</g>
															</g>
														</g>
													</g>
												</g>
											</g>
										</g>
									</g>
								</g>
							</g>
						</g>
					</g>
				</g>
				<g>
					<g>
						<g>
							<g>
								<g>
									<g>
										<g>
											<g>
												<g>
													<g>
														<g>
															<g>
																<g>
																	<g>
																		<path style="fill:#E0E0E0;" d="M438.452,457.484c-0.725,0.234-1.195,1.081-0.992,1.815
																			c0.204,0.734,1.062,1.22,1.791,0.998c0.729-0.22,1.324-1.221,1.04-1.928c-0.284-0.706-1.323-1.221-1.978-0.832"/>
																	</g>
																</g>
															</g>
														</g>
													</g>
												</g>
											</g>
										</g>
									</g>
								</g>
							</g>
						</g>
					</g>
				</g>
				<g>
					<g>
						<g>
							<g>
								<g>
									<g>
										<g>
											<g>
												<g>
													<g>
														<g>
															<g>
																<g>
																	<path style="fill:#455A64;" d="M432.659,470.309l-0.033-3.078l36.374-0.482c0,0,1.721,0.659,1.584,1.857
																		L432.659,470.309z"/>
																</g>
															</g>
														</g>
													</g>
												</g>
											</g>
										</g>
									</g>
								</g>
							</g>
						</g>
					</g>
				</g>
				<g>
					<g>
						<g>
							<g>
								<g>
									<g>
										<g>
											<g>
												<g>
													<g>
														<g>
															<g>
																<g>
																	<g>
																		<path style="fill:#FFFFFF;" d="M450.858,458.38c0.002,0.186-0.92,0.311-1.805,0.947
																			c-0.901,0.613-1.335,1.437-1.508,1.371c-0.172-0.028,0.054-1.148,1.139-1.899
																			C449.761,458.037,450.891,458.208,450.858,458.38z"/>
																	</g>
																</g>
															</g>
														</g>
													</g>
												</g>
											</g>
										</g>
									</g>
								</g>
							</g>
						</g>
					</g>
				</g>
				<g>
					<g>
						<g>
							<g>
								<g>
									<g>
										<g>
											<g>
												<g>
													<g>
														<g>
															<g>
																<g>
																	<g>
																		<path style="fill:#FFFFFF;" d="M454.91,459.846c0.05,0.177-0.737,0.529-1.331,1.34
																			c-0.617,0.794-0.738,1.648-0.923,1.648c-0.173,0.037-0.349-1.042,0.408-2.036
																			C453.812,459.797,454.898,459.67,454.91,459.846z"/>
																	</g>
																</g>
															</g>
														</g>
													</g>
												</g>
											</g>
										</g>
									</g>
								</g>
							</g>
						</g>
					</g>
				</g>
				<g>
					<g>
						<g>
							<g>
								<g>
									<g>
										<g>
											<g>
												<g>
													<g>
														<g>
															<g>
																<g>
																	<g>
																		<path style="fill:#FFFFFF;" d="M457.383,464.506c-0.167,0.047-0.466-0.867-0.036-1.902
																			c0.423-1.039,1.278-1.478,1.363-1.327c0.112,0.148-0.426,0.717-0.766,1.573
																			C457.584,463.696,457.566,464.479,457.383,464.506z"/>
																	</g>
																</g>
															</g>
														</g>
													</g>
												</g>
											</g>
										</g>
									</g>
								</g>
							</g>
						</g>
					</g>
				</g>
			</g>
		</g>
		<g>
			<g>
				<g>
					<g>
						<g>
							<g>
								<g>
									<g>
										<g>
											<g>
												<g>
													<g>
														<g>
															<g>
																<g>
																	<path style="fill:#263238;" d="M346.954,439.41L336.8,455.784c0,0,13.563,15.353,11.987,18.554l-33.083-17.657
																		l14.753-26.133L346.954,439.41z"/>
																</g>
															</g>
														</g>
													</g>
												</g>
											</g>
										</g>
									</g>
								</g>
							</g>
						</g>
					</g>
				</g>
				<g>
					<g>
						<g>
							<g>
								<g>
									<g>
										<g>
											<g>
												<g>
													<g>
														<g>
															<g>
																<g>
																	<g>
																		<path style="fill:#E0E0E0;" d="M327.373,448.919c-0.738-0.17-1.584,0.299-1.797,1.012
																			c-0.214,0.713,0.259,1.549,0.994,1.732c0.735,0.183,1.767-0.35,1.898-1.082c0.131-0.731-0.48-1.682-1.241-1.687"
																			/>
																	</g>
																</g>
															</g>
														</g>
													</g>
												</g>
											</g>
										</g>
									</g>
								</g>
							</g>
						</g>
					</g>
				</g>
				<g>
					<g>
						<g>
							<g>
								<g>
									<g>
										<g>
											<g>
												<g>
													<g>
														<g>
															<g>
																<g>
																	<path style="fill:#455A64;" d="M315.703,456.68l1.592-2.579l31.125,17.894c0,0,1.114,1.414,0.367,2.342
																		L315.703,456.68z"/>
																</g>
															</g>
														</g>
													</g>
												</g>
											</g>
										</g>
									</g>
								</g>
							</g>
						</g>
					</g>
				</g>
				<g>
					<g>
						<g>
							<g>
								<g>
									<g>
										<g>
											<g>
												<g>
													<g>
														<g>
															<g>
																<g>
																	<g>
																		<path style="fill:#FFFFFF;" d="M337.431,455.905c-0.096,0.156-0.945-0.204-2.03-0.119
																			c-1.088,0.057-1.889,0.524-2.002,0.382c-0.131-0.11,0.65-0.928,1.966-1.008
																			C336.68,455.068,337.549,455.778,337.431,455.905z"/>
																	</g>
																</g>
															</g>
														</g>
													</g>
												</g>
											</g>
										</g>
									</g>
								</g>
							</g>
						</g>
					</g>
				</g>
				<g>
					<g>
						<g>
							<g>
								<g>
									<g>
										<g>
											<g>
												<g>
													<g>
														<g>
															<g>
																<g>
																	<g>
																		<path style="fill:#FFFFFF;" d="M340.097,459.164c-0.051,0.173-0.904,0.069-1.835,0.446
																			c-0.942,0.35-1.494,1-1.651,0.907c-0.166-0.056,0.252-1.043,1.419-1.49
																			C339.192,458.57,340.18,459.011,340.097,459.164z"/>
																	</g>
																</g>
															</g>
														</g>
													</g>
												</g>
											</g>
										</g>
									</g>
								</g>
							</g>
						</g>
					</g>
				</g>
				<g>
					<g>
						<g>
							<g>
								<g>
									<g>
										<g>
											<g>
												<g>
													<g>
														<g>
															<g>
																<g>
																	<g>
																		<path style="fill:#FFFFFF;" d="M339.742,464.286c-0.166-0.045,0.061-0.956,0.971-1.601
																			c0.906-0.652,1.863-0.588,1.856-0.419c0.017,0.179-0.739,0.382-1.478,0.923
																			C340.339,463.713,339.912,464.356,339.742,464.286z"/>
																	</g>
																</g>
															</g>
														</g>
													</g>
												</g>
											</g>
										</g>
									</g>
								</g>
							</g>
						</g>
					</g>
				</g>
				<g>
					<g>
						<g>
							<g>
								<g>
									<g>
										<g>
											<g>
												<g>
													<g>
														<g>
															<g>
																<g>
																	<g>
																		<path style="fill:#FFFFFF;" d="M339.322,451.928c-0.15,0.108-0.766-0.506-1.714-0.932
																			c-0.939-0.445-1.821-0.525-1.828-0.705c-0.028-0.165,1.001-0.38,2.11,0.138
																			C339.003,450.938,339.473,451.846,339.322,451.928z"/>
																	</g>
																</g>
															</g>
														</g>
													</g>
												</g>
											</g>
										</g>
									</g>
								</g>
							</g>
						</g>
					</g>
				</g>
			</g>
		</g>
		<g>
			<path style="fill:#E0E0E0;" d="M447.669,193.404c0,0,5.15,22.228,6.114,33.795c0.267,3.204-0.918,7.471-4.695,8.025
				c-12.43,1.824-40.495-3.651-40.495-3.651l-0.879-26.619l28.21,10.692l-1.655-22.242H447.669z"/>
		</g>
		<g>
			<path style="fill:#FF9A6C;" d="M433.986,186.475c0,0-2.262-3.13-3.08-4.96c-0.819-1.83-0.583-4.755-0.583-4.755
				s-2.304-2.478-3.524-4.73c-1.221-2.252,0.999-2.732,2.059-1.756c1.127,1.038,5.86,6.747,5.86,6.747l3.088,9.291L433.986,186.475z
				"/>
		</g>
		<g>
			<g>
				<g>
					<g>
						<g>
							<g>
								<g>
									<g>
										<g>
											<g>
												<g>
													<g>
														<g>
															<g>
																<g>
																	<g>
																		<g>
																			<g>
																				<path style="fill:#263238;" d="M393.715,177.145c0.051-4.026,0.126-8.075,0.869-12.032
																					c0.743-3.957,2.192-7.854,4.732-10.978c0.385-0.473,3.335-3.526,3.891-3.275c0.397,0.18-1.81,3.212-1.723,3.64
																					c0.829,4.08-0.021,8.361-1.671,12.184C398.163,170.508,396.146,173.766,393.715,177.145"/>
																			</g>
																		</g>
																	</g>
																</g>
															</g>
														</g>
													</g>
												</g>
											</g>
										</g>
									</g>
									<g>
										<g>
											<g>
												<g>
													<g>
														<g>
															<g>
																<g>
																	<g>
																		<path style="fill:#FFBF9D;" d="M407.937,205.532c0.941-2.684,1.693-4.799,1.714-4.792c0,0,9.558,2.2,13.267-6.752
																			c1.791-4.323,4.755-13.524,7.342-21.884c2.781-8.99-1.806-18.608-10.544-22.102l-0.868-0.347
																			c-9.579-3.197-17.646,3.152-20.576,12.816l-11.327,33.475l3.867,9.936
																			C393.895,213.8,405.18,213.57,407.937,205.532L407.937,205.532z"/>
																	</g>
																</g>
															</g>
														</g>
													</g>
												</g>
											</g>
										</g>
									</g>
									<g>
										<g>
											<g>
												<g>
													<g>
														<g>
															<g>
																<g>
																	<g>
																		<g>
																			<g>
																				<g>
																					<g>
																						<path style="fill:#FF9A6C;" d="M409.651,200.74c0,0-5.804-1.936-10.328-8.148c0,0,0.239,7.685,9.54,10.466
																							L409.651,200.74z"/>
																					</g>
																				</g>
																			</g>
																		</g>
																	</g>
																</g>
															</g>
														</g>
													</g>
												</g>
											</g>
										</g>
									</g>
									<g>
										<g>
											<g>
												<g>
													<g>
														<g>
															<g>
																<g>
																	<g>
																		<g>
																			<g>
																				<g>
																					<g>
																						<g>
																							<g>
																								<g>
																									<g>
																										<g>
																											<g>
																												<path style="fill:#263238;" d="M424.335,179.045c-0.247,0.688-1.034,1.046-1.757,0.801
																													c-0.722-0.245-1.108-1-0.861-1.688c0.247-0.688,1.034-1.047,1.756-0.802
																													C424.196,177.601,424.582,178.357,424.335,179.045z"/>
																											</g>
																										</g>
																									</g>
																								</g>
																							</g>
																						</g>
																					</g>
																				</g>
																			</g>
																		</g>
																	</g>
																</g>
															</g>
														</g>
													</g>
												</g>
											</g>
										</g>
									</g>
									<g>
										<g>
											<g>
												<g>
													<g>
														<g>
															<g>
																<g>
																	<g>
																		<g>
																			<g>
																				<g>
																					<g>
																						<g>
																							<g>
																								<g>
																									<g>
																										<g>
																											<g>
																												<g>
																													<path style="fill:#263238;" d="M426.846,175.061c-0.226,0.104-0.911-1.006-2.296-1.555
																														c-1.375-0.568-2.674-0.263-2.756-0.493c-0.044-0.104,0.24-0.342,0.81-0.487
																														c0.563-0.146,1.429-0.161,2.289,0.187c0.859,0.349,1.457,0.956,1.743,1.447
																														C426.931,174.656,426.954,175.017,426.846,175.061z"/>
																												</g>
																											</g>
																										</g>
																									</g>
																								</g>
																							</g>
																						</g>
																					</g>
																				</g>
																			</g>
																		</g>
																	</g>
																</g>
															</g>
														</g>
													</g>
												</g>
											</g>
										</g>
									</g>
									<g>
										<g>
											<g>
												<g>
													<g>
														<g>
															<g>
																<g>
																	<g>
																		<g>
																			<g>
																				<g>
																					<g>
																						<g>
																							<g>
																								<g>
																									<g>
																										<g>
																											<g>
																												<path style="fill:#263238;" d="M412.395,174.865c-0.247,0.688-1.034,1.046-1.757,0.801
																													c-0.722-0.244-1.108-0.999-0.861-1.688c0.248-0.688,1.034-1.047,1.757-0.802
																													C412.256,173.42,412.642,174.177,412.395,174.865z"/>
																											</g>
																										</g>
																									</g>
																								</g>
																							</g>
																						</g>
																					</g>
																				</g>
																			</g>
																		</g>
																	</g>
																</g>
															</g>
														</g>
													</g>
												</g>
											</g>
										</g>
									</g>
									<g>
										<g>
											<g>
												<g>
													<g>
														<g>
															<g>
																<g>
																	<g>
																		<g>
																			<g>
																				<g>
																					<g>
																						<g>
																							<g>
																								<g>
																									<g>
																										<g>
																											<g>
																												<g>
																													<path style="fill:#263238;" d="M413.78,170.401c-0.227,0.104-0.913-1.006-2.296-1.555
																														c-1.374-0.568-2.673-0.263-2.756-0.492c-0.043-0.104,0.238-0.342,0.81-0.486
																														c0.563-0.147,1.429-0.161,2.289,0.186c0.859,0.349,1.457,0.956,1.744,1.447
																														C413.864,169.996,413.888,170.357,413.78,170.401z"/>
																												</g>
																											</g>
																										</g>
																									</g>
																								</g>
																							</g>
																						</g>
																					</g>
																				</g>
																			</g>
																		</g>
																	</g>
																</g>
															</g>
														</g>
													</g>
												</g>
											</g>
										</g>
									</g>
									<g>
										<g>
											<g>
												<g>
													<g>
														<g>
															<g>
																<g>
																	<g>
																		<g>
																			<g>
																				<g>
																					<g>
																						<g>
																							<g>
																								<g>
																									<g>
																										<g>
																											<g>
																												<path style="fill:#263238;" d="M413.79,182.81c0.025-0.081,0.944,0.114,2.407,0.493
																													c0.368,0.105,0.73,0.169,0.886-0.049c0.185-0.222,0.19-0.661,0.183-1.141
																													c0.009-0.987,0.02-2.021,0.031-3.106c0.081-4.408,0.29-7.974,0.468-7.969
																													c0.178,0.005,0.256,3.581,0.175,7.988c-0.029,1.083-0.055,2.117-0.082,3.104
																													c-0.027,0.454,0.021,1.002-0.371,1.459c-0.201,0.226-0.536,0.314-0.787,0.284
																													c-0.254-0.021-0.454-0.097-0.633-0.156C414.636,183.232,413.764,182.891,413.79,182.81z"/>
																											</g>
																										</g>
																									</g>
																								</g>
																							</g>
																						</g>
																					</g>
																				</g>
																			</g>
																		</g>
																	</g>
																</g>
															</g>
														</g>
													</g>
												</g>
											</g>
										</g>
									</g>
									<g>
										<g>
											<g>
												<g>
													<g>
														<g>
															<g>
																<g>
																	<g>
																		<g>
																			<g>
																				<g>
																					<g>
																						<g>
																							<g>
																								<path style="fill:#263238;" d="M409.582,164.048c0.197-0.383,1.647-0.006,3.407,0.004
																									c1.759,0.046,3.221-0.284,3.405,0.105c0.081,0.186-0.211,0.533-0.825,0.85
																									c-0.609,0.317-1.55,0.573-2.605,0.557c-1.055-0.018-1.987-0.304-2.585-0.64
																									C409.775,164.586,409.495,164.23,409.582,164.048z"/>
																							</g>
																						</g>
																					</g>
																				</g>
																			</g>
																		</g>
																	</g>
																</g>
															</g>
														</g>
													</g>
												</g>
											</g>
										</g>
									</g>
									<g>
										<g>
											<g>
												<g>
													<g>
														<g>
															<g>
																<g>
																	<g>
																		<g>
																			<g>
																				<g>
																					<g>
																						<g>
																							<g>
																								<path style="fill:#263238;" d="M425.321,165.952c0.422-0.07,0.937,0.884,1.831,1.733
																									c0.865,0.88,1.827,1.379,1.763,1.802c-0.039,0.197-0.39,0.335-0.942,0.26
																									c-0.547-0.071-1.276-0.39-1.881-0.985c-0.604-0.595-0.935-1.319-1.015-1.864
																									C424.993,166.347,425.124,165.995,425.321,165.952z"/>
																							</g>
																						</g>
																					</g>
																				</g>
																			</g>
																		</g>
																	</g>
																</g>
															</g>
														</g>
													</g>
												</g>
											</g>
										</g>
									</g>
									<g>
										<g>
											<g>
												<g>
													<g>
														<g>
															<g>
																<g>
																	<g>
																		<g>
																			<g>
																				<path style="fill:#FFBF9D;" d="M396.342,169.425c-0.127-0.128-5.45-4.301-7.714,1.928
																					c-2.263,6.229,4.457,7.217,4.533,7.042C393.237,178.221,396.342,169.425,396.342,169.425z"/>
																			</g>
																		</g>
																	</g>
																</g>
															</g>
														</g>
													</g>
												</g>
											</g>
										</g>
									</g>
									<g>
										<g>
											<g>
												<g>
													<g>
														<g>
															<g>
																<g>
																	<g>
																		<g>
																			<g>
																				<g>
																					<path style="fill:#FF9A6C;" d="M392.116,175.344c-0.02-0.03-0.136,0.036-0.35,0.054
																						c-0.208,0.017-0.537-0.038-0.817-0.278c-0.57-0.48-0.745-1.727-0.367-2.86c0.19-0.573,0.505-1.069,0.868-1.443
																						c0.356-0.387,0.766-0.598,1.119-0.536c0.357,0.044,0.52,0.327,0.532,0.53c0.02,0.204-0.065,0.314-0.035,0.337
																						c0.012,0.022,0.172-0.056,0.215-0.331c0.019-0.133,0-0.307-0.103-0.479c-0.105-0.176-0.303-0.318-0.542-0.377
																						c-0.492-0.142-1.085,0.143-1.484,0.554c-0.426,0.403-0.794,0.956-1.007,1.6
																						c-0.416,1.27-0.201,2.678,0.605,3.265c0.397,0.274,0.81,0.274,1.052,0.196
																						C392.05,175.49,392.134,175.363,392.116,175.344z"/>
																				</g>
																			</g>
																		</g>
																	</g>
																</g>
															</g>
														</g>
													</g>
												</g>
											</g>
										</g>
									</g>
									<g>
										<g>
											<g>
												<g>
													<g>
														<g>
															<g>
																<g>
																	<g>
																		<g>
																			<g>
																				<path style="fill:#263238;" d="M429.878,160.315c1.209-0.201-0.669-4.548-2.756-6.554
																					c-3.154-3.032-8.519-6.108-12.329-6.35c-4.588-0.291-8.785,0.559-12.22,3.614
																					c-3.435,3.055-5.785,7.199-7.194,11.574c-0.43,1.335-0.78,2.761-0.469,4.129
																					c0.384,1.69,1.752,3.152,1.005,5.032c-0.273,0.687-0.323,1.46-0.025,2.137c0.713,1.621,2.516,0.972,3.564,0.054
																					c2.239-1.962,3.425-4.83,4.536-7.591c0.79-1.963,1.59-3.97,1.705-6.083c0.062-1.149-0.081-2.307,0.045-3.452
																					c0.126-1.145,0.582-2.333,1.545-2.963c0.157-0.103,0.396-0.217,0.689-0.334c2.318-0.926,4.96-0.514,6.901,1.055
																					c3.079,2.488,8.431,6.472,10.423,5.832c2.865-0.92,3.801-1.849,3.801-1.849L429.878,160.315z"/>
																			</g>
																		</g>
																	</g>
																</g>
															</g>
														</g>
													</g>
												</g>
											</g>
										</g>
									</g>
								</g>
							</g>
						</g>
					</g>
				</g>
			</g>
		</g>
		<g>
			<path style="fill:#E0E0E0;" d="M412.843,245.837l-1.851-36.471l-3.48-5.543c-3.174-3.174-19.156-13.761-19.156-13.761
				l-3.628,5.668c0,0-9.069,4.988-13.377,13.604c-4.308,8.616-5.215,27.661-5.895,33.103s3.401,46.706,3.174,48.52
				c-0.227,1.814-1.269,10.242-1.269,10.242l21.219,2.298l27.401-1.54l2.431-4.688L412.843,245.837z"/>
		</g>
		<g>
			<g>
				<path style="fill:#263238;" d="M411.086,211.219c0.018,0,0.041,0.164,0.069,0.476c0.026,0.373,0.058,0.825,0.096,1.368
					c0.079,1.271,0.184,2.97,0.311,5.032c0.27,4.326,0.634,10.158,1.036,16.604c0.394,6.487,0.718,12.363,0.884,16.619
					c0.085,2.128,0.131,3.852,0.146,5.043c-0.001,0.545-0.001,0.998-0.002,1.372c-0.006,0.314-0.018,0.479-0.036,0.479
					c-0.018,0-0.041-0.164-0.069-0.476c-0.026-0.373-0.058-0.825-0.096-1.368c-0.078-1.271-0.184-2.97-0.311-5.032
					c-0.27-4.326-0.634-10.159-1.036-16.606c-0.394-6.485-0.718-12.36-0.884-16.617c-0.085-2.128-0.131-3.852-0.146-5.043
					c0.001-0.545,0.001-0.998,0.001-1.373C411.056,211.385,411.068,211.22,411.086,211.219z"/>
			</g>
		</g>
		<g style="opacity:0.3;">
			<path d="M369.975,262.397c0,0,1.541,18.529,11.037,19.168c13.242,0.891,32.578-20.791,32.578-20.791l-0.618-9.217l-29.698,17.529
				L369.975,262.397z"/>
		</g>
		<g>
			<g>
				<path style="fill:#E0E0E0;" d="M373.848,214.5c-3.854,6.882-4.661,32.235-5.394,41.327c-0.785,9.735,3.926,20.978,11.57,21.592
					c13.363,1.074,40.686-33.235,40.686-33.235l-12.117-12.612l-16.89,12.96c0,0,6.827-23.159,4.616-30.316"/>
			</g>
			<g>
				<g>
					<path style="fill:#263238;" d="M396.319,214.217c0,0,0.055,0.176,0.137,0.529c0.064,0.355,0.25,0.874,0.27,1.583
						c0.184,1.407,0.101,3.498-0.153,6.161c-0.556,5.328-2.11,12.924-4.687,22.097l-0.3-0.206
						c5.036-3.88,10.703-8.246,16.865-12.992l0.164-0.126l0.144,0.15c3.785,3.931,7.87,8.173,12.13,12.598l0.154,0.16l-0.138,0.17
						c-5.202,6.393-11.121,13.04-17.768,19.4c-4.826,4.536-9.769,8.835-15.342,11.803c-1.395,0.726-2.837,1.362-4.354,1.741
						c-1.496,0.383-3.106,0.584-4.619,0.184c-1.505-0.366-2.878-1.108-4.03-2.073c-1.111-1.004-2.099-2.121-2.856-3.365
						c-1.586-2.447-2.502-5.169-3.104-7.834c-0.581-2.678-0.779-5.355-0.617-7.923c0.344-5.093,0.664-9.838,0.957-14.172
						c0.631-8.662,1.406-15.664,2.387-20.431c0.449-2.391,1.022-4.2,1.455-5.404c0.488-1.185,0.831-1.766,0.831-1.766
						s-0.054,0.161-0.183,0.462c-0.115,0.307-0.354,0.733-0.55,1.34c-0.399,1.21-0.938,3.016-1.355,5.407
						c-0.917,4.763-1.635,11.759-2.219,20.418c-0.273,4.335-0.572,9.08-0.893,14.174c-0.151,2.526,0.053,5.164,0.633,7.798
						c0.599,2.62,1.509,5.295,3.061,7.673c0.74,1.212,1.701,2.287,2.767,3.25c1.106,0.922,2.409,1.618,3.824,1.961
						c1.421,0.376,2.933,0.185,4.382-0.187c1.462-0.366,2.874-0.99,4.245-1.705c5.484-2.926,10.414-7.208,15.218-11.728
						c6.621-6.336,12.542-12.973,17.735-19.334l0.015,0.329c-4.251-4.434-8.327-8.685-12.103-12.625l0.308,0.023
						c-6.18,4.723-11.863,9.068-16.914,12.928l-0.459,0.351l0.159-0.557c2.617-9.138,4.226-16.713,4.843-22.013
						c0.285-2.649,0.402-4.729,0.254-6.128c-0.003-0.707-0.169-1.222-0.215-1.58C396.339,214.404,396.319,214.217,396.319,214.217z"
						/>
				</g>
			</g>
		</g>
		<g>
			<g>
				<path style="fill:#FFBF9D;" d="M446.372,193.404l-5.648-20.063l-2.919-8.62l-5.364-6.269c0,0-0.888,1.291-0.542,2.599
					c0.346,1.308,1.733,3.67,1.733,3.67l-4.906-4.209c0,0-1.551,1.119-0.318,2.909c1.233,1.79,4.165,4.638,4.368,4.782
					c0.203,0.144-7.168-2.834-7.168-2.834s-0.887,1.713,2.195,3.445l3.912,2.305l0.693,1.519l-5.387-2.631c0,0-1.23,1.67,0.357,2.91
					c1.587,1.24,4.846,3.035,4.846,3.035l0.754,2.018c0,0,0.371,5.778,1.092,8.897l1.929,2.802l-0.068,3.737H446.372z"/>
			</g>
			<g>
				<g>
					<path style="fill:#FF9A6C;" d="M446.372,193.404c0.005,0.004-0.049,0.008-0.161,0.012c-0.137,0.004-0.302,0.008-0.507,0.013
						c-0.488,0.008-1.158,0.019-2.013,0.033c-1.827,0.02-4.445,0.049-7.76,0.085l-0.146,0.002l0.002-0.149
						c0.014-1.142,0.03-2.399,0.047-3.737l0.029,0.097c-0.608-0.875-1.261-1.813-1.942-2.793l-0.02-0.029l-0.007-0.033
						c-0.583-2.645-0.875-5.665-1.128-8.924l0.013,0.061c-0.234-0.62-0.495-1.312-0.76-2.015l0.1,0.115
						c-1.235-0.686-2.498-1.42-3.763-2.25c-0.315-0.21-0.631-0.424-0.94-0.658c-0.308-0.223-0.648-0.518-0.847-0.906
						c-0.436-0.799-0.217-1.76,0.26-2.466l0.111-0.164l0.187,0.091c1.702,0.828,3.525,1.715,5.391,2.622l-0.336,0.327
						c-0.216-0.471-0.454-0.993-0.695-1.518l0.101,0.112c-1.239-0.728-2.509-1.475-3.803-2.235
						c-0.655-0.381-1.331-0.812-1.859-1.436c-0.514-0.61-0.92-1.498-0.548-2.413l0.088-0.216l0.239,0.095
						c2.161,0.861,4.444,1.77,6.76,2.692l0.299,0.11l0.063,0.021l-0.054-0.005c-0.075-0.005-0.173,0.053-0.205,0.109
						c-0.042,0.029-0.085,0.217,0.005,0.309c0.097,0.094,0.033,0.03,0.049,0.047l-0.005-0.004l-0.041-0.034l-0.134-0.12
						l-0.475-0.454l-0.916-0.921c-0.6-0.621-1.187-1.248-1.744-1.899c-0.539-0.671-1.134-1.27-1.493-2.147
						c-0.161-0.436-0.183-0.942-0.039-1.396c0.155-0.455,0.418-0.831,0.801-1.133l0.158-0.124l0.16,0.138
						c1.669,1.434,3.304,2.84,4.901,4.214l-0.38,0.317c-0.583-1.025-1.128-2.041-1.552-3.123c-0.218-0.525-0.362-1.176-0.252-1.769
						c0.094-0.597,0.309-1.135,0.631-1.641l0.17-0.268l0.211,0.248c1.87,2.195,3.655,4.29,5.35,6.28l0.028,0.033l0.014,0.04
						c0.715,2.133,1.401,4.177,2.053,6.122c0.318,0.975,0.659,1.911,0.934,2.847c0.261,0.942,0.514,1.857,0.759,2.743
						c0.966,3.532,1.808,6.613,2.506,9.163c0.673,2.494,1.206,4.465,1.579,5.849c0.171,0.643,0.305,1.149,0.404,1.524
						C446.34,193.238,446.381,193.411,446.372,193.404c-0.009-0.007-0.069-0.194-0.177-0.549c-0.114-0.383-0.268-0.899-0.463-1.556
						c-0.405-1.383-0.983-3.354-1.713-5.848c-0.728-2.513-1.607-5.55-2.615-9.03c-0.249-0.871-0.507-1.77-0.771-2.695
						c-0.279-0.923-0.628-1.863-0.952-2.833c-0.663-1.939-1.359-3.976-2.086-6.103l0.042,0.073c-1.704-1.983-3.498-4.07-5.377-6.257
						l0.381-0.02c-0.544,0.87-0.8,1.969-0.315,2.961c0.406,1.028,0.952,2.045,1.524,3.044l0.723,1.261l-1.102-0.944
						c-1.6-1.37-3.238-2.773-4.909-4.204l0.317,0.013c-0.57,0.441-0.857,1.241-0.576,1.939c0.272,0.688,0.874,1.343,1.4,1.982
						c0.548,0.639,1.13,1.26,1.724,1.875l0.906,0.912l0.463,0.443l0.108,0.097l0.021,0.018l0.003,0.002l-0.04,0.06
						c-0.049,0.048,0.11-0.132,0.097-0.006c0.149,0.283-0.044,0.415-0.205,0.425c-0.108-0.01-0.06-0.01-0.094-0.015l-0.091-0.03
						l-0.312-0.115c-2.319-0.925-4.605-1.837-6.769-2.7l0.326-0.121c-0.234,0.565,0.022,1.326,0.483,1.845
						c0.461,0.548,1.081,0.953,1.719,1.324c1.294,0.764,2.564,1.514,3.803,2.246l0.068,0.04l0.033,0.072
						c0.239,0.525,0.476,1.048,0.691,1.519l0.288,0.633l-0.624-0.306c-1.863-0.913-3.684-1.806-5.383-2.639l0.298-0.073
						c-0.39,0.579-0.565,1.373-0.231,1.961c0.157,0.305,0.408,0.532,0.712,0.755c0.297,0.226,0.606,0.438,0.915,0.646
						c1.242,0.824,2.5,1.563,3.72,2.249l0.072,0.04l0.028,0.075c0.261,0.705,0.518,1.399,0.748,2.02l0.011,0.029l0.002,0.032
						c0.232,3.241,0.505,6.269,1.055,8.87l-0.027-0.062c0.672,0.986,1.316,1.93,1.916,2.811l0.03,0.045l-0.001,0.052
						c-0.032,1.338-0.062,2.595-0.09,3.736l-0.144-0.147c3.273,0.036,5.858,0.065,7.662,0.085c0.872,0.014,1.554,0.025,2.051,0.033
						c0.217,0.005,0.391,0.01,0.535,0.013C446.302,193.396,446.367,193.4,446.372,193.404z"/>
				</g>
			</g>
		</g>
		<g>
			<g>
				<path style="fill:#FF9A6C;" d="M431.881,172.378c0.003-0.069,0.421-0.105,1.019,0.154c0.293,0.127,0.636,0.341,0.936,0.646
					c0.298,0.293,0.593,0.63,0.893,0.991c1.191,1.455,2.008,2.721,1.928,2.791c-0.137,0.12-1.155-1.024-2.329-2.459
					c-0.604-0.722-1.092-1.362-1.6-1.644C432.236,172.545,431.871,172.45,431.881,172.378z"/>
			</g>
		</g>
		<g>
			<g>
				<path style="fill:#FF9A6C;" d="M432.407,168.076c0.022-0.066,0.519,0.015,1.295,0.272c0.194,0.066,0.405,0.144,0.631,0.249
					c0.222,0.07,0.506,0.338,0.648,0.553c0.326,0.442,0.635,0.941,0.951,1.472c1.252,2.127,2.087,3.942,1.964,4.009
					c-0.129,0.071-1.17-1.632-2.412-3.743c-0.312-0.525-0.609-1.029-0.894-1.459c-0.157-0.228-0.231-0.333-0.455-0.447
					c-0.196-0.111-0.391-0.206-0.57-0.291C432.842,168.351,432.383,168.146,432.407,168.076z"/>
			</g>
		</g>
		<g>
			<g>
				<path style="fill:#FF9A6C;" d="M433.633,164.72c0.042-0.054,0.515,0.206,1.184,0.77c0.324,0.278,0.732,0.662,1.025,1.18
					c0.301,0.493,0.599,1.043,0.904,1.625c1.211,2.333,2.035,4.296,1.908,4.359c-0.131,0.065-1.164-1.795-2.37-4.118
					c-0.294-0.558-0.575-1.091-0.856-1.624c-0.247-0.489-0.573-0.84-0.865-1.155C433.979,165.143,433.586,164.779,433.633,164.72z"
					/>
			</g>
		</g>
		<g>
			<path style="fill:#FFBF9D;" d="M401.898,211.786c0.419,0.132,0.762,0.435,1.003,0.803c1.076,1.636,4.774,7.21,5.128,7.005
				c0.415-0.24,4.104-5.91,5.294-5.91c1.19,0,2.521,0.946,2.661,1.803c0.14,0.857,0.84,3.659,0,4.219
				c-0.84,0.56-1.401-0.63-1.401-0.63l-0.465,2.339c0,0,2.285-1.499,3.266-1.079c0.98,0.42,1.05,1.821,0.91,2.241
				c-0.14,0.42,0.56,7.353,0.42,10.644c-0.14,3.291-1.956,6.852-1.956,6.852l-11.621-5.6l-1.066-2.904c0,0-1.324-2.83-1.464-3.32
				c-0.14-0.49-5.994-12.884-6.29-14.032c-0.237-0.921,1.026-2.126,2.146-1.006c1.12,1.12,5.144,7.203,5.144,7.203l-3.521-7.22
				C400.089,213.194,400.41,211.317,401.898,211.786z"/>
			<path style="fill:#FF9A6C;" d="M416.771,240.107l-0.021-0.011l-11.63-5.604l-0.004-0.009l-1.066-2.904
				c-0.054-0.114-1.325-2.835-1.464-3.322c-0.052-0.183-0.905-2.033-1.984-4.375c-1.739-3.773-4.121-8.94-4.306-9.657
				c-0.124-0.482,0.148-1.055,0.635-1.333c0.507-0.289,1.072-0.179,1.553,0.303c0.963,0.963,4.101,5.635,4.94,6.894l-3.361-6.89
				l0.002-0.008c0.001-0.009,0.171-0.96,0.799-1.343c0.298-0.181,0.647-0.208,1.043-0.084l0,0c0.503,0.159,0.83,0.529,1.016,0.813
				c2.816,4.28,4.79,7.002,5.079,7.002c0.007,0,0.012-0.002,0.017-0.004c0.123-0.071,0.571-0.673,1.139-1.436
				c1.326-1.783,3.332-4.478,4.168-4.478c1.16,0,2.54,0.938,2.686,1.825c0.02,0.122,0.052,0.285,0.088,0.473
				c0.223,1.146,0.636,3.281-0.099,3.771c-0.216,0.145-0.433,0.188-0.649,0.128c-0.397-0.111-0.664-0.539-0.754-0.704l-0.44,2.211
				c0.301-0.191,1.816-1.126,2.813-1.126c0.157,0,0.302,0.023,0.427,0.077c0.957,0.41,1.083,1.796,0.924,2.272
				c-0.055,0.166,0.028,1.438,0.135,3.047c0.156,2.379,0.37,5.635,0.287,7.59c-0.139,3.259-1.94,6.827-1.958,6.862L416.771,240.107z
				 M405.159,234.455l11.59,5.585c0.152-0.305,1.81-3.705,1.941-6.82c0.084-1.953-0.13-5.208-0.286-7.585
				c-0.11-1.678-0.19-2.891-0.132-3.066c0.124-0.372,0.088-1.788-0.897-2.21c-0.117-0.05-0.253-0.072-0.402-0.072
				c-1.074,0-2.82,1.136-2.84,1.149l-0.05,0.033l0.491-2.473l0.032,0.069c0.003,0.006,0.293,0.613,0.756,0.742
				c0.199,0.055,0.403,0.015,0.608-0.122c0.706-0.471,0.297-2.584,0.077-3.719c-0.036-0.189-0.068-0.352-0.088-0.475
				c-0.143-0.866-1.497-1.783-2.637-1.783c-0.812,0-2.888,2.79-4.128,4.458c-0.593,0.797-1.021,1.373-1.153,1.449
				c-0.01,0.005-0.021,0.012-0.038,0.012c-0.112,0-0.489-0.267-2.289-2.831c-1.072-1.528-2.236-3.284-2.835-4.194
				c-0.182-0.276-0.5-0.638-0.99-0.792l0,0c-0.381-0.12-0.718-0.092-1.001,0.079c-0.579,0.353-0.757,1.21-0.774,1.301l3.518,7.213
				l-0.043,0.024c-0.041-0.061-4.035-6.093-5.142-7.199c-0.464-0.464-1.007-0.572-1.492-0.295c-0.468,0.267-0.73,0.816-0.611,1.277
				c0.184,0.714,2.564,5.878,4.302,9.649c1.081,2.344,1.935,4.196,1.988,4.382c0.137,0.483,1.448,3.288,1.461,3.316L405.159,234.455
				z"/>
		</g>
		<g>
			<path style="fill:#FF725E;" d="M402.407,205.865c-2.61-1.631-25.054-10.858-25.707-11.451
				c-0.653-0.593-9.528,6.883-16.216,16.182c-6.688,9.298-32.198,59.173-34.866,74.134l4.403,3.469l-7.219,22.556l22.179,9.614
				l23.684,10.046l-0.066-38.409c-0.576-10.004-4.078-60.685-0.268-66.691c0,0,7.323-8.031,15.806-10.151
				c8.483-2.121,15.952-1.969,15.952-1.969l5.051,0.012C405.139,213.205,405.017,207.496,402.407,205.865z"/>
		</g>
		<g>
			<g>
				<path style="fill:#263238;" d="M381.012,255.827c-0.052-0.011,0.086-0.961,0.667-2.39c0.574-1.426,1.667-3.301,3.322-4.991
					c1.661-1.684,3.518-2.81,4.934-3.408c1.42-0.605,2.366-0.76,2.378-0.708c0.026,0.086-0.876,0.366-2.222,1.041
					c-1.346,0.67-3.107,1.807-4.719,3.439c-1.604,1.639-2.711,3.419-3.357,4.776C381.363,254.945,381.099,255.852,381.012,255.827z"
					/>
			</g>
		</g>
		<g>
			<g>
				<path style="fill:#263238;" d="M329.789,288.919c-0.008-0.003,0.012-0.088,0.06-0.251c0.06-0.191,0.135-0.428,0.226-0.719
					c0.223-0.668,0.53-1.586,0.918-2.749c0.812-2.382,1.997-5.825,3.53-10.056c3.047-8.466,7.43-20.115,13.114-32.627
					c2.875-6.242,5.817-12.095,8.7-17.307c2.951-5.172,5.732-9.767,8.362-13.427c0.647-0.92,1.263-1.798,1.847-2.629
					c0.622-0.799,1.21-1.554,1.761-2.262c0.549-0.703,1.062-1.359,1.535-1.964c0.474-0.602,0.961-1.108,1.371-1.585
					c0.818-0.914,1.463-1.637,1.932-2.162c0.207-0.224,0.376-0.406,0.512-0.553c0.117-0.123,0.181-0.182,0.187-0.176
					c0.007,0.006-0.044,0.078-0.148,0.212c-0.126,0.156-0.281,0.349-0.473,0.587c-0.451,0.54-1.07,1.282-1.855,2.222
					c-0.397,0.486-0.872,1-1.333,1.61c-0.462,0.613-0.962,1.276-1.498,1.986c-0.54,0.713-1.115,1.474-1.725,2.279
					c-0.573,0.836-1.178,1.718-1.812,2.643c-2.584,3.676-5.325,8.279-8.246,13.451c-2.853,5.213-5.776,11.059-8.646,17.291
					c-5.675,12.491-10.108,24.107-13.243,32.537c-1.544,4.191-2.799,7.596-3.684,9.997c-0.427,1.149-0.765,2.056-1.01,2.716
					c-0.111,0.285-0.202,0.515-0.275,0.702C329.835,288.843,329.798,288.922,329.789,288.919z"/>
			</g>
		</g>
		<g>
			<g>
				<path style="fill:#263238;" d="M365.38,266.529c-0.009,0-0.021-0.079-0.036-0.233c-0.015-0.186-0.032-0.411-0.054-0.686
					c-0.038-0.648-0.089-1.529-0.154-2.641c-0.119-2.294-0.271-5.615-0.426-9.72c-0.153-4.105-0.318-8.994-0.417-14.426
					c-0.041-2.716-0.09-5.567-0.054-8.527c0.02-1.48,0.032-2.984,0.146-4.519c0.048-0.756,0.106-1.564,0.347-2.331
					c0.138-0.384,0.283-0.765,0.49-1.102c0.19-0.349,0.374-0.706,0.602-1.029c0.949-1.494,2.034-2.846,3.12-4.153
					c1.083-1.312,2.2-2.552,3.298-3.762c2.213-2.405,4.393-4.645,6.495-6.705l0.104-0.102l0.135,0.047
					c1.15,0.403,2.253,0.77,3.323,1.267c0.066,0.031,0.137,0.07,0.212,0.121c0.022,0.007,0.105,0.075,0.154,0.16l0.017,0.03
					c0.005,0.003-0.025-0.064-0.056-0.083c-0.022-0.013-0.07-0.067-0.2-0.044c-0.123,0.059-0.088,0.064-0.101,0.065
					c-0.028,0.04-0.012,0.013-0.012,0.013c0.036-0.099,0.071-0.245,0.101-0.376c0.056-0.272,0.112-0.542,0.168-0.811
					c0.099-0.542,0.195-1.075,0.291-1.599l0.036-0.196l0.194,0.02c5.721,0.589,10.449,1.076,13.799,1.421
					c1.617,0.18,2.899,0.323,3.825,0.426c0.41,0.052,0.741,0.094,1.003,0.128c0.227,0.033,0.343,0.054,0.343,0.065
					c0,0.011-0.117,0.01-0.343-0.001c-0.262-0.017-0.593-0.039-1.004-0.066c-0.927-0.075-2.211-0.18-3.83-0.311
					c-3.358-0.301-8.099-0.727-13.834-1.241l0.23-0.176c-0.092,0.528-0.185,1.065-0.28,1.611c-0.055,0.273-0.109,0.549-0.165,0.826
					c-0.033,0.143-0.059,0.273-0.117,0.44c-0.015,0.029-0.009,0.039-0.058,0.108c-0.017,0.009,0.014,0.022-0.12,0.082
					c-0.138,0.028-0.195-0.026-0.22-0.05c-0.019-0.017-0.035-0.038-0.048-0.06l-0.016-0.033c0.076-0.031-0.179,0.046,0.168-0.073
					l-0.009,0.002c-0.025,0.006-0.049,0.014-0.073,0.025c-0.128,0.065-0.08,0.072-0.076,0.076c0.018,0.01-0.016-0.009-0.021-0.013
					c-0.043-0.028-0.096-0.059-0.16-0.088c-1.001-0.458-2.136-0.832-3.27-1.221l0.239-0.055c-2.081,2.063-4.251,4.309-6.448,6.711
					c-1.091,1.208-2.202,2.446-3.275,3.75c-1.077,1.299-2.153,2.644-3.078,4.101c-0.224,0.318-0.398,0.658-0.581,0.992
					c-0.203,0.329-0.33,0.675-0.456,1.02c-0.22,0.701-0.277,1.452-0.326,2.21c-0.114,1.508-0.129,3.014-0.152,4.487
					c-0.043,2.95-0.004,5.799,0.023,8.513c0.073,5.428,0.199,10.316,0.305,14.422c0.109,4.071,0.198,7.381,0.261,9.724
					c0.024,1.114,0.043,1.996,0.056,2.645c0.001,0.276,0.002,0.502,0.002,0.688C365.395,266.449,365.389,266.529,365.38,266.529z"/>
			</g>
		</g>
		<g>
			<g>
				<path style="fill:#263238;" d="M363.981,298.446c-0.138,0.042-3.204-9.648-6.848-21.641c-3.645-11.997-6.488-21.753-6.35-21.794
					c0.137-0.042,3.203,9.646,6.849,21.643C361.275,288.647,364.118,298.405,363.981,298.446z"/>
			</g>
		</g>
		<g>
			<g>
				<path style="fill:#263238;" d="M336.104,293.463c0.03-0.004,0.5,0.196,1.338,0.563c0.898,0.397,2.088,0.922,3.547,1.566
					c3.006,1.333,7.166,3.183,11.943,5.378l-0.307,0.078c1.245-1.682,2.58-3.488,3.961-5.354c0.198-0.267,0.395-0.533,0.587-0.79
					l0.116,0.398c-6.31-2.423-11.96-4.623-15.976-6.214l0.181-0.032c-1.616,1.363-2.946,2.441-3.885,3.206
					c-0.436,0.354-0.796,0.645-1.091,0.885C336.263,293.351,336.121,293.46,336.104,293.463c-0.017,0.003,0.091-0.103,0.312-0.309
					c0.27-0.248,0.599-0.549,0.997-0.915c0.878-0.801,2.184-1.994,3.846-3.456l0.079-0.07l0.102,0.038
					c4.051,1.503,9.723,3.646,16.034,6.064l0.32,0.123l-0.204,0.275c-0.191,0.258-0.388,0.524-0.587,0.791
					c-1.385,1.862-2.726,3.664-3.976,5.343l-0.122,0.164l-0.185-0.086c-4.882-2.272-9.084-4.29-12.024-5.708
					c-1.408-0.682-2.556-1.238-3.422-1.657C336.487,293.675,336.074,293.467,336.104,293.463z"/>
			</g>
		</g>
		<g style="opacity:0.3;">
			<g>
				<path d="M349.155,249.691c-0.891,9.114-1.467,18.44,1.144,27.217c2.612,8.777,7.537,16.993,14.678,22.725L349.155,249.691z"/>
			</g>
		</g>
		<g style="opacity:0.3;">
			<g>
				<path d="M364.667,245.084c-2.21-6.296-4.448-13.021-2.909-19.513c1.551-6.542,6.633-11.569,11.491-16.217
					c1.069-1.022,2.168-2.065,3.525-2.653c1.357-0.587,3.048-0.634,4.22,0.268c-0.011-0.968-0.021-1.937-0.032-2.905
					c5.678,0.086,11.341,1.056,16.724,2.866l-14.603-1.512l-0.61,2.875l-3.572-1.43c0,0-14.464,13.921-14.221,18.051
					C364.922,229.045,364.667,245.084,364.667,245.084z"/>
			</g>
		</g>
		<g style="opacity:0.3;">
			<polygon points="338.053,294.364 337.18,296.98 353.299,304.744 356.691,295.989 352.826,301.198 			"/>
		</g>
		<g>
			<g>
				<path style="fill:#E0E0E0;" d="M385.023,195.27c0.394,0.548,20.864,15.03,20.864,15.03l1.626-3.702l3.056,3.702"/>
			</g>
			<g>
				<g>
					<path style="fill:#263238;" d="M410.569,210.299c-0.027,0.022-0.341-0.306-0.891-0.924c-0.607-0.701-1.378-1.592-2.304-2.664
						l0.303-0.042c-0.465,1.093-0.999,2.349-1.582,3.721l-0.109,0.256l-0.23-0.162c-2.035-1.432-4.39-3.09-6.899-4.855
						c-3.889-2.767-7.386-5.305-9.892-7.179c-2.506-1.867-4.019-3.094-3.943-3.181c0.029-0.015,0.4,0.263,1.124,0.762
						c0.8,0.559,1.818,1.27,3.034,2.121c2.637,1.864,6.123,4.328,9.977,7.052c2.494,1.785,4.835,3.461,6.859,4.909l-0.339,0.094
						c0.615-1.358,1.178-2.601,1.669-3.683l0.123-0.271l0.18,0.229c0.876,1.113,1.605,2.038,2.179,2.767
						C410.333,209.907,410.596,210.277,410.569,210.299z"/>
				</g>
			</g>
		</g>
		<g>
			<g>
				<path style="fill:#263238;" d="M443.628,225.851c-0.159,0.058-0.935-2.853-3.143-5.732c-2.174-2.908-4.766-4.442-4.667-4.579
					c0.031-0.053,0.716,0.256,1.706,0.958c0.988,0.698,2.253,1.828,3.376,3.307c1.119,1.482,1.864,3.005,2.268,4.145
					C443.576,225.092,443.688,225.835,443.628,225.851z"/>
			</g>
		</g>
		<g style="opacity:0.3;">
			<g>
				<path d="M391.414,244.309c-6.044,0.502-11.61,4.782-13.648,10.494c-0.246,0.69-0.445,1.447-0.225,2.146
					c0.22,0.699,1.017,1.258,1.691,0.972c0.571-0.242,0.788-0.92,0.971-1.512c1.66-5.359,5.944-9.835,11.225-11.728"/>
			</g>
		</g>
		<g>
			<g>
				<path style="fill:#263238;" d="M414.534,188.689c-0.141,0.041-0.36-1.241-1.546-2.047c-1.185-0.808-2.458-0.54-2.472-0.686
					c-0.019-0.062,0.269-0.229,0.796-0.275c0.518-0.049,1.284,0.066,1.969,0.531c0.683,0.466,1.072,1.136,1.216,1.636
					C414.648,188.354,414.598,188.684,414.534,188.689z"/>
			</g>
		</g>
	</g>
</g>
</svg>
