<svg width="432" height="273" viewBox="0 0 432 273" fill="none" xmlns="http://www.w3.org/2000/svg">
<path d="M201.75 272.36C312.881 272.36 402.97 264.525 402.97 254.86C402.97 245.195 312.881 237.36 201.75 237.36C90.6195 237.36 0.530273 245.195 0.530273 254.86C0.530273 264.525 90.6195 272.36 201.75 272.36Z" fill="#D0DDFF"/>
<path d="M73.8951 75.1013C75.5551 76.2713 75.8951 78.7513 78.9851 79.3913C75.8851 80.1413 75.4551 82.5413 73.9251 83.9313C73.8651 83.6313 73.8151 83.3413 73.7551 83.0513L73.4151 82.3813H73.4751C73.3243 81.7233 72.9748 81.1275 72.4739 80.6749C71.973 80.2223 71.345 79.9348 70.6751 79.8513L70.4951 79.0713C71.4571 78.9452 72.3379 78.466 72.9662 77.7267C73.5946 76.9875 73.9257 76.041 73.8951 75.0713V75.1013Z" fill="#ECECF0"/>
<path d="M143.7 144.06C144.27 146.66 146.08 148.06 148.94 149.12C145.31 150.2 143.94 152.83 142.94 156.17C142.821 154.898 142.443 153.662 141.83 152.54C141.19 151.09 139.83 150.64 138.51 150.12C138.257 150.026 138.039 149.857 137.886 149.635C137.732 149.414 137.65 149.15 137.65 148.88C137.65 147.88 138.4 148.64 138.78 148.51C141.57 147.57 142.39 145.19 142.95 142.32L143.7 144.06Z" fill="#ECECF0"/>
<path d="M122.2 20.08C118.91 20.84 117.93 23.5 117.11 26.37C116.45 24.85 116.48 23.11 115.11 22.02L114.29 21.12C114.093 20.8296 113.832 20.5884 113.526 20.415C113.221 20.2416 112.88 20.1407 112.53 20.12L111.05 19.64L111.14 19.5L111 19.41L112.52 18.96C112.96 18.9092 113.384 18.7663 113.765 18.5405C114.145 18.3148 114.474 18.0114 114.73 17.65L115.3 16.88V16.94L115.93 15.84L115.88 15.89C116.122 15.6563 116.308 15.3716 116.426 15.0568C116.543 14.7419 116.589 14.4048 116.56 14.07L117.07 13C117.84 14.37 117.76 16.19 119.34 17C119.47 18.88 122.12 18.26 122.2 20.08Z" fill="#ECECF0"/>
<path d="M128.5 113.87C128.287 113.834 128.093 113.722 127.955 113.555C127.818 113.388 127.745 113.176 127.75 112.96C131.07 112.57 132.09 110.04 133.05 106.76C134.05 110.1 135.5 112.5 139.22 113.26C135.81 114.41 133.99 116.26 133.53 119.26C132.87 119.76 132.87 119.76 132.42 118.5C132.308 117.423 131.874 116.406 131.175 115.58C130.476 114.754 129.544 114.158 128.5 113.87Z" fill="#ECECF0"/>
<path d="M245.99 51.7504C243.31 52.5904 242.73 54.9803 241.83 57.4803C240.25 54.9603 240 51.3703 235.89 51.2403C239.48 50.1703 241.12 47.8204 241.69 43.8604C242.75 47.4704 243.97 50.1403 247.45 50.7003L245.99 51.7504Z" fill="#ECECF0"/>
<path d="M167.47 84.5303L166.47 86.9303C165.81 83.7503 164.55 81.2503 160.82 80.2603C162.6 79.5103 164.06 79.0203 164.82 77.6203C165.89 76.6203 165.99 75.1303 166.57 73.5703C167.4 76.6903 168.84 79.0503 172.2 80.1803C169.93 81.2203 168.14 82.3503 167.47 84.5303Z" fill="#ECECF0"/>
<path d="M198.93 66.0404C196.46 67.1004 195.33 68.6104 194.58 71.3104C193.87 68.6904 192.99 66.9804 190.21 66.1404C191.308 65.8432 192.3 65.2397 193.068 64.4005C193.837 63.5612 194.35 62.5207 194.55 61.4004C194.819 62.4855 195.363 63.4829 196.13 64.2958C196.898 65.1088 197.862 65.7097 198.93 66.0404Z" fill="#ECECF0"/>
<path d="M238.57 5.29968C238.486 5.5287 238.352 5.73669 238.18 5.90932C238.007 6.08195 237.799 6.21512 237.57 6.29968C235.85 6.98968 235.44 8.71969 234.57 10.1397L233.81 9.03969C233.7 7.11969 232.18 6.48969 230.45 5.58969C232.89 4.69969 234.22 3.1397 234.34 0.719696C234.428 0.634476 234.502 0.53673 234.56 0.429688C235.09 2.72969 235.93 4.72968 238.57 5.29968Z" fill="#ECECF0"/>
<path d="M288.84 100.69C290.05 99.7395 289.72 98.0595 290.68 96.7695C291.33 99.9895 292.88 102.3 296.36 103.29C293.58 104.41 291.63 105.99 291.1 108.82C290.69 109.95 290.28 109.94 290.05 108.76C289.52 105.96 287.77 104.3 285.05 103.41C286.48 102.63 288.1 102.25 288.84 100.69Z" fill="#ECECF0"/>
<path d="M269.31 131.87C266.56 132.87 265.54 134.46 264.69 136.97C263.96 134.55 263.07 132.79 260.34 131.97C262.95 131.06 264.16 129.5 264.61 126.47C265.43 129.3 266.39 131.04 269.31 131.87Z" fill="#ECECF0"/>
<path d="M147.34 48.2296C144.82 49.1296 143.76 50.9196 142.96 53.4996C142.43 50.7796 141.35 49.0096 138.54 48.2296C141.35 47.4496 142.49 45.7796 142.93 43.0996C143.77 45.5296 144.82 47.3396 147.34 48.2296Z" fill="#ECECF0"/>
<path d="M242.71 86.8705C244.71 85.9205 246.1 84.8705 246.45 82.7305C246.739 83.6349 247.234 84.4602 247.894 85.1419C248.555 85.8236 249.365 86.3433 250.26 86.6605C249.287 87.0934 248.437 87.7631 247.789 88.6085C247.141 89.4539 246.715 90.4481 246.55 91.5005C245.86 88.9605 245.1 87.3205 242.71 86.8705Z" fill="#ECECF0"/>
<path d="M184.16 149.37C182.16 149.85 181.3 151.32 180.57 154.01C180.03 151.45 179.27 149.93 176.93 149.25C177.801 148.9 178.582 148.359 179.215 147.667C179.849 146.974 180.318 146.148 180.59 145.25C181.21 147.26 182.78 148.23 184.16 149.37Z" fill="#ECECF0"/>
<path d="M203.37 24.4697C204.19 26.5597 205 28.0097 207.63 28.6497C206.608 28.8973 205.675 29.4253 204.936 30.1744C204.198 30.9235 203.683 31.8639 203.45 32.8897C202.61 31.0397 202.02 29.3297 199.2 28.8197C200.238 28.5687 201.183 28.0256 201.922 27.2547C202.661 26.4838 203.163 25.5174 203.37 24.4697Z" fill="#ECECF0"/>
<path d="M206.63 197.23C206.15 195.54 204.05 195.39 203.41 193.84C205.92 193.36 206.81 191.55 207.19 189.06C208.19 191.19 208.93 193.29 211.9 194.06C209.23 195 208.19 196.68 207.43 198.95L206.63 197.23Z" fill="#ECECF0"/>
<path d="M211.23 122.09L210.57 123.85C209.79 120.27 208.57 117.62 204.37 116.85C208.37 116.02 209.85 113.71 210.6 110.52C211.46 113.52 213.09 115.75 216.01 116.83C215.973 116.909 215.926 116.983 215.87 117.05C215.81 117.12 215.73 117.16 215.67 117.22C214.555 117.546 213.551 118.173 212.768 119.032C211.985 119.891 211.453 120.949 211.23 122.09Z" fill="#ECECF0"/>
<path d="M299.45 44.17C299.45 41.74 297.2 41.02 296 39.51C298.47 39.18 299.12 37.24 299.8 35C300.63 37.1 301.48 39 304.17 39.77C301.41 40.63 301.47 43.27 299.78 44.52C299.78 44.52 299.65 44.45 299.6 44.39C299.544 44.3207 299.494 44.2471 299.45 44.17Z" fill="#ECECF0"/>
<path d="M259.13 177.28C258.65 174.28 257.54 172.62 254.86 171.76C257.53 170.98 258.68 169.32 259.12 166.53C259.9 169.13 260.99 170.89 263.58 171.75C260.98 172.73 259.93 174.49 259.13 177.28Z" fill="#ECECF0"/>
<path d="M58.1 133L57.5 134.38C57.01 136.1 55.62 136.9 54 137.63C56.88 138.01 57.11 140.69 58.52 142.28C58.8 140.79 59.25 139.42 60.75 138.7L61.26 138.28L62.4 137.81C62.33 137.57 62.25 137.33 62.17 137.08C59.66 137.01 59.38 134.53 58.1 133Z" fill="#CCD7F3"/>
<path d="M290.06 108.76C289.52 105.96 287.77 104.3 285.01 103.41C286.48 102.63 288.1 102.25 288.84 100.69C285.98 95.03 282.65 89.6899 277.67 85.6199C270.004 79.288 260.457 75.6731 250.52 75.34C249.9 75.34 249.28 75.25 248.67 75.2C243.9 75.49 239.14 75.6999 234.45 76.8999C229.459 78.0718 224.551 79.5751 219.76 81.3999C210.52 85.0999 201.47 89.3999 191.54 91.0399C182.6 92.4799 174.04 92.04 167.47 84.53L166.47 86.9299C165.81 83.7499 164.55 81.2499 160.82 80.2599C162.6 79.5099 164.06 79.0199 164.82 77.6199C163.14 66.5499 170.73 54.55 181.28 51.62C183.632 50.9671 186.111 50.9209 188.485 51.4858C190.859 52.0507 193.052 53.2081 194.857 54.8501C196.663 56.492 198.023 58.5648 198.811 60.8749C199.598 63.185 199.787 65.657 199.36 68.06C198.57 72.42 195.36 74.2 191.26 72.53C189.765 71.9313 188.372 71.1049 187.13 70.08C186.01 69.16 184.85 68.27 183.35 67.08C183.575 68.9401 184.13 70.7451 184.99 72.4099C188.36 80.1699 193.34 83.4099 201.78 82.8699C209.46 82.3999 215.85 78.9499 221.47 73.8699C225.027 70.7795 227.814 66.9031 229.613 62.5482C231.411 58.1932 232.17 53.4793 231.83 48.78C231.46 41.96 228.83 35.62 225.05 29.84C218.52 19.5922 208.753 11.8206 197.3 7.75995C189.63 5.713 181.635 5.17638 173.76 6.17995C170.47 6.93995 169.49 9.59996 168.67 12.47C168.01 10.95 168.04 9.20995 166.67 8.11995L165.17 8.41995L158.85 11.08L157.14 12.08L153.03 14.45H152.95C152.891 14.6597 152.756 14.8398 152.571 14.9546C152.386 15.0694 152.164 15.1106 151.95 15.0699V15.12C151.76 15.96 151.05 16.22 150.4 16.54L147.46 19.12L141.13 26.1799L140.69 26.69L134.77 37.5C134.777 37.5728 134.768 37.6462 134.744 37.7152C134.72 37.7842 134.681 37.8472 134.63 37.9C134.201 39.5812 133.559 41.2009 132.72 42.72L132.45 43.79C132.336 44.913 131.995 46.0014 131.45 46.9899C131.38 47.3599 131.32 47.72 131.25 48.08C131.12 48.62 130.98 49.15 130.85 49.68C130.74 50.05 130.62 50.41 130.51 50.78C129.93 54.78 129.12 58.78 128.81 62.87C128.169 70.3113 129.089 77.8044 131.51 84.8699L131.93 85.97L132.07 86.1499L131.92 86.2999L131.45 86.6199C131.63 87.9199 133.45 87.85 133.61 89.14C135.39 91.6533 137.167 94.1599 138.94 96.6599C140.03 97.5499 141.15 98.41 142.21 99.33C152.47 108.25 164.21 112.81 177.94 111.39C179.48 110.81 181.24 111.39 182.74 110.47L183.87 110.23L184.94 110.09L190.26 108.35L191.36 107.91C191.506 107.811 191.675 107.753 191.85 107.74C199.51 104.6 207.14 101.4 215.65 101.48C221.642 101.519 227.403 103.798 231.799 107.869C236.196 111.94 238.911 117.509 239.41 123.48C239.597 125.616 239.35 127.767 238.684 129.804C238.017 131.842 236.946 133.724 235.533 135.336C234.121 136.949 232.396 138.259 230.464 139.188C228.532 140.116 226.432 140.644 224.29 140.74C218.42 141.04 213 139.44 207.81 136.98C202.98 134.69 198.26 132.21 193.49 129.81L192.92 129.39C192.579 129.377 192.249 129.267 191.968 129.074C191.687 128.881 191.466 128.613 191.33 128.3C190.002 128.315 188.702 127.916 187.61 127.16L185.99 126.63L185.18 126.16L183.84 126.02H183.59L183.34 125.97C182.16 126.07 181.18 125.42 180.11 125.09C179.11 125.03 178.11 125.02 177.18 124.9C169.395 124.006 161.55 125.975 155.11 130.44C149.95 133.84 146.58 138.69 143.69 143.98C144.26 146.58 146.07 147.98 148.93 149.04C145.3 150.12 143.93 152.75 142.93 156.09C142.81 154.817 142.433 153.582 141.82 152.46C140.88 158.94 141.988 165.551 144.99 171.37C148.75 178.7 154.51 183.05 162.99 183.52C167.85 183.78 172.56 182.92 177.27 182.03C182.51 181.03 187.7 179.75 193.08 179.82C199.718 178.872 206.488 179.729 212.68 182.3C223.35 186.83 227.33 196.95 222.59 207.56C220.76 211.65 217.91 215.1 215.68 218.93L216.15 219.39C233.05 210.54 236.38 191.97 228.78 177.7C225.49 171.53 219.67 169.08 213.38 167.35C206.79 165.54 199.9 164.96 193.44 162.57C190.979 161.797 188.706 160.516 186.77 158.81C184.03 156.16 182.37 153.2 184.19 149.3C182.19 149.78 181.33 151.25 180.6 153.94C180.06 151.38 179.3 149.86 176.96 149.18C177.831 148.83 178.612 148.289 179.246 147.597C179.879 146.904 180.349 146.078 180.62 145.18C181.23 147.18 182.8 148.18 184.18 149.28C188.29 144.39 193.52 143.66 199.58 144.5C207.14 145.5 213.2 149.33 219.32 153.44C223.53 156.28 227.51 159.5 232.19 161.7C235.759 163.282 239.506 164.427 243.35 165.11C252.825 165.372 262.241 163.546 270.93 159.76C280.41 155.66 286.8 148.76 289.86 138.86C292.92 128.96 293.66 118.96 291.12 108.86C290.69 109.95 290.28 109.94 290.06 108.76ZM203.37 24.47C204.19 26.56 205 28.01 207.63 28.65C206.608 28.8975 205.675 29.4256 204.936 30.1747C204.198 30.9238 203.683 31.8642 203.45 32.89C202.61 31.04 202.02 29.3299 199.2 28.8199C200.238 28.5689 201.183 28.0258 201.922 27.2549C202.661 26.484 203.163 25.5176 203.37 24.47ZM142.96 53.47C142.43 50.75 141.35 48.98 138.54 48.2C141.35 47.42 142.49 45.75 142.93 43.07C143.77 45.5 144.82 47.31 147.34 48.2C144.82 49.13 143.76 50.92 142.93 53.5L142.96 53.47ZM246.55 91.47C245.86 88.95 245.1 87.31 242.71 86.84C244.71 85.89 246.1 84.84 246.45 82.7C246.739 83.6043 247.234 84.4296 247.895 85.1114C248.556 85.7931 249.365 86.3128 250.26 86.6299C249.286 87.0637 248.435 87.735 247.787 88.5823C247.139 89.4296 246.714 90.4258 246.55 91.4799V91.47ZM264.69 136.96C263.96 134.54 263.07 132.78 260.34 131.96C262.95 131.05 264.16 129.49 264.61 126.46C265.43 129.27 266.39 131.01 269.31 131.84C266.56 132.87 265.54 134.46 264.69 136.97V136.96Z" fill="#D0DDFF"/>
<path d="M191.33 128.33V128.34H191.34L191.33 128.33Z" fill="#CCD7F3"/>
<path d="M237.98 34.0204C237.977 33.9939 237.977 33.967 237.98 33.9404V34.0504V34.0204Z" fill="#CCD7F3"/>
<path d="M132.42 118.46C130.649 117.397 129.273 115.786 128.5 113.87C128.287 113.834 128.093 113.722 127.956 113.555C127.818 113.388 127.745 113.177 127.75 112.96C127.043 111.397 126.597 109.728 126.43 108.02C126.27 107.71 126.16 107.2 125.92 107.13C125.37 106.96 125.58 107.54 125.53 107.78C125.23 109.53 125.01 111.31 123.82 112.78C123.691 113.556 123.437 114.305 123.07 115C122.15 116.21 121.72 118.14 119.54 117.82L119.33 118.68C117.86 120.18 115.61 120.07 113.65 121.25C120.65 122.25 124.93 127.35 125.65 135.15C127.52 128.41 130.46 122.61 138.4 121.08L133.51 119.24C132.87 119.72 132.87 119.72 132.42 118.46Z" fill="#CCD7F3"/>
<path d="M261 21.191C266.24 22.671 269 25.741 269.69 30.531L269.27 31.241C270.35 32.241 270.59 31.761 270.83 30.531C271.105 28.9944 271.691 27.5298 272.55 26.2266C273.41 24.9235 274.526 23.809 275.83 22.951C276.92 22.211 278.51 22.361 279.34 20.951C274.09 19.601 271.57 15.951 270.66 10.871C270.61 10.611 270.94 9.64104 269.95 10.141L269.8 11.211C269.33 16.421 266.63 19.751 261 21.191Z" fill="#C8D7FF"/>
<path d="M203.41 193.87L201.7 190.29C201.579 191.877 200.96 193.385 199.931 194.599C198.902 195.813 197.515 196.671 195.97 197.05C199.97 198.05 201.17 200.58 201.84 204.4C202.5 200.78 203.98 198.57 206.63 197.26C206.15 195.54 204.05 195.39 203.41 193.87Z" fill="#CCD7F3"/>
<path d="M220.22 120.87C218.296 120.252 216.672 118.936 215.67 117.18C214.555 117.506 213.551 118.134 212.768 118.992C211.985 119.851 211.453 120.909 211.23 122.05C213.43 123.05 213.67 125.35 214.73 127.53C215.009 126.046 215.659 124.658 216.619 123.493C217.578 122.329 218.818 121.426 220.22 120.87Z" fill="#CCD7F3"/>
<path d="M293.93 65.7295C292.084 63.4989 291.007 60.7316 290.86 57.8395L290.91 57.7695L290.08 57.9995C290.14 61.9995 288.96 65.4395 285.25 67.5795L283.07 68.5795L281.07 69.3495C282.63 69.8895 283.93 69.9095 284.86 70.8595C288.92 72.7295 289.54 76.7195 290.65 80.8595C291.65 76.1595 293.17 72.3795 297.37 70.3695C297.38 67.9595 295.09 67.2395 293.93 65.7295Z" fill="#C8D7FF"/>
<path d="M318.69 84.6699C318.39 87.4099 316.99 88.5799 314.92 89.6699C317.37 90.4499 318.12 92.2999 319.05 94.3699C319.9 92.1899 320.69 90.3699 323.33 89.6899C320.93 88.6499 319.86 87.0199 318.69 84.6699Z" fill="#CCD7F3"/>
<path d="M35.1855 28.5519C34.2253 28.7365 33.3402 29.1987 32.6399 29.8812C31.9396 30.5638 31.4548 31.4366 31.2455 32.3919C30.1432 36.3005 29.5351 40.3319 29.4355 44.3919C31.0262 43.4694 32.3601 42.1629 33.3155 40.5919C34.3281 41.1704 35.4577 41.5139 36.6209 41.597C37.7841 41.6801 38.9511 41.5006 40.0355 41.0719L42.1955 28.7719C39.8655 28.4919 37.5655 27.3219 35.1855 28.5519Z" fill="#4C64C9"/>
<path d="M25.3554 90.3512C23.5454 90.7412 22.6154 92.1412 21.6954 93.5412C20.5035 97.3955 19.8572 101.398 19.7754 105.431C20.6354 103.501 22.3054 102.511 24.1254 101.691C26.2554 101.201 28.3054 101.961 30.3954 102.131C30.9954 98.2379 31.5987 94.3446 32.2054 90.4512C29.9254 89.9912 27.6554 89.3012 25.3554 90.3512Z" fill="#4C64C9"/>
<path d="M32.7158 44.6517C31.8915 44.929 31.1304 45.367 30.4764 45.9403C29.8224 46.5136 29.2886 47.2108 28.9058 47.9917C27.8317 51.3811 27.2491 54.907 27.1758 58.4617C27.6406 57.4741 28.3198 56.6025 29.164 55.9106C30.0082 55.2186 30.9961 54.7236 32.0558 54.4617C33.9915 54.3567 35.9317 54.5558 37.8058 55.0517C38.3458 51.6317 38.8958 48.2217 39.4358 44.8017C37.2458 44.4517 34.9758 43.7917 32.7158 44.6517Z" fill="#4C64C9"/>
<path d="M42.2454 28.7812C59.2588 31.4479 76.2588 34.1146 93.2454 36.7812C94.9754 37.0513 95.4554 37.9013 95.1854 39.5713C91.3588 63.4113 87.5488 87.2579 83.7554 111.111C82.8904 111.341 81.9804 111.341 81.1154 111.111C65.3288 108.591 49.5388 106.081 33.7454 103.581C32.5154 103.391 31.2154 103.311 30.2454 102.331C29.8088 101.627 29.6652 100.78 29.8454 99.9712C30.3454 96.6712 30.7054 93.3413 31.5154 90.0913C32.2554 83.3613 33.5154 76.7112 34.5154 70.0312C35.3154 64.9712 35.9154 59.8712 37.0554 54.8612C37.3692 51.4457 37.9104 48.0548 38.6754 44.7113C38.7147 43.4408 38.9163 42.1805 39.2754 40.9613C39.5054 37.6513 40.1854 34.4113 40.7254 31.1513C40.7813 30.6665 40.9473 30.2009 41.2108 29.7901C41.4742 29.3793 41.8281 29.0342 42.2454 28.7812Z" fill="#A4ACF8"/>
<path d="M37.8054 55.1016C29.3954 104.182 36.6554 85.4316 21.4854 92.9316C23.6154 80.6716 24.4854 68.9316 27.8054 56.5516C29.6554 53.5616 35.5554 52.3916 37.8054 55.1016Z" fill="#CCD7F3"/>
<path d="M30.3958 102.101L80.8358 110.101C81.8859 110.109 82.9046 110.46 83.7358 111.101C83.6658 111.661 83.5858 112.211 83.5058 112.761C83.2087 113.167 82.7849 113.462 82.3013 113.6C81.8177 113.737 81.302 113.71 80.8358 113.521C63.1092 110.755 45.4125 107.948 27.7458 105.101C26.3258 104.871 24.9258 104.591 23.8058 105.821C23.353 106.408 22.9641 107.042 22.6458 107.711C22.4147 108.248 22.3118 108.831 22.3453 109.415C22.3789 109.998 22.548 110.566 22.8392 111.072C23.1303 111.579 23.5356 112.011 24.0228 112.333C24.51 112.656 25.0657 112.861 25.6458 112.931C26.536 112.982 27.4099 113.192 28.2258 113.551C29.1158 114.551 30.2258 113.931 31.2258 113.871C32.3547 113.943 33.4736 114.127 34.5658 114.421C35.5058 114.611 35.9658 116.261 37.2858 115.311C49.5158 117.061 61.6758 119.161 73.8658 121.021C75.0258 121.021 76.1358 121.371 77.2858 121.461C78.0458 121.511 78.8858 121.811 79.4958 121.031C79.664 120.893 79.8629 120.797 80.0758 120.751C81.1358 121.221 81.3558 122.331 81.9058 123.181C81.9058 124.691 81.2258 125.181 79.6458 124.941C61.2558 121.941 42.8458 119.111 24.4558 116.141C19.7358 115.381 17.7258 110.521 19.8358 105.401C20.0558 102.541 22.3558 101.831 24.4758 100.931C26.5458 100.671 28.6358 100.541 30.3958 102.101Z" fill="#877EF0"/>
<path d="M29.4352 44.4018C31.0652 40.5218 35.3252 39.8418 40.0352 41.0818C39.9652 43.5218 39.3352 44.4018 38.7052 44.7118C37.5952 45.2618 36.4652 44.0418 34.6452 44.1518C33.8249 44.2662 33.0371 44.5491 32.3315 44.9828C31.6259 45.4165 31.0177 45.9916 30.5452 46.6718C29.9652 47.1818 29.2652 47.6718 28.9252 47.5118C28.5852 47.3518 28.9352 45.6018 29.4352 44.4018Z" fill="#CCD7F3"/>
<path d="M81.3157 113.011L83.5057 112.791C82.9591 116.258 82.4057 119.731 81.8457 123.211C80.7457 122.871 79.7857 122.411 80.0957 120.971C79.882 120.84 79.7119 120.648 79.6069 120.42C79.5019 120.193 79.4667 119.939 79.5057 119.691C79.5173 119.207 79.5742 118.725 79.6757 118.251C79.7272 117.781 79.804 117.313 79.9057 116.851C79.9497 116.387 80.0232 115.926 80.1257 115.471C80.1556 115.117 80.2159 114.765 80.3057 114.421C80.3299 114.116 80.4367 113.824 80.6147 113.576C80.7927 113.327 81.0351 113.132 81.3157 113.011Z" fill="#3952BA"/>
<path d="M46.5054 74.6011C47.2654 69.8211 48.0054 65.0311 48.7854 60.2511C49.2254 57.6011 50.1354 56.9211 52.7854 57.3311C60.5854 58.5444 68.3854 59.7811 76.1854 61.0411C79.4154 61.5711 80.0454 62.4811 79.5254 65.7911C78.1521 74.6244 76.7521 83.4544 75.3254 92.2811C75.1854 93.1611 74.9054 94.0211 74.6954 94.8811C74.6528 95.1795 74.5467 95.4654 74.3843 95.7194C74.2219 95.9733 74.007 96.1896 73.754 96.3535C73.501 96.5174 73.2158 96.6252 72.9176 96.6697C72.6195 96.7141 72.3152 96.6941 72.0254 96.6111C63.4121 95.2778 54.8021 93.9111 46.1954 92.5111C44.1954 92.1911 43.9654 90.8311 44.1954 89.1711C44.9754 84.3111 45.7354 79.4611 46.5054 74.6011Z" fill="#CCD7F3"/>
<path d="M66.4158 49.0411C61.9958 48.3411 57.5758 47.6211 53.1558 46.9411C51.8558 46.7411 50.6758 46.2911 50.9058 44.7711C51.1358 43.2511 52.2758 43.0411 53.6458 43.2611C62.4725 44.6811 71.3092 46.0811 80.1558 47.4611C81.4958 47.6711 82.4858 48.1311 82.1558 49.7311C81.8258 51.3311 80.6558 51.3111 79.4058 51.1111L66.4158 49.0411Z" fill="#CCD7F3"/>
<path d="M29.5058 107.931C31.9858 107.341 34.3158 108.351 36.7058 108.671C37.7058 108.801 37.3658 109.671 37.2858 110.311C37.0658 112.151 36.8058 113.981 36.5558 115.811C35.2358 117.431 35.3858 115.001 34.6158 115.111C33.3958 114.111 32.1058 113.581 30.6158 114.451C29.9258 114.141 28.8658 116.851 28.4558 114.191C28.1759 113.794 28.0321 113.317 28.0458 112.831C28.0509 112.353 28.1113 111.876 28.2258 111.411C28.2649 110.943 28.3384 110.479 28.4458 110.021C28.4905 109.548 28.6016 109.084 28.7758 108.641C28.8392 108.478 28.9372 108.329 29.0632 108.207C29.1892 108.084 29.3402 107.99 29.5058 107.931Z" fill="#FD4D0A"/>
<path d="M30.585 114.452C32.855 112.722 32.855 112.722 34.585 115.102L30.585 114.452Z" fill="#E4EAE6"/>
<path d="M81.315 113.011L26.625 104.291C25.045 104.041 23.625 104.351 22.845 105.931C20.225 109.601 21.635 113.081 26.035 113.801L28.425 114.191C28.495 113.721 28.565 113.191 28.645 112.771C28.725 112.351 28.785 111.891 28.865 111.451L29.055 110.121C29.135 109.671 29.205 109.231 29.285 108.791C29.285 108.641 29.355 108.491 29.395 108.351C30.745 108.621 32.125 108.681 33.485 108.911C36.395 109.421 36.375 109.441 36.075 112.321C35.945 113.491 35.275 114.811 36.555 115.811C37.445 115.941 38.325 116.061 39.205 116.201L74.305 121.701C75.625 121.931 76.955 122.111 78.255 122.401C79.555 122.691 79.925 122.171 79.905 121.031L80.095 120.971L80.185 119.601C80.245 119.141 80.315 118.691 80.375 118.231C80.435 117.771 80.525 117.371 80.605 116.941C80.685 116.511 80.735 116.031 80.805 115.581C80.805 115.291 80.875 114.991 80.915 114.701C81.045 114.101 81.185 113.571 81.315 113.011Z" fill="#F7F7E0"/>
<path d="M380.93 245.02C380.66 244.1 380.4 243.18 380.13 242.26C378.9 242.81 377.65 242.49 376.41 242.35H377.69C378.088 242.432 378.499 242.431 378.896 242.347C379.294 242.262 379.67 242.096 380 241.86C378.994 239.96 378.116 237.995 377.37 235.98C376.37 232.58 373.16 230.66 371.87 227.43C371.09 225.43 370.22 223.43 368.42 222.07C367.647 221.481 366.719 221.133 365.75 221.07C354.6 219.85 343.59 217.72 332.55 215.77C326.46 214.77 320.43 213.36 314.37 212.19C302.15 209.83 289.87 208.09 277.37 208.06C274.44 208.11 271.51 208.06 268.58 208.06C265.378 208.137 262.188 208.472 259.04 209.06C244.87 211.06 231.7 215.55 220.62 224.96C217.83 227.34 214.79 229.61 213.26 233.17C213.26 233.98 213.87 234.34 214.47 234.63C219.4 237.07 222.78 241.01 225.35 245.75C225.81 246.6 226.23 247.5 227.35 247.75C228.866 247.944 230.407 247.815 231.87 247.37C243.54 244.37 255.47 243.37 267.46 243.06C275.941 243.027 284.416 243.504 292.84 244.49C303.64 245.563 314.443 246.563 325.25 247.49C327.11 247.49 328.94 247.95 330.81 247.95C346.69 247.95 362.57 247.95 378.45 247.95C379.45 247.95 380.56 248.06 381.45 247.22L380.93 245.02Z" fill="#D8BEA6"/>
<path d="M184.86 210.23C175.58 205.81 165.54 204.75 155.49 204.17C146.176 203.786 136.847 204.295 127.63 205.69C111.2 207.87 95.1302 211.87 78.9302 215.26C68.4769 217.413 57.9902 219.323 47.4702 220.99C46.0701 221.076 44.7054 221.465 43.4702 222.13C42.2602 223.13 41.8902 224.61 41.1502 225.88C39.9802 227.88 39.2802 230.45 37.5802 231.69C35.6802 233.09 35.0702 234.76 34.3802 236.69C33.3802 239.34 32.3802 241.97 31.3802 244.6C31.9902 245.19 32.7702 245.01 33.5002 245.03H34.3902H32.8002C32.1324 244.925 31.4501 245.086 30.9002 245.48L30.4502 247.24C31.4502 248.24 32.8202 247.98 34.0502 247.97C46.3802 247.86 58.7202 248.36 71.0502 247.52C77.8602 246.97 84.6802 246.63 91.5002 246.21C98.7002 245.77 105.89 245.21 113.09 244.66C123.03 243.94 132.98 243.36 142.94 243.04C149.12 242.84 155.27 243.47 161.44 243.89C168.135 244.231 174.764 245.386 181.18 247.33C181.914 247.556 182.689 247.621 183.45 247.52C184.45 247.07 184.75 246.11 185.19 245.26C188.93 238.05 194.8 233.87 202.93 233.01C204.07 232.89 205.35 233.01 206.09 231.76C206.011 230.714 205.667 229.705 205.09 228.83C200.5 220.633 193.412 214.117 184.86 210.23Z" fill="#D8BEA6"/>
<path d="M284.71 154.6C291.258 150.092 298.119 146.056 305.24 142.52C311.32 139.41 317.52 136.52 323.66 133.52L330.82 130.82C329.4 135.92 328.06 140.68 326.75 145.44C326.3 147.06 324.75 146.68 323.75 146.86C316.65 148.1 309.593 149.554 302.58 151.22C296.572 152.613 290.643 154.329 284.82 156.36C284.258 156.722 283.598 156.9 282.93 156.87C282.71 155.43 284.39 155.56 284.71 154.6Z" fill="#BEA38D"/>
<path d="M284.71 154.6C284.83 155.92 283.04 155.7 282.91 156.82C281.967 157.48 280.904 157.949 279.78 158.2C281.07 156.51 283.01 155.71 284.71 154.6Z" fill="#92806D"/>
<path d="M226.93 247.38C228.462 247.399 229.989 247.231 231.48 246.88C257.66 246.08 283.85 246.73 310.04 246.54C313.98 246.54 317.917 246.697 321.85 247.01C322.877 247.156 323.921 247.109 324.93 246.87C342.47 247.73 360.03 247.09 377.58 247.28C378.84 247.28 380.1 247.28 381.37 247.23C383.81 247.57 385.01 248.66 384.87 250.43C384.73 252.2 383.43 253.11 380.95 253.12C332.19 253.12 283.437 253.12 234.69 253.12C233.75 253.12 232.69 252.78 231.9 253.53C230.211 253.819 228.484 253.802 226.8 253.48C225.44 253.22 224.18 252.7 224.32 250.92C224.46 250.45 224.69 250.1 225.24 250.38C227.05 251.31 227.12 250.38 226.79 248.97C226.68 248.45 226.44 247.87 226.93 247.38Z" fill="#656FCB"/>
<path d="M30.4499 247.24C42.7799 247.18 55.1199 247.72 67.4499 246.9C68.7099 246.82 69.9799 246.9 71.2399 246.9C74.7299 247.36 78.2399 246.83 81.6999 246.76C84.8899 246.7 88.0999 246.58 91.2899 246.58C119.53 246.58 147.77 246.58 176.02 246.52C177.95 246.52 179.83 247.09 181.76 246.87L183.45 247.36C183.84 247.82 183.61 248.36 183.53 248.81C183.45 249.26 183.05 250.23 183.82 250.55C184.59 250.87 184.82 249.99 185.16 249.47C185.5 248.95 185.69 247.86 186.82 248.14C187.337 248.445 187.727 248.926 187.92 249.495C188.112 250.064 188.095 250.683 187.87 251.24C187.659 251.918 187.245 252.515 186.683 252.95C186.121 253.385 185.439 253.636 184.73 253.67C182.53 253.88 180.29 253.54 178.12 254.11C177.6 252.76 176.43 253.18 175.46 253.18H31.1199C29.9299 253.18 28.7199 253.26 27.8299 252.18C27.4714 251.795 27.2294 251.316 27.132 250.799C27.0347 250.282 27.0859 249.748 27.2799 249.26C27.8099 247.76 29.0299 247.34 30.4499 247.24Z" fill="#656FCB"/>
<path d="M212.63 233.32L213.54 233.49C219.89 236.31 223.89 241.38 226.94 247.38C227.034 247.875 227.164 248.363 227.33 248.84C227.72 249.78 227.94 250.75 226.96 251.39C225.77 252.17 225.33 251.01 224.75 250.32C222.4 243.32 218.33 237.67 210.95 235.73C200.69 233.03 190.41 237.61 186.3 248.14C185.99 248.88 185.69 249.63 185.36 250.36C185.03 251.09 184.54 251.88 183.55 251.46C183.184 251.295 182.896 250.994 182.748 250.62C182.601 250.247 182.605 249.83 182.76 249.46C182.97 248.75 183.21 248.06 183.44 247.37C185.96 241.89 189.44 237.31 195.05 234.6C198.446 233.083 202.111 232.26 205.83 232.18C206.38 232.76 207.06 232.47 207.69 232.46L210.45 232.68L212.63 233.32Z" fill="#FD4D0A"/>
<path d="M268.15 208.74C271.246 208.05 274.455 208.05 277.55 208.74H268.15Z" fill="#CAC8B4"/>
<path d="M153.93 236.54L153.84 229.85C153.42 227.63 154.06 225.37 153.64 223.14L153.56 222.14C153.377 221.962 153.269 221.721 153.258 221.466C153.247 221.212 153.333 220.963 153.5 220.77V212.43C153.581 212.337 153.683 212.264 153.798 212.217C153.912 212.17 154.036 212.15 154.16 212.16C161.074 212.096 167.966 212.963 174.65 214.74C175.531 214.878 176.373 215.202 177.12 215.69C177.216 215.771 177.284 215.88 177.314 216.002C177.345 216.124 177.336 216.253 177.29 216.37C177.12 225.1 176.95 233.84 176.77 243.06L172.7 240.06C171.751 239.753 170.866 239.275 170.09 238.65C169.85 238.49 169.62 238.3 169.39 238.12C164.39 234.22 166.27 234.42 160.9 237.6C160.373 237.904 159.803 238.126 159.21 238.26C157.39 238.68 156.08 240.08 154.21 240.87C153.65 239.87 154.09 238.87 153.83 237.87C153.7 237.667 153.64 237.428 153.658 237.188C153.676 236.948 153.771 236.72 153.93 236.54Z" fill="#FD4D0A"/>
<path d="M227.84 253.08C226.19 252.84 224.39 252.78 224.75 250.32C224.934 250.035 225.032 249.703 225.032 249.365C225.032 249.026 224.934 248.694 224.75 248.41C223.13 244.8 221.18 241.41 218.06 238.82C214.244 235.657 209.339 234.12 204.4 234.54C196.5 234.96 190.8 238.71 186.9 245.42C186.43 246.22 185.9 247.1 186.33 248.14C187.33 248.94 187.97 249.93 187.33 251.19C187.083 251.81 186.639 252.333 186.067 252.678C185.494 253.023 184.825 253.171 184.16 253.1C182.7 253.01 181.22 253.1 179.76 253.1C178.99 253.1 178.25 253.1 178.11 254.1C178.6 256.3 180.17 257.1 182.21 257.1C197.397 257.1 212.587 257.1 227.78 257.1C230.05 257.1 231.59 256.02 231.93 253.61C230.66 252.61 229.2 253.28 227.84 253.08Z" fill="#33479D"/>
<path d="M302.93 244.81C287.59 243.26 272.24 241.7 256.79 242.86C248.24 243.33 239.759 244.67 231.48 246.86C232.09 247.49 232.88 247.24 233.6 247.24C263.187 247.24 292.777 247.24 322.37 247.24C323.23 247.24 324.17 247.53 324.95 246.88C317.62 246.2 310.28 245.55 302.93 244.81Z" fill="#33479D"/>
<path d="M181.75 246.87C180.18 246.4 178.63 245.87 177.04 245.48C165.26 242.77 153.27 242.21 141.27 242.48C117.87 243.03 94.5895 245.57 71.2695 246.88C71.9595 247.55 72.8295 247.27 73.6095 247.27C108.943 247.27 144.3 247.27 179.68 247.27C180.36 247.25 181.15 247.52 181.75 246.87Z" fill="#33479D"/>
<path d="M154 212.35C154.89 210.3 156.76 210.53 158.49 210.44C165.013 210.693 171.474 211.799 177.71 213.73C178.28 214.6 178.34 215.37 177.27 215.91C171.984 214.612 166.624 213.637 161.22 212.99C159.309 212.807 157.387 212.764 155.47 212.86C154.85 212.87 154.3 213.08 154 212.35Z" fill="#CC3B30"/>
<path d="M330.48 221.81C322.43 220.11 314.34 218.6 306.25 217.08C297.004 215.329 287.649 214.216 278.25 213.75C265.14 213.173 252.05 215.29 239.79 219.97C235.944 221.292 232.256 223.033 228.79 225.16C232.46 223.95 236.02 222.49 239.67 221.26C249.278 217.871 259.332 215.917 269.51 215.46C280.26 215.1 290.85 216.36 301.44 218.06C315.72 220.36 329.91 223.15 344.13 225.72C346.85 226.21 349.53 227.09 352.38 226.81C345.06 225.13 337.79 223.35 330.48 221.81Z" fill="#95806D"/>
<path d="M228.7 233.37C253.7 222.84 279.54 222.74 305.78 226.91C279.43 221.48 253.48 220.68 228.7 233.37Z" fill="#95806D"/>
<path d="M237.36 238.28C257.36 232 277.71 232.77 298.14 235.44C277.67 231.71 257.3 230.24 237.36 238.28Z" fill="#95806D"/>
<path d="M156.32 210.13C148.881 209.995 141.44 210.256 134.03 210.91C126.86 211.66 119.76 212.69 112.68 213.91C104.13 215.45 95.7495 217.74 87.2695 219.58C83.2195 220.46 79.2695 221.63 75.2695 222.66C75.4701 222.798 75.6975 222.893 75.9369 222.938C76.1764 222.983 76.4226 222.977 76.6595 222.92C90.7895 219.54 104.99 216.5 119.39 214.4C130.721 212.75 142.173 212.081 153.62 212.4L154.05 212.32C155.41 211.32 157.17 211.32 158.54 210.41C157.852 210.069 157.07 209.97 156.32 210.13Z" fill="#95806D"/>
<path d="M152 228.22C143.455 227.74 134.887 227.87 126.36 228.61C119.19 229.11 112.05 229.97 104.95 231.12C100.241 231.727 95.5678 232.585 90.9502 233.69C111.85 231.03 132.73 228.11 153.89 229.85C153.93 227.61 153.25 228.31 152 228.22Z" fill="#95806D"/>
<path d="M99.5303 239.97C117.586 237.913 135.771 237.227 153.93 237.92C153.93 237.46 153.93 237 153.93 236.54C135.72 236.16 117.53 236.56 99.5303 239.97Z" fill="#95806D"/>
<path d="M153.59 222.14L153.53 220.77C152.685 220.468 151.784 220.352 150.89 220.43C141.981 220.504 133.085 221.116 124.25 222.26C119.08 222.87 113.95 223.74 108.8 224.5C123.71 223.02 138.56 221.03 153.59 222.14Z" fill="#95806D"/>
<path d="M177.71 213.73C177.823 214.486 177.667 215.258 177.27 215.91L177.36 216.37C185.36 218.29 192.05 222.67 198.14 228.08C193.07 220.81 185.93 216.51 177.71 213.73Z" fill="#95806D"/>
<path d="M169.38 238.08C166.51 237.42 163.65 236.56 160.66 237.37C160.373 237.392 160.096 237.486 159.855 237.643C159.613 237.8 159.416 238.016 159.28 238.27L172.77 240.07L170.62 238.33C170.14 238.54 169.79 238.17 169.38 238.08Z" fill="#95806D"/>
<path d="M318.12 134.79C313.53 136.14 306.54 138.3 298.12 141.3C269.87 151.39 249.64 158.85 232.69 176.3C226.658 182.527 221.477 189.524 217.28 197.11C216.799 182.571 215.09 168.1 212.17 153.85C210.32 144.85 208.89 138.06 205.53 129.02C200.743 116.47 194.274 104.628 186.3 93.8195C182.1 87.9995 177.74 82.3095 173.3 76.6495C172.3 75.3395 171.3 74.7395 169.6 75.8295C162.23 80.5495 154.8 85.1595 147.38 89.8295C141.67 93.3995 135.94 96.9295 130.22 100.48C134.11 104.06 137.99 107.66 141.78 111.34C147.22 116.65 152.61 122.01 157.78 127.62C161.7 131.91 165.71 136.12 169.52 140.5C177.815 149.863 185.6 159.667 192.84 169.87C198.04 177.33 203.15 184.87 206.96 193.18C209.911 199.551 211.806 206.36 212.57 213.34C212.62 213.88 212.37 214.8 213.17 214.91V229.27L225.17 212.75C226.17 212.83 226.51 211.82 226.98 211.2C234 202.02 241.43 193.186 249.27 184.7C258.361 174.658 268.617 165.735 279.82 158.12C281.5 156.87 283.41 155.99 285.12 154.8C296.84 147.283 309.123 140.684 321.86 135.06C322.08 134.96 322.67 134.63 323.5 134.21C326.5 132.71 328.98 131.58 330.86 130.78C328.03 131.71 323.58 133.07 318.12 134.79Z" fill="#FFFFE7"/>
<path d="M202.1 209.17C201.523 207.871 200.777 206.653 199.88 205.55C199.55 205.26 199.22 204.97 198.88 204.67C198.789 204.423 198.675 204.186 198.54 203.96C192.602 194.353 185.696 185.38 177.93 177.18C172.762 171.568 167.255 166.279 161.44 161.34C153.14 154.43 144.44 147.99 135.6 141.87L128.44 136.94C128.443 137.105 128.412 137.268 128.35 137.42C126.773 135.507 124.607 134.171 122.19 133.62C121.991 133.936 121.748 134.222 121.47 134.47C118.04 136.75 114.76 139.25 111.47 141.7C104.175 147.312 97.1945 153.321 90.5598 159.7C83.7798 165.98 77.4998 172.78 71.1398 179.48C70.9047 179.662 70.709 179.889 70.5646 180.149C70.4202 180.408 70.3301 180.695 70.2998 180.99C70.5265 181.298 70.8313 181.541 71.1829 181.692C71.5345 181.843 71.9201 181.898 72.2998 181.85C74.456 181.93 76.606 182.13 78.7398 182.45C87.3398 183.06 95.9198 183.87 104.51 184.67C114.13 185.56 123.73 186.56 133.31 187.78C146.173 189.283 158.913 191.706 171.43 195.03C180.08 197.44 188.48 200.41 195.67 206.03C197.318 207.425 198.887 208.911 200.37 210.48C200.89 210.98 201.57 211.79 202.25 211.34C203.08 210.8 202.42 209.87 202.1 209.17Z" fill="#FFFFE7"/>
<path d="M208.52 230.58C208.411 228.909 208.008 227.27 207.33 225.74C207.029 225.276 206.768 224.788 206.55 224.28C204.91 216.79 200.55 210.95 194.7 206.12C189.61 201.89 183.51 199.46 177.29 197.3C164.54 192.86 151.29 190.49 138.03 188.64C131.03 187.64 124.03 186.83 117.03 186.28C109.79 185.72 102.57 184.9 95.34 184.2C92.5 184.11 89.71 183.45 86.85 183.69V183.74C86.8157 183.637 86.7686 183.54 86.71 183.45C84.83 182.74 82.82 182.79 80.87 182.51C79.87 182.36 78.87 182.04 77.93 182.84C77.9099 183.288 77.7163 183.711 77.39 184.02C71.16 190.34 65.39 197.02 59.46 203.69C54.05 209.77 48.57 215.78 43.46 222.13C51.94 221.18 60.33 219.62 68.69 217.97C83.24 215.09 97.69 211.86 112.25 208.89C122.201 206.828 132.287 205.485 142.43 204.87C151.117 204.362 159.834 204.791 168.43 206.15C177.05 207.51 185.19 210.1 192.29 215.41C198.22 219.86 203.08 225.16 205.81 232.18C206.21 233.18 206.97 232.99 207.75 232.76C208.088 232.521 208.344 232.183 208.482 231.792C208.62 231.402 208.633 230.978 208.52 230.58Z" fill="#FFFFE7"/>
<path d="M212.26 221.3C212.1 220.65 211.91 220.01 211.76 219.36C211.829 210.918 210.125 202.554 206.76 194.81C201.81 183.12 194.22 173.07 186.76 162.97C180.65 154.74 174.26 146.71 167.5 138.97C161.57 132.21 155.62 125.45 149.13 119.2C146.933 116.757 144.595 114.443 142.13 112.27C142.164 112.213 142.194 112.152 142.22 112.09C140.57 109.33 138.02 107.53 135.47 105.73C135.47 105.73 135.34 105.78 135.27 105.81C134.99 106.339 134.554 106.769 134.02 107.04C125.14 111.84 117.02 117.72 108.86 123.67C109.565 124.541 110.448 125.251 111.45 125.75C126.85 135.54 142.11 145.53 156.63 156.62C166.112 163.866 174.824 172.065 182.63 181.09C190.553 190.014 197.449 199.799 203.19 210.26C206.64 216.71 209.7 223.33 210 230.86C210 231.62 209.94 232.61 211.19 232.61C212.03 232.15 211.99 231.28 212.13 230.5C212.567 227.452 212.611 224.36 212.26 221.3Z" fill="#FFFFE7"/>
<path d="M367.36 219.95C360.5 209.87 353.54 199.81 346.93 189.56C346.048 188.139 344.882 186.914 343.506 185.963C342.129 185.011 340.572 184.353 338.93 184.03C330.09 181.837 321.177 180.04 312.19 178.64C307.037 177.672 301.831 177.005 296.6 176.64C289.2 176.35 281.76 176.13 274.36 177.38C266.507 178.561 258.896 181.002 251.82 184.61C251.25 184.91 248 187.23 247.88 187.27C247.318 187.752 246.784 188.267 246.28 188.81C242.19 193.64 238.03 198.4 234.09 203.34C229.22 209.42 224.44 215.59 220.17 222.13C217.323 225.612 214.805 229.352 212.65 233.3C212.753 233.438 212.903 233.532 213.072 233.564C213.241 233.595 213.415 233.562 213.56 233.47C214.146 232.534 214.795 231.639 215.5 230.79C220.97 224.821 227.576 220.004 234.93 216.62C245.5 211.74 256.65 209.51 268.18 208.74C271.304 208.395 274.457 208.395 277.58 208.74C282.26 208.74 286.9 209.28 291.58 209.57C301 210.15 310.14 212.32 319.4 213.83C323.85 214.55 328.15 216.02 332.68 216.36C334.55 217.12 336.57 217.15 338.52 217.52C348.46 219.4 358.44 221.02 368.52 222.12C368.306 221.317 367.909 220.575 367.36 219.95Z" fill="#FFFFE7"/>
<path d="M170.62 238.33C168.04 238.88 165.62 237.65 163.08 237.65C162.269 237.606 161.46 237.513 160.66 237.37C161.78 236.14 163.41 235.65 164.66 234.66C165.48 234.03 166.04 234.66 166.6 235.14C167.98 236.19 169.3 237.27 170.62 238.33Z" fill="#CDB098"/>
<path d="M108.79 123.69C144.86 143.57 214.69 196.99 208.87 233.02C206.41 230.09 206.98 221.76 203.07 217.02C182.8 182.44 92.9297 187.93 69.9297 181.92C114.51 183.31 185.41 189.53 202.12 211.26C177.98 166.25 139.17 148.12 108.79 123.69Z" fill="#AD9680"/>
<path d="M225.18 212.79C240.78 192.89 257.76 171.86 279.81 158.18C236.71 187.87 206.51 250.64 211.55 229.18C216.13 179.78 155.93 128.6 133.93 104.62C132.46 103.84 128.01 98.3102 132.59 101.73C172.59 140.46 217.54 187.37 213.71 226.01C212.08 233.47 221.07 214.5 225.18 212.79Z" fill="#92806D"/>
<path d="M430.74 81.9401C422.18 74.9535 413.637 67.9535 405.11 60.9401C400.85 57.2401 396.52 53.6401 391.97 50.3001C390.53 49.6501 390.16 51.0001 389.59 51.7001C383.737 59.0335 377.917 66.3668 372.13 73.7001C363.75 84.2901 355.5 94.9901 346.97 105.47C346.15 106.47 345.19 107.47 345.32 108.96C345.416 109.393 345.635 109.789 345.95 110.1C349.51 113.227 353.177 116.227 356.95 119.1C357.171 119.298 357.436 119.442 357.723 119.518C358.009 119.595 358.31 119.602 358.6 119.54C358.937 120.676 359.672 121.653 360.67 122.29C368.904 128.957 377.154 135.623 385.42 142.29C386.1 142.83 386.72 143.52 387.74 143.29C402.22 123.957 416.704 104.643 431.19 85.3501C432.26 83.8701 431.98 82.9601 430.74 81.9401ZM400.98 113.31C398.49 116.41 396.24 119.7 393.91 122.93C391.91 125.76 391.62 125.81 388.91 123.69C383.44 119.34 378.04 114.92 372.59 110.54C371.32 109.54 370.13 108.33 368.48 107.88C368.43 106.96 367.48 106.51 366.93 105.95C365.13 104.26 363.11 102.82 361.21 101.24C359.76 100.04 359.55 98.9601 360.84 97.4901C362.99 95.0401 364.84 92.3401 366.93 89.8301C371.02 84.8301 370.99 84.9001 376.06 88.9801C377.33 89.9801 378.34 91.6001 380.28 91.4501C380.41 92.9401 381.63 93.6501 382.65 94.4501C388.55 99.2401 394.4 104.11 400.32 108.89C402.07 110.29 402.46 111.47 400.98 113.31Z" fill="#A4ACF8"/>
<path d="M389.28 48.1002C388.9 47.7302 388.55 47.3202 388.15 46.9902C383.31 42.9902 381.08 43.2402 377.15 48.1402C371.903 54.8069 366.656 61.4735 361.41 68.1402L334.13 102.87C334.116 102.978 334.124 103.088 334.155 103.192C334.186 103.297 334.239 103.394 334.309 103.477C334.38 103.559 334.467 103.627 334.565 103.674C334.664 103.721 334.771 103.747 334.88 103.75C337.52 103.75 339.59 105.22 341.88 106.2C342.049 106.21 342.22 106.21 342.39 106.2C343.39 107.2 344.71 107.84 345.67 108.89L362.13 87.8902C366.37 82.4969 370.62 77.1135 374.88 71.7402C380.573 64.5935 386.28 57.4535 392 50.3202C391.268 49.3879 390.339 48.6297 389.28 48.1002Z" fill="#4C64C9"/>
<path d="M338.27 106.38C338.03 106.126 337.739 105.928 337.417 105.797C337.094 105.666 336.746 105.606 336.398 105.621C336.05 105.637 335.709 105.726 335.399 105.885C335.089 106.043 334.816 106.267 334.6 106.54C334.37 106.569 334.143 106.616 333.92 106.68C330.19 109.14 329.92 111.9 333.2 114.77C335.79 117.05 338.57 119.09 341.2 121.27C352.64 130.603 364.097 139.91 375.57 149.19C376.69 150.09 377.71 151.4 379.47 151L383.25 146L384.76 144.22C369.286 131.613 353.79 119 338.27 106.38Z" fill="#F6F7E0"/>
<path d="M368.46 108.47C365.57 106.06 362.71 103.61 359.77 101.26C358.49 100.26 358.19 99.3504 359.29 97.9904C362.62 93.9004 365.94 89.8004 369.14 85.6104C370.43 83.9204 371.44 83.9304 372.98 85.2904C375.42 87.4404 378.03 89.3904 380.56 91.4304C387.76 97.3804 394.91 103.43 402.2 109.23C403.74 110.46 403.63 111.23 402.62 112.6C399.43 116.83 396.24 121.05 393.22 125.4C392.04 127.08 391.29 126.75 389.95 125.66C382.83 119.87 375.63 114.19 368.46 108.47Z" fill="#CCD7F3"/>
<path d="M346.01 127.68C341.78 123.5 328.64 115.58 329.01 110.99C329.95 106.34 334.22 100.69 339.51 103.93C347.19 108.84 353 115.16 360.65 120.93C369.22 129.29 381.04 135.36 387.33 143.93C383.33 147.09 374.1 135.28 370.95 133.93C360.77 125.74 351.1 117.86 340.95 109.64C339.11 108.32 337.53 105.9 334.95 106.81C326.86 111.64 336.33 115.5 340.21 119.28C353.58 130.9 368.15 140.46 380.21 152.57C380.77 158.71 345.4 128.38 346.01 127.68Z" fill="#7881DA"/>
</svg>
