<svg width="500" height="500" viewBox="0 0 500 500" fill="none" xmlns="http://www.w3.org/2000/svg">
<path d="M40.2881 368.175L92.7161 367.932L145.144 367.844L250 367.676L354.856 367.843L407.284 367.931L459.711 368.175L407.284 368.42L354.856 368.508L250 368.674L145.144 368.507L92.7161 368.418L40.2881 368.175Z" fill="#263238"/>
<path d="M409.543 284.778H334.36V368.034H409.543V284.778Z" fill="#EBEBEB"/>
<path d="M448.364 284.779H409.543V368.038H448.364V284.779Z" fill="#DBDBDB"/>
<path d="M445.691 362.303C442.816 356.382 439.965 350.445 437.144 344.485L428.721 326.577L420.406 308.591C417.648 302.586 414.92 296.559 412.217 290.514C415.093 296.434 417.944 302.372 420.765 308.331L429.187 326.239L437.501 344.225C440.26 350.232 442.987 356.259 445.691 362.303Z" fill="#EBEBEB"/>
<path d="M445.691 290.515C442.987 296.559 440.26 302.586 437.502 308.591L429.188 326.577L420.766 344.485C417.945 350.445 415.094 356.382 412.218 362.302C414.921 356.257 417.649 350.23 420.407 344.225L428.722 326.239L437.145 308.331C439.965 302.373 442.816 296.436 445.691 290.515Z" fill="#EBEBEB"/>
<path d="M409.543 159.036H334.36V236.556H409.543V159.036Z" fill="#EBEBEB"/>
<path d="M448.364 159.036H409.543V236.56H448.364V159.036Z" fill="#DBDBDB"/>
<path d="M378.332 177.029H376.741H375.545L374.861 175.643L373.905 177.029L372.606 174.177L371.376 177.029H367.857H366.251L365.67 175.126L365.123 177.029H364.079V159.036H378.332V177.029Z" fill="#DBDBDB"/>
<path d="M445.691 231.613C442.816 226.1 439.965 220.572 437.144 215.023L428.721 198.349L420.406 181.602C417.648 176.011 414.92 170.399 412.217 164.771C415.093 170.283 417.944 175.812 420.765 181.361L429.187 198.035L437.501 214.782C440.26 220.374 442.987 225.986 445.691 231.613Z" fill="#EBEBEB"/>
<path d="M445.691 164.772C442.987 170.4 440.26 176.012 437.502 181.603L429.188 198.35L420.766 215.024C417.945 220.573 415.094 226.101 412.218 231.614C414.921 225.986 417.649 220.374 420.407 214.783L428.722 198.037L437.145 181.363C439.965 175.813 442.816 170.285 445.691 164.772Z" fill="#EBEBEB"/>
<path d="M404.591 223.396H396.244V231.743H404.591V223.396Z" fill="white"/>
<path d="M131.802 217.679H56.6191V295.2H131.802V217.679Z" fill="#EBEBEB"/>
<path d="M170.623 217.68H131.802V295.204H170.623V217.68Z" fill="#DBDBDB"/>
<path d="M167.95 290.257C165.075 284.744 162.224 279.216 159.403 273.667L150.98 256.993L142.665 240.246C139.907 234.655 137.179 229.043 134.476 223.415C137.352 228.927 140.203 234.456 143.024 240.005L151.446 256.679L159.76 273.426C162.519 279.017 165.246 284.629 167.95 290.257Z" fill="#EBEBEB"/>
<path d="M167.95 223.415C165.246 229.043 162.519 234.654 159.761 240.246L151.447 256.993L143.025 273.667C140.204 279.216 137.353 284.744 134.477 290.257C137.18 284.629 139.908 279.017 142.666 273.426L150.981 256.68L159.404 240.006C162.223 234.456 165.075 228.928 167.95 223.415Z" fill="#EBEBEB"/>
<path d="M126.85 282.038H118.503V290.385H126.85V282.038Z" fill="white"/>
<path d="M414.553 236.56H339.37V284.777H414.553V236.56Z" fill="#DBDBDB"/>
<path d="M453.374 236.56H414.553V284.779H453.374V236.56Z" fill="#C7C7C7"/>
<path d="M383.341 254.553H381.75H380.554L379.871 253.167L378.914 254.553L377.616 251.701L376.386 254.553H372.866H371.26L370.68 252.65L370.133 254.553H369.089V236.56H383.341V254.553Z" fill="white"/>
<path d="M450.7 281.91C447.825 278.406 444.974 274.893 442.153 271.366L433.731 260.769L425.416 250.126C422.658 246.573 419.93 243.006 417.227 239.429C420.103 242.932 422.954 246.446 425.775 249.972L434.197 260.569L442.511 271.212C445.269 274.767 447.996 278.334 450.7 281.91Z" fill="#DBDBDB"/>
<path d="M450.7 239.429C447.996 243.006 445.269 246.572 442.511 250.126L434.197 260.769L425.775 271.366C422.954 274.892 420.103 278.406 417.227 281.909C419.93 278.332 422.658 274.766 425.416 271.212L433.731 260.569L442.153 249.972C444.974 246.446 447.826 242.933 450.7 239.429Z" fill="#DBDBDB"/>
<path d="M126.865 169.459H51.6816V217.676H126.865V169.459Z" fill="#DBDBDB"/>
<path d="M165.685 169.46H126.864V217.679H165.685V169.46Z" fill="#C7C7C7"/>
<path d="M95.6534 187.452H94.0624H92.8664L92.1824 186.066L91.2264 187.452L89.9274 184.6L88.6974 187.452H85.1784H83.5724L82.9914 185.549L82.4444 187.452H81.4004V169.46H95.6534V187.452Z" fill="white"/>
<path d="M163.012 214.81C160.137 211.307 157.286 207.793 154.465 204.266L146.042 193.669L137.727 183.026C134.969 179.473 132.241 175.906 129.538 172.329C132.414 175.832 135.265 179.346 138.086 182.872L146.508 193.469L154.822 204.113C157.581 207.666 160.308 211.233 163.012 214.81Z" fill="#DBDBDB"/>
<path d="M163.012 172.329C160.308 175.906 157.581 179.472 154.823 183.026L146.509 193.669L138.087 204.266C135.266 207.793 132.415 211.306 129.539 214.81C132.242 211.233 134.97 207.667 137.728 204.113L146.043 193.47L154.466 182.873C157.286 179.346 160.137 175.832 163.012 172.329Z" fill="#DBDBDB"/>
<path d="M121.809 295.203H46.626V368.034H121.809V295.203Z" fill="#DBDBDB"/>
<path d="M160.63 295.203H121.809V368.038H160.63V295.203Z" fill="#C7C7C7"/>
<path d="M90.5977 313.196H89.0067H87.8107L87.1267 311.81L86.1707 313.196L84.8717 310.344L83.6417 313.196H80.1227H78.5167L77.9357 311.293L77.3887 313.196H76.3447V295.203H90.5977V313.196Z" fill="white"/>
<path d="M157.956 363.704C155.081 358.412 152.23 353.105 149.409 347.778L140.986 331.771L132.671 315.695C129.913 310.328 127.185 304.941 124.482 299.538C127.358 304.829 130.209 310.137 133.03 315.464L141.452 331.471L149.766 347.548C152.525 352.914 155.252 358.302 157.956 363.704Z" fill="#DBDBDB"/>
<path d="M157.956 299.537C155.252 304.939 152.525 310.327 149.767 315.694L141.453 331.771L133.031 347.778C130.21 353.105 127.359 358.412 124.483 363.704C127.186 358.301 129.914 352.914 132.672 347.546L140.987 331.47L149.41 315.463C152.23 310.137 155.081 304.829 157.956 299.537Z" fill="#DBDBDB"/>
<path d="M72.5934 325.055L59.4683 325.334L52.8074 325.446C50.5814 325.493 48.3444 325.483 46.1124 325.501L45.6684 325.504L45.6664 325.055L45.6124 313.865L45.6104 313.363L46.1124 313.365L59.3524 313.428C63.7654 313.433 68.1794 313.541 72.5924 313.592L72.8683 313.595L72.8653 313.865C72.8463 315.764 72.7794 317.652 72.7344 319.519L72.5934 325.055ZM72.5934 325.055L72.4513 319.401C72.4063 317.538 72.3394 315.696 72.3204 313.865L72.5934 314.138C68.1804 314.189 63.7664 314.297 59.3534 314.302L46.1133 314.365L46.6124 313.866L46.5583 325.056L46.1124 324.61C48.2944 324.628 50.4704 324.618 52.6584 324.665L59.2374 324.777L72.5934 325.055Z" fill="#EBEBEB"/>
<path d="M57.8219 339.165L44.6969 339.444L38.0359 339.556C35.8099 339.603 33.5729 339.593 31.3409 339.611L30.8969 339.614L30.8949 339.165L30.8409 327.975L30.8389 327.473L31.3409 327.475L44.5809 327.538C48.9939 327.543 53.4079 327.651 57.8209 327.702L58.0969 327.705L58.0939 327.975C58.0749 329.874 58.0079 331.762 57.9629 333.629L57.8219 339.165ZM57.8219 339.165L57.6799 333.511C57.6349 331.648 57.5679 329.806 57.5489 327.975L57.8219 328.248C53.4089 328.299 48.9949 328.407 44.5819 328.412L31.3419 328.475L31.8409 327.976L31.7869 339.166L31.3409 338.72C33.5229 338.738 35.6989 338.728 37.8869 338.775L44.4659 338.887L57.8219 339.165Z" fill="#EBEBEB"/>
<path d="M338.599 136.601L325.474 136.88L318.813 136.992C316.587 137.039 314.35 137.029 312.118 137.047L311.674 137.051L311.672 136.602L311.618 125.412L311.616 124.91L312.118 124.912L325.358 124.975C329.771 124.98 334.185 125.087 338.598 125.139L338.874 125.142L338.871 125.412C338.852 127.311 338.785 129.199 338.74 131.066L338.599 136.601ZM338.599 136.601L338.457 130.947C338.412 129.084 338.345 127.242 338.326 125.411L338.599 125.684C334.186 125.735 329.772 125.843 325.359 125.848L312.119 125.911L312.618 125.412L312.564 136.602L312.118 136.157C314.3 136.175 316.476 136.165 318.664 136.212L325.243 136.324L338.599 136.601Z" fill="#EBEBEB"/>
<path d="M323.828 150.71L310.703 150.989L304.042 151.101C301.816 151.148 299.579 151.138 297.347 151.156L296.903 151.16L296.901 150.711L296.847 139.521L296.845 139.019L297.347 139.021L310.587 139.084C315 139.089 319.414 139.196 323.827 139.248L324.103 139.251L324.1 139.521C324.081 141.42 324.014 143.308 323.969 145.175L323.828 150.71ZM323.828 150.71L323.686 145.056C323.641 143.193 323.574 141.351 323.555 139.52L323.828 139.793C319.415 139.844 315.001 139.952 310.588 139.957L297.348 140.02L297.847 139.521L297.793 150.711L297.347 150.266C299.529 150.284 301.705 150.274 303.893 150.321L310.472 150.433L323.828 150.71Z" fill="#EBEBEB"/>
<path d="M309.114 136.601L295.989 136.88L289.328 136.992C287.102 137.039 284.865 137.029 282.633 137.047L282.189 137.051L282.187 136.602L282.133 125.412L282.131 124.91L282.633 124.912L295.873 124.975C300.286 124.98 304.7 125.087 309.113 125.139L309.389 125.142L309.386 125.412C309.367 127.311 309.3 129.199 309.255 131.066L309.114 136.601ZM309.114 136.601L308.972 130.947C308.927 129.084 308.86 127.242 308.841 125.411L309.114 125.684C304.701 125.735 300.287 125.843 295.874 125.848L282.634 125.911L283.133 125.412L283.079 136.602L282.633 136.157C284.815 136.175 286.991 136.165 289.179 136.212L295.758 136.324L309.114 136.601Z" fill="#EBEBEB"/>
<path d="M468.659 339.165L455.534 339.444L448.873 339.556C446.647 339.603 444.41 339.593 442.178 339.611L441.734 339.614L441.732 339.165L441.678 327.975L441.676 327.473L442.178 327.475L455.418 327.538C459.831 327.543 464.245 327.651 468.658 327.702L468.934 327.705L468.931 327.975C468.912 329.874 468.845 331.762 468.8 333.629L468.659 339.165ZM468.659 339.165L468.517 333.511C468.472 331.648 468.405 329.806 468.386 327.975L468.659 328.248C464.246 328.299 459.832 328.407 455.419 328.412L442.179 328.475L442.678 327.976L442.624 339.166L442.178 338.72C444.36 338.738 446.536 338.728 448.724 338.775L455.303 338.887L468.659 339.165Z" fill="#EBEBEB"/>
<path d="M453.887 65.4859L440.762 65.7649L434.101 65.8769C431.875 65.9239 429.638 65.9139 427.406 65.9319L426.962 65.9359L426.96 65.4869L426.906 54.2969L426.904 53.7949L427.406 53.7969L440.646 53.8599C445.059 53.8649 449.473 53.9729 453.886 54.0239L454.162 54.0269L454.159 54.2969C454.14 56.1959 454.073 58.0839 454.028 59.9509L453.887 65.4859ZM453.887 65.4859L453.745 59.8319C453.7 57.9689 453.633 56.1269 453.614 54.2959L453.887 54.5689C449.474 54.6199 445.06 54.7279 440.647 54.7329L427.407 54.7959L427.906 54.2969L427.852 65.4869L427.406 65.0409C429.588 65.0589 431.764 65.0489 433.952 65.0959L440.531 65.2079L453.887 65.4859Z" fill="#EBEBEB"/>
<path d="M468.659 79.5963L455.534 79.8753L448.873 79.9873C446.647 80.0343 444.41 80.0243 442.178 80.0423L441.734 80.0453L441.732 79.5963L441.678 68.4063L441.676 67.9043L442.178 67.9063L455.418 67.9693C459.831 67.9743 464.245 68.0823 468.658 68.1333L468.934 68.1363L468.931 68.4063C468.912 70.3053 468.845 72.1933 468.8 74.0603L468.659 79.5963ZM468.659 79.5963L468.517 73.9423C468.472 72.0793 468.405 70.2373 468.386 68.4063L468.659 68.6793C464.246 68.7303 459.832 68.8383 455.419 68.8433L442.179 68.9063L442.678 68.4073L442.624 79.5973L442.178 79.1513C444.36 79.1693 446.536 79.1593 448.724 79.2063L455.303 79.3183L468.659 79.5963Z" fill="#EBEBEB"/>
<path d="M72.5934 65.4859L59.4683 65.7649L52.8074 65.8769C50.5814 65.9239 48.3444 65.9139 46.1124 65.9319L45.6684 65.9359L45.6664 65.4869L45.6124 54.2969L45.6104 53.7949L46.1124 53.7969L59.3524 53.8599C63.7654 53.8649 68.1794 53.9729 72.5924 54.0239L72.8683 54.0269L72.8653 54.2969C72.8463 56.1959 72.7794 58.0839 72.7344 59.9509L72.5934 65.4859ZM72.5934 65.4859L72.4513 59.8319C72.4063 57.9689 72.3394 56.1269 72.3204 54.2959L72.5934 54.5689C68.1804 54.6199 63.7664 54.7279 59.3534 54.7329L46.1133 54.7959L46.6124 54.2969L46.5583 65.4869L46.1124 65.0409C48.2944 65.0589 50.4704 65.0489 52.6584 65.0959L59.2374 65.2079L72.5934 65.4859Z" fill="#EBEBEB"/>
<path d="M255.956 459.348C375.066 459.348 471.623 448.332 471.623 434.745C471.623 421.157 375.066 410.142 255.956 410.142C136.846 410.142 40.2891 421.157 40.2891 434.745C40.2891 448.332 136.846 459.348 255.956 459.348Z" fill="#EBEBEB"/>
<path d="M169.88 56.3057H140.839V368.034H169.88V56.3057Z" fill="#263238"/>
<path d="M359.161 56.3057H330.12V368.034H359.161V56.3057Z" fill="#455A64"/>
<path d="M330.119 86.8779H152.762V97.3469H330.119V86.8779Z" fill="#37474F"/>
<path d="M330.119 154.55H152.762V165.019H330.119V154.55Z" fill="#37474F"/>
<path d="M330.119 222.221H152.762V232.69H330.119V222.221Z" fill="#37474F"/>
<path d="M330.119 289.893H152.762V300.362H330.119V289.893Z" fill="#37474F"/>
<path d="M330.119 357.563H152.762V368.032H330.119V357.563Z" fill="#37474F"/>
<path d="M228.257 97.873H173.292V154.546H228.257V97.873Z" fill="#EBEBEB"/>
<path d="M256.638 97.874H228.257V154.55H256.638V97.874Z" fill="#DBDBDB"/>
<path d="M205.439 111.028H204.275H203.401L202.902 110.015L202.202 111.028L201.253 108.942L200.354 111.028H197.781H196.607L196.182 109.636L195.782 111.028H195.019V97.874H205.439V111.028Z" fill="#DBDBDB"/>
<path d="M254.683 150.933C252.581 146.903 250.497 142.861 248.435 138.804L242.277 126.614L236.198 114.371C234.182 110.283 232.188 106.181 230.211 102.066C232.314 106.096 234.398 110.138 236.46 114.194L242.617 126.384L248.695 138.627C250.712 142.716 252.706 146.819 254.683 150.933Z" fill="#EBEBEB"/>
<path d="M254.683 102.067C252.706 106.181 250.712 110.284 248.696 114.371L242.618 126.614L236.461 138.804C234.399 142.861 232.315 146.902 230.212 150.932C232.188 146.817 234.182 142.715 236.199 138.627L242.278 126.384L248.436 114.194C250.496 110.139 252.581 106.097 254.683 102.067Z" fill="#EBEBEB"/>
<path d="M224.636 144.925H218.534V151.027H224.636V144.925Z" fill="white"/>
<path d="M262.87 186.969H207.905V222.219H262.87V186.969Z" fill="#DBDBDB"/>
<path d="M291.251 186.969H262.87V222.221H291.251V186.969Z" fill="#C7C7C7"/>
<path d="M240.052 200.123H238.888H238.014L237.515 199.11L236.815 200.123L235.866 198.038L234.967 200.123H232.394H231.22L230.795 198.732L230.395 200.123H229.632V186.969H240.052V200.123Z" fill="white"/>
<path d="M289.296 220.123C287.194 217.562 285.11 214.993 283.048 212.415L276.89 204.668L270.811 196.887C268.795 194.289 266.801 191.682 264.824 189.067C266.927 191.628 269.011 194.197 271.073 196.775L277.23 204.522L283.308 212.303C285.325 214.9 287.319 217.508 289.296 220.123Z" fill="#DBDBDB"/>
<path d="M289.296 189.066C287.319 191.681 285.326 194.288 283.309 196.886L277.231 204.667L271.074 212.414C269.012 214.992 266.927 217.561 264.825 220.122C266.801 217.507 268.795 214.9 270.812 212.302L276.891 204.521L283.049 196.774C285.109 194.196 287.194 191.627 289.296 189.066Z" fill="#DBDBDB"/>
<path d="M458.602 427.039C458.344 424.689 431.341 366.495 428.905 364.935C427.99 364.326 419.281 367.766 408.878 372.225C408.77 372.273 408.662 372.32 408.554 372.368C406.408 373.282 366.822 383.917 366.822 383.917L384.365 422.003L425.555 410.106L426.186 409.796C426.186 409.796 446.485 427.448 449.345 428.883C452.189 430.303 458.87 429.386 458.602 427.039Z" fill="#FFC3BC"/>
<path d="M401.027 374.579L419.073 411.973L425.552 410.102L426.187 409.796C426.187 409.796 446.487 427.448 449.343 428.882C452.188 430.305 458.875 429.385 458.601 427.043C458.349 424.69 431.341 366.492 428.911 364.939C427.992 364.326 419.281 367.762 408.873 372.227C408.774 372.271 408.665 372.326 408.556 372.369C408.019 372.598 405.098 373.441 401.027 374.579Z" fill="#EBEBEB"/>
<path d="M458.833 427.331C458.576 424.959 431.511 366.101 429.061 364.509C428.135 363.9 419.333 367.342 408.815 371.803L426.154 409.8C426.154 409.8 446.595 427.7 449.47 429.158C452.34 430.603 459.09 429.703 458.833 427.331Z" fill="#EFAF78"/>
<path d="M456.091 427.571C451.312 417.816 432.957 378.02 428.974 368.014C428.941 367.933 428.996 367.908 429.036 367.986C433.984 377.551 452.016 417.495 456.253 427.497C456.343 427.708 456.193 427.776 456.091 427.571Z" fill="#263238"/>
<path d="M445.614 426.346C444.443 424.05 444.502 421.252 445.309 419.336C446.084 417.495 447.485 415.58 449.563 414.709C449.623 414.684 449.674 414.792 449.617 414.828C446.015 417.167 444.239 422.238 445.737 426.29C445.768 426.372 445.654 426.425 445.614 426.346Z" fill="#263238"/>
<path d="M428.896 413.177C427.025 409.253 426.314 404.034 428.415 400.094C428.497 399.942 428.712 400.059 428.705 400.204C428.506 404.62 428.695 408.644 429.413 413.02C429.464 413.329 429.03 413.457 428.896 413.177Z" fill="#263238"/>
<path d="M431.486 415.677C429.615 411.753 428.905 406.534 431.006 402.594C431.087 402.442 431.302 402.56 431.295 402.705C431.096 407.121 431.285 411.145 432.003 415.521C432.053 415.831 431.62 415.958 431.486 415.677Z" fill="#263238"/>
<path d="M434.076 418.181C432.205 414.257 431.494 409.038 433.595 405.099C433.676 404.946 433.892 405.064 433.886 405.209C433.687 409.625 433.876 413.649 434.594 418.025C434.644 418.333 434.21 418.462 434.076 418.181Z" fill="#263238"/>
<path d="M436.667 420.683C434.796 416.759 434.085 411.54 436.186 407.601C436.267 407.448 436.483 407.566 436.477 407.711C436.278 412.127 436.468 416.151 437.184 420.527C437.235 420.836 436.801 420.963 436.667 420.683Z" fill="#263238"/>
<path d="M420.759 374.836C418.735 370.399 425.626 367.246 427.654 371.689C429.678 376.126 422.787 379.28 420.759 374.836Z" fill="#263238"/>
<path d="M425.964 419.313C427.734 415.918 427.972 411.875 428.624 408.169C428.692 407.785 428.3 407.56 427.978 407.605C427.953 407.538 427.89 407.49 427.809 407.533C424.506 409.319 421.23 412.487 419.361 415.765C418.207 417.789 417.745 421.052 420.322 422.289C422.758 423.459 424.931 421.295 425.964 419.313ZM422.777 421C418.3 422.583 419.818 417.189 420.728 415.731C421.313 414.794 422.022 413.911 422.728 413.063C424.208 411.288 425.913 409.757 427.556 408.147C427.124 409.948 426.85 411.769 426.486 413.584C426.051 415.748 425.246 420.127 422.777 421Z" fill="#263238"/>
<path d="M418.841 394.668C416.405 396.163 417.2 399.361 418.556 401.256C420.752 404.324 424.337 407.139 427.806 408.576C427.891 408.611 427.949 408.557 427.967 408.487C428.292 408.5 428.658 408.236 428.551 407.861C427.521 404.242 426.87 400.245 424.76 397.049C423.529 395.184 421.145 393.255 418.841 394.668ZM425.868 402.693C426.417 404.461 426.877 406.245 427.492 407.992C425.692 406.559 423.839 405.211 422.184 403.598C421.394 402.828 420.598 402.022 419.92 401.151C418.865 399.794 416.8 394.585 421.416 395.699C423.961 396.313 425.213 400.586 425.868 402.693Z" fill="#263238"/>
<path d="M314.868 259.68C314.868 259.68 315.598 282.492 319.017 293.725C319.017 293.725 322.749 295.688 323.865 296.389C323.865 296.389 295.527 364.246 297.141 390.352C297.67 398.912 307.366 412.977 317.155 419.068C334.481 429.849 419.053 420.394 419.053 420.394L406.782 369.547C406.782 369.547 353.311 372.524 351.96 369.629C350.247 365.958 360.893 337.418 369.396 314.228C370.255 311.885 378.809 303.242 377.813 287.605C376.843 272.382 370.452 259.679 370.452 259.679H314.868V259.68Z" fill="#37474F"/>
<path d="M397.029 375.198C385.365 374.982 375.856 375.972 364.19 375.978C361.252 375.979 358.315 375.981 355.378 375.983C353.909 375.984 352.441 375.986 350.972 375.985C349.951 375.985 348.925 375.951 347.927 375.711C347.035 375.497 346.11 375.105 345.581 374.317C344.806 373.161 345.223 371.691 345.49 370.439C346.076 367.696 346.74 364.969 347.463 362.258C350.401 351.238 354.238 340.474 357.849 329.663C359.709 324.095 361.568 318.526 363.428 312.959C363.88 311.605 364.332 310.249 364.902 308.94C365.428 307.73 366.074 306.582 366.735 305.442C368.015 303.235 369.158 301.01 369.904 298.561C373.059 288.189 370.025 277.457 366.337 267.673C365.841 266.358 365.328 265.051 364.793 263.752C364.756 263.663 364.615 263.701 364.646 263.797C368.008 274.127 372.018 284.875 369.76 295.9C369.228 298.497 368.336 300.99 367.066 303.317C366.421 304.5 365.713 305.647 365.083 306.838C364.442 308.049 363.92 309.311 363.455 310.599C361.48 316.074 359.729 321.64 357.876 327.158C354.19 338.135 350.314 349.081 347.243 360.251C346.478 363.032 345.77 365.829 345.142 368.644C344.68 370.717 343.643 373.542 345.451 375.26C346.776 376.518 348.858 376.675 350.588 376.686C353.495 376.705 356.404 376.67 359.311 376.662C371.142 376.629 395.571 375.638 397.039 375.606C397.302 375.599 397.29 375.203 397.029 375.198Z" fill="#263238"/>
<path d="M410.073 418.03C408.928 412.092 407.834 406.123 406.519 400.217C405.2 394.295 403.778 388.399 402.246 382.529C401.814 380.871 401.365 379.219 400.923 377.564C400.712 376.775 400.501 375.987 400.27 375.203C400.037 374.413 399.868 373.592 399.543 372.835C399.507 372.75 399.393 372.799 399.398 372.88C399.485 374.391 399.904 375.954 400.207 377.438C400.499 378.871 400.775 380.307 401.07 381.74C401.678 384.686 402.298 387.628 402.941 390.567C404.229 396.459 405.693 402.296 407.193 408.136C408.045 411.453 408.902 414.77 409.77 418.081C409.82 418.269 410.111 418.227 410.073 418.03Z" fill="#263238"/>
<path d="M306.851 342.813L366.887 321.068C367.73 318.759 368.572 316.472 369.393 314.228C370.257 311.886 378.804 303.241 377.808 287.602C376.845 272.38 370.454 259.674 370.454 259.674H314.872C314.872 259.674 315.594 282.491 319.02 293.719C319.02 293.719 322.752 295.689 323.868 296.389C323.868 296.391 314.511 318.792 306.851 342.813Z" fill="#263238"/>
<path d="M215.587 429.774C217.852 430.455 281.97 428.334 284.358 426.701C285.276 426.097 285.512 416.736 285.471 405.417C285.47 405.299 285.468 405.181 285.467 405.063C285.464 402.731 280.164 363.621 280.164 363.621L235.283 364.973L244.086 405.969L244.125 406.671C244.125 406.671 219.946 418.46 217.507 420.532C215.089 422.595 213.322 429.103 215.587 429.774Z" fill="#FFC3BC"/>
<path d="M215.586 429.779C217.851 430.457 281.969 428.334 284.355 426.704C285.274 426.091 285.515 416.734 285.471 405.419V405.058C285.46 404.423 285.066 401.031 284.497 396.445L242.397 398.087L244.082 405.966L244.126 406.666C244.126 406.666 219.941 418.463 217.5 420.531C215.093 422.6 213.32 429.101 215.586 429.779Z" fill="#EBEBEB"/>
<path d="M215.099 430.053C217.386 430.735 282.132 428.578 284.549 426.936C285.469 426.318 285.705 416.87 285.666 405.446L243.919 406.715C243.919 406.715 219.499 418.628 217.041 420.714C214.597 422.8 212.812 429.372 215.099 430.053Z" fill="#EFAF78"/>
<path d="M215.94 427.432C226.785 426.804 270.583 425.295 281.351 425.498C281.438 425.499 281.441 425.559 281.353 425.566C270.618 426.423 226.808 427.578 215.945 427.61C215.717 427.611 215.711 427.446 215.94 427.432Z" fill="#263238"/>
<path d="M221.127 418.246C223.698 418.055 226.254 419.194 227.708 420.68C229.106 422.108 230.328 424.141 230.326 426.394C230.326 426.459 230.207 426.464 230.195 426.398C229.434 422.172 225.446 418.57 221.131 418.382C221.044 418.379 221.039 418.253 221.127 418.246Z" fill="#263238"/>
<path d="M239.744 407.934C244.086 407.729 249.174 409.095 251.991 412.558C252.1 412.692 251.908 412.846 251.777 412.783C247.782 410.89 243.999 409.505 239.687 408.472C239.383 408.399 239.433 407.949 239.744 407.934Z" fill="#263238"/>
<path d="M236.435 409.354C240.777 409.149 245.865 410.514 248.683 413.977C248.792 414.111 248.6 414.264 248.469 414.202C244.475 412.308 240.691 410.924 236.379 409.891C236.074 409.818 236.124 409.368 236.435 409.354Z" fill="#263238"/>
<path d="M233.124 410.773C237.466 410.568 242.554 411.934 245.372 415.396C245.481 415.53 245.289 415.683 245.158 415.621C241.164 413.727 237.38 412.343 233.068 411.309C232.763 411.237 232.813 410.787 233.124 410.773Z" fill="#263238"/>
<path d="M229.815 412.192C234.157 411.987 239.245 413.352 242.062 416.816C242.171 416.95 241.979 417.104 241.848 417.041C237.854 415.147 234.07 413.763 229.758 412.729C229.454 412.656 229.504 412.207 229.815 412.192Z" fill="#263238"/>
<path d="M278.244 415.282C283.119 415.134 283.357 422.709 278.475 422.857C273.6 423.005 273.362 415.431 278.244 415.282Z" fill="#263238"/>
<path d="M235.222 402.855C237.667 405.802 241.302 407.587 244.466 409.623C244.794 409.834 245.153 409.56 245.236 409.246C245.308 409.249 245.376 409.209 245.368 409.117C245.001 405.381 243.349 401.133 241.051 398.14C239.632 396.292 236.802 394.602 234.664 396.499C232.641 398.293 233.794 401.135 235.222 402.855ZM234.901 399.263C235.176 394.522 239.561 398.011 240.552 399.415C241.189 400.317 241.729 401.313 242.237 402.292C243.3 404.344 244.051 406.508 244.899 408.647C243.406 407.551 241.833 406.593 240.301 405.554C238.475 404.316 234.749 401.877 234.901 399.263Z" fill="#263238"/>
<path d="M260.701 405.833C260.266 403.009 257.01 402.503 254.738 403.019C251.058 403.856 247.075 406.071 244.407 408.712C244.341 408.777 244.37 408.851 244.426 408.895C244.289 409.19 244.39 409.629 244.777 409.676C248.513 410.129 252.45 411.076 256.213 410.369C258.41 409.956 261.113 408.505 260.701 405.833ZM250.581 409.204C248.738 409.026 246.916 408.759 245.067 408.649C247.086 407.544 249.046 406.358 251.174 405.457C252.19 405.027 253.241 404.605 254.307 404.318C255.967 403.871 261.569 403.985 258.754 407.809C257.202 409.917 252.778 409.416 250.581 409.204Z" fill="#263238"/>
<path d="M240.428 402.84H290.641C290.641 402.84 281.697 334.489 284.673 330.025C285.978 328.067 351.158 334.6 370.228 313.946C387.663 295.062 369.92 259.679 369.92 259.679H316.419C316.419 259.679 315.326 274.845 312.449 280.906C311.215 283.506 251.449 279.804 242.094 296.88C229.592 319.7 240.428 402.84 240.428 402.84Z" fill="#37474F"/>
<path d="M285.346 393.29C279.682 393.124 274 392.901 268.329 392.908C262.643 392.915 256.958 393.028 251.273 393.254C249.668 393.318 244.93 393.543 244.165 393.599C243.394 393.655 242.609 393.643 241.848 393.796C241.762 393.813 241.784 393.935 241.858 393.947C243.088 394.16 255.938 394.305 258.758 394.313C264.41 394.329 270.051 394.163 275.701 393.961C278.911 393.846 282.12 393.727 285.328 393.596C285.51 393.589 285.533 393.296 285.346 393.29Z" fill="#263238"/>
<path d="M318.602 276.056C318.826 274.452 319.036 272.845 319.227 271.237C319.661 267.569 320.042 263.875 320.154 260.182C320.163 259.893 319.748 259.916 319.716 260.187C319.375 263.037 319.111 265.897 318.789 268.749C318.47 271.573 318.222 274.454 317.69 277.248C317.53 278.091 317.175 279.502 316.098 279.519C314.648 279.541 314.374 277.586 314.249 276.524C313.937 273.871 313.967 271.201 314.105 268.538C314.262 265.507 314.642 262.482 314.977 259.467C314.989 259.359 314.809 259.338 314.787 259.444C313.542 265.31 312.346 271.463 313.381 277.461C313.583 278.631 314.103 279.883 315.325 280.29C315.345 280.297 315.364 280.298 315.383 280.304C315.368 280.336 315.348 280.365 315.345 280.403C315.335 280.573 315.346 280.744 315.341 280.914C315.333 281.056 315.332 281.199 315.338 281.342C315.336 281.639 315.318 281.936 315.331 282.234C315.342 282.508 315.707 282.51 315.767 282.274C315.839 282.258 315.905 282.219 315.925 282.127C316.05 281.56 315.98 280.956 315.891 280.387C316.599 280.408 317.244 280.035 317.673 279.428C318.355 278.457 318.444 277.19 318.602 276.056Z" fill="#263238"/>
<path d="M313.278 280.401C317.407 283.129 321.209 286.471 324.791 289.87C324.932 290.003 324.758 290.23 324.6 290.108C320.68 287.078 316.653 284.107 312.905 280.866C312.611 280.611 312.961 280.192 313.278 280.401Z" fill="#263238"/>
<path d="M357.257 283.313C356.093 283.283 354.954 283.259 353.804 283.047C352.792 282.86 351.787 282.576 350.801 282.284C348.948 281.736 346.689 281.086 345.34 279.622C343.969 278.134 343.05 276.107 342.235 274.278C341.339 272.266 340.655 270.098 340.416 267.903C340.406 267.806 340.255 267.807 340.263 267.907C340.446 270.196 340.741 272.448 341.398 274.656C341.723 275.751 342.166 276.821 342.662 277.849C343.149 278.857 343.685 279.882 344.451 280.709C345.946 282.323 348.394 283.11 350.491 283.529C352.672 283.965 355.111 283.961 357.298 283.568C357.448 283.54 357.396 283.316 357.257 283.313Z" fill="#263238"/>
<path d="M279.257 326.794C279.581 325.516 280.409 324.69 281.718 324.46C283.126 324.213 284.636 324.359 286.059 324.373C289.404 324.404 292.749 324.443 296.095 324.45C309.271 324.477 322.559 324.106 335.516 321.51C341.801 320.251 348.056 318.495 353.948 315.946C358.977 313.77 364.004 310.785 367.139 306.16C370.747 300.835 371.029 293.867 370.906 287.64C370.773 280.926 369.69 274.228 367.678 267.819C367.166 266.187 366.588 264.581 365.944 262.996C365.903 262.896 366.05 262.812 366.094 262.913C368.733 269.03 370.535 275.42 371.323 282.04C371.709 285.283 371.861 288.546 371.767 291.811C371.675 294.99 371.428 298.233 370.53 301.299C367.115 312.955 354.052 317.773 343.487 320.734C330.776 324.297 317.514 325.285 304.367 325.481C297.757 325.579 291.144 325.502 284.535 325.391C283.272 325.37 281.194 325.017 280.445 326.342C280.053 327.036 279.976 327.972 279.854 328.745C279.708 329.675 279.605 330.613 279.535 331.552C279.274 335.064 279.469 338.588 279.675 342.097C280.094 349.232 280.591 356.363 281.156 363.488C281.724 370.652 282.523 377.802 283.044 384.969C283.172 386.724 283.343 388.476 283.51 390.228C283.529 390.428 283.182 390.468 283.156 390.267C281.321 376.103 280.007 361.882 279.076 347.628C278.846 344.108 278.587 340.583 278.49 337.057C278.396 333.672 278.419 330.1 279.257 326.794Z" fill="#263238"/>
<path d="M311.409 329.413C316.4 329.371 320.523 328.973 324.739 328.443C328.904 327.92 333.063 327.352 337.202 326.646C344.397 325.418 351.755 324.066 358.554 321.325C362.211 319.851 365.829 317.927 368.841 315.36C368.924 315.289 369.038 315.407 368.959 315.484C363.815 320.475 357.296 323.405 350.442 325.274C342.627 327.405 334.516 328.641 326.47 329.48C321.686 329.978 316.208 330.004 311.398 329.917C311.063 329.911 311.095 329.416 311.409 329.413Z" fill="#263238"/>
<path d="M326.975 199.323C327.127 215.75 322.673 240.682 316.515 252.763C312.119 261.388 285.934 278.365 272.016 282.194C267.105 283.545 264.653 263.104 267.058 258.094C268.502 255.086 294.666 240.564 297.347 236.556C301.415 230.474 309.669 213.193 315.768 198.42C318.983 190.633 326.881 189.107 326.975 199.323Z" fill="#FFC3BC"/>
<path d="M275.651 253.427C275.651 253.427 267.943 252.499 264.467 252.838C260.991 253.177 248.502 259.21 249.652 261.981C251.136 265.559 259.032 263.497 262.767 261.982C262.767 261.982 266.193 270.262 272.18 270.009C278.167 269.754 275.651 253.427 275.651 253.427Z" fill="#FFC3BC"/>
<path d="M276.583 280.459C273.865 281.676 260.92 286.154 257.039 286.594C253.158 287.034 241.897 287.492 241.258 284.553C240.619 281.615 243.905 281.217 243.905 281.217C243.905 281.217 239.119 280.657 238.746 277.641C238.373 274.625 243.505 274.175 243.505 274.175C243.505 274.175 238.632 273.242 238.475 270.207C238.318 267.172 243.554 267.583 243.554 267.583C243.554 267.583 239.059 266.937 239.982 264.382C241.091 261.308 249.244 263.435 253.492 262.627C254.457 262.444 272.782 257.518 272.782 257.518L276.583 280.459Z" fill="#FFC3BC"/>
<path d="M243.103 267.557C249.102 269.106 251.995 268.747 257.803 266.884C257.916 266.847 257.996 267.008 257.881 267.057C252.359 269.398 248.796 270.373 243.013 267.843C242.73 267.72 242.818 267.483 243.103 267.557Z" fill="#263238"/>
<path d="M243.03 274.043C249.401 275.108 252.542 274.746 258.769 273.242C258.857 273.221 258.902 273.368 258.815 273.397C252.83 275.383 249.253 276.273 243.027 274.373C242.745 274.288 242.738 273.995 243.03 274.043Z" fill="#263238"/>
<path d="M244.22 281.132C250.463 281.718 253.924 281.469 259.781 279.234C259.919 279.181 260.009 279.378 259.876 279.444C254.125 282.304 249.808 282.647 244.222 281.324C243.842 281.233 243.827 281.095 244.22 281.132Z" fill="#263238"/>
<path d="M250.383 262.831C254.091 265.117 258.865 262.812 262.598 261.613C262.882 261.522 263.055 261.718 263.082 261.949C264.75 265.324 268.085 269.598 272.014 270.189C272.129 270.206 272.12 270.372 272.002 270.37C267.702 270.309 264.082 266.376 262.493 262.563C258.684 263.853 253.794 265.955 250.359 262.866C250.339 262.848 250.359 262.817 250.383 262.831Z" fill="#263238"/>
<path d="M304.797 216.794L325.659 230.565C325.659 230.565 328.428 203.214 326.973 194.94C325.335 185.629 320.932 188.503 315.712 195.818C310.492 203.134 304.797 216.794 304.797 216.794Z" fill="#7E83B7"/>
<path opacity="0.1" d="M304.797 216.794L325.659 230.565C325.659 230.565 328.428 203.214 326.973 194.94C325.335 185.629 320.932 188.503 315.712 195.818C310.492 203.134 304.797 216.794 304.797 216.794Z" fill="black"/>
<path d="M308.021 213.507C310.915 214.901 319.005 220.304 320.351 221.184C321.061 221.648 323.811 223.623 324.522 224.08C324.613 224.139 324.506 224.268 324.415 224.21C323.057 223.338 321.606 222.605 320.238 221.741C318.838 220.858 310.442 215.679 307.955 213.613C307.901 213.568 307.956 213.475 308.021 213.507Z" fill="#263238"/>
<path d="M327.247 205.991C327.258 205.875 327.422 205.899 327.423 206.01C327.452 208.347 327.422 210.684 327.354 213.021C327.683 211.841 327.862 210.641 327.973 209.407C327.978 209.352 328.058 209.363 328.057 209.416C328.023 210.819 327.73 212.235 327.335 213.589C327.283 215.217 327.218 216.845 327.133 218.471C326.917 222.609 326.75 226.761 326.296 230.881C326.272 231.1 326.018 231.203 325.843 231.078C325.134 230.575 324.442 230.058 323.769 229.508C323.699 229.451 323.761 229.318 323.85 229.362C324.496 229.68 325.121 230.031 325.746 230.386C325.848 226.383 326.155 222.386 326.371 218.389C326.596 214.253 326.858 210.115 327.247 205.991Z" fill="#263238"/>
<path d="M378.213 267.689C378.212 267.684 310.909 277.034 310.91 277.039C311.096 278.358 307.347 223.802 320.405 189.589C321.295 187.257 331.549 183.458 336.809 187.11C359.859 203.111 378.332 268.546 378.213 267.689Z" fill="#A8ADE0"/>
<path opacity="0.1" d="M339.239 188.286L320.453 191.404C320.484 191.29 320.524 191.164 320.575 191.05L338.914 188C339.026 188.091 339.137 188.183 339.239 188.286ZM344.412 193.883L318.486 198.19C318.445 198.304 318.415 198.418 318.394 198.532L344.645 194.191C344.574 194.089 344.493 193.986 344.412 193.883ZM348.733 199.96L316.802 205.261C316.771 205.375 316.751 205.489 316.731 205.603L348.925 200.269C348.865 200.166 348.804 200.063 348.733 199.96ZM352.435 206.14L315.433 212.275C315.412 212.389 315.392 212.503 315.372 212.629L352.597 206.449C352.547 206.346 352.486 206.243 352.435 206.14ZM355.721 212.389L314.317 219.254C314.297 219.369 314.276 219.483 314.266 219.597L355.873 212.697C355.823 212.594 355.772 212.492 355.721 212.389ZM358.724 218.683L313.404 226.2C313.394 226.314 313.374 226.428 313.363 226.542L358.866 219.003C358.825 218.9 358.774 218.786 358.724 218.683ZM361.503 225.012L312.674 233.111C312.663 233.225 312.653 233.339 312.643 233.454L361.635 225.332C361.584 225.217 361.544 225.114 361.503 225.012ZM364.1 231.374L312.095 239.999C312.085 240.113 312.075 240.228 312.065 240.342L364.232 231.694C364.181 231.592 364.14 231.489 364.1 231.374ZM366.544 237.76L311.649 246.865C311.639 246.979 311.629 247.093 311.629 247.207L366.656 238.08C366.625 237.977 366.585 237.874 366.544 237.76ZM368.867 244.169L311.325 253.707C311.314 253.821 311.314 253.924 311.304 254.038L368.979 244.477C368.938 244.374 368.897 244.271 368.867 244.169ZM371.068 250.6L311.112 260.538C311.112 260.653 311.101 260.755 311.112 260.87L371.169 250.908C371.139 250.806 371.098 250.703 371.068 250.6ZM373.168 257.043L311.01 267.347C311 267.461 311 267.575 311.01 267.678L373.269 257.351C373.229 257.248 373.198 257.146 373.168 257.043ZM375.176 263.497L311 274.143V274.463L375.267 263.817C375.237 263.714 375.206 263.6 375.176 263.497ZM377.093 269.963L311.091 280.906C311.101 281.02 311.101 281.135 311.101 281.249L377.184 270.294C377.154 270.191 377.124 270.077 377.093 269.963ZM378.919 276.462L311.294 287.669C311.294 287.783 311.304 287.897 311.304 288L379 276.782C378.98 276.679 378.949 276.565 378.919 276.462Z" fill="#7074A2"/>
<path opacity="0.1" d="M326.405 210.902L336.982 209.399C336.982 209.399 338.947 220.265 338.947 220.574C338.947 220.882 333.855 224.995 333.395 224.827C332.935 224.659 327.926 223.272 327.772 222.963C327.619 222.655 326.405 210.902 326.405 210.902Z" fill="black"/>
<path d="M310.848 229.694H245.323V302.255H310.848V229.694Z" fill="#EFAF78"/>
<path opacity="0.1" d="M310.848 229.694H245.323V302.255H310.848V229.694Z" fill="black"/>
<path d="M211.489 302.263H245.323V229.699H211.489V302.263Z" fill="#EFAF78"/>
<path d="M272.525 245.379H273.912H274.954L275.55 244.172L276.384 245.379L277.515 242.894L278.587 245.379H281.654H283.054L283.56 243.721L284.037 245.379H284.947V229.698H272.525V245.379Z" fill="white"/>
<g opacity="0.1">
<path d="M213.82 297.264C216.325 292.104 218.811 286.929 221.269 281.735L228.61 266.128L235.857 250.453C238.261 245.219 240.638 239.967 242.994 234.698C240.488 239.857 238.003 245.033 235.544 250.227L228.204 265.835L220.958 281.511C218.553 286.743 216.176 291.996 213.82 297.264Z" fill="black"/>
<path d="M213.82 234.698C216.176 239.966 218.553 245.218 220.957 250.452L228.203 266.128L235.543 281.736C238.001 286.93 240.486 292.105 242.993 297.265C240.637 291.997 238.26 286.744 235.856 281.51L228.609 265.835L221.268 250.228C218.81 245.032 216.325 239.858 213.82 234.698Z" fill="black"/>
</g>
<path d="M321.726 245.39H256.209L245.332 229.694H310.849L321.726 245.39Z" fill="#EFAF78"/>
<g opacity="0.2">
<path d="M321.726 245.39H256.209L245.332 229.694H310.849L321.726 245.39Z" fill="black"/>
</g>
<path d="M234.456 245.395H200.721L211.597 229.699H245.332L234.456 245.395Z" fill="#EFAF78"/>
<path opacity="0.1" d="M234.456 245.395H200.721L211.597 229.699H245.332L234.456 245.395Z" fill="black"/>
<path d="M323.888 198.375C327.198 198.688 333.352 193.982 335 189.085C335.111 188.748 334.068 185.607 332.981 181.73C332.33 179.374 331.662 176.736 331.225 174.285C331.138 173.781 316.515 180.758 316.515 180.758C316.515 180.758 318.941 185.628 319.676 189.906C319.733 190.264 319.757 190.603 319.749 190.931C319.752 190.978 319.749 191.036 319.756 191.101C319.786 193.067 320.346 198.041 323.888 198.375Z" fill="#FFC3BC"/>
<path d="M319.745 190.93C319.752 190.979 319.751 191.04 319.759 191.1C320.251 191.08 320.777 191.014 321.347 190.902C330.361 189.091 330.733 177.339 330.682 174.386C328.02 175.264 316.514 180.756 316.514 180.756C316.514 180.756 318.942 185.63 319.678 189.909C319.731 190.265 319.759 190.605 319.745 190.93Z" fill="#263238"/>
<path d="M330.682 154.69C333.151 159.927 332.56 176.178 329.176 180.274C324.27 186.213 315.09 188.047 309.755 181.888C304.583 175.917 305.728 154.752 309.615 150.912C315.34 145.254 327.034 146.955 330.682 154.69Z" fill="#FFC3BC"/>
<path d="M316.616 166.412C316.626 166.371 316.7 166.467 316.697 166.512C316.628 167.605 316.733 168.87 317.712 169.264C317.742 169.276 317.738 169.331 317.701 169.325C316.498 169.117 316.375 167.437 316.616 166.412Z" fill="#263238"/>
<path d="M317.63 165.3C319.395 165.222 319.422 168.758 317.786 168.83C316.177 168.901 316.15 165.365 317.63 165.3Z" fill="#263238"/>
<path d="M310.278 166.639C310.269 166.597 310.193 166.691 310.194 166.736C310.237 167.831 310.102 169.092 309.114 169.464C309.083 169.475 309.087 169.531 309.123 169.525C310.332 169.346 310.494 167.67 310.278 166.639Z" fill="#263238"/>
<path d="M309.292 165.503C307.529 165.383 307.418 168.917 309.051 169.028C310.658 169.138 310.769 165.603 309.292 165.503Z" fill="#263238"/>
<path d="M319.013 163.672C318.53 163.555 318.105 163.366 317.64 163.2C317.115 163.013 316.678 162.919 316.332 162.452C316.146 162.202 316.219 161.749 316.445 161.546C316.972 161.072 317.671 161.141 318.312 161.341C319.007 161.557 319.488 161.902 319.89 162.507C320.28 163.094 319.649 163.828 319.013 163.672Z" fill="#263238"/>
<path d="M307.911 163.734C308.401 163.65 308.838 163.492 309.313 163.359C309.85 163.209 310.292 163.145 310.67 162.704C310.873 162.467 310.832 162.011 310.62 161.792C310.128 161.283 309.425 161.304 308.772 161.457C308.063 161.624 307.559 161.934 307.116 162.51C306.687 163.069 307.265 163.844 307.911 163.734Z" fill="#263238"/>
<path d="M317.707 176.571C317.447 176.829 317.187 177.184 316.79 177.221C316.409 177.256 315.961 177.087 315.61 176.954C315.576 176.941 315.541 176.978 315.563 177.011C315.851 177.429 316.451 177.688 316.958 177.595C317.453 177.505 317.695 177.074 317.812 176.62C317.829 176.556 317.745 176.533 317.707 176.571Z" fill="#263238"/>
<path d="M316.531 173.3C315.925 174.255 315.028 174.782 314.054 174.978C313.62 175.069 313.162 175.087 312.713 175.05C312.625 175.049 312.536 175.04 312.456 175.023C312.376 175.014 312.304 175.005 312.216 174.988C312.088 174.97 312.017 174.865 311.995 174.745V174.737C311.995 174.697 311.996 174.665 312.004 174.625C312.004 174.625 312.004 174.625 312.004 174.617L312.005 174.521C311.975 173.678 312.048 172.395 312.048 172.395C311.741 172.552 310.175 173.27 310.197 172.829C310.387 169.18 310.599 165.122 311.558 161.531C311.584 161.411 311.768 161.437 311.758 161.558C311.714 165.072 311.052 168.555 310.952 172.084C311.452 171.89 312.267 171.531 312.708 171.536C312.828 171.57 312.524 174.013 312.568 174.391C312.568 174.391 312.568 174.407 312.576 174.431C313.994 174.601 315.059 174.165 316.427 173.203C316.509 173.139 316.596 173.212 316.531 173.3Z" fill="#263238"/>
<path d="M313.207 174.618C313.207 174.618 313.962 175.621 314.989 175.978C315.367 176.11 315.774 176.161 316.199 176.044C317.072 175.807 317.088 175.005 316.922 174.319C316.788 173.755 316.522 173.271 316.522 173.271C316.522 173.271 315.254 174.476 313.207 174.618Z" fill="#263238"/>
<path d="M314.989 175.978C315.367 176.11 315.774 176.161 316.199 176.044C317.072 175.807 317.088 175.005 316.922 174.319C315.985 174.422 315.062 175.066 314.989 175.978Z" fill="#FF99BA"/>
<path d="M307.322 156.299C307.909 154.904 308.589 153.498 309.423 153.215C310.257 152.932 310.826 154.966 312.73 155.077C315.301 155.227 316.524 152.856 320.115 152.574C325.272 152.168 327.584 156.459 327.775 163.78C327.945 170.319 331.902 170.899 331.902 170.899C331.902 170.899 334.166 156.455 330.057 151.717C325.947 146.979 316.603 144.953 310.381 149.566C308.113 151.249 307.322 156.299 307.322 156.299Z" fill="#263238"/>
<path d="M328.58 168.354C328.58 168.354 331.528 162.772 334.017 163.761C336.506 164.75 334.737 172.528 332.13 173.888C329.523 175.247 328.217 172.859 328.217 172.859L328.58 168.354Z" fill="#FFC3BC"/>
<path d="M333.454 165.978C333.497 165.969 333.514 166.029 333.478 166.049C331.658 167.065 330.87 168.969 330.394 170.901C330.875 170.12 331.603 169.634 332.639 170.194C332.693 170.223 332.655 170.308 332.6 170.303C331.793 170.233 331.244 170.44 330.792 171.135C330.472 171.627 330.286 172.223 330.081 172.77C330.013 172.953 329.692 172.9 329.732 172.694C329.735 172.679 329.739 172.663 329.742 172.648C329.388 170.21 330.861 166.552 333.454 165.978Z" fill="#263238"/>
<path d="M345.746 199.71C352.446 214.634 367.272 245.208 363.463 256.718C358.465 271.82 332.291 288.47 325.519 293.136C322.568 295.17 307.892 276.353 308.79 272.628C309.689 268.903 337.199 247.114 338.681 244.663C340.164 242.212 333.943 217.404 332.884 203.558C331.551 186.092 340.075 187.078 345.746 199.71Z" fill="#FFC3BC"/>
<path d="M302.013 282.714C302.811 281.07 301.953 280.64 299.032 282.06C296.073 283.491 285.752 291.583 283.232 287.731C280.695 283.87 295.489 272.658 300.535 270.666C305.578 268.661 314.443 267.217 314.443 267.217C312.004 269.978 306.728 277.237 302.013 282.714Z" fill="#FFC3BC"/>
<path d="M332.678 287.293C325.525 294.816 317.078 304.619 305.818 307.841C303.609 308.473 302.022 307.729 302.022 307.729C297.001 309.263 294.769 307.352 294.769 307.352C289.654 307.349 287.64 305.081 287.64 305.081C287.64 305.081 281.725 306.817 280.082 303.417C278.228 299.609 286.898 297.915 291.096 294.068C300.715 285.254 311.922 270.035 314.444 267.217L332.678 287.293Z" fill="#FFC3BC"/>
<path d="M307.667 291.915C304.785 294.453 302.019 297.02 298.808 299.154C295.285 301.495 291.502 303.157 287.693 304.946C287.574 305.002 287.639 305.173 287.765 305.136C295.173 302.991 302.753 297.869 307.784 292.044C307.906 291.904 307.812 291.788 307.667 291.915Z" fill="#263238"/>
<path d="M313.83 296.948C310.888 299.262 305.692 303.294 294.724 307.235C294.688 307.248 294.699 307.313 294.74 307.304C302.201 305.693 308.403 302.249 313.94 297.088C314.112 296.928 314.026 296.794 313.83 296.948Z" fill="#263238"/>
<path d="M317.091 299.713C311.939 303.457 308.217 305.164 302.034 307.693C301.999 307.707 302.014 307.772 302.055 307.76C309.383 305.624 311.8 304.019 317.244 299.872C317.432 299.73 317.292 299.567 317.091 299.713Z" fill="#263238"/>
<path d="M334.028 222.595L358.996 223.803C358.996 223.803 347.431 198.863 341.959 192.489C335.802 185.315 333.48 190.032 332.72 198.987C331.961 207.94 334.028 222.595 334.028 222.595Z" fill="#8C91CB"/>
<path opacity="0.1" d="M334.028 222.595L358.996 223.803C358.996 223.803 347.431 198.863 341.959 192.489C335.802 185.315 333.48 190.032 332.72 198.987C331.961 207.94 334.028 222.595 334.028 222.595Z" fill="black"/>
<path d="M335.125 218.121C338.325 217.844 348.04 218.367 349.646 218.437C350.493 218.474 353.866 218.771 354.711 218.801C354.819 218.805 354.793 218.971 354.685 218.968C353.073 218.91 351.45 219.02 349.833 218.975C348.179 218.929 338.315 218.756 335.122 218.247C335.052 218.235 335.052 218.127 335.125 218.121Z" fill="#263238"/>
<path d="M347.832 201.853C347.782 201.747 347.935 201.685 347.993 201.779C349.21 203.774 350.375 205.801 351.509 207.845C351.19 206.662 350.732 205.539 350.199 204.42C350.175 204.37 350.249 204.338 350.276 204.385C350.962 205.61 351.432 206.976 351.783 208.342C352.569 209.769 353.343 211.202 354.1 212.645C356.025 216.315 357.998 219.972 359.709 223.747C359.8 223.948 359.634 224.165 359.42 224.148C358.554 224.077 357.695 223.985 356.835 223.856C356.746 223.843 356.732 223.697 356.831 223.689C357.549 223.634 358.266 223.617 358.984 223.603C357.031 220.108 355.256 216.513 353.403 212.964C351.485 209.292 349.599 205.599 347.832 201.853Z" fill="#263238"/>
<path d="M332.505 211.974C332.236 210.682 331.97 209.39 331.745 208.089C331.74 208.062 331.78 208.056 331.787 208.082C332.022 209.025 332.234 209.971 332.439 210.919C332.333 208.984 332.262 207.049 332.28 205.121C332.28 205.092 332.326 205.092 332.33 205.12C332.733 208.024 332.975 210.949 333.309 213.862C333.636 216.72 333.916 219.58 334.191 222.443C334.755 222.559 335.32 222.662 335.888 222.758C335.996 222.776 335.977 222.926 335.87 222.925C335.239 222.924 334.61 222.924 333.98 222.952C333.831 222.958 333.685 222.885 333.661 222.722C333.137 219.174 332.74 215.576 332.505 211.974Z" fill="#263238"/>
<path d="M232.885 352.621H138.318V430.755H232.885V352.621Z" fill="#EFAF78"/>
<path d="M270.355 352.621H232.885V430.758H270.355V352.621Z" fill="#EFAF78"/>
<path opacity="0.1" d="M270.355 352.621H232.885V430.758H270.355V352.621Z" fill="black"/>
<path d="M267.774 425.376C264.999 419.82 262.247 414.247 259.525 408.654L251.396 391.848L243.371 374.969C240.709 369.334 238.076 363.677 235.467 358.004C238.243 363.56 240.995 369.132 243.717 374.725L251.846 391.531L259.87 408.411C262.532 414.047 265.164 419.703 267.774 425.376Z" fill="#EFAF78"/>
<path d="M267.774 358.004C265.164 363.676 262.532 369.333 259.87 374.968L251.846 391.848L243.717 408.655C240.994 414.248 238.242 419.82 235.467 425.376C238.076 419.703 240.709 414.047 243.371 408.411L251.396 391.532L259.525 374.726C262.247 369.133 265 363.56 267.774 358.004Z" fill="#EFAF78"/>
<path d="M192.289 369.506H190.796H189.673L189.032 368.205L188.134 369.506L186.916 366.829L185.762 369.506H182.459H180.952L180.407 367.72L179.894 369.506H178.914V352.621H192.289V369.506Z" fill="white"/>
<path d="M325.251 352.621H254.697V430.751H325.251V352.621Z" fill="#EFAF78"/>
<path d="M361.682 352.621H325.251V430.754H361.682V352.621Z" fill="#EFAF78"/>
<path opacity="0.1" d="M361.682 352.621H325.251V430.754H361.682V352.621Z" fill="black"/>
<g opacity="0.1">
<path d="M320.082 425.372C314.901 419.816 309.762 414.244 304.679 408.651L289.5 391.846L274.516 374.968C269.546 369.333 264.63 363.677 259.758 358.004C264.941 363.559 270.079 369.132 275.163 374.724L290.341 391.53L305.324 408.409C310.294 414.044 315.209 419.7 320.082 425.372Z" fill="black"/>
<path d="M320.082 358.004C315.209 363.676 310.294 369.332 305.323 374.967L290.34 391.846L275.162 408.652C270.078 414.245 264.94 419.817 259.757 425.372C264.628 419.699 269.544 414.044 274.515 408.408L289.5 391.53L304.679 374.725C309.762 369.132 314.901 363.56 320.082 358.004Z" fill="black"/>
</g>
<path d="M356.553 417.532H350.171V426.545H356.553V417.532Z" fill="white"/>
<path d="M234.637 302.092H154.083V352.616H234.637V302.092Z" fill="#EFAF78"/>
<path opacity="0.1" d="M234.637 302.092H154.083V352.616H234.637V302.092Z" fill="black"/>
<path d="M271.068 302.095H234.637V352.621H271.068V302.095Z" fill="#EFAF78"/>
<path opacity="0.2" d="M271.068 302.095H234.637V352.621H271.068V302.095Z" fill="black"/>
<path d="M268.558 349.643C265.86 346.166 263.184 342.678 260.537 339.178L252.633 328.66L244.83 318.096C242.242 314.569 239.682 311.029 237.145 307.479C239.844 310.956 242.519 314.444 245.166 317.944L253.069 328.462L260.871 339.026C263.461 342.553 266.02 346.093 268.558 349.643Z" fill="#EFAF78"/>
<path d="M268.557 307.479C266.02 311.029 263.46 314.569 260.872 318.096L253.07 328.66L245.167 339.178C242.52 342.678 239.845 346.166 237.146 349.643C239.683 346.093 242.242 342.553 244.831 339.026L252.634 328.462L260.538 317.944C263.183 314.444 265.859 310.957 268.557 307.479Z" fill="#EFAF78"/>
<path d="M187.498 87.5359C186.249 99.4759 175.552 108.147 163.612 106.899C158.786 106.394 154.497 104.346 151.175 101.287L140.299 102.883L145.741 93.4799C144.421 90.2669 143.864 86.6929 144.249 83.0119C145.498 71.0719 156.195 62.4009 168.135 63.6499C180.075 64.8989 188.747 75.5959 187.498 87.5359Z" fill="white"/>
<path d="M187.497 87.536C187.043 91.505 185.592 95.395 183.109 98.557C182.539 99.385 181.804 100.077 181.138 100.825C180.382 101.483 179.678 102.205 178.844 102.767C177.254 103.992 175.467 104.952 173.6 105.687C171.741 106.469 169.741 106.843 167.747 107.083C166.741 107.137 165.734 107.229 164.726 107.14C163.717 107.117 162.712 107.009 161.717 106.827C157.739 106.106 153.971 104.244 150.961 101.516L151.218 101.595L140.352 103.263L139.564 103.384L139.963 102.689L145.373 93.268L145.348 93.64C142.713 87.435 143.307 80.045 146.687 74.263C148.372 71.368 150.722 68.873 153.496 67.013C156.268 65.147 159.483 63.977 162.774 63.532C166.069 63.095 169.459 63.395 172.605 64.44C175.747 65.498 178.628 67.277 180.989 69.581C185.79 74.145 188.203 80.99 187.497 87.536ZM187.497 87.536C188.158 80.984 185.697 74.181 180.896 69.68C178.512 67.429 175.626 65.723 172.512 64.734C169.393 63.758 166.056 63.525 162.843 64.009C159.632 64.502 156.523 65.697 153.864 67.556C151.212 69.418 148.975 71.854 147.359 74.651C145.712 77.442 144.858 80.64 144.6 83.85C144.396 87.071 144.922 90.33 146.13 93.321L146.209 93.515L146.105 93.693L140.631 103.077L140.242 102.503L151.128 100.978L151.278 100.957L151.385 101.058C154.263 103.759 157.905 105.645 161.795 106.42C162.767 106.616 163.753 106.739 164.744 106.779C165.734 106.884 166.726 106.81 167.719 106.774C169.688 106.572 171.672 106.238 173.525 105.496C175.386 104.799 177.184 103.885 178.769 102.67C179.603 102.116 180.308 101.403 181.065 100.753C181.732 100.013 182.469 99.329 183.043 98.508C185.539 95.374 187.015 91.502 187.497 87.536Z" fill="#7CBBFF"/>
<path d="M163.33 97.6726L154.045 88.2727L157.164 85.1907L162.589 90.6806L173.858 73.0146L177.555 75.3727L163.33 97.6726Z" fill="#3395FF"/>
<path d="M93.4435 106.817C89.7825 106.178 80.5745 109.181 77.6695 114.156C74.7645 119.131 75.3745 126.949 77.0155 127.641C78.6565 128.333 85.5325 127.438 90.1535 124.613C94.7755 121.789 95.2465 107.132 93.4435 106.817Z" fill="#263238"/>
<path d="M93.4531 106.837C93.5731 106.805 93.5791 106.603 93.4381 106.606C90.2621 106.668 86.9111 107.889 83.9271 108.895C81.5191 109.707 79.0511 110.652 77.1531 112.402C75.2541 114.152 74.3211 116.393 74.3421 118.964C74.3661 121.766 74.9141 125.13 76.3991 127.548C76.4421 127.619 76.5811 127.592 76.5511 127.498C74.8551 122.277 73.2891 115.877 78.3811 112.041C82.7041 108.784 88.3941 108.173 93.4531 106.837Z" fill="#263238"/>
<path d="M77.4782 126.24C74.3242 126.79 66.3552 133.189 65.2422 139.281C64.1302 145.373 69.4162 154.063 70.9982 154.64C72.5802 155.217 79.3302 149.125 81.4242 144.781C82.8242 141.877 81.4712 138.623 80.6332 135.365C79.3972 130.557 77.9682 126.155 77.4782 126.24Z" fill="#263238"/>
<path d="M83.2943 143.939C83.9633 137.753 80.2123 131.826 77.8723 126.37C77.8473 126.312 77.7503 126.343 77.7673 126.405C79.1633 131.676 82.5813 136.315 82.9163 141.879C83.1153 145.181 82.1093 148.475 79.4763 150.623C77.1943 152.484 74.2663 153.419 71.5733 154.51C71.3953 154.582 71.5253 154.843 71.7023 154.777C77.0783 152.751 82.6033 150.323 83.2943 143.939Z" fill="#263238"/>
<path d="M76.8196 126.839C76.9746 126.754 76.8576 126.507 76.6996 126.59C72.2856 128.924 66.9966 132.281 64.7866 136.954C62.3926 142.017 65.2446 147.08 67.7666 151.441C67.7986 151.495 67.8866 151.454 67.8556 151.398C65.3606 146.967 62.6866 141.45 65.4446 136.498C67.8166 132.241 72.6606 129.114 76.8196 126.839Z" fill="#263238"/>
<path d="M71.5723 153.84C73.7503 154.809 77.0444 158.253 77.9954 162.461C79.6224 169.663 82.2794 168.072 90.3304 169.547C97.1344 170.794 98.9933 178.222 95.6293 182.137C95.6293 182.137 97.4394 177.388 92.7854 175.38C87.2254 172.981 75.1944 179.371 68.5914 172.09C60.0464 162.67 71.5723 153.84 71.5723 153.84Z" fill="#263238"/>
<path d="M74.6185 157.036C74.5245 156.941 74.6835 156.778 74.7825 156.868C75.7475 157.747 76.5525 158.739 77.1495 159.904C77.9185 161.404 78.0455 163.067 78.7035 164.601C80.3795 168.505 85.1845 168.089 88.6885 168.136C93.3865 168.199 97.3155 170.84 97.8875 175.75C97.8955 175.821 97.7865 175.836 97.7765 175.764C97.3605 172.718 95.3475 170.031 92.4055 168.984C89.6035 167.987 86.5535 168.775 83.6755 168.253C81.7065 167.896 79.7255 167.182 78.7155 165.341C78.1635 164.334 77.9775 163.149 77.6525 162.061C77.0585 160.075 76.0735 158.507 74.6185 157.036Z" fill="#263238"/>
<path d="M70.3921 154.79C70.4331 154.753 70.5001 154.817 70.4621 154.858C67.9631 157.628 65.3071 160.416 64.7651 164.286C64.1821 168.451 66.5421 172.452 69.9211 174.752C73.7051 177.328 77.5131 175.774 81.5151 174.751C84.4101 174.011 87.3761 173.493 90.3081 174.328C90.3981 174.353 90.3571 174.501 90.2661 174.486C85.5761 173.679 81.4201 175.301 76.9151 176.298C73.2351 177.112 70.2411 175.99 67.6841 173.244C62.0461 167.186 64.8571 159.735 70.3921 154.79Z" fill="#263238"/>
<path d="M90.518 103.619C89.455 102.385 87.559 104.061 88.624 105.297C89.687 106.531 91.583 104.855 90.518 103.619Z" fill="#FFC727"/>
<path d="M91.5922 105.713C90.5292 104.479 88.6332 106.155 89.6982 107.391C90.7622 108.626 92.6582 106.95 91.5922 105.713Z" fill="#FFC727"/>
<path d="M93.0258 107.609C91.9628 106.375 90.0668 108.051 91.1318 109.287C92.1948 110.522 94.0908 108.846 93.0258 107.609Z" fill="#FFC727"/>
<path d="M94.6508 109.254C93.5878 108.02 91.6918 109.696 92.7568 110.932C93.8198 112.166 95.7158 110.49 94.6508 109.254Z" fill="#FFC727"/>
<path d="M96.5766 110.624C95.5136 109.39 93.6176 111.066 94.6826 112.302C95.7456 113.537 97.6416 111.861 96.5766 110.624Z" fill="#FFC727"/>
<path d="M98.6381 111.59C97.5751 110.356 95.6791 112.032 96.7441 113.268C97.8071 114.503 99.7031 112.826 98.6381 111.59Z" fill="#FFC727"/>
<path d="M176.415 443.256C174.103 443.98 106.595 442.52 104.13 440.875C103.182 440.266 108.965 376.322 108.965 376.322L151.78 377.141L146.911 419.913C146.911 419.913 171.819 431.714 174.341 433.809C176.843 435.895 178.728 442.543 176.415 443.256Z" fill="#FFC3BC"/>
<path d="M176.415 443.257C174.106 443.977 106.593 442.518 104.131 440.872C103.832 440.686 103.744 434.194 104.817 425.739C117.058 427.791 160.754 434.5 164.156 432.498C166.528 431.104 164.429 428.924 162.485 427.457C168.063 430.238 173.269 432.913 174.343 433.812C176.846 435.897 178.725 442.547 176.415 443.257Z" fill="#282827"/>
<path d="M148.116 409.661L106.086 409.067C106.086 409.067 114.414 308.398 114.067 306.463C113.626 303.984 83.8027 187.055 83.8027 187.055H123.917C123.917 187.055 155.552 296.038 156.687 306.54C158.525 323.496 148.116 409.661 148.116 409.661Z" fill="#FAF7DD"/>
<path d="M109.864 399.578C112.347 399.399 114.858 399.429 117.347 399.397C119.84 399.364 122.333 399.357 124.826 399.381C129.811 399.43 134.793 399.505 139.776 399.646C141.139 399.685 142.502 399.726 143.864 399.789C145.323 399.857 146.775 400.105 148.229 400.159C148.343 400.163 148.338 400.335 148.225 400.336C147.002 400.347 145.776 400.53 144.551 400.565C143.281 400.602 142.01 400.61 140.74 400.61C138.247 400.61 135.755 400.602 133.262 400.581C128.28 400.539 123.292 400.472 118.313 400.266C115.5 400.15 112.659 400.115 109.857 399.833C109.692 399.817 109.7 399.59 109.864 399.578Z" fill="#D9D4AF"/>
<path d="M92.6255 196.498C96.2145 209.209 99.4955 222.031 102.713 234.841C105.932 247.658 109.132 260.48 112.323 273.303C113.919 279.715 115.513 286.127 117.108 292.539C118.66 298.781 120.464 305.057 120.849 311.508C121.24 318.068 120.406 324.678 119.853 331.207C119.297 337.77 118.748 344.334 118.173 350.895C117.023 364.023 115.92 377.163 114.493 390.264C114.314 391.903 114.139 393.543 113.972 395.184C113.958 395.324 113.742 395.322 113.751 395.179C114.62 382.042 115.526 368.913 116.575 355.789C117.099 349.225 117.635 342.662 118.178 336.099C118.72 329.55 119.481 322.975 119.688 316.405C119.897 309.772 118.685 303.423 117.085 297.018C115.517 290.743 113.94 284.47 112.369 278.195C109.159 265.376 105.947 252.557 102.765 239.731C99.2035 225.372 95.6475 210.985 92.5045 196.528C92.4885 196.45 92.6035 196.422 92.6255 196.498Z" fill="#D9D4AF"/>
<path d="M83.7998 187.056C83.7998 187.056 96.5948 237.22 105.548 272.532L122.616 187.056H83.7998Z" fill="#D9D4AF"/>
<path d="M126.001 443.413C123.689 444.137 56.1806 442.678 53.7156 441.032C52.7676 440.423 56.2936 376.442 56.2936 376.442L98.5426 377.261L96.4976 420.071C96.4976 420.071 121.406 431.872 123.928 433.967C126.43 436.053 128.314 442.7 126.001 443.413Z" fill="#FFC3BC"/>
<path d="M126.002 443.415C123.693 444.134 56.1797 442.676 53.7177 441.03C53.4187 440.844 53.4887 434.52 53.7247 425.888C65.9657 427.94 110.34 434.657 113.742 432.656C116.114 431.262 114.015 429.082 112.071 427.615C117.649 430.396 122.855 433.071 123.929 433.97C126.432 436.055 128.311 442.705 126.002 443.415Z" fill="#282827"/>
<path d="M122.619 187.039C122.619 187.039 121.453 206.22 116.869 221.366C116.501 222.619 116.104 223.85 115.677 225.031C115.677 225.031 111.082 226.633 104.041 230.828C104.041 230.828 101.15 304.195 101.204 308.751C101.392 325.797 97.0353 408.817 97.0353 408.817L54.6543 408.415C54.6543 408.415 59.0473 314.532 59.0653 308.288C59.1003 298.253 67.9583 187.056 67.9583 187.056L122.619 187.039Z" fill="#FAF7DD"/>
<path d="M113.362 212.801C113.521 211.739 113.681 210.678 113.844 209.617C114.143 207.673 114.538 205.742 114.879 203.804C115.653 199.408 116.455 194.998 117.434 190.642C117.458 190.536 117.635 190.563 117.624 190.673C117.45 192.432 117.248 194.189 116.999 195.938C116.75 197.69 116.578 199.452 116.331 201.202C115.841 204.674 115.357 208.152 114.766 211.609C114.538 212.94 113.707 215.328 115.625 215.741C117.143 216.068 118.256 214.577 118.703 213.327C119.247 211.804 119.44 210.118 119.724 208.531C120.037 206.778 120.312 205.019 120.561 203.256C121.102 199.415 121.697 195.592 122.322 191.765C122.34 191.656 122.515 191.689 122.512 191.796C122.389 195.739 122.182 199.642 121.663 203.557C121.415 205.425 121.137 207.29 120.82 209.147C120.524 210.883 120.303 212.75 119.535 214.354C118.933 215.612 117.809 216.746 116.363 216.9C116.334 216.903 116.304 216.901 116.274 216.903C116.307 216.929 116.332 216.964 116.33 217.013C116.309 217.635 116.321 218.265 116.255 218.884C116.189 219.497 116.068 220.112 115.951 220.717C115.833 221.329 115.685 221.957 115.476 222.544C115.375 222.828 115.27 223.112 115.138 223.383C115 223.668 114.809 223.889 114.643 224.155C114.576 224.263 114.446 224.196 114.438 224.09L114.429 224.091C114.438 223.988 114.439 223.888 114.441 223.787C114.44 223.769 114.444 223.751 114.442 223.733L114.443 223.731C114.447 223.55 114.451 223.37 114.478 223.187C114.523 222.887 114.59 222.592 114.655 222.296C114.785 221.705 114.947 221.115 115.105 220.532C115.264 219.947 115.39 219.355 115.541 218.769C115.697 218.164 115.895 217.575 116.035 216.965C116.041 216.937 116.06 216.924 116.077 216.908C114.95 216.922 113.81 216.323 113.401 215.231C113.104 214.442 113.24 213.613 113.362 212.801Z" fill="#D9D4AF"/>
<path d="M100.613 232.285C101.827 231.29 103.256 230.465 104.6 229.657C106.064 228.778 107.579 227.983 109.145 227.302C112.211 225.971 115.371 225.062 118.535 224.016C118.629 223.985 118.692 224.142 118.599 224.179C115.535 225.398 112.597 227.016 109.636 228.465C108.179 229.178 106.704 229.855 105.221 230.512C103.734 231.17 102.253 231.937 100.728 232.495C100.612 232.537 100.52 232.361 100.613 232.285Z" fill="#D9D4AF"/>
<path d="M76.6851 205.566C78.8411 205.557 80.9881 205.243 83.0741 204.707C84.0361 204.459 84.9881 204.151 85.9321 203.842C86.8391 203.545 87.7781 203.179 88.5091 202.549C89.9611 201.296 90.6381 199.323 91.2681 197.573C91.9801 195.595 92.4961 193.581 92.9431 191.53C92.9651 191.428 93.1131 191.463 93.1161 191.558C93.1851 193.858 92.8561 196.201 92.2461 198.418C91.7261 200.311 91.0241 202.425 89.4951 203.751C87.8851 205.147 85.7001 205.638 83.6401 205.892C81.3141 206.179 78.9961 206.111 76.6791 205.796C76.5371 205.775 76.5341 205.566 76.6851 205.566Z" fill="#D9D4AF"/>
<path d="M62.7553 356.804C63.4763 343.407 64.2613 330.014 65.0373 316.62C66.5833 289.968 68.0753 263.312 69.7513 236.668C70.6973 221.633 71.6733 206.602 72.8493 191.583C72.8613 191.425 73.1023 191.432 73.0963 191.592C72.0363 218.403 70.3983 245.186 68.8513 271.972C67.3123 298.625 65.7213 325.276 64.0433 351.92C63.0963 366.954 61.9133 381.973 60.9633 397.006C60.9563 397.119 60.7803 397.113 60.7873 396.999C61.5173 383.605 62.0343 370.199 62.7553 356.804Z" fill="#D9D4AF"/>
<path d="M56.5272 400.201C59.0102 400.022 61.5212 400.052 64.0102 400.02C66.5032 399.987 68.9962 399.98 71.4892 400.004C76.4742 400.053 81.4562 400.128 86.4392 400.269C87.8022 400.308 89.1652 400.349 90.5282 400.412C91.9872 400.479 93.4382 400.728 94.8932 400.782C95.0072 400.786 95.0022 400.958 94.8892 400.959C93.6662 400.97 92.4402 401.152 91.2152 401.188C89.9452 401.225 88.6742 401.233 87.4042 401.233C84.9112 401.233 82.4192 401.225 79.9262 401.204C74.9442 401.162 69.9562 401.095 64.9772 400.889C62.1642 400.773 59.3232 400.738 56.5212 400.456C56.3552 400.44 56.3632 400.213 56.5272 400.201Z" fill="#D9D4AF"/>
<path d="M105.634 143.649C109.703 153.753 125.871 186.403 136.49 188.706C143.458 190.217 171.617 187.491 176.465 180.83C178.578 177.927 175.006 157.687 171.252 158.491C167.498 159.295 144.921 162.278 142.149 161.473C139.392 160.672 118.595 136.742 110.833 130.801C97.4479 120.557 103.443 138.208 105.634 143.649Z" fill="#FFC3BC"/>
<path d="M130.271 148.638L112.568 159.113C112.568 159.113 105.123 144.926 102.209 135.653C99.2965 126.38 101.797 122.132 112.482 131.36C123.168 140.586 130.271 148.638 130.271 148.638Z" fill="#8C91CB"/>
<path d="M111.814 155.47C114.16 153.768 116.55 152.123 118.977 150.541C120.173 149.761 121.361 148.963 122.572 148.207C123.825 147.425 125.128 146.73 126.378 145.945C126.467 145.89 126.562 146.019 126.474 146.079C125.293 146.88 124.168 147.762 122.992 148.57C121.779 149.403 120.533 150.19 119.302 150.994C116.87 152.583 114.397 154.111 111.891 155.576C111.819 155.619 111.744 155.521 111.814 155.47Z" fill="#263238"/>
<path d="M129.343 199.88L125.347 177.312C125.347 177.312 131.497 166.576 127.929 158.871C126.128 154.968 110.329 130.695 103.677 125.867C97.4368 121.338 88.3798 126.185 85.0068 129.734C72.0148 143.406 68.5518 168.637 63.8848 205.617L129.343 199.88Z" fill="#8C91CB"/>
<path d="M129.01 161.108C128.603 159.447 127.706 157.988 126.85 156.528C126.54 155.998 125.84 154.901 125.005 153.618C124.766 153.001 124.508 152.39 124.207 151.806C123.754 150.926 123.24 150.056 122.879 149.135C122.842 149.039 122.701 149.099 122.749 149.191C123.196 150.049 123.512 150.982 123.867 151.882C122.46 149.746 120.978 147.538 120.343 146.64C120.29 146.565 120.166 146.641 120.221 146.713C121.574 148.482 125.997 156.238 127.067 158.205C128.154 160.203 128.584 162.256 128.622 164.532C128.652 166.358 128.232 169.634 127.737 171.297C127.681 171.485 127.868 171.575 127.944 171.396C128.629 169.802 128.992 168.056 129.197 166.365C129.407 164.635 129.428 162.811 129.01 161.108Z" fill="#263238"/>
<path d="M102.534 145.641C102.534 145.641 98.555 141.211 101.795 138.743C105.036 136.275 108.248 141.288 108.248 141.288L102.534 145.641Z" fill="#455A64"/>
<path d="M133.476 174.409L133.477 174.414L134.456 180.158L134.791 182.051L133.04 181.241L127.76 178.766L127.755 178.767L127.752 178.757L102.389 145.451L108.106 141.098L133.471 174.409C133.476 174.409 133.476 174.409 133.476 174.409Z" fill="#455A64"/>
<path d="M134.458 180.158L134.789 182.052L133.038 181.24L134.458 180.158Z" fill="#37474F"/>
<path d="M108.457 140.56L101.783 145.643L102.791 146.966L109.465 141.884L108.457 140.56Z" fill="#263238"/>
<path d="M109.559 142.015L102.887 147.098L103.895 148.421L110.568 143.339L109.559 142.015Z" fill="#263238"/>
<path d="M103.899 148.428L106.052 146.788L114.042 159.742L113.214 160.301L103.899 148.428Z" fill="#263238"/>
<path d="M79.0138 136.957C62.9908 157.011 45.5828 190.232 54.3028 196.557C62.2658 202.333 89.5688 194.677 106.542 186.799C109.773 185.299 94.5318 156.84 91.2618 158.793C85.5258 162.219 80.9968 164.281 80.5588 164.429C79.6208 164.748 84.4548 158.036 89.3268 142.322C94.2788 126.351 88.1728 125.494 79.0138 136.957Z" fill="#FFC3BC"/>
<path d="M133.401 153.989C133.629 157.392 125.191 157.243 125.191 157.243C125.191 157.243 127.27 158.351 127.959 160.508C128.748 162.977 125.221 165.297 125.221 165.297C125.221 165.297 127.093 166.855 127.592 169.206C128.109 171.646 124.884 174.494 124.884 174.494C124.884 174.494 125.831 176.903 124.804 179.244C123.048 183.246 116.342 183.742 112.252 184.869C107.87 186.076 101.527 188.705 98.9251 190.042L89.3271 159.933C89.3271 159.933 106.644 148.147 111.683 148.075C115.928 148.014 133.052 148.788 133.401 153.989Z" fill="#FFC3BC"/>
<path d="M125.115 157.152C120.586 156.134 115.823 156.202 111.227 156.317C111.125 156.32 111.13 156.48 111.233 156.476C115.803 156.308 120.527 157.357 125.094 157.371C125.219 157.373 125.237 157.18 125.115 157.152Z" fill="#263238"/>
<path d="M125.077 164.962C124.046 164.763 122.952 164.904 121.913 164.982C120.795 165.066 119.679 165.17 118.563 165.291C116.331 165.533 114.104 165.826 111.888 166.184C111.79 166.2 111.79 166.354 111.894 166.343C114.119 166.105 116.347 165.902 118.58 165.758C119.697 165.686 120.816 165.624 121.934 165.569C122.974 165.518 124.076 165.551 125.087 165.268C125.236 165.227 125.233 164.992 125.077 164.962Z" fill="#263238"/>
<path d="M124.791 174.503C123.902 174.293 122.837 174.557 121.943 174.673C120.928 174.804 119.913 174.929 118.897 175.05C116.865 175.29 114.834 175.53 112.795 175.699C112.693 175.707 112.698 175.866 112.801 175.858C114.873 175.697 116.948 175.564 119.019 175.384C120.036 175.296 121.053 175.202 122.068 175.102C122.932 175.017 124.021 175.009 124.807 174.604C124.852 174.581 124.836 174.513 124.791 174.503Z" fill="#263238"/>
<path d="M83.7799 162.314L66.4189 151.282C66.4189 151.282 75.6899 138.215 82.6359 131.415C89.5809 124.615 94.5009 124.92 91.1189 138.626C87.7379 152.333 83.7799 162.314 83.7799 162.314Z" fill="#8C91CB"/>
<path d="M69.3244 148.96C71.9054 150.28 74.4544 151.664 76.9644 153.11C78.2014 153.823 79.4514 154.52 80.6744 155.257C81.9394 156.019 83.1494 156.866 84.4154 157.625C84.5054 157.679 84.4334 157.822 84.3394 157.771C83.0904 157.082 81.7944 156.479 80.5404 155.796C79.2484 155.092 77.9824 154.339 76.7074 153.606C74.1884 152.159 71.7054 150.647 69.2634 149.077C69.1944 149.032 69.2474 148.92 69.3244 148.96Z" fill="#263238"/>
<path d="M83.7845 162.401C84.6055 159.475 85.8195 156.676 86.8175 153.806C87.8175 150.932 88.7825 148.024 89.6575 145.111C89.6785 145.041 89.7885 145.062 89.7705 145.135C89.4105 146.608 89.0845 148.095 88.6745 149.557C88.4705 150.284 88.2435 151.004 88.0105 151.723C88.1605 151.462 88.3005 151.194 88.4565 150.936C88.9245 150.162 89.4495 149.417 89.9945 148.694C90.0235 148.655 90.0815 148.699 90.0615 148.74C89.6635 149.555 89.2345 150.361 88.7545 151.133C88.4065 151.691 88.0345 152.232 87.6655 152.775C87.5275 153.191 87.3895 153.608 87.2535 154.024C86.3185 156.892 85.3905 159.788 83.9385 162.454C83.8955 162.535 83.7585 162.494 83.7845 162.401Z" fill="#263238"/>
<path d="M79.8738 164.683C75.4368 166.98 70.4278 170.388 67.8658 173.095C67.7898 173.175 67.8838 173.298 67.9688 173.23C70.5308 171.178 78.1308 166.586 80.0918 165.275C80.6948 164.872 81.1448 164.025 79.8738 164.683Z" fill="#263238"/>
<path d="M157.751 190.55L122.39 191.305L137.932 145.59L173.292 144.834L157.751 190.55Z" fill="#EBEBEB"/>
<path d="M160.171 190.498L124.811 191.253L140.352 145.538L175.712 144.783L160.171 190.498Z" fill="#37474F"/>
<path d="M144.109 145.462C143.915 146.179 143.393 146.924 142.633 147.341C142.3 147.529 142.2 147.089 142.53 146.911C143.011 146.64 143.356 146.18 143.531 145.725C143.558 145.644 143.589 145.553 143.607 145.472C143.69 145.169 143.713 144.867 143.642 144.608C143.606 144.478 143.54 144.379 143.437 144.301C143.437 144.301 143.42 144.291 143.414 144.281C143.397 144.271 143.377 144.272 143.371 144.262C143.351 144.263 143.304 144.254 143.304 144.254C143.221 144.236 143.147 144.247 143.056 144.279C142.912 144.322 142.777 144.425 142.655 144.549C142.5 144.713 142.415 144.846 142.313 145.028C142.255 145.11 142.214 145.201 142.163 145.292L142.142 145.353C142.122 145.384 142.111 145.414 142.101 145.444C142.094 145.464 142.077 145.485 142.08 145.505L141.578 145.516C141.678 145.223 141.841 144.918 142.038 144.632C142.377 144.163 142.849 143.771 143.378 143.74C143.853 143.72 144.108 144.056 144.184 144.446C144.249 144.756 144.219 145.109 144.109 145.462Z" fill="#C7C7C7"/>
<path d="M146.876 145.403C146.682 146.12 146.16 146.864 145.4 147.282C145.067 147.47 144.968 147.03 145.297 146.852C145.778 146.581 146.123 146.121 146.298 145.666C146.325 145.585 146.356 145.494 146.374 145.413C146.457 145.11 146.48 144.808 146.409 144.548C146.373 144.418 146.307 144.319 146.204 144.241C146.204 144.241 146.187 144.231 146.181 144.221C146.164 144.211 146.144 144.212 146.138 144.202C146.118 144.203 146.071 144.193 146.071 144.193C145.988 144.175 145.914 144.186 145.823 144.218C145.679 144.261 145.544 144.365 145.423 144.488C145.267 144.652 145.183 144.784 145.081 144.967C145.023 145.049 144.982 145.14 144.931 145.231L144.91 145.292C144.89 145.323 144.879 145.353 144.869 145.383C144.862 145.403 144.845 145.424 144.848 145.444L144.346 145.455C144.446 145.162 144.609 144.857 144.806 144.572C145.145 144.103 145.617 143.711 146.146 143.68C146.621 143.66 146.876 143.996 146.952 144.386C147.017 144.697 146.987 145.049 146.876 145.403Z" fill="#C7C7C7"/>
<path d="M149.644 145.344C149.45 146.061 148.928 146.805 148.168 147.223C147.835 147.411 147.736 146.971 148.065 146.793C148.546 146.522 148.891 146.062 149.066 145.607C149.094 145.526 149.125 145.435 149.142 145.354C149.225 145.051 149.248 144.749 149.177 144.49C149.141 144.36 149.075 144.261 148.972 144.183C148.972 144.183 148.955 144.173 148.949 144.164C148.932 144.154 148.912 144.155 148.906 144.145C148.886 144.145 148.839 144.136 148.839 144.136C148.755 144.118 148.682 144.129 148.591 144.161C148.447 144.204 148.312 144.307 148.19 144.431C148.035 144.595 147.95 144.727 147.848 144.91C147.79 144.992 147.749 145.083 147.698 145.174L147.677 145.235C147.656 145.266 147.646 145.296 147.636 145.326C147.629 145.346 147.612 145.367 147.616 145.387L147.114 145.398C147.214 145.105 147.377 144.8 147.574 144.515C147.913 144.046 148.385 143.654 148.914 143.623C149.389 143.603 149.644 143.939 149.72 144.329C149.785 144.638 149.754 144.99 149.644 145.344Z" fill="#C7C7C7"/>
<path d="M152.412 145.284C152.218 146.001 151.696 146.745 150.936 147.163C150.603 147.351 150.503 146.911 150.833 146.733C151.314 146.462 151.659 146.002 151.834 145.547C151.861 145.466 151.893 145.375 151.91 145.294C151.993 144.991 152.016 144.689 151.945 144.43C151.909 144.3 151.843 144.201 151.74 144.123C151.74 144.123 151.723 144.113 151.717 144.103C151.7 144.093 151.68 144.094 151.674 144.084C151.654 144.084 151.607 144.075 151.607 144.075C151.523 144.057 151.45 144.068 151.359 144.1C151.215 144.143 151.08 144.246 150.958 144.37C150.803 144.534 150.718 144.666 150.616 144.849C150.558 144.931 150.517 145.022 150.466 145.113L150.445 145.174C150.425 145.204 150.414 145.235 150.404 145.265C150.397 145.285 150.38 145.306 150.383 145.326L149.881 145.337C149.981 145.044 150.144 144.739 150.341 144.453C150.68 143.984 151.152 143.592 151.681 143.561C152.156 143.541 152.411 143.877 152.487 144.267C152.552 144.578 152.522 144.93 152.412 145.284Z" fill="#C7C7C7"/>
<path d="M155.179 145.226C154.985 145.943 154.463 146.687 153.703 147.105C153.37 147.293 153.27 146.853 153.6 146.675C154.081 146.404 154.426 145.944 154.601 145.489C154.628 145.408 154.659 145.317 154.677 145.236C154.76 144.933 154.783 144.631 154.712 144.372C154.676 144.242 154.61 144.143 154.507 144.065C154.507 144.065 154.49 144.055 154.484 144.045C154.467 144.035 154.447 144.036 154.441 144.026C154.421 144.027 154.374 144.017 154.374 144.017C154.291 143.999 154.217 144.01 154.126 144.042C153.982 144.085 153.847 144.189 153.726 144.312C153.57 144.476 153.486 144.608 153.384 144.791C153.326 144.873 153.285 144.964 153.234 145.055L153.213 145.116C153.193 145.147 153.182 145.177 153.172 145.207C153.165 145.227 153.148 145.248 153.151 145.268L152.649 145.279C152.749 144.986 152.912 144.681 153.109 144.395C153.448 143.926 153.92 143.534 154.449 143.503C154.924 143.483 155.179 143.819 155.255 144.209C155.32 144.52 155.29 144.872 155.179 145.226Z" fill="#C7C7C7"/>
<path d="M157.947 145.167C157.753 145.884 157.231 146.628 156.471 147.046C156.138 147.234 156.038 146.794 156.368 146.616C156.849 146.345 157.194 145.885 157.369 145.43C157.396 145.349 157.428 145.258 157.445 145.177C157.528 144.874 157.551 144.572 157.48 144.313C157.444 144.183 157.378 144.084 157.276 144.006C157.276 144.006 157.259 143.996 157.253 143.986C157.236 143.976 157.216 143.977 157.21 143.967C157.19 143.967 157.143 143.958 157.143 143.958C157.06 143.94 156.986 143.951 156.895 143.984C156.751 144.027 156.616 144.13 156.494 144.254C156.339 144.418 156.254 144.55 156.152 144.733C156.094 144.815 156.053 144.906 156.002 144.997L155.981 145.058C155.961 145.089 155.95 145.119 155.94 145.149C155.933 145.169 155.916 145.19 155.919 145.21L155.417 145.221C155.517 144.928 155.68 144.623 155.877 144.337C156.216 143.868 156.688 143.476 157.217 143.445C157.692 143.425 157.947 143.761 158.023 144.151C158.087 144.461 158.057 144.813 157.947 145.167Z" fill="#C7C7C7"/>
<path d="M160.715 145.108C160.521 145.825 159.999 146.57 159.239 146.987C158.906 147.175 158.806 146.735 159.136 146.557C159.617 146.286 159.962 145.826 160.137 145.371C160.164 145.29 160.196 145.199 160.213 145.118C160.296 144.815 160.319 144.513 160.248 144.254C160.212 144.124 160.146 144.025 160.043 143.947C160.043 143.947 160.026 143.937 160.02 143.927C160.003 143.917 159.983 143.918 159.977 143.908C159.957 143.908 159.91 143.899 159.91 143.899C159.827 143.881 159.753 143.892 159.662 143.924C159.518 143.967 159.383 144.071 159.261 144.194C159.106 144.358 159.021 144.49 158.919 144.673C158.861 144.754 158.82 144.846 158.769 144.937L158.748 144.998C158.728 145.028 158.717 145.059 158.707 145.089C158.7 145.109 158.683 145.13 158.686 145.15L158.184 145.161C158.284 144.868 158.447 144.563 158.644 144.278C158.983 143.809 159.455 143.417 159.984 143.386C160.459 143.366 160.714 143.702 160.79 144.092C160.856 144.402 160.826 144.754 160.715 145.108Z" fill="#C7C7C7"/>
<path d="M163.482 145.048C163.288 145.765 162.766 146.51 162.006 146.927C161.673 147.115 161.573 146.675 161.903 146.497C162.384 146.226 162.729 145.766 162.904 145.311C162.932 145.23 162.962 145.139 162.98 145.058C163.063 144.755 163.086 144.453 163.015 144.194C162.979 144.064 162.913 143.965 162.811 143.887C162.811 143.887 162.794 143.877 162.788 143.867C162.771 143.857 162.751 143.858 162.745 143.848C162.725 143.848 162.678 143.839 162.678 143.839C162.595 143.821 162.521 143.832 162.43 143.864C162.286 143.907 162.151 144.011 162.03 144.134C161.874 144.298 161.79 144.43 161.688 144.613C161.63 144.694 161.589 144.786 161.538 144.877L161.517 144.938C161.497 144.969 161.486 144.999 161.476 145.029C161.469 145.049 161.452 145.07 161.455 145.09L160.953 145.101C161.053 144.808 161.216 144.503 161.413 144.218C161.752 143.749 162.224 143.357 162.753 143.326C163.228 143.306 163.483 143.642 163.559 144.032C163.622 144.342 163.592 144.695 163.482 145.048Z" fill="#C7C7C7"/>
<path d="M166.25 144.988C166.056 145.705 165.534 146.449 164.774 146.867C164.441 147.055 164.341 146.615 164.671 146.437C165.152 146.166 165.497 145.706 165.672 145.251C165.7 145.17 165.731 145.079 165.748 144.998C165.831 144.695 165.854 144.393 165.783 144.134C165.747 144.004 165.682 143.905 165.578 143.827C165.578 143.827 165.561 143.817 165.555 143.807C165.538 143.797 165.518 143.798 165.512 143.788C165.492 143.789 165.445 143.78 165.445 143.78C165.362 143.762 165.288 143.773 165.197 143.805C165.053 143.848 164.918 143.952 164.796 144.075C164.641 144.239 164.556 144.371 164.454 144.554C164.396 144.636 164.355 144.727 164.304 144.818L164.283 144.879C164.263 144.91 164.252 144.94 164.242 144.97C164.235 144.99 164.218 145.01 164.222 145.031L163.72 145.042C163.82 144.749 163.983 144.444 164.18 144.158C164.519 143.689 164.991 143.297 165.52 143.266C165.995 143.246 166.25 143.582 166.326 143.972C166.39 144.282 166.36 144.634 166.25 144.988Z" fill="#C7C7C7"/>
<path d="M169.017 144.93C168.823 145.647 168.301 146.392 167.541 146.809C167.208 146.997 167.108 146.557 167.438 146.379C167.919 146.108 168.264 145.648 168.439 145.193C168.466 145.112 168.498 145.021 168.515 144.94C168.598 144.637 168.621 144.335 168.55 144.075C168.514 143.945 168.448 143.846 168.345 143.768C168.345 143.768 168.328 143.758 168.322 143.748C168.305 143.738 168.285 143.739 168.279 143.729C168.259 143.729 168.212 143.72 168.212 143.72C168.129 143.702 168.055 143.713 167.964 143.745C167.82 143.788 167.685 143.892 167.564 144.015C167.408 144.179 167.324 144.311 167.222 144.494C167.164 144.575 167.123 144.667 167.072 144.758L167.051 144.819C167.031 144.85 167.02 144.88 167.01 144.91C167.003 144.93 166.986 144.951 166.989 144.971L166.487 144.982C166.587 144.689 166.75 144.384 166.947 144.098C167.286 143.629 167.758 143.237 168.287 143.206C168.762 143.186 169.017 143.522 169.093 143.912C169.158 144.224 169.127 144.576 169.017 144.93Z" fill="#C7C7C7"/>
<path d="M171.785 144.87C171.591 145.587 171.069 146.332 170.309 146.749C169.976 146.937 169.876 146.497 170.206 146.319C170.687 146.048 171.032 145.588 171.207 145.133C171.234 145.052 171.265 144.961 171.283 144.88C171.366 144.577 171.389 144.275 171.318 144.016C171.282 143.886 171.216 143.787 171.113 143.709C171.113 143.709 171.096 143.699 171.09 143.689C171.073 143.679 171.053 143.68 171.047 143.67C171.027 143.67 170.98 143.661 170.98 143.661C170.896 143.643 170.823 143.654 170.732 143.686C170.588 143.729 170.453 143.833 170.332 143.956C170.176 144.12 170.092 144.252 169.99 144.435C169.932 144.517 169.891 144.608 169.84 144.699L169.819 144.76C169.799 144.791 169.788 144.821 169.778 144.851C169.771 144.871 169.754 144.892 169.757 144.912L169.255 144.923C169.355 144.63 169.518 144.325 169.715 144.04C170.054 143.571 170.526 143.179 171.055 143.148C171.53 143.128 171.785 143.464 171.861 143.854C171.925 144.164 171.895 144.516 171.785 144.87Z" fill="#C7C7C7"/>
<path d="M174.552 144.812C174.358 145.529 173.836 146.273 173.076 146.691C172.743 146.879 172.643 146.439 172.973 146.261C173.454 145.99 173.8 145.53 173.974 145.075C174.002 144.994 174.033 144.903 174.05 144.822C174.133 144.519 174.156 144.217 174.085 143.957C174.049 143.827 173.983 143.728 173.881 143.65C173.881 143.65 173.864 143.64 173.858 143.63C173.841 143.62 173.821 143.621 173.815 143.611C173.795 143.612 173.748 143.602 173.748 143.602C173.665 143.584 173.591 143.595 173.5 143.627C173.356 143.67 173.221 143.774 173.099 143.897C172.944 144.061 172.859 144.193 172.757 144.376C172.7 144.458 172.658 144.549 172.607 144.64L172.586 144.701C172.566 144.732 172.555 144.762 172.545 144.792C172.538 144.812 172.521 144.833 172.524 144.853L172.022 144.864C172.122 144.571 172.285 144.266 172.482 143.981C172.821 143.512 173.293 143.12 173.822 143.089C174.297 143.069 174.552 143.405 174.628 143.795C174.693 144.106 174.663 144.458 174.552 144.812Z" fill="#C7C7C7"/>
<path d="M173.446 155.125C175.116 159.034 179.514 163.981 179.766 167.13C179.994 169.974 177.604 170.876 177.604 170.876C177.604 170.876 180.67 172.559 180.428 175.455C180.303 176.945 177.813 178.055 177.813 178.055C177.813 178.055 180.211 179.511 179.837 182.073C179.539 184.114 177.089 184.921 177.089 184.921C177.089 184.921 178.738 187.39 177.768 189.372C175.8 193.391 158.107 192.693 155.631 186.067C154.477 182.979 158.79 183.384 158.79 183.384C158.79 183.384 152.729 181.303 152.78 177.652C152.831 174.001 158.402 174.866 158.402 174.866C158.402 174.866 152.547 172.798 152.981 169.018C153.433 165.082 158.858 166.902 158.858 166.902C158.858 166.902 155.029 164.08 156.025 161.262C157.668 156.609 164.884 162.827 168.809 162.058L171.208 155.731L173.446 155.125Z" fill="#FFC3BC"/>
<path d="M176.771 160.839C175.513 157 180.384 152.513 179.708 148.668C178.794 143.468 172.791 148.293 171.205 155.73L170.989 161.72L176.771 160.839Z" fill="#FFC3BC"/>
<path d="M176.719 185.104C176.778 185.102 176.793 185.184 176.733 185.196C170.857 186.384 164.037 185.889 158.549 183.39C158.369 183.308 158.424 182.98 158.64 183.032C164.789 184.526 170.366 185.362 176.719 185.104Z" fill="#263238"/>
<path d="M177.898 178.095C177.967 178.092 177.973 178.206 177.9 178.221C171.839 179.412 164.173 178.643 158.186 175.017C157.981 174.893 157.921 174.575 158.168 174.701C162.332 176.809 172.18 178.356 177.898 178.095Z" fill="#263238"/>
<path d="M158.503 166.5C164.378 169.755 170.705 170.798 177.358 170.937C177.445 170.939 177.433 171.061 177.36 171.079C174.087 171.898 169.856 171.369 166.598 170.677C163.478 170.015 160.795 168.791 158.389 166.705C158.296 166.625 158.378 166.43 158.503 166.5Z" fill="#263238"/>
<path d="M92.2484 124.881C92.4964 125.949 100.294 132.725 105.176 132.504C106.766 132.429 104.033 123.898 104.033 123.898L104.178 123.256L106.204 114.264L95.6494 107.468L94.1244 106.568C94.1244 106.568 93.7324 109.065 93.2754 112.178C93.2534 112.322 93.2314 112.467 93.2104 112.621C93.1804 112.796 93.1494 112.962 93.1284 113.127C93.0544 113.591 92.9804 114.066 92.9164 114.54C92.8664 114.901 92.8164 115.251 92.7774 115.631C92.7284 116.012 92.6894 116.382 92.6414 116.763C92.2424 120.528 92.1494 124.427 92.2484 124.881Z" fill="#FFC3BC"/>
<path d="M93.2744 112.178C95.8404 119.341 101.554 122.268 104.178 123.255L106.204 114.263L95.6494 107.467L94.1244 106.567C94.1244 106.567 93.7314 109.065 93.2744 112.178Z" fill="#263238"/>
<path d="M120.076 102.992C118.869 119.123 109.071 120.221 105.593 119.957C102.436 119.717 91.7152 118.5 91.2492 102.331C90.7832 86.1615 98.6642 81.6235 105.914 81.7895C113.165 81.9555 121.283 86.8595 120.076 102.992Z" fill="#FFC3BC"/>
<path d="M91.675 101.247C95.474 101.899 96.418 95.895 96.418 95.895C96.418 95.895 100.797 96.204 102.245 89.291C102.245 89.291 103.638 93.832 109.349 95.638C110.558 96.02 106.928 92.137 106.928 92.137C106.928 92.137 111.171 97.447 120.679 97.235C121.351 97.22 121.541 87.258 114.839 82.761C108.137 78.264 101.303 79.09 96.081 82.93C96.081 82.93 91.73 84.097 90.319 89.026C88.907 93.956 90.198 100.994 91.675 101.247Z" fill="#263238"/>
<path d="M93.9726 102.676C93.9726 102.676 91.2986 97.1258 88.8346 98.0008C86.3716 98.8758 87.8166 106.526 90.3106 107.946C92.8046 109.366 94.1647 107.083 94.1647 107.083L93.9726 102.676Z" fill="#FFC3BC"/>
<path d="M89.3046 100.184C89.2626 100.173 89.2446 100.232 89.2786 100.253C91.0176 101.31 91.7166 103.195 92.1116 105.097C91.6696 104.318 90.9775 103.818 89.9475 104.327C89.8935 104.354 89.9276 104.437 89.9816 104.435C90.7706 104.395 91.2996 104.617 91.7156 105.311C92.0096 105.803 92.1705 106.39 92.3505 106.932C92.4105 107.113 92.7256 107.072 92.6936 106.87C92.6916 106.855 92.6875 106.839 92.6855 106.824C93.1175 104.458 91.8136 100.837 89.3046 100.184Z" fill="#263238"/>
<path d="M117.246 99.8208C116.876 99.7238 116.551 99.5728 116.196 99.4388C115.795 99.2878 115.459 99.2088 115.199 98.8448C115.059 98.6498 115.122 98.3028 115.299 98.1488C115.711 97.7918 116.248 97.8538 116.739 98.0158C117.271 98.1918 117.637 98.4638 117.938 98.9348C118.229 99.3938 117.734 99.9488 117.246 99.8208Z" fill="#263238"/>
<path d="M106.923 98.275C107.305 98.284 107.659 98.229 108.038 98.2C108.466 98.167 108.809 98.184 109.161 97.907C109.349 97.758 109.386 97.407 109.259 97.211C108.963 96.753 108.429 96.664 107.913 96.683C107.352 96.704 106.926 96.863 106.506 97.232C106.098 97.59 106.419 98.262 106.923 98.275Z" fill="#263238"/>
<path d="M108.64 102.647C108.637 102.604 108.548 102.689 108.544 102.734C108.45 103.832 108.157 105.074 107.124 105.32C107.092 105.328 107.089 105.383 107.126 105.382C108.354 105.355 108.727 103.702 108.64 102.647Z" fill="#263238"/>
<path d="M107.797 101.389C106.053 101.048 105.499 104.561 107.114 104.877C108.704 105.188 109.259 101.675 107.797 101.389Z" fill="#263238"/>
<path d="M107.079 101.466C106.741 101.616 106.385 101.92 106.009 101.898C105.574 101.873 105.309 101.454 105.085 101.056C105.062 101.015 105.026 101.041 105.019 101.087C104.903 101.759 105.053 102.49 105.758 102.704C106.402 102.9 106.969 102.378 107.243 101.728C107.295 101.607 107.215 101.405 107.079 101.466Z" fill="#263238"/>
<path d="M114.568 103.515C114.583 103.475 114.644 103.58 114.636 103.625C114.421 104.706 114.358 105.98 115.281 106.504C115.31 106.52 115.298 106.574 115.262 106.563C114.089 106.196 114.191 104.505 114.568 103.515Z" fill="#263238"/>
<path d="M115.726 102.541C117.496 102.698 117.052 106.227 115.412 106.081C113.799 105.938 114.243 102.409 115.726 102.541Z" fill="#263238"/>
<path d="M116.433 102.865C116.688 103.087 116.921 103.462 117.252 103.526C117.635 103.6 117.968 103.254 118.261 102.919C118.291 102.885 118.316 102.917 118.311 102.964C118.245 103.641 117.933 104.315 117.269 104.363C116.663 104.407 116.302 103.773 116.226 103.081C116.211 102.953 116.33 102.775 116.433 102.865Z" fill="#263238"/>
<path d="M107.296 111.435C107.503 111.741 107.69 112.141 108.074 112.254C108.443 112.362 108.918 112.283 109.29 112.22C109.327 112.214 109.354 112.257 109.325 112.285C108.96 112.642 108.318 112.781 107.835 112.591C107.364 112.406 107.209 111.934 107.181 111.463C107.179 111.397 107.266 111.391 107.296 111.435Z" fill="#263238"/>
<path d="M112.428 108.159C112.428 108.159 112.416 109.82 112.304 110.588C112.293 110.66 112.102 110.667 111.839 110.644C111.826 110.646 111.818 110.65 111.809 110.641C110.422 110.655 109.124 109.988 108.462 108.76C108.42 108.677 108.529 108.612 108.592 108.67C109.496 109.561 110.587 109.916 111.787 110.111C111.872 109.906 111.713 107.266 111.836 107.274C112.261 107.299 113.047 107.705 113.523 107.923C113.649 104.464 113.219 101.013 113.396 97.5701C113.404 97.4471 113.584 97.4361 113.604 97.5491C114.31 101.134 114.252 105.118 114.214 108.694C114.214 109.142 112.717 108.335 112.428 108.159Z" fill="#263238"/>
<path d="M111.386 110.158C111.386 110.158 110.625 110.991 109.677 111.222C109.327 111.308 108.959 111.318 108.589 111.178C107.829 110.892 107.883 110.173 108.09 109.574C108.258 109.081 108.537 108.671 108.537 108.671C108.537 108.671 109.568 109.856 111.386 110.158Z" fill="#263238"/>
<path d="M109.676 111.222C109.326 111.308 108.958 111.318 108.588 111.178C107.828 110.892 107.882 110.173 108.089 109.574C108.918 109.746 109.689 110.4 109.676 111.222Z" fill="#FF9CBD"/>
<path d="M119.816 87.0228C117.961 86.5768 107.615 86.8838 102.97 88.8828C98.325 90.8828 90.074 97.5658 89.648 97.9178C89.222 98.2698 87.099 81.2198 100.921 78.1088C115.981 74.7208 119.816 87.0228 119.816 87.0228Z" fill="#8C91CB"/>
<path d="M90.4434 97.2216C90.4434 97.2216 99.5824 85.1646 104.661 82.4136C109.74 79.6616 121.113 78.1046 128.144 81.1996C133.627 83.6136 120.241 90.6686 120.241 90.6686C120.241 90.6686 119.87 88.7166 118.106 88.0176C114.68 86.6616 108.18 87.7066 104.474 88.9516C99.8094 90.5196 90.4434 97.2216 90.4434 97.2216Z" fill="#8C91CB"/>
<path opacity="0.2" d="M90.4434 97.2216C90.4434 97.2216 99.5824 85.1646 104.661 82.4136C109.74 79.6616 121.113 78.1046 128.144 81.1996C133.627 83.6136 120.241 90.6686 120.241 90.6686C120.241 90.6686 119.87 88.7166 118.106 88.0176C114.68 86.6616 108.18 87.7066 104.474 88.9516C99.8094 90.5196 90.4434 97.2216 90.4434 97.2216Z" fill="black"/>
<path d="M104.042 123.882L101.858 131.274L92.1549 123.105L89.9219 126.234C89.9219 126.234 99.9359 139.725 99.9289 139.074L102.281 132.658L106.922 136.525L105.56 125.838L104.042 123.882Z" fill="#8C91CB"/>
<path d="M106.548 131.205C106.264 129.448 106.027 127.671 105.662 125.929C105.649 125.867 105.549 125.848 105.54 125.924C105.348 127.665 106.469 134.378 106.616 135.999C106.609 135.994 106.602 135.988 106.595 135.982C106.401 135.814 102.312 132.598 102.28 132.658C101.736 133.693 100.007 138.367 99.8979 138.787C98.3139 136.643 92.2829 128.876 90.4589 126.88C90.4069 126.823 90.3159 126.883 90.3589 126.951C91.7959 129.237 99.7949 139.708 99.8979 139.666C99.9759 139.715 102.129 133.956 102.35 132.886C103.058 133.604 107.226 137.276 107.214 137.012C107.134 135.232 106.832 132.964 106.548 131.205Z" fill="#263238"/>
</svg>
