<svg width="369" height="290" viewBox="0 0 369 290" fill="none" xmlns="http://www.w3.org/2000/svg">
<path d="M60.7939 121.02C60.7939 121.02 54.8957 120.595 55.4387 133.826C55.9817 147.057 57.3313 154.104 57.3313 154.104C57.3313 154.104 57.1577 157.038 54.8861 156.462C52.6144 155.886 48.34 153.032 46.2292 155.166C44.0402 157.379 44.8185 160.774 47.7225 164.773C50.6265 168.772 56.6669 177.766 57.2106 178.581C57.7439 179.381 57.9576 180.882 56.3474 180.738C54.7364 180.593 43.8659 176.909 42.4262 182.172C40.9865 187.435 50.9073 197.246 51.9709 198.339C53.0352 199.432 53.0918 200.123 52.6606 200.784C52.2286 201.446 48.6915 199.863 45.5566 198.942C42.4217 198.02 38.6254 197.502 38.049 200.608C37.4732 203.713 41.8423 212.804 58.2057 222.357L66.0775 226.288L73.5286 221.535C88.8537 210.393 92.2925 200.912 91.4084 197.879C90.5243 194.846 86.7988 195.742 83.7719 196.972C80.745 198.202 77.3837 200.13 76.8884 199.516C76.3931 198.901 76.3812 198.209 77.3301 197.014C78.2797 195.82 87.1689 185.066 85.2101 179.974C83.2513 174.881 72.8031 179.634 71.2152 179.939C69.6273 180.243 69.6898 178.728 70.1404 177.878C70.5992 177.013 75.7101 167.459 78.1992 163.19C80.6884 158.921 81.1234 155.466 78.7236 153.482C76.4095 151.57 72.4426 154.838 70.2395 155.638C68.0364 156.439 67.5701 153.537 67.5701 153.537C67.5701 153.537 68.2084 146.391 67.4249 133.172C66.6413 119.953 60.6739 121.021 60.6739 121.021" fill="#EBEBEB"/>
<path d="M61.2596 132.87C61.2596 132.87 61.2752 132.963 61.2916 133.146C61.3065 133.342 61.3274 133.612 61.3542 133.958C61.4033 134.687 61.4748 135.737 61.5665 137.083C61.7474 139.796 61.9791 143.725 62.2472 148.58C62.7872 158.29 63.4173 171.71 64.0653 186.533C64.7125 201.361 65.3098 214.782 65.7955 224.494C66.042 229.34 66.2416 233.266 66.3801 235.995C66.4472 237.342 66.4993 238.393 66.5358 239.122C66.55 239.469 66.5611 239.739 66.5686 239.935C66.5745 240.118 66.5693 240.213 66.5693 240.213C66.5693 240.213 66.5537 240.12 66.5373 239.938C66.5224 239.742 66.5015 239.472 66.4747 239.126C66.4256 238.397 66.3541 237.347 66.2625 236.002C66.0815 233.289 65.8498 229.361 65.5817 224.506C65.0425 214.796 64.4116 201.374 63.7636 186.547C63.1164 171.724 62.5191 158.304 62.0342 148.592C61.7877 143.747 61.5881 139.821 61.4488 137.091C61.3817 135.744 61.3296 134.693 61.2931 133.964C61.279 133.616 61.2678 133.346 61.2603 133.149C61.2551 132.965 61.2596 132.87 61.2596 132.87Z" fill="#E0E0E0"/>
<path d="M52.0469 159.401C52.0618 159.387 52.2354 159.533 52.537 159.809C52.8402 160.084 53.2654 160.496 53.7861 161.009C54.8251 162.038 56.2223 163.497 57.7335 165.136C59.2127 166.753 60.5496 168.216 61.5834 169.348C62.043 169.847 62.434 170.27 62.755 170.619C63.0328 170.918 63.1796 171.091 63.1654 171.106C63.1513 171.121 62.9762 170.976 62.6723 170.702C62.37 170.426 61.9447 170.015 61.4293 169.496C60.3999 168.456 59.0228 166.98 57.5123 165.341C56.0227 163.734 54.6754 162.282 53.6334 161.158C53.1709 160.662 52.7776 160.239 52.4544 159.892C52.1773 159.591 52.032 159.416 52.0469 159.401Z" fill="#E0E0E0"/>
<path d="M63.9462 170.846C63.8866 170.787 66.7661 167.773 70.3754 164.113C73.9862 160.452 76.961 157.533 77.0198 157.591C77.0786 157.649 74.2007 160.663 70.5899 164.325C66.9806 167.984 64.0058 170.904 63.9462 170.846Z" fill="#E0E0E0"/>
<path d="M63.9134 193.657C63.9037 193.639 64.0996 193.515 64.4624 193.308C64.8824 193.072 65.3971 192.784 66.0019 192.444C67.3008 191.714 69.0921 190.7 71.0278 189.509C72.9673 188.324 74.6856 187.19 75.9234 186.361C76.5007 185.976 76.9915 185.649 77.3922 185.382C77.7408 185.152 77.9396 185.034 77.9515 185.05C77.9635 185.067 77.7884 185.218 77.4607 185.476C77.1323 185.735 76.6511 186.099 76.0448 186.536C74.8353 187.412 73.1304 188.577 71.185 189.766C69.2433 190.96 67.4297 191.948 66.1024 192.632C65.4373 192.971 64.8958 193.239 64.5152 193.412C64.1369 193.588 63.9224 193.676 63.9134 193.657Z" fill="#E0E0E0"/>
<path d="M50.8715 185.675C50.882 185.657 51.0756 185.749 51.416 185.931C51.7564 186.112 52.2442 186.383 52.843 186.724C54.0414 187.405 55.6867 188.363 57.4936 189.438C59.3013 190.513 60.9294 191.501 62.0995 192.229C62.6849 192.593 63.1556 192.891 63.4774 193.104C63.7991 193.316 63.9727 193.442 63.9615 193.46C63.9511 193.478 63.7574 193.386 63.4171 193.204C63.0767 193.023 62.5888 192.751 61.99 192.411C60.7916 191.73 59.1463 190.771 57.3387 189.696C55.5318 188.622 53.9036 187.634 52.7336 186.906C52.1481 186.542 51.6774 186.243 51.3549 186.031C51.0339 185.819 50.8611 185.693 50.8715 185.675Z" fill="#E0E0E0"/>
<path d="M48.2865 205.809C48.2969 205.791 48.5427 205.911 48.9791 206.145C49.464 206.412 50.0785 206.751 50.8114 207.155C52.3516 208.02 54.4691 209.233 56.7989 210.588C59.1286 211.944 61.2297 213.186 62.7424 214.098C63.4559 214.535 64.054 214.901 64.5262 215.191C64.9441 215.455 65.1697 215.61 65.1593 215.627C65.1489 215.645 64.9031 215.525 64.4666 215.292C63.9818 215.025 63.3673 214.686 62.6344 214.282C61.0942 213.417 58.9767 212.204 56.6462 210.849C54.3172 209.493 52.2161 208.252 50.7034 207.34C49.9898 206.903 49.3918 206.536 48.9196 206.247C48.5017 205.981 48.2761 205.827 48.2865 205.809Z" fill="#E0E0E0"/>
<path d="M64.8206 215.278C64.8102 215.261 65.0545 215.098 65.5051 214.82C66.0064 214.516 66.6484 214.124 67.4185 213.655C69.0333 212.672 71.2595 211.305 73.6749 209.729C76.094 208.156 78.2465 206.676 79.7979 205.595C80.5383 205.08 81.1565 204.651 81.6376 204.317C82.0741 204.018 82.3206 203.86 82.3333 203.876C82.3459 203.893 82.1217 204.082 81.7069 204.412C81.292 204.741 80.6835 205.206 79.9216 205.769C78.3999 206.896 76.2623 208.406 73.8387 209.982C71.4189 211.561 69.1703 212.901 67.5258 213.839C66.702 214.306 66.0317 214.677 65.5625 214.922C65.0947 215.169 64.8311 215.297 64.8206 215.278Z" fill="#E0E0E0"/>
<path d="M76.6512 228.862H54.873L61.9807 282.669H69.5427L76.6512 228.862Z" fill="#E0E0E0"/>
<path d="M56.0022 235.478C55.994 235.483 56.026 235.554 56.1184 235.67C56.2115 235.784 56.3821 235.933 56.6435 236.046C57.1596 236.271 58.0668 236.289 58.9434 235.763C59.8231 235.279 60.5887 234.325 61.7678 233.904C62.9364 233.458 64.3843 233.538 65.7726 233.984C67.1765 234.418 68.3965 235.129 69.5018 235.791C70.6093 236.45 71.6238 237.038 72.5347 237.418C73.4381 237.813 74.2261 237.995 74.7713 238.065C75.0447 238.101 75.2577 238.112 75.4029 238.107C75.5474 238.107 75.6234 238.101 75.6241 238.089C75.6368 238.018 74.3915 238.029 72.6367 237.189C71.7571 236.787 70.7695 236.186 69.6709 235.511C68.5775 234.836 67.3285 234.094 65.8783 233.645C64.4453 233.184 62.9051 233.101 61.6516 233.599C61.0252 233.837 60.4993 234.212 60.0607 234.583C59.616 234.951 59.2175 235.297 58.8139 235.549C58.0169 236.064 57.1805 236.085 56.6926 235.917C56.1914 235.743 56.0305 235.448 56.0022 235.478Z" fill="#F5F5F5"/>
<path d="M56.799 245.386C56.828 245.404 56.9718 245.164 57.3122 244.809C57.6585 244.463 58.2268 244.011 59.0513 243.705C59.8683 243.392 60.9185 243.206 62.0797 243.25C63.246 243.29 64.5174 243.546 65.8692 243.766C67.2188 243.993 68.5558 244.094 69.7497 243.927C70.9436 243.773 71.9804 243.43 72.8026 243.055C73.6271 242.679 74.2379 242.267 74.6386 241.963C75.0408 241.659 75.2322 241.454 75.2203 241.44C75.1793 241.381 74.3384 242.134 72.7021 242.824C71.8858 243.162 70.8699 243.471 69.7102 243.601C68.5505 243.745 67.2665 243.639 65.9251 243.414C64.5844 243.197 63.293 242.945 62.0893 242.922C60.8843 242.895 59.7976 243.115 58.9567 243.472C58.1084 243.822 57.5349 244.329 57.2094 244.715C57.0522 244.917 56.9383 245.077 56.8802 245.198C56.8169 245.316 56.7886 245.38 56.799 245.386Z" fill="#F5F5F5"/>
<path d="M74.185 250.691C74.1932 250.675 73.9921 250.539 73.5847 250.38C73.1796 250.22 72.5606 250.055 71.7801 249.993C71.0003 249.931 70.0655 249.981 69.0511 250.149C68.0352 250.314 66.947 250.594 65.8037 250.837C64.6612 251.077 63.5589 251.239 62.5601 251.203C61.5621 251.168 60.6743 250.95 59.9853 250.646C58.5836 250.031 58.0846 249.135 58.0324 249.192C58.019 249.2 58.1181 249.424 58.4011 249.76C58.6819 250.095 59.172 250.524 59.8796 250.874C60.5864 251.222 61.507 251.476 62.546 251.53C63.5872 251.587 64.7208 251.428 65.8767 251.184C67.0327 250.939 68.1134 250.65 69.107 250.472C70.0998 250.289 71.007 250.215 71.7659 250.244C73.2943 250.294 74.1634 250.756 74.185 250.691Z" fill="#F5F5F5"/>
<path d="M58.7252 258.153C58.7356 258.21 59.5027 257.668 60.8397 257.94C61.4951 258.059 62.228 258.391 63.0517 258.765C63.8725 259.147 64.8616 259.474 65.923 259.556C68.0628 259.762 69.9658 259.071 71.1329 258.349C71.731 257.994 72.1473 257.613 72.4296 257.352C72.6948 257.069 72.8303 256.907 72.8132 256.891C72.7655 256.839 72.1935 257.482 71.007 258.132C69.8407 258.777 68.004 259.4 65.955 259.203C63.8934 259.085 62.3107 257.855 60.8814 257.693C60.1842 257.589 59.6018 257.688 59.2391 257.835C58.8697 257.978 58.714 258.14 58.7252 258.153Z" fill="#F5F5F5"/>
<path d="M59.9346 268.481C59.9346 268.522 60.6653 268.516 61.7505 268.12C62.8453 267.754 64.2001 266.915 65.7829 266.286C66.5768 265.984 67.373 265.798 68.097 265.802C68.8217 265.805 69.4682 265.982 69.9575 266.226C70.9578 266.724 71.2475 267.432 71.3026 267.387C71.3183 267.381 71.2743 267.202 71.0963 266.928C70.9205 266.655 70.5869 266.298 70.0759 266.005C69.5665 265.714 68.8813 265.497 68.1022 265.475C67.3209 265.451 66.4793 265.641 65.657 265.955C64.0169 266.609 62.7053 267.472 61.6596 267.887C60.6266 268.332 59.9264 268.423 59.9346 268.481Z" fill="#F5F5F5"/>
<path d="M61.0041 273.287C60.9922 273.332 61.5143 273.519 62.3827 273.735C63.2504 273.951 64.4689 274.181 65.8297 274.316C67.1905 274.448 68.4306 274.459 69.3243 274.417C70.2181 274.375 70.7663 274.293 70.7641 274.246C70.7588 274.139 68.5572 274.233 65.8647 273.962C63.1722 273.704 61.0302 273.183 61.0041 273.287Z" fill="#F5F5F5"/>
<path d="M337.38 168H200V231.358H337.38V168Z" fill="#F5F5F5"/>
<path d="M334.109 228.374H203.144V171.336H334.11V228.374H334.109ZM203.998 227.52H333.255V172.191H203.998V227.52Z" fill="#E0E0E0"/>
<path d="M203.569 188.985C218.286 188.985 233.004 188.985 247.721 188.985C270.974 188.985 294.227 188.985 317.48 188.985C322.879 188.985 328.279 188.985 333.68 188.985C333.902 188.985 333.902 188.641 333.68 188.641C318.962 188.641 304.245 188.641 289.528 188.641C266.275 188.641 243.022 188.641 219.769 188.641C214.369 188.641 208.969 188.641 203.569 188.641C203.347 188.641 203.347 188.985 203.569 188.985Z" fill="#E0E0E0"/>
<path d="M269.051 188.814C269.441 183.19 269.398 177.233 269.095 171.604C269.083 171.379 268.757 171.378 268.745 171.604C268.441 177.233 268.399 183.19 268.789 188.814C268.801 188.981 269.039 188.982 269.051 188.814Z" fill="#E0E0E0"/>
<path d="M304.071 180.207C304.071 181.186 303.277 181.98 302.298 181.98C301.319 181.98 300.525 181.186 300.525 180.207C300.525 179.229 301.319 178.435 302.298 178.435C303.277 178.435 304.071 179.229 304.071 180.207Z" fill="#E0E0E0"/>
<path d="M235.788 180.207C235.788 181.186 234.995 181.98 234.016 181.98C233.036 181.98 232.243 181.186 232.243 180.207C232.243 179.229 233.037 178.435 234.016 178.435C234.994 178.435 235.788 179.229 235.788 180.207Z" fill="#E0E0E0"/>
<path d="M270.399 199.854C270.399 200.832 269.606 201.626 268.626 201.626C267.647 201.626 266.854 200.832 266.854 199.854C266.854 198.874 267.647 198.081 268.626 198.081C269.605 198.081 270.399 198.874 270.399 199.854Z" fill="#E0E0E0"/>
<path d="M216.425 231.36L209.352 271.137H213.33L226.371 231.36H216.425Z" fill="#E0E0E0"/>
<path d="M327.658 231.36L333.573 271.207H329.595L317.712 231.36H327.658Z" fill="#E0E0E0"/>
<path d="M270.278 217.784C270.278 218.763 269.484 219.557 268.505 219.557C267.526 219.557 266.732 218.764 266.732 217.784C266.732 216.805 267.526 216.012 268.505 216.012C269.484 216.012 270.278 216.805 270.278 217.784Z" fill="#E0E0E0"/>
<path d="M203.568 208.602C218.285 208.602 233.003 208.602 247.72 208.602C270.973 208.602 294.226 208.602 317.479 208.602C322.878 208.602 328.278 208.602 333.679 208.602C333.901 208.602 333.901 208.257 333.679 208.257C318.961 208.257 304.244 208.257 289.527 208.257C266.274 208.257 243.021 208.257 219.768 208.257C214.368 208.257 208.968 208.257 203.568 208.257C203.346 208.257 203.346 208.602 203.568 208.602Z" fill="#E0E0E0"/>
<path d="M110.898 244.437V268.521H146.12H184.966V244.437H110.898Z" fill="#F5F5F5"/>
<path d="M107.792 237.7V244.434H187.558V237.7H146.12H107.792Z" fill="#E0E0E0"/>
<path d="M147.676 268.519H184.969V244.434H187.559V237.7H146.122V243.811L147.676 268.519Z" fill="#E0E0E0"/>
<path d="M136.28 248.316H121.26V251.942H136.28V248.316Z" fill="#E0E0E0"/>
<path d="M138.616 256.479H119.328V264.134H138.616V256.479Z" fill="white"/>
<path d="M122.299 213.646V237.731H157.519H196.367V213.646H122.299Z" fill="#F5F5F5"/>
<path d="M119.188 206.91V213.644H198.953V206.91H157.516H119.188Z" fill="#E0E0E0"/>
<path d="M159.072 237.729H196.365V213.644H198.955V206.91H157.518V213.021L159.072 237.729Z" fill="#E0E0E0"/>
<path d="M147.676 217.532H132.655V221.158H147.676V217.532Z" fill="#E0E0E0"/>
<path d="M150.01 225.688H130.723V233.344H150.01V225.688Z" fill="white"/>
<path d="M338.148 94.1916C339.494 93.3775 340.928 92.7608 342.407 92.3407L343.284 88.1251L350.406 88L351.431 92.1814C352.923 92.5493 354.378 93.1153 355.752 93.8817L359.352 91.5222L364.476 96.4699L362.245 100.149C363.059 101.497 363.676 102.93 364.096 104.409L368.311 105.286L368.436 112.407L364.255 113.432C363.887 114.924 363.321 116.379 362.555 117.753L364.914 121.352L359.967 126.477L356.288 124.245C354.941 125.059 353.507 125.676 352.028 126.096L351.151 130.312L344.029 130.437L343.004 126.255C341.511 125.888 340.057 125.322 338.683 124.555L335.084 126.915L329.96 121.967L332.191 118.288C331.377 116.941 330.76 115.507 330.34 114.029L326.125 113.151L326 106.03L330.181 105.004C330.549 103.512 331.116 102.057 331.881 100.683L329.522 97.0837L334.469 91.9594L338.148 94.1916ZM341.944 103.679C339.012 106.715 339.098 111.552 342.134 114.483C345.17 117.414 350.007 117.329 352.938 114.293C355.869 111.257 355.784 106.42 352.748 103.489C349.712 100.558 344.876 100.643 341.944 103.679Z" fill="#EBEBEB"/>
<path d="M235.758 65.7195C237.76 64.5092 239.892 63.5923 242.09 62.9674L243.394 56.6991L253.984 56.5137L255.509 62.7313C257.728 63.278 259.89 64.1204 261.934 65.2592L267.286 61.7511L274.906 69.1083L271.588 74.5797C272.799 76.5825 273.716 78.7149 274.34 80.9135L280.608 82.2177L280.794 92.8073L274.576 94.332C274.03 96.5507 273.187 98.7129 272.049 100.757L275.557 106.109L268.2 113.729L262.729 110.411C260.726 111.621 258.594 112.538 256.396 113.163L255.091 119.431L244.501 119.617L242.977 113.399C240.758 112.852 238.596 112.01 236.551 110.871L231.199 114.38L223.579 107.023L226.896 101.551C225.686 99.5486 224.768 97.4169 224.144 95.2183L217.877 93.9141L217.69 83.3245L223.908 81.7998C224.455 79.5811 225.298 77.4189 226.436 75.3752L222.928 70.023L230.284 62.4036L235.758 65.7195ZM241.403 79.8268C237.044 84.3419 237.17 91.5345 241.685 95.8931C246.199 100.252 253.393 100.125 257.751 95.61C262.108 91.0958 261.983 83.9024 257.468 79.5438C252.954 75.1867 245.761 75.3133 241.403 79.8268Z" fill="#EBEBEB"/>
<path d="M240.919 11.517C241.92 10.9122 242.986 10.4534 244.085 10.1413L244.738 7.00716L250.032 6.91406L250.794 10.0229C251.904 10.2962 252.986 10.717 254.007 11.2868L256.684 9.5328L260.493 13.2114L258.835 15.9471C259.44 16.9488 259.898 18.0147 260.211 19.114L263.344 19.7664L263.437 25.0613L260.329 25.8232C260.055 26.933 259.634 28.0137 259.065 29.0356L260.819 31.7116L257.141 35.5213L254.405 33.8626C253.403 34.4674 252.338 34.9262 251.238 35.2383L250.586 38.3724L245.291 38.4655L244.529 35.3567C243.419 35.0834 242.339 34.6618 241.317 34.0928L238.641 35.8468L234.831 32.1682L236.49 29.4325C235.885 28.4315 235.426 27.3657 235.113 26.2656L231.98 25.6132L231.887 20.3183L234.996 19.5557C235.269 18.4459 235.69 17.3652 236.259 16.3433L234.505 13.6672L238.183 9.85754L240.919 11.517ZM243.742 18.571C241.562 20.8285 241.626 24.4245 243.883 26.6038C246.14 28.7831 249.737 28.7198 251.916 26.4623C254.095 24.2047 254.032 20.6081 251.775 18.4295C249.518 16.2502 245.921 16.3135 243.742 18.571Z" fill="#EBEBEB"/>
<path d="M211.109 104.402C213.298 103.079 215.628 102.076 218.032 101.393L219.458 94.5402L231.036 94.3369L232.702 101.135C235.129 101.732 237.493 102.653 239.728 103.898L245.58 100.063L253.911 108.106L250.284 114.088C251.607 116.278 252.61 118.609 253.292 121.013L260.144 122.439L260.348 134.017L253.55 135.684C252.952 138.11 252.032 140.474 250.786 142.708L254.621 148.56L246.579 156.891L240.597 153.264C238.408 154.587 236.076 155.589 233.672 156.272L232.246 163.125L220.669 163.329L219.002 156.531C216.576 155.933 214.212 155.012 211.977 153.767L206.125 157.602L197.794 149.559L201.422 143.577C200.098 141.387 199.095 139.057 198.412 136.652L191.56 135.226L191.356 123.648L198.155 121.981C198.753 119.555 199.674 117.191 200.918 114.957L197.083 109.105L205.126 100.774L211.109 104.402Z" fill="#4CA2FF"/>
<path d="M218.571 117.834H212.21V137.701H218.571V117.834Z" fill="white"/>
<path d="M228.069 122.372H221.708V137.701H228.069V122.372Z" fill="white"/>
<path d="M236.861 128.598H230.5V137.701H236.861V128.598Z" fill="white"/>
<path d="M115.753 102.997C117.943 101.674 120.273 100.67 122.677 99.9881L124.103 93.1349L135.681 92.9316L137.347 99.7292C139.774 100.327 142.138 101.247 144.372 102.493L150.224 98.6573L158.555 106.701L154.929 112.682C156.252 114.872 157.255 117.204 157.937 119.608L164.789 121.034L164.992 132.612L158.194 134.279C157.596 136.705 156.676 139.069 155.431 141.303L159.266 147.155L151.223 155.486L145.24 151.858C143.051 153.182 140.72 154.184 138.316 154.867L136.89 161.72L125.312 161.923L123.646 155.125C121.22 154.527 118.855 153.606 116.621 152.362L110.769 156.197L102.438 148.153L106.065 142.171C104.742 139.981 103.738 137.651 103.056 135.247L96.2033 133.821L96 122.243L102.798 120.576C103.396 118.15 104.317 115.786 105.562 113.552L101.727 107.7L109.769 99.3688L115.753 102.997Z" fill="#4CA2FF"/>
<path d="M132.339 146.828C123.702 146.828 115.947 141.053 113.481 132.784C113.431 132.617 113.526 132.441 113.693 132.392C113.86 132.343 114.036 132.436 114.086 132.604C116.473 140.607 123.979 146.196 132.339 146.196C142.841 146.196 151.384 137.653 151.384 127.151C151.384 116.65 142.841 108.106 132.339 108.106C123.562 108.106 115.959 114.048 113.852 122.557C113.81 122.726 113.638 122.828 113.47 122.787C113.301 122.746 113.198 122.574 113.24 122.405C115.417 113.615 123.272 107.476 132.34 107.476C143.189 107.476 152.016 116.302 152.016 127.152C152.016 138.001 143.189 146.828 132.339 146.828Z" fill="white"/>
<path d="M132.23 140.824C126.125 140.824 120.71 136.717 119.063 130.837C119.015 130.669 119.114 130.495 119.282 130.448C119.448 130.402 119.624 130.499 119.671 130.667C121.242 136.276 126.407 140.193 132.23 140.193C139.421 140.193 145.271 134.342 145.271 127.152C145.271 119.961 139.421 114.111 132.23 114.111C126.408 114.111 121.244 118.027 119.671 123.634C119.624 123.803 119.451 123.901 119.282 123.853C119.114 123.806 119.016 123.631 119.063 123.464C120.712 117.586 126.127 113.48 132.23 113.48C139.769 113.48 145.902 119.613 145.902 127.153C145.902 134.69 139.769 140.824 132.23 140.824Z" fill="white"/>
<path d="M132.23 130.219C131.531 130.219 130.856 130.012 130.278 129.621C130.133 129.524 130.095 129.328 130.193 129.183C130.29 129.04 130.487 128.999 130.631 129.099C131.105 129.419 131.657 129.587 132.23 129.587C133.807 129.587 135.09 128.304 135.09 126.726C135.09 125.148 133.807 123.865 132.23 123.865C131.757 123.865 131.29 123.982 130.877 124.205C130.723 124.288 130.533 124.231 130.449 124.077C130.367 123.925 130.423 123.733 130.577 123.65C131.081 123.377 131.653 123.233 132.229 123.233C134.154 123.233 135.721 124.8 135.721 126.726C135.722 128.652 134.156 130.219 132.23 130.219Z" fill="white"/>
<path d="M132.338 126.607L127.238 124.122L127.336 126.337L113.783 126.655L113.933 127.65L127.502 127.426L127.541 129.674L132.338 126.607Z" fill="white"/>
<path d="M117.512 126.984L117.438 126.842C117.075 126.139 116.363 125.687 115.572 125.656L111.087 125.483L113.031 127.242L111.305 129.37L115.597 129.281C116.565 129.26 117.405 128.608 117.665 127.675L117.512 126.984Z" fill="white"/>
<path d="M132.338 135.402C128.694 135.402 125.436 132.959 124.415 129.46C124.366 129.293 124.462 129.118 124.63 129.069C124.798 129.019 124.972 129.116 125.021 129.284C125.964 132.515 128.973 134.771 132.338 134.771C136.539 134.771 139.958 131.353 139.958 127.151C139.958 122.949 136.539 119.531 132.338 119.531C129.005 119.531 126.005 121.76 125.041 124.951C124.991 125.118 124.815 125.214 124.647 125.162C124.481 125.112 124.386 124.936 124.436 124.769C125.48 121.313 128.729 118.899 132.338 118.899C136.887 118.899 140.589 122.601 140.589 127.151C140.589 131.7 136.887 135.402 132.338 135.402Z" fill="white"/>
<path d="M305.434 102.465C307.623 101.142 309.953 100.139 312.357 99.4562L313.783 92.6037L325.361 92.4004L327.028 99.198C329.455 99.7958 331.819 100.716 334.053 101.962L339.905 98.1261L348.236 106.17L344.609 112.151C345.932 114.341 346.935 116.672 347.618 119.076L354.47 120.502L354.673 132.081L347.875 133.747C347.277 136.173 346.357 138.537 345.111 140.772L348.947 146.623L340.904 154.954L334.922 151.327C332.733 152.65 330.401 153.653 327.998 154.336L326.571 161.189L314.993 161.392L313.327 154.594C310.901 153.996 308.536 153.075 306.302 151.83L300.45 155.666L292.119 147.622L295.747 141.64C294.424 139.45 293.42 137.12 292.737 134.716L285.885 133.29L285.682 121.712L292.48 120.045C293.078 117.619 293.999 115.255 295.244 113.02L291.409 107.169L299.451 98.8375L305.434 102.465Z" fill="#4CA2FF"/>
<path d="M303.217 127.891L307.654 123.454L316.212 131.061L333.011 114.896L337.132 119.333L315.578 139.618L303.217 127.891Z" fill="white"/>
<path d="M188.548 106.073C188.543 106.071 188.569 106.004 188.623 105.875C188.686 105.73 188.769 105.542 188.873 105.305C188.988 105.049 189.127 104.741 189.29 104.381C189.45 104.014 189.645 103.595 189.908 103.145C190.161 102.687 190.44 102.181 190.746 101.629C191.07 101.085 191.462 100.518 191.862 99.8959C192.247 99.2621 192.757 98.6548 193.257 97.9813C193.745 97.2963 194.35 96.6467 194.961 95.9435C195.553 95.2213 196.285 94.5711 196.994 93.8426C197.344 93.472 197.754 93.1513 198.148 92.7991C198.549 92.455 198.947 92.0914 199.372 91.7461C199.809 91.4147 200.253 91.0776 200.704 90.7348C200.931 90.5656 201.153 90.3857 201.389 90.2222C201.629 90.0638 201.872 89.904 202.115 89.7431C202.605 89.4255 203.092 89.0865 203.604 88.7734C204.127 88.4767 204.656 88.1756 205.192 87.8713C205.719 87.55 206.293 87.3019 206.859 87.0223C207.43 86.7533 207.994 86.4503 208.6 86.2275C209.2 85.987 209.805 85.7439 210.416 85.4983C211.043 85.2951 211.675 85.0905 212.314 84.8835C214.885 84.119 217.629 83.5887 220.473 83.3981C223.321 83.251 226.108 83.4524 228.753 83.9075C229.411 84.0376 230.064 84.1657 230.71 84.2932C231.347 84.4649 231.977 84.6348 232.6 84.8027C233.229 84.9523 233.825 85.1865 234.424 85.3853C235.019 85.5962 235.619 85.7748 236.18 86.0311C236.749 86.2704 237.31 86.5065 237.863 86.7388C238.409 86.9888 238.933 87.2678 239.457 87.5254C239.717 87.6561 239.977 87.7861 240.234 87.9149C240.488 88.05 240.73 88.2021 240.976 88.3429C241.464 88.6295 241.945 88.9117 242.417 89.1894C242.881 89.4817 243.319 89.7961 243.758 90.0896C244.191 90.3927 244.636 90.6628 245.027 90.9898C245.818 91.6287 246.622 92.1886 247.295 92.8357C247.985 93.4619 248.663 94.0358 249.228 94.6576C249.805 95.2674 250.383 95.8103 250.84 96.3942C251.311 96.9649 251.767 97.4813 252.153 97.9825C252.522 98.4951 252.859 98.9648 253.165 99.389C253.479 99.8044 253.722 100.198 253.925 100.543C254.129 100.881 254.303 101.17 254.448 101.41C254.58 101.634 254.684 101.811 254.764 101.947C254.833 102.069 254.867 102.133 254.862 102.135C254.857 102.138 254.814 102.08 254.735 101.964C254.648 101.833 254.535 101.661 254.392 101.445C254.239 101.21 254.057 100.927 253.843 100.597C253.632 100.258 253.381 99.8713 253.06 99.4629C252.749 99.0456 252.405 98.5835 252.029 98.0791C251.637 97.5854 251.176 97.0773 250.701 96.5154C250.24 95.9403 249.658 95.4063 249.08 94.8053C248.512 94.1923 247.833 93.628 247.142 93.0112C246.468 92.3736 245.665 91.8231 244.875 91.1937C244.485 90.8718 244.04 90.6067 243.609 90.3074C243.171 90.0183 242.734 89.7083 242.272 89.4205C241.801 89.1471 241.323 88.8694 240.836 88.5872C240.592 88.4483 240.351 88.2987 240.098 88.1655C239.842 88.0386 239.584 87.9111 239.325 87.7823C238.803 87.5292 238.283 87.2539 237.74 87.0084C237.19 86.7792 236.632 86.5469 236.067 86.3121C235.509 86.0596 234.913 85.8847 234.323 85.677C233.728 85.4813 233.136 85.2503 232.513 85.1038C231.894 84.9384 231.269 84.7711 230.638 84.6026C229.996 84.4776 229.349 84.3513 228.696 84.2238C226.074 83.7775 223.311 83.5799 220.491 83.7257C217.674 83.9151 214.956 84.4384 212.406 85.1915C211.773 85.3954 211.145 85.5975 210.523 85.7976C209.917 86.0393 209.316 86.2792 208.722 86.5166C208.119 86.7357 207.559 87.0355 206.992 87.3C206.43 87.5759 205.859 87.8202 205.335 88.1371C204.802 88.4376 204.276 88.7337 203.757 89.0266C203.247 89.3346 202.762 89.6698 202.275 89.983C202.033 90.1414 201.791 90.2986 201.552 90.4551C201.317 90.6168 201.096 90.7941 200.869 90.9608C200.42 91.2985 199.977 91.6312 199.542 91.9582C199.118 92.2985 198.721 92.6577 198.32 92.9967C197.927 93.3445 197.517 93.6601 197.168 94.0263C196.458 94.7453 195.726 95.3867 195.132 96.0994C194.52 96.7938 193.911 97.4346 193.42 98.1107C192.917 98.7754 192.402 99.3745 192.012 100.001C191.607 100.615 191.209 101.174 190.879 101.711C190.565 102.256 190.278 102.756 190.019 103.207C189.749 103.65 189.545 104.064 189.375 104.425C189.202 104.779 189.054 105.082 188.931 105.333C188.815 105.565 188.722 105.749 188.651 105.889C188.59 106.012 188.554 106.075 188.548 106.073Z" fill="#263238"/>
<path d="M201.619 85.1984C201.607 85.1788 201.862 85.0039 202.336 84.7028C202.807 84.3966 203.514 83.9945 204.408 83.5375C206.193 82.6196 208.782 81.5622 211.773 80.8602C214.767 80.1664 217.557 79.9701 219.564 80.0036C220.568 80.0181 221.379 80.0661 221.937 80.133C222.495 80.1936 222.802 80.2378 222.8 80.2605C222.798 80.2832 222.487 80.282 221.929 80.2611C221.371 80.234 220.562 80.2213 219.565 80.2365C217.571 80.2624 214.813 80.4934 211.848 81.1809C208.885 81.8759 206.31 82.8885 204.51 83.7464C203.61 84.1738 202.889 84.5424 202.401 84.8139C201.908 85.0797 201.63 85.2179 201.619 85.1984Z" fill="#263238"/>
<path d="M353.333 149.388C353.338 149.39 353.313 149.457 353.258 149.586C353.195 149.731 353.112 149.919 353.008 150.156C352.892 150.412 352.753 150.72 352.591 151.08C352.431 151.447 352.236 151.866 351.973 152.316C351.72 152.773 351.44 153.28 351.135 153.832C350.811 154.376 350.419 154.942 350.019 155.565C349.634 156.199 349.124 156.806 348.624 157.479C348.136 158.164 347.531 158.814 346.92 159.517C346.328 160.239 345.596 160.89 344.886 161.618C344.537 161.989 344.127 162.309 343.733 162.662C343.332 163.006 342.934 163.369 342.508 163.715C342.072 164.046 341.628 164.383 341.177 164.726C340.95 164.895 340.728 165.075 340.492 165.239C340.252 165.397 340.01 165.557 339.766 165.718C339.276 166.035 338.79 166.374 338.277 166.687C337.755 166.984 337.225 167.285 336.689 167.589C336.162 167.911 335.588 168.159 335.022 168.439C334.451 168.707 333.887 169.01 333.28 169.233C332.681 169.474 332.076 169.717 331.465 169.962C330.838 170.166 330.205 170.37 329.567 170.577C326.995 171.342 324.252 171.872 321.408 172.063C318.56 172.21 315.773 172.009 313.128 171.554C312.47 171.424 311.817 171.296 311.17 171.168C310.534 170.996 309.904 170.827 309.281 170.659C308.652 170.509 308.056 170.275 307.457 170.076C306.861 169.865 306.262 169.687 305.7 169.43C305.132 169.191 304.571 168.956 304.017 168.723C303.471 168.473 302.948 168.194 302.424 167.936C302.163 167.805 301.904 167.675 301.647 167.546C301.393 167.411 301.151 167.259 300.905 167.119C300.417 166.832 299.936 166.55 299.463 166.272C299 165.98 298.562 165.665 298.123 165.371C297.69 165.068 297.245 164.798 296.854 164.471C296.063 163.832 295.259 163.272 294.586 162.625C293.896 161.999 293.218 161.425 292.652 160.803C292.076 160.193 291.497 159.65 291.041 159.067C290.57 158.496 290.114 157.98 289.728 157.479C289.359 156.966 289.021 156.497 288.716 156.072C288.402 155.657 288.158 155.264 287.956 154.918C287.752 154.581 287.578 154.292 287.433 154.051C287.301 153.828 287.197 153.65 287.117 153.514C287.047 153.393 287.014 153.329 287.019 153.326C287.024 153.324 287.067 153.382 287.146 153.497C287.233 153.629 287.346 153.8 287.489 154.016C287.641 154.252 287.824 154.535 288.038 154.865C288.249 155.204 288.499 155.591 288.821 155.999C289.131 156.416 289.476 156.879 289.852 157.383C290.244 157.877 290.704 158.385 291.18 158.947C291.641 159.522 292.223 160.056 292.801 160.657C293.368 161.27 294.048 161.834 294.739 162.451C295.413 163.088 296.216 163.639 297.006 164.268C297.396 164.59 297.84 164.855 298.272 165.155C298.71 165.444 299.147 165.754 299.609 166.042C300.08 166.315 300.558 166.593 301.045 166.875C301.289 167.014 301.53 167.163 301.783 167.297C302.038 167.423 302.297 167.551 302.556 167.68C303.078 167.933 303.598 168.208 304.141 168.454C304.691 168.683 305.248 168.915 305.813 169.15C306.372 169.402 306.967 169.577 307.558 169.785C308.152 169.981 308.745 170.212 309.368 170.358C309.987 170.524 310.612 170.691 311.243 170.859C311.885 170.984 312.532 171.111 313.185 171.238C315.807 171.685 318.57 171.882 321.39 171.736C324.206 171.547 326.925 171.024 329.475 170.27C330.108 170.067 330.736 169.865 331.358 169.664C331.964 169.423 332.565 169.183 333.159 168.945C333.761 168.726 334.321 168.427 334.889 168.162C335.451 167.886 336.021 167.642 336.546 167.325C337.079 167.024 337.605 166.728 338.124 166.435C338.634 166.127 339.118 165.792 339.606 165.479C339.848 165.321 340.089 165.163 340.328 165.007C340.564 164.845 340.784 164.668 341.011 164.501C341.461 164.163 341.903 163.831 342.338 163.504C342.762 163.164 343.159 162.805 343.56 162.466C343.953 162.118 344.363 161.803 344.712 161.436C345.422 160.717 346.155 160.076 346.748 159.363C347.36 158.669 347.969 158.028 348.46 157.352C348.963 156.687 349.478 156.088 349.868 155.463C350.273 154.848 350.671 154.289 351.002 153.752C351.315 153.207 351.602 152.708 351.861 152.256C352.132 151.813 352.336 151.4 352.505 151.038C352.678 150.684 352.826 150.381 352.949 150.13C353.065 149.898 353.158 149.715 353.229 149.574C353.292 149.448 353.328 149.385 353.333 149.388Z" fill="#263238"/>
<path d="M340.522 172.183C340.534 172.203 340.279 172.378 339.805 172.679C339.334 172.985 338.627 173.387 337.734 173.844C335.948 174.762 333.359 175.82 330.368 176.521C327.374 177.216 324.584 177.412 322.577 177.378C321.573 177.364 320.761 177.316 320.204 177.249C319.646 177.188 319.339 177.144 319.342 177.121C319.344 177.098 319.654 177.1 320.213 177.121C320.771 177.148 321.58 177.16 322.577 177.145C324.571 177.119 327.329 176.888 330.294 176.201C333.256 175.506 335.832 174.493 337.631 173.635C338.532 173.208 339.252 172.839 339.741 172.568C340.232 172.303 340.51 172.164 340.522 172.183Z" fill="#263238"/>
<path d="M164.439 147.982C164.444 147.985 164.419 148.052 164.365 148.181C164.301 148.326 164.219 148.514 164.115 148.751C163.999 149.007 163.86 149.315 163.698 149.675C163.538 150.042 163.343 150.462 163.079 150.911C162.827 151.369 162.547 151.875 162.241 152.427C161.917 152.971 161.525 153.538 161.125 154.16C160.74 154.794 160.23 155.401 159.73 156.075C159.242 156.76 158.637 157.409 158.026 158.113C157.434 158.835 156.702 159.485 155.993 160.214C155.643 160.584 155.233 160.905 154.839 161.257C154.438 161.601 154.04 161.965 153.615 162.31C153.178 162.641 152.734 162.979 152.283 163.321C152.056 163.49 151.834 163.67 151.598 163.834C151.358 163.992 151.115 164.152 150.872 164.313C150.382 164.631 149.895 164.97 149.382 165.283C148.86 165.579 148.331 165.881 147.795 166.185C147.268 166.506 146.693 166.754 146.128 167.034C145.556 167.303 144.993 167.606 144.386 167.829C143.787 168.069 143.181 168.312 142.57 168.558C141.943 168.761 141.311 168.966 140.673 169.173C138.101 169.937 135.357 170.467 132.513 170.658C129.666 170.805 126.878 170.604 124.234 170.149C123.575 170.019 122.922 169.89 122.276 169.763C121.64 169.591 121.01 169.421 120.387 169.253C119.757 169.104 119.161 168.87 118.562 168.671C117.967 168.46 117.367 168.281 116.806 168.025C116.238 167.786 115.677 167.55 115.123 167.317C114.577 167.067 114.054 166.788 113.53 166.531C113.269 166.4 113.009 166.27 112.753 166.141C112.499 166.006 112.256 165.854 112.011 165.713C111.522 165.427 111.042 165.144 110.569 164.867C110.106 164.574 109.667 164.26 109.228 163.966C108.795 163.663 108.35 163.393 107.959 163.066C107.168 162.427 106.365 161.867 105.692 161.22C105.002 160.594 104.324 160.02 103.758 159.398C103.182 158.788 102.603 158.245 102.146 157.662C101.675 157.091 101.219 156.575 100.833 156.074C100.465 155.561 100.127 155.091 99.8214 154.667C99.5077 154.252 99.264 153.858 99.0613 153.513C98.8574 153.175 98.6832 152.886 98.538 152.646C98.4067 152.422 98.3026 152.245 98.2224 152.109C98.1529 151.987 98.1195 151.924 98.1245 151.921C98.1296 151.919 98.1725 151.977 98.2514 152.093C98.3385 152.224 98.4515 152.396 98.5948 152.612C98.747 152.847 98.9294 153.13 99.1434 153.461C99.3543 153.8 99.6049 154.186 99.9262 154.595C100.237 155.012 100.581 155.474 100.957 155.978C101.349 156.472 101.81 156.98 102.285 157.542C102.746 158.117 103.328 158.651 103.906 159.252C104.475 159.865 105.154 160.429 105.844 161.046C106.518 161.684 107.321 162.234 108.111 162.864C108.501 163.186 108.946 163.451 109.378 163.75C109.816 164.039 110.253 164.349 110.714 164.637C111.185 164.91 111.664 165.188 112.15 165.47C112.395 165.609 112.636 165.759 112.888 165.892C113.144 166.019 113.402 166.146 113.662 166.275C114.183 166.528 114.703 166.803 115.246 167.049C115.797 167.278 116.354 167.51 116.919 167.745C117.477 167.998 118.072 168.173 118.663 168.38C119.258 168.576 119.85 168.807 120.474 168.954C121.092 169.119 121.717 169.286 122.349 169.455C122.99 169.58 123.637 169.706 124.29 169.834C126.913 170.28 129.675 170.477 132.495 170.332C135.312 170.142 138.03 169.619 140.581 168.866C141.214 168.662 141.841 168.46 142.463 168.26C143.07 168.017 143.671 167.778 144.265 167.541C144.867 167.322 145.428 167.022 145.994 166.757C146.556 166.481 147.127 166.237 147.652 165.92C148.184 165.62 148.711 165.324 149.23 165.031C149.739 164.723 150.224 164.388 150.711 164.075C150.954 163.917 151.195 163.759 151.434 163.603C151.67 163.441 151.891 163.264 152.117 163.097C152.567 162.759 153.009 162.427 153.444 162.1C153.868 161.76 154.265 161.4 154.666 161.061C155.06 160.713 155.469 160.398 155.818 160.032C156.528 159.313 157.261 158.671 157.854 157.959C158.467 157.264 159.075 156.623 159.566 155.947C160.069 155.282 160.585 154.684 160.974 154.058C161.379 153.444 161.777 152.884 162.108 152.348C162.421 151.802 162.708 151.303 162.968 150.852C163.238 150.408 163.442 149.995 163.611 149.633C163.784 149.28 163.932 148.977 164.055 148.726C164.171 148.494 164.264 148.31 164.335 148.169C164.399 148.043 164.434 147.98 164.439 147.982Z" fill="#263238"/>
<path d="M151.628 170.778C151.64 170.798 151.384 170.973 150.91 171.274C150.44 171.58 149.732 171.982 148.839 172.439C147.053 173.356 144.464 174.414 141.473 175.116C138.479 175.81 135.689 176.006 133.682 175.973C132.678 175.958 131.867 175.91 131.309 175.844C130.751 175.783 130.444 175.739 130.446 175.716C130.448 175.693 130.759 175.695 131.317 175.715C131.875 175.743 132.684 175.755 133.682 175.74C135.675 175.714 138.433 175.483 141.398 174.796C144.361 174.101 146.937 173.088 148.736 172.23C149.637 171.803 150.357 171.434 150.845 171.163C151.338 170.897 151.616 170.759 151.628 170.778Z" fill="#263238"/>
<path d="M308.316 71.1944H161.586C154.731 71.1944 149.174 65.6369 149.174 58.7822C149.174 51.9269 154.731 46.3701 161.586 46.3701H308.316C315.172 46.3701 320.728 51.9276 320.728 58.7822C320.728 65.6369 315.171 71.1944 308.316 71.1944Z" fill="#FAFAFA"/>
<path d="M308.317 71.1951C308.317 71.1951 308.642 71.166 309.273 71.1274C309.904 71.0823 310.839 70.9368 312.023 70.5913C313.191 70.2057 314.602 69.564 316.013 68.44C317.43 67.3335 318.782 65.6725 319.707 63.5271C320.145 62.4431 320.451 61.2405 320.588 59.9521C320.703 58.6608 320.612 57.2901 320.289 55.9093C319.651 53.1556 317.898 50.3547 315.117 48.5294C313.737 47.6178 312.118 46.9579 310.376 46.6706C308.635 46.3839 306.782 46.5229 304.892 46.4916C301.107 46.496 297.106 46.5003 292.906 46.5047C259.292 46.5193 212.87 46.5389 161.596 46.56C158.431 46.5513 155.318 47.8273 153.087 50.0099C150.836 52.1735 149.492 55.208 149.388 58.2817C149.25 61.3562 150.325 64.4336 152.306 66.7274C154.267 69.0373 157.093 70.5614 160.055 70.9034C161.525 71.0685 163.047 70.9914 164.541 71.0103C166.039 71.011 167.53 71.011 169.013 71.0118C171.98 71.0125 174.919 71.0132 177.827 71.014C183.643 71.0161 189.336 71.0183 194.891 71.0205C217.11 71.0358 237.119 71.0496 253.925 71.0612C270.725 71.0867 284.32 71.1071 293.724 71.1216C298.417 71.1369 302.063 71.1493 304.544 71.1573C305.776 71.1653 306.717 71.1718 307.358 71.1762C307.992 71.182 308.317 71.1951 308.317 71.1951C308.317 71.1951 307.993 71.2082 307.359 71.2147C306.718 71.2191 305.777 71.2249 304.545 71.2337C302.064 71.2417 298.418 71.254 293.724 71.2693C284.32 71.2839 270.725 71.3042 253.926 71.3297C237.12 71.3413 217.111 71.3552 194.892 71.3704C189.337 71.3726 183.644 71.3748 177.828 71.377C174.92 71.3777 171.981 71.3784 169.014 71.3792C167.53 71.3799 166.039 71.3799 164.542 71.3799C163.044 71.361 161.544 71.4417 160.01 71.2722C156.958 70.9208 154.044 69.3509 152.023 66.9719C149.98 64.6089 148.87 61.4348 149.012 58.2672C149.118 55.0988 150.504 51.9683 152.824 49.7385C155.123 47.4883 158.334 46.1722 161.596 46.1817C212.87 46.2035 259.292 46.2232 292.906 46.237C297.106 46.2421 301.107 46.2464 304.892 46.2501C306.78 46.2865 308.628 46.1497 310.413 46.4465C312.187 46.7448 313.833 47.4214 315.234 48.3526C318.057 50.2179 319.827 53.0705 320.464 55.8671C320.788 57.269 320.873 58.6593 320.752 59.9666C320.608 61.2718 320.292 62.4889 319.844 63.5831C318.897 65.7504 317.521 67.42 316.084 68.5273C314.652 69.6528 313.225 70.2872 312.046 70.664C310.851 71.0001 309.91 71.1333 309.276 71.166C308.642 71.1915 308.317 71.1951 308.317 71.1951Z" fill="#263238"/>
<path d="M243.593 68.243H161.656C156.43 68.243 152.194 64.0066 152.194 58.7816C152.194 53.5559 156.431 49.3203 161.656 49.3203H243.593C248.818 49.3203 253.054 53.5566 253.054 58.7816C253.055 64.0066 248.818 68.243 243.593 68.243Z" fill="#76B8FF"/>
<g opacity="0.4">
<path d="M164.394 68.2427L176.152 49.3193H188.751L177.232 68.2427H164.394Z" fill="white"/>
</g>
<g opacity="0.4">
<path d="M189.654 68.2427L201.412 49.3193H214.011L202.493 68.2427H189.654Z" fill="white"/>
</g>
<g opacity="0.4">
<path d="M216.771 68.2427L228.529 49.3193H241.128L229.609 68.2427H216.771Z" fill="white"/>
</g>
<path d="M215.681 38.4496C215.681 39.8849 214.604 40.7776 212.883 40.7776H211.585V42.5535H210.095V36.1113H212.883C214.604 36.1121 215.681 37.0047 215.681 38.4496ZM214.171 38.4496C214.171 37.741 213.711 37.3263 212.8 37.3263H211.585V39.5627H212.8C213.711 39.5627 214.171 39.1487 214.171 38.4496Z" fill="#263238"/>
<path d="M220.842 42.5535L219.6 40.7587H219.526H218.229V42.5535H216.737V36.1113H219.526C221.246 36.1113 222.324 37.004 222.324 38.4488C222.324 39.415 221.836 40.1236 220.998 40.4822L222.443 42.5527H220.842V42.5535ZM219.443 37.3256H218.229V39.5714H219.443C220.355 39.5714 220.814 39.148 220.814 38.4488C220.814 37.7402 220.355 37.3256 219.443 37.3256Z" fill="#263238"/>
<path d="M223.096 39.3323C223.096 37.4182 224.587 36.001 226.621 36.001C228.645 36.001 230.145 37.4087 230.145 39.3323C230.145 41.2551 228.645 42.6636 226.621 42.6636C224.587 42.6636 223.096 41.2464 223.096 39.3323ZM228.636 39.3323C228.636 38.1079 227.771 37.2712 226.62 37.2712C225.47 37.2712 224.605 38.1086 224.605 39.3323C224.605 40.5559 225.47 41.3933 226.62 41.3933C227.771 41.394 228.636 40.5559 228.636 39.3323Z" fill="#263238"/>
<path d="M230.861 39.3323C230.861 37.3905 232.353 36.001 234.358 36.001C235.472 36.001 236.402 36.4062 237.01 37.1417L236.053 38.0249C235.62 37.528 235.077 37.2705 234.433 37.2705C233.227 37.2705 232.371 38.1166 232.371 39.3315C232.371 40.5458 233.227 41.3926 234.433 41.3926C235.077 41.3926 235.62 41.135 236.053 40.6287L237.01 41.5119C236.402 42.2569 235.473 42.6621 234.35 42.6621C232.352 42.6636 230.861 41.274 230.861 39.3323Z" fill="#263238"/>
<path d="M242.998 41.3567V42.5535H238.01V36.1113H242.878V37.3074H239.492V38.7064H242.482V39.866H239.492V41.3567H242.998Z" fill="#263238"/>
<path d="M243.678 41.9176L244.183 40.7951C244.726 41.1908 245.536 41.4666 246.309 41.4666C247.193 41.4666 247.552 41.1719 247.552 40.7761C247.552 39.5706 243.807 40.3986 243.807 38.0058C243.807 36.9109 244.69 36 246.522 36C247.331 36 248.16 36.1935 248.758 36.5704L248.297 37.7024C247.699 37.3619 247.082 37.1968 246.512 37.1968C245.629 37.1968 245.288 37.5278 245.288 37.933C245.288 39.1203 249.033 38.3011 249.033 40.6663C249.033 41.743 248.14 42.6633 246.3 42.6633C245.279 42.6633 244.248 42.3599 243.678 41.9176Z" fill="#263238"/>
<path d="M249.547 41.9176L250.053 40.7951C250.595 41.1908 251.405 41.4666 252.178 41.4666C253.062 41.4666 253.421 41.1719 253.421 40.7761C253.421 39.5706 249.676 40.3986 249.676 38.0058C249.676 36.9109 250.56 36 252.39 36C253.2 36 254.028 36.1935 254.626 36.5704L254.166 37.7024C253.568 37.3619 252.951 37.1968 252.381 37.1968C251.497 37.1968 251.156 37.5278 251.156 37.933C251.156 39.1203 254.901 38.3011 254.901 40.6663C254.901 41.743 254.009 42.6633 252.168 42.6633C251.148 42.6633 250.117 42.3599 249.547 41.9176Z" fill="#263238"/>
<path d="M368 280.674C368 285.285 286.733 289 186.509 289C86.2492 289 5 285.253 5 280.674C5 276.063 86.2492 272.349 186.509 272.349C286.733 272.349 368 276.095 368 280.674Z" fill="#2A5164"/>
<path d="M23.6726 262.96L29.3144 248.215L45.5205 256.026L38.3697 269.678C38.3697 269.678 32.157 271.246 29.2372 269.725C26.3166 268.204 23.6726 262.96 23.6726 262.96Z" fill="#FFCEB6"/>
<path d="M37.6724 271.062L38.3711 269.677C32.6221 269.041 27.734 266.781 23.6747 262.958L19.053 273.135L49.6241 287.207C50.7889 284.205 37.6724 271.062 37.6724 271.062Z" fill="#1C1A1A"/>
<path d="M19.0461 273.136L20.1748 270.65L49.1233 285.101C49.1233 285.101 50.212 286.32 49.6165 287.208L19.0461 273.136Z" fill="#263238"/>
<path d="M38.2398 271.138C38.1663 271.286 37.3884 271.01 36.4333 271.151C35.4743 271.268 34.7978 271.741 34.6878 271.618C34.5636 271.525 35.1969 270.736 36.3564 270.584C37.5153 270.422 38.3357 271.016 38.2398 271.138Z" fill="#263238"/>
<path d="M40.8385 273.938C40.8062 274.098 40.0429 274.054 39.2449 274.452C38.4355 274.827 37.9934 275.45 37.8479 275.376C37.6967 275.335 37.9958 274.413 38.9975 273.938C39.9937 273.452 40.9007 273.794 40.8385 273.938Z" fill="#263238"/>
<path d="M40.8895 278.612C40.739 278.582 40.8743 277.74 41.6345 277.099C42.3901 276.453 43.242 276.454 43.2483 276.608C43.2762 276.769 42.6207 277 42.0055 277.536C41.3768 278.056 41.0444 278.666 40.8895 278.612Z" fill="#263238"/>
<path d="M25.8317 269.994C25.6198 270.433 25.0915 270.618 24.6525 270.406C24.2128 270.194 24.0288 269.667 24.2401 269.227C24.452 268.787 24.9802 268.603 25.4192 268.815C25.8595 269.026 26.0436 269.554 25.8317 269.994Z" fill="#263238"/>
<path d="M94.2254 263.773L100.776 246.944L116.502 246.07L109.582 262.489C109.582 262.489 104.677 266.889 101.29 266.902C97.9038 266.914 94.2254 263.773 94.2254 263.773Z" fill="#FFCEB6"/>
<path d="M109.609 264.085L109.582 262.49C104.044 264.661 99.3701 264.896 93.8452 263.358C93.3407 264.391 93.1108 265.536 93.1771 266.683L93.6499 274.882L128.215 273.065C127.839 269.774 109.609 264.085 109.609 264.085Z" fill="#1C1A1A"/>
<path d="M93.6495 274.882L93.488 272.078L126.758 271.383C126.758 271.383 128.332 271.972 128.215 273.064L93.6495 274.882Z" fill="#263238"/>
<path d="M110.158 263.873C110.161 264.043 109.322 264.164 108.52 264.749C107.702 265.315 107.313 266.068 107.154 266.01C106.996 265.986 107.195 264.963 108.179 264.27C109.156 263.569 110.187 263.717 110.158 263.873Z" fill="#263238"/>
<path d="M113.865 265.182C113.912 265.344 113.196 265.669 112.66 266.413C112.102 267.141 111.998 267.921 111.83 267.922C111.673 267.957 111.504 266.975 112.188 266.063C112.863 265.145 113.853 265.022 113.865 265.182Z" fill="#263238"/>
<path d="M116.152 269.415C116.001 269.459 115.721 268.628 116.106 267.681C116.484 266.731 117.26 266.324 117.339 266.461C117.442 266.595 116.956 267.118 116.651 267.9C116.329 268.675 116.319 269.39 116.152 269.415Z" fill="#263238"/>
<path d="M98.3185 268.775C98.3359 269.277 97.9435 269.698 97.4423 269.715C96.941 269.733 96.5199 269.34 96.5025 268.839C96.4851 268.337 96.8775 267.917 97.3787 267.899C97.8806 267.881 98.301 268.274 98.3185 268.775Z" fill="#263238"/>
<path d="M169.074 41.1437C171.739 40.5047 173.925 38.1758 174.401 35.4695C174.454 35.1656 174.503 34.8292 174.738 34.6305C174.941 34.4601 175.224 34.4406 175.486 34.4116C176.927 34.2539 178.333 33.5483 179.2 32.3816C180.066 31.2149 180.328 29.5788 179.724 28.2601C181.959 28.3635 183.865 26.0629 183.709 23.8228C183.554 21.5834 181.696 19.6962 179.54 19.0969C180.679 18.3387 180.989 16.7025 180.529 15.4153C180.068 14.1275 179 13.1511 177.852 12.4142C176.308 11.4233 174.222 10.7959 172.688 11.8134C173.024 10.7353 172.272 9.60571 171.364 8.94117C168.931 7.15864 165.125 7.67211 163.234 10.0373C162.632 9.05078 161.859 8.10665 160.796 7.659C159.733 7.21135 158.332 7.40584 157.667 8.35441C157.608 7.21429 156.621 6.34829 155.611 5.82368C154.883 5.44509 154.065 5.16376 153.25 5.26857C152.434 5.37338 151.637 5.95064 151.486 6.7613C150.328 5.67436 148.33 5.65796 147.149 6.7255C145.967 7.79305 145.775 9.78931 146.732 11.0574C145.353 11.225 144.089 12.1508 143.508 13.4167C142.927 14.6826 143.05 16.2462 143.821 17.401C143.163 17.1932 142.491 17.9235 142.541 18.6151C142.591 19.3068 143.133 19.8662 143.728 20.2174C142.574 22.3132 141.419 24.4091 140.265 26.5049C139.52 27.8571 138.764 29.2387 138.476 30.7558C138.187 32.2722 138.44 33.9748 139.502 35.0877" fill="#263238"/>
<path d="M172.367 35.0633C174.893 29.8451 172.327 21.7588 167.03 19.4659L149.078 13.4055L147.602 16.147L128.368 51.4208L141.589 68.411L149.822 56.7331C149.822 56.7331 156.832 59.2849 162.894 51.6344C165.909 47.829 169.562 40.8608 172.367 35.0633Z" fill="#FFCEB6"/>
<path d="M167.295 39.8145C166.995 40.3945 166.258 40.6195 165.649 40.3172C165.041 40.0154 164.791 39.3018 165.092 38.7211C165.393 38.141 166.129 37.9154 166.737 38.2172C167.346 38.5195 167.596 39.2345 167.295 39.8145Z" fill="#263238"/>
<path d="M168.88 37.7933C168.668 37.8584 168.196 36.7956 167.041 36.1467C165.896 35.482 164.714 35.6001 164.669 35.3873C164.642 35.2901 164.921 35.1129 165.442 35.0517C165.956 34.9883 166.722 35.0771 167.439 35.4859C168.155 35.8961 168.609 36.5035 168.804 36.9716C169.004 37.4454 168.981 37.7676 168.88 37.7933Z" fill="#263238"/>
<path d="M156.563 34.5538C156.262 35.1338 155.525 35.3581 154.916 35.0564C154.309 34.7546 154.058 34.0411 154.359 33.4603C154.66 32.8803 155.397 32.6547 156.005 32.9564C156.613 33.2588 156.863 33.9738 156.563 34.5538Z" fill="#263238"/>
<path d="M157.312 31.8721C157.1 31.9372 156.626 30.8738 155.473 30.2255C154.328 29.5609 153.145 29.6782 153.1 29.4655C153.075 29.3681 153.351 29.1905 153.873 29.1299C154.388 29.0664 155.153 29.1546 155.87 29.5641C156.587 29.9743 157.041 30.5817 157.236 31.0504C157.435 31.5243 157.412 31.8465 157.312 31.8721Z" fill="#263238"/>
<path d="M156.751 42.5619C156.783 42.4933 157.57 42.774 158.817 43.281C159.129 43.4173 159.44 43.5153 159.604 43.3416C159.794 43.1667 159.85 42.7785 159.902 42.353C160.028 41.4798 160.162 40.5652 160.301 39.6064C160.9 35.7133 161.513 32.5789 161.668 32.6046C161.825 32.6297 161.465 35.8055 160.866 39.6986C160.71 40.6545 160.564 41.5666 160.422 42.4382C160.344 42.8375 160.321 43.3273 159.92 43.6861C159.716 43.8628 159.409 43.9011 159.191 43.8456C158.969 43.7965 158.802 43.7066 158.651 43.6326C157.448 43.0351 156.719 42.6305 156.751 42.5619Z" fill="#263238"/>
<path d="M149.824 56.7403C149.824 56.7403 143.995 53.9263 140.321 47.4123C140.321 47.4123 139.584 54.8283 148.393 58.7698L149.824 56.7403Z" fill="#EB996E"/>
<path d="M154.701 45.0884C154.597 44.3028 154.041 43.5892 153.275 43.2591C152.744 43.0305 152.102 42.9869 151.566 43.2248C151.031 43.4627 150.639 44.0082 150.696 44.5551C150.759 45.1707 151.353 45.6403 151.992 45.7942C152.631 45.9481 153.31 45.8517 153.965 45.7433C154.146 45.7133 154.332 45.6801 154.487 45.5863C154.643 45.4925 154.76 45.3221 154.729 45.1541" fill="#EB996E"/>
<path d="M152.915 41.4552C153.109 41.55 152.402 42.8099 152.97 44.3088C153.534 45.8093 154.949 46.4226 154.859 46.604C154.833 46.6927 154.424 46.6802 153.852 46.3772C153.289 46.084 152.583 45.4494 152.235 44.5323C151.89 43.6149 152.021 42.725 152.269 42.185C152.518 41.6326 152.833 41.3995 152.915 41.4552Z" fill="#263238"/>
<path d="M159.992 27.9199C159.7 28.1705 158.632 27.3704 157.187 26.7696C155.753 26.1393 154.438 25.921 154.418 25.5368C154.414 25.356 154.771 25.1677 155.385 25.1115C155.994 25.0536 156.855 25.1588 157.719 25.5271C158.582 25.8968 159.253 26.4469 159.632 26.927C160.014 27.409 160.125 27.7977 159.992 27.9199Z" fill="#263238"/>
<path d="M170.354 34.2066C170.002 34.3548 169.362 33.6329 168.413 33.08C167.484 32.4935 166.549 32.2596 166.517 31.8784C166.511 31.699 166.787 31.507 167.282 31.4573C167.77 31.4053 168.468 31.5318 169.113 31.9232C169.758 32.3153 170.192 32.8755 170.372 33.333C170.557 33.7949 170.515 34.1287 170.354 34.2066Z" fill="#263238"/>
<path d="M174.378 23.4399C174.056 25.2738 172.542 26.8409 170.726 27.2224C168.909 27.6032 166.903 26.7738 165.886 25.2209C166.14 26.0675 165.494 26.9977 164.66 27.289C163.826 27.5811 162.894 27.3654 162.1 26.9799C160.433 26.1693 159.156 24.5947 158.704 22.7915C157.815 23.9858 156.338 24.7182 154.855 24.702C153.371 24.6857 151.916 23.9209 151.06 22.7064C151.582 24.4205 150.909 26.4355 149.461 27.4933C148.014 28.5512 145.898 28.5753 144.434 27.55C142.97 26.5246 142.265 24.5255 142.758 22.7996C141.855 21.6221 141.538 20.0129 141.927 18.5755C142.315 17.1381 143.401 15.9065 144.775 15.342C144.078 14.6064 143.954 13.4517 144.264 12.4827C144.575 11.5137 145.256 10.7054 146.006 10.0195C147.842 8.33977 150.292 7.21912 152.766 7.40043C155.24 7.58173 157.652 9.24957 158.305 11.6482C158.379 11.9191 158.444 12.2179 158.662 12.3938C158.96 12.6336 159.397 12.5347 159.763 12.421C161.387 11.9173 163.102 11.3557 164.749 11.7664C166.738 12.262 168.219 14.3 168.084 16.3523C170.048 15.1919 172.8 15.3055 174.398 16.9276C175.996 18.549 175.908 21.6446 174.012 22.9137" fill="#263238"/>
<path d="M145.988 26.7634C144.942 28.4207 143.659 29.9276 142.19 31.2228C141.567 31.7726 140.763 32.3168 139.97 32.0795C139.248 31.8632 138.846 31.0381 138.877 30.2819C138.907 29.5256 139.274 28.8268 139.655 28.1719C141.011 25.8477 142.668 23.7159 144.319 21.5921" fill="#263238"/>
<path d="M143.411 27.0631C143.336 26.953 140.026 23.1993 137.54 27.4467C135.055 31.6941 139.81 33.3079 139.889 33.1908C139.967 33.0731 143.411 27.0631 143.411 27.0631Z" fill="#FFCEB6"/>
<path d="M139.531 30.8245C139.52 30.8 139.427 30.8333 139.268 30.8173C139.115 30.8016 138.883 30.7177 138.711 30.5058C138.361 30.0789 138.402 29.1463 138.829 28.3685C139.045 27.9758 139.341 27.6545 139.656 27.4303C139.966 27.1955 140.293 27.0955 140.542 27.1871C140.796 27.266 140.876 27.4948 140.858 27.6451C140.845 27.7971 140.768 27.8662 140.787 27.8867C140.792 27.9041 140.92 27.869 140.988 27.6734C141.019 27.5789 141.028 27.4497 140.977 27.3098C140.923 27.1673 140.799 27.0374 140.633 26.9625C140.294 26.794 139.824 26.9233 139.478 27.1702C139.114 27.4082 138.772 27.7628 138.53 28.2039C138.057 29.0759 138.024 30.1325 138.531 30.6684C138.783 30.9211 139.083 30.9762 139.27 30.9512C139.463 30.9223 139.541 30.8409 139.531 30.8245Z" fill="#EB996E"/>
<path d="M158.977 21.8262C158.974 21.8305 159.012 21.8675 159.09 21.935C159.168 22.0032 159.289 22.0985 159.45 22.2176C159.773 22.4515 160.264 22.7876 160.965 23.067C161.315 23.2047 161.719 23.3268 162.174 23.3791C162.625 23.435 163.134 23.424 163.647 23.2683C164.157 23.1149 164.669 22.8343 165.1 22.4097C165.521 21.9844 165.858 21.3888 165.89 20.7097L165.686 20.751C166.222 21.9152 167.195 23.0132 168.508 23.7103C169.16 24.0629 169.895 24.305 170.669 24.4082C171.056 24.4564 171.46 24.4686 171.862 24.394C172.263 24.323 172.663 24.144 172.975 23.8612C173.348 23.533 173.597 23.1044 173.78 22.675C173.964 22.2427 174.089 21.8011 174.202 21.3664C174.313 20.9285 174.393 20.4811 174.371 20.0294C174.355 19.5849 174.184 19.1056 173.812 18.8293L173.653 19.0034C174.27 19.6566 175.091 20.0375 175.898 20.1554C176.708 20.2814 177.509 20.1661 178.188 19.8741C178.864 19.5763 179.418 19.0991 179.758 18.5504C180.109 18.0058 180.293 17.4259 180.366 16.8943C180.509 15.819 180.221 14.9673 179.951 14.4636C179.67 13.9532 179.424 13.7493 179.424 13.7493C179.404 13.7651 179.629 13.9897 179.881 14.5C180.124 15.0043 180.379 15.8378 180.221 16.8746C180.141 17.3869 179.953 17.9404 179.612 18.4542C179.28 18.9729 178.752 19.4133 178.11 19.6903C177.464 19.9601 176.7 20.0632 175.934 19.9382C175.168 19.8214 174.399 19.4546 173.828 18.8446L173.669 19.0194C173.97 19.2467 174.116 19.6369 174.131 20.0453C174.151 20.4561 174.074 20.884 173.966 21.3081C173.737 22.1496 173.48 23.0738 172.812 23.6766C172.248 24.1955 171.431 24.2601 170.701 24.1653C169.958 24.0674 169.25 23.837 168.621 23.4999C167.353 22.8331 166.406 21.7789 165.881 20.6612L165.694 20.2643L165.677 20.7024C165.653 21.3181 165.352 21.8687 164.961 22.2727C164.562 22.6745 164.079 22.9489 163.596 23.101C163.112 23.2553 162.63 23.2747 162.19 23.2289C161.75 23.1865 161.355 23.0767 161.009 22.9504C160.316 22.6944 159.819 22.3785 159.486 22.1637C159.155 21.944 158.985 21.8154 158.977 21.8262Z" fill="white"/>
<path d="M173.217 27.3946C173.205 27.4037 173.267 27.5182 173.426 27.6914C173.583 27.8641 173.848 28.0898 174.234 28.2701C174.617 28.443 175.128 28.5883 175.707 28.484C175.99 28.4262 176.301 28.2843 176.495 27.9983C176.681 27.7287 176.765 27.3227 176.554 26.9906L176.358 27.1433C176.378 27.1631 176.4 27.1841 176.421 27.2058C177.365 28.1747 178.656 28.4167 179.496 28.3252C179.924 28.2843 180.261 28.1836 180.48 28.0887C180.699 27.993 180.81 27.9195 180.803 27.9063C180.786 27.859 180.312 28.115 179.485 28.1489C178.679 28.1922 177.475 27.9323 176.599 27.0318C176.579 27.012 176.559 26.9922 176.541 26.9737L175.682 26.1197L176.346 27.1271C176.487 27.3413 176.439 27.6489 176.294 27.8623C176.152 28.0796 175.904 28.2053 175.66 28.2611C175.158 28.3654 174.668 28.2534 174.302 28.11C173.557 27.8024 173.248 27.3589 173.217 27.3946Z" fill="white"/>
<path d="M164.266 34.9769C164.276 35.0165 164.628 34.9278 165.201 34.9203C165.77 34.9097 166.571 35.0117 167.349 35.3949C168.127 35.7789 168.696 36.3528 169.034 36.8106C169.377 37.2701 169.521 37.6036 169.559 37.5872C169.585 37.5785 169.497 37.215 169.179 36.71C168.866 36.208 168.285 35.5789 167.459 35.1717C166.635 34.7651 165.782 34.6873 165.193 34.7445C164.598 34.7986 164.257 34.9509 164.266 34.9769Z" fill="#EB996E"/>
<path d="M152.969 28.559C152.978 28.5973 153.265 28.5323 153.726 28.5315C154.185 28.5281 154.828 28.6127 155.454 28.92C156.079 29.2273 156.541 29.6838 156.818 30.0495C157.1 30.4156 157.224 30.6816 157.26 30.666C157.287 30.6566 157.22 30.3599 156.962 29.9483C156.709 29.5398 156.236 29.0268 155.563 28.6968C154.891 28.3668 154.196 28.3058 153.719 28.3563C153.236 28.4032 152.96 28.5316 152.969 28.559Z" fill="#EB996E"/>
<path d="M151.645 41.3117C151.67 41.3386 151.766 41.2791 151.927 41.2348C152.086 41.1886 152.318 41.1672 152.567 41.2136C153.068 41.3228 153.479 41.5477 153.514 41.4727C153.54 41.4284 153.202 41.1033 152.613 40.969C152.316 40.9123 152.031 40.971 151.859 41.0729C151.682 41.1737 151.623 41.2908 151.645 41.3117Z" fill="#EB996E"/>
<path d="M150.485 41.4806C150.542 41.5238 150.812 41.2515 151.184 40.9774C151.554 40.6994 151.892 40.5194 151.867 40.4521C151.847 40.3892 151.44 40.4751 151.036 40.7774C150.632 41.0777 150.431 41.4435 150.485 41.4806Z" fill="#EB996E"/>
<path d="M136.111 30.5121C136.109 30.4877 135.756 30.4657 135.144 30.6203C134.541 30.7755 133.646 31.1149 132.821 31.9266C132 32.7182 131.347 34.0925 131.519 35.6402C131.649 37.1842 132.826 38.7687 134.546 39.3197C135.402 39.6051 136.33 39.5634 137.121 39.2915C137.919 39.0259 138.603 38.5675 139.144 38.0298C140.235 36.9482 140.693 35.5052 140.551 34.3538C140.425 33.1931 139.868 32.3811 139.425 31.9398C138.972 31.4888 138.631 31.3642 138.623 31.3839C138.596 31.4207 138.897 31.6008 139.284 32.0681C139.665 32.5256 140.134 33.3151 140.207 34.3832C140.293 35.4353 139.844 36.7321 138.829 37.7078C137.846 38.6695 136.23 39.3723 134.698 38.8536C133.168 38.3587 132.108 36.9674 131.969 35.5876C131.792 34.194 132.341 32.9317 133.071 32.1678C133.806 31.3838 134.633 31.0081 135.2 30.8036C135.774 30.5978 136.117 30.5541 136.111 30.5121Z" fill="#455A64"/>
<path d="M70.6376 117.42C58.9627 127.899 58.171 143.261 57.9505 152.051C57.73 160.841 53.4683 196.243 53.4683 196.243C53.4683 196.243 40.911 219.19 36.5063 228.845C32.1017 238.501 23.366 258.64 23.366 258.64L41.0425 267.893C41.0425 267.893 68.4959 224.322 73.2619 215.773C78.0287 207.224 100.403 136.501 100.403 136.501L70.6376 117.42Z" fill="#DDDAC0"/>
<path d="M112.498 137.173C113.463 138.744 139.872 192.531 139.685 198.112C139.498 203.692 115.577 262.562 115.577 262.562L94.2517 255.277L112.156 206.527L112.275 199.994L89.767 163.881L94.2003 135.727L112.498 137.173Z" fill="#DDDAC0"/>
<path d="M98.2732 145.501C98.3658 145.533 96.4211 151.273 93.9299 158.318C91.4383 165.366 89.3441 171.051 89.2515 171.018C89.1589 170.985 91.1037 165.247 93.5954 158.199C96.0866 151.154 98.1814 145.468 98.2732 145.501Z" fill="#D77846"/>
<path d="M120.164 201.351C120.202 201.427 118.44 201.983 116.249 201.607C114.054 201.251 112.568 200.153 112.63 200.093C112.682 199.993 114.196 200.918 116.307 201.257C118.414 201.622 120.147 201.239 120.164 201.351Z" fill="#D77846"/>
<path d="M119.664 206.861C119.632 206.963 118.098 206.519 116.155 206.316C114.213 206.101 112.62 206.209 112.611 206.103C112.596 206.015 114.206 205.744 116.193 205.962C118.181 206.171 119.697 206.778 119.664 206.861Z" fill="#D77846"/>
<path d="M76.843 127.41C76.8587 127.429 76.7241 127.565 76.4658 127.794C76.2103 128.027 75.8175 128.336 75.314 128.695C74.3091 129.413 72.8199 130.279 71.0517 130.952C69.281 131.621 67.5921 131.96 66.364 132.09C65.7494 132.156 65.2504 132.185 64.9048 132.18C64.5595 132.179 64.3686 132.167 64.3682 132.142C64.3654 132.085 65.1247 132.034 66.3305 131.841C67.5357 131.649 69.1853 131.277 70.926 130.619C72.6643 129.957 74.1455 129.141 75.1746 128.485C76.2045 127.831 76.8063 127.365 76.843 127.41Z" fill="#D77846"/>
<path d="M145.467 65.7474L165.25 87.8365L204.355 100.681L200.892 109.076L151.139 95.969L132.906 64.5059L145.467 65.7474Z" fill="#FF7A63"/>
<path d="M126.853 53.165C126.018 52.4385 125.895 51.188 126.572 50.3125L128.85 47.3665C129.15 46.9014 129.763 46.7591 130.234 47.0509C133.859 49.2985 147.622 58.2748 147.797 61.1164C147.995 64.3344 142.691 67.9643 142.691 67.9643L126.853 53.165Z" fill="#FF7A63"/>
<path d="M119.454 71.0826C119.454 71.0826 146.107 102.863 152.706 106.282C159.305 109.702 199.418 112.313 199.418 112.313L200.119 100.453L160.93 90.9088C160.93 90.9088 133.3 55.8566 132.585 54.8434C131.87 53.8301 126.654 50.2032 121.26 51.2855C115.867 52.3678 113.724 61.1525 115.903 65.2714C116.733 66.8391 119.454 71.0826 119.454 71.0826Z" fill="#FF7A63"/>
<path d="M126.853 50.9292C126.853 50.9292 119.657 48.4236 113.407 55.1523C110.06 58.7558 80.5399 107.07 78.448 110.32L69.4893 117.503C86.2912 130.893 99.3761 142.159 116.495 145.174L123.22 116.138L148.381 89.7176L126.853 50.9292Z" fill="#FF7A63"/>
<path d="M116.585 67.8137C116.595 67.8062 116.686 67.909 116.851 68.1098C117.037 68.344 117.27 68.6384 117.557 69C118.16 69.7807 119.05 70.8963 120.167 72.2603C122.394 74.9927 125.597 78.6638 129.285 82.5797C132.978 86.4947 136.419 89.9463 138.904 92.4505C140.119 93.6796 141.113 94.6873 141.84 95.4235C142.16 95.7561 142.42 96.0281 142.628 96.2436C142.805 96.434 142.893 96.5377 142.885 96.5465C142.876 96.5553 142.771 96.4685 142.577 96.2944C142.358 96.0913 142.082 95.8355 141.743 95.522C140.996 94.8057 139.975 93.8253 138.728 92.6292C136.197 90.1701 132.725 86.7438 129.027 82.8231C125.333 78.9014 122.153 75.1952 119.971 72.4171C118.878 71.0302 118.017 69.8894 117.448 69.0824C117.182 68.7042 116.966 68.3963 116.794 68.1515C116.647 67.9371 116.575 67.8206 116.585 67.8137Z" fill="#263238"/>
<path d="M200.118 100.454C200.117 100.459 200.051 100.447 199.922 100.419C199.779 100.385 199.591 100.341 199.353 100.285C198.835 100.157 198.099 99.9749 197.155 99.7409C195.223 99.2487 192.441 98.5392 188.959 97.652C181.958 95.8392 172.148 93.2996 160.835 90.3712L160.78 90.3567L160.744 90.3115C158.001 86.8249 155.06 83.0866 152.026 79.2298C147.367 73.2927 142.928 67.6373 138.889 62.4913C136.874 59.9173 134.958 57.4708 133.165 55.1811C132.706 54.6144 132.303 54.0225 131.813 53.5448C131.575 53.2945 131.297 53.0936 131.023 52.8944C130.746 52.7003 130.493 52.4729 130.204 52.3111C129.06 51.6224 127.82 51.2538 126.613 51.0837C124.179 50.8776 121.942 51.5674 120.348 52.672C118.729 53.7653 117.707 55.1626 117.102 56.3892C116.873 57.0339 116.59 57.5853 116.518 58.1141C116.401 58.6304 116.294 59.0673 116.296 59.4322C116.25 60.0446 116.228 60.3416 116.213 60.5381C116.19 60.5384 116.198 60.1571 116.225 59.4264C116.211 59.0576 116.307 58.6152 116.414 58.09C116.478 57.553 116.752 56.9905 116.976 56.3312C117.57 55.0767 118.595 53.6396 120.236 52.5077C121.852 51.3661 124.133 50.6375 126.639 50.8344C127.88 50.9999 129.162 51.3731 130.345 52.0767C130.644 52.2427 130.906 52.4741 131.192 52.6731C131.476 52.8778 131.762 53.0835 132.012 53.3426C132.531 53.8455 132.939 54.4405 133.397 55.0005C135.198 57.2842 137.123 59.7238 139.147 62.2903C143.193 67.4311 147.639 73.0798 152.306 79.0108C155.336 82.8706 158.274 86.6112 161.013 90.1001L160.922 90.0403C172.223 93.0181 182.021 95.5996 189.014 97.4423C192.485 98.3713 195.259 99.1129 197.185 99.6287C198.123 99.8864 198.853 100.087 199.368 100.229C199.603 100.297 199.789 100.35 199.93 100.391C200.056 100.427 200.119 100.449 200.118 100.454Z" fill="#263238"/>
<path d="M134.729 90.0205C134.748 90.0356 134.634 90.2085 134.41 90.5075C134.189 90.8098 133.841 91.225 133.387 91.7168C132.483 92.7023 131.106 93.9595 129.399 95.0913C127.688 96.2193 125.992 96.9928 124.731 97.4384C124.1 97.6626 123.582 97.82 123.218 97.9048C122.854 97.9937 122.651 98.0308 122.645 98.0073C122.628 97.9511 123.416 97.7068 124.641 97.2042C125.866 96.703 127.518 95.9061 129.203 94.7949C130.885 93.68 132.266 92.4731 133.207 91.5417C134.15 90.6122 134.683 89.9835 134.729 90.0205Z" fill="#263238"/>
<path d="M120.549 111.403C120.553 111.427 120.136 111.512 119.379 111.646C118.623 111.786 117.518 111.939 116.15 112.081C113.413 112.367 109.595 112.511 105.404 112.153C101.211 111.787 97.4744 110.99 94.8275 110.237C93.5033 109.863 92.4419 109.523 91.7207 109.256C90.9971 108.994 90.6018 108.838 90.6097 108.815C90.6176 108.792 91.0289 108.903 91.7632 109.124C92.4959 109.351 93.5648 109.653 94.8922 109.995C97.5447 110.682 101.266 111.435 105.434 111.799C109.6 112.155 113.395 112.052 116.126 111.83C117.493 111.722 118.597 111.607 119.358 111.509C120.121 111.417 120.545 111.378 120.549 111.403Z" fill="#263238"/>
<path d="M121.187 107.218C121.199 107.258 120.5 107.532 119.323 107.823C118.148 108.115 116.487 108.393 114.635 108.453C112.782 108.51 111.106 108.336 109.915 108.119C108.722 107.903 108.007 107.673 108.017 107.633C108.03 107.578 108.762 107.721 109.953 107.871C111.142 108.023 112.796 108.154 114.624 108.099C116.45 108.039 118.093 107.804 119.27 107.578C120.448 107.353 121.17 107.164 121.187 107.218Z" fill="#263238"/>
<g opacity="0.2">
<path d="M121.256 73.7998L133.45 91.4739C133.45 91.4739 127.65 96.2734 125.147 97.1401C125.147 97.1401 130.637 95.1841 134.917 92.661L140.839 94.8457L121.256 73.7998Z" fill="black"/>
</g>
<g opacity="0.2">
<path d="M117.356 111.754C113.894 113.954 109.404 115.053 105.092 114.756C100.78 114.46 96.6911 112.77 93.9238 110.141C93.9238 110.141 102.974 111.918 106.41 112.055C109.847 112.193 117.356 111.754 117.356 111.754Z" fill="black"/>
</g>
<path d="M81.505 118.481C81.5394 118.589 79.8317 118.952 78.1834 120.233C77.0336 121.094 76.2847 122.112 75.9207 122.615L75.7784 122.527C75.9621 122.285 76.0737 122.164 76.0995 122.18C76.1252 122.196 76.0617 122.348 75.9195 122.616L75.7771 122.528C76.0489 121.96 76.7691 120.847 77.9676 119.949C79.6953 118.612 81.5124 118.394 81.505 118.481Z" fill="#263238"/>
<path d="M90.9879 125.119C91.0669 125.162 90.3022 126.591 88.945 128.041C87.5944 129.498 86.2226 130.361 86.1741 130.285C86.1113 130.2 87.3637 129.226 88.685 127.799C90.015 126.38 90.8984 125.062 90.9879 125.119Z" fill="#263238"/>
<path d="M101.023 132.411C101.106 132.444 100.48 134.006 99.2331 135.645C97.9945 137.291 96.6631 138.318 96.6081 138.247C96.5368 138.168 97.7382 137.043 98.9498 135.43C100.172 133.827 100.927 132.364 101.023 132.411Z" fill="#263238"/>
<path d="M111.259 135.676C111.346 135.673 111.333 137.348 110.617 139.256C109.915 141.171 108.833 142.449 108.768 142.389C108.678 142.328 109.603 140.992 110.284 139.133C110.98 137.281 111.151 135.664 111.259 135.676Z" fill="#263238"/>
<path d="M129.292 51.6692C129.251 51.653 129.303 51.3792 129.497 50.973C129.69 50.5702 130.058 50.0387 130.614 49.6181C131.17 49.1983 131.752 48.9673 132.171 48.8307C132.594 48.6979 132.866 48.6586 132.881 48.7027C132.928 48.8189 131.868 49.1443 130.829 49.9001C129.798 50.6787 129.4 51.7257 129.292 51.6692Z" fill="#263238"/>
<path d="M134.381 55.9977C134.294 55.9724 134.671 54.8606 135.678 53.8691C136.679 52.8685 137.793 52.501 137.817 52.5874C137.863 52.684 136.871 53.1739 135.928 54.1212C134.975 55.0555 134.476 56.0442 134.381 55.9977Z" fill="#263238"/>
<path d="M143.868 57.2977C143.951 57.3266 143.373 58.8166 142.09 60.2797C140.816 61.7517 139.42 62.5289 139.38 62.4505C139.318 62.3612 140.588 61.4747 141.821 60.0466C143.067 58.6279 143.771 57.2485 143.868 57.2977Z" fill="#263238"/>
<path d="M199.634 101.007L204.591 93.0762L208.597 91.8942L217.261 89.4767C217.261 89.4767 218.328 90.0136 217.197 91.6408L216.529 92.2711L219.932 91.9375C219.932 91.9375 220.246 93.5352 218.555 94.5688L212.934 96.6422L210.816 97.4465C210.816 97.4465 215.366 97.4356 216.902 96.7583C218.438 96.0811 219.844 96.0503 219.844 96.0503C219.844 96.0503 220.862 96.9469 219.779 98.287C218.695 99.6271 215.283 100.249 214.481 100.514C213.679 100.78 210.783 101.056 210.783 101.056C210.783 101.056 211.99 101.741 213.944 101.582C215.898 101.422 217.923 101.337 217.923 101.337C217.923 101.337 218.157 103.195 216.988 103.644C215.82 104.092 210.54 104.37 210.54 104.37L209.142 105.268C209.142 105.268 205.548 109.639 204.228 110.323C202.908 111.006 199.418 112.312 199.418 112.312L199.634 101.007Z" fill="#FFCEB6"/>
<path d="M216.991 92.3449C217.011 92.3845 216.535 92.6763 215.713 93.044C214.893 93.4123 213.719 93.8388 212.379 94.1493C211.037 94.4578 209.794 94.5891 208.896 94.6185C207.997 94.6479 207.442 94.5946 207.442 94.5502C207.439 94.439 209.657 94.4232 212.299 93.8029C214.943 93.2023 216.945 92.2436 216.991 92.3449Z" fill="#EB996E"/>
<path d="M255.296 242.541C255.296 242.541 240.785 225.84 235.309 209.139C229.834 192.437 232.435 194.354 232.435 194.354C232.435 194.354 239.827 210.578 245.44 218.414C251.052 226.25 261.046 237.75 261.046 237.75L255.296 242.541Z" fill="#9FC67E"/>
<path d="M258.188 196.956C257.72 196.14 256.474 196.564 256.614 197.494C257.499 203.36 259.412 217.127 259.337 226.056C259.239 237.656 259.34 242.139 259.34 242.139H265.379C265.379 242.139 264.308 218.161 262.942 210.85C261.986 205.724 259.955 200.033 258.188 196.956Z" fill="#9FC67E"/>
<path d="M261.481 240.189C261.481 240.189 265.283 232.196 266.452 222.156C266.949 217.886 266.062 212.116 264.742 204.416C264.103 200.687 263.958 197.849 263.978 195.881C263.994 194.393 265.957 193.908 266.684 195.205C267.413 196.506 269.523 200.949 270.058 203.735C271.52 211.338 273.177 215.139 271.91 222.352C270.643 229.565 265.964 240.677 265.964 240.677L261.481 240.189Z" fill="#9FC67E"/>
<path d="M266.922 240.676C266.922 240.676 282.854 206.438 283.958 201.357C285.063 196.278 288.817 184.573 289.258 185.235C289.7 185.898 290.363 192.081 287.492 199.149C284.62 206.216 272.362 241.719 272.362 241.719H266.922" fill="#9FC67E"/>
<path d="M259.736 239.145C259.729 239.155 259.575 239.048 259.29 238.838C259.007 238.624 258.578 238.323 258.055 237.896C256.995 237.063 255.507 235.795 253.774 234.116C250.296 230.776 245.968 225.627 242.215 219.28C238.455 212.936 235.926 206.731 234.325 202.189C233.524 199.915 232.939 198.053 232.56 196.76C232.365 196.115 232.231 195.609 232.137 195.267C232.045 194.924 232.002 194.743 232.014 194.739C232.024 194.736 232.09 194.911 232.202 195.247C232.322 195.613 232.484 196.104 232.686 196.721C233.103 198.001 233.722 199.848 234.551 202.107C236.206 206.62 238.762 212.788 242.507 219.106C246.244 225.426 250.52 230.572 253.942 233.944C255.648 235.639 257.107 236.93 258.139 237.793C258.647 238.234 259.063 238.552 259.332 238.784C259.604 239.012 259.744 239.136 259.736 239.145Z" fill="#263238"/>
<path d="M261.48 222.719C261.456 222.721 261.407 222.363 261.336 221.715C261.261 221.006 261.162 220.083 261.042 218.97C260.79 216.654 260.397 213.459 259.834 209.951C259.268 206.441 258.64 203.284 258.154 201.005C257.918 199.912 257.722 199.004 257.572 198.307C257.435 197.669 257.371 197.314 257.393 197.308C257.416 197.302 257.524 197.647 257.701 198.275C257.879 198.903 258.115 199.817 258.388 200.952C258.935 203.22 259.602 206.378 260.169 209.897C260.733 213.414 261.09 216.621 261.281 218.947C261.377 220.111 261.44 221.053 261.467 221.705C261.498 222.357 261.503 222.718 261.48 222.719Z" fill="#263238"/>
<path d="M265.212 194.937C265.223 194.933 265.288 195.083 265.4 195.372C265.521 195.694 265.68 196.116 265.877 196.643C266.088 197.195 266.33 197.876 266.561 198.682C266.799 199.486 267.106 200.392 267.336 201.423C267.462 201.938 267.594 202.475 267.731 203.033C267.864 203.594 267.959 204.187 268.081 204.796C268.342 206.012 268.502 207.33 268.696 208.713C269.007 211.489 269.177 214.563 269.076 217.787C268.947 221.012 268.557 224.066 268.047 226.813C267.755 228.179 267.5 229.482 267.154 230.676C266.988 231.275 266.852 231.859 266.678 232.409C266.501 232.956 266.332 233.483 266.169 233.987C265.865 234.999 265.494 235.88 265.2 236.666C264.913 237.454 264.622 238.115 264.373 238.65C264.137 239.162 263.949 239.572 263.805 239.884C263.672 240.165 263.597 240.31 263.586 240.304C263.575 240.3 263.63 240.145 263.742 239.856C263.871 239.537 264.04 239.119 264.25 238.598C264.481 238.056 264.752 237.389 265.022 236.598C265.299 235.809 265.652 234.925 265.94 233.912C266.095 233.409 266.257 232.883 266.426 232.335C266.592 231.786 266.722 231.203 266.881 230.605C267.214 229.414 267.457 228.115 267.739 226.754C268.229 224.018 268.607 220.981 268.736 217.775C268.836 214.569 268.677 211.513 268.384 208.75C268.2 207.372 268.051 206.06 267.804 204.847C267.689 204.24 267.601 203.648 267.474 203.089C267.345 202.531 267.221 201.994 267.102 201.481C266.887 200.451 266.598 199.543 266.379 198.737C266.167 197.927 265.943 197.243 265.752 196.686C265.579 196.151 265.441 195.722 265.335 195.396C265.244 195.099 265.201 194.941 265.212 194.937Z" fill="#263238"/>
<path d="M289.076 185.925C289.081 185.926 289.077 185.978 289.064 186.078C289.045 186.198 289.021 186.345 288.993 186.523C288.923 186.912 288.835 187.49 288.678 188.227C288.371 189.7 287.858 191.82 287.061 194.391C286.267 196.963 285.179 199.979 283.888 203.292C282.603 206.607 281.109 210.218 279.695 214.063C278.259 217.901 277.152 221.647 276.112 225.046C275.082 228.448 274.104 231.501 273.159 234.022C272.224 236.547 271.324 238.535 270.644 239.878C270.318 240.556 270.024 241.062 269.835 241.41C269.746 241.567 269.673 241.696 269.612 241.801C269.56 241.889 269.531 241.931 269.526 241.929C269.521 241.926 269.54 241.877 269.582 241.784C269.634 241.674 269.697 241.541 269.775 241.377C269.944 241.019 270.218 240.505 270.525 239.82C271.167 238.463 272.03 236.468 272.934 233.939C273.847 231.415 274.799 228.361 275.813 224.955C276.835 221.553 277.935 217.793 279.375 213.944C280.793 210.091 282.297 206.482 283.596 203.177C284.901 199.873 286.011 196.873 286.831 194.317C287.656 191.762 288.202 189.659 288.549 188.198C288.724 187.467 288.833 186.894 288.925 186.509C288.967 186.333 289.001 186.189 289.029 186.071C289.054 185.974 289.07 185.923 289.076 185.925Z" fill="#263238"/>
<path d="M239.948 178.362C238.943 177.364 237.274 178.408 237.689 179.76C238.111 181.132 238.749 182.907 239.691 184.909C241.881 189.563 248.316 206.265 251.327 215.437C254.339 224.609 258.583 241.721 258.583 241.721L265.014 240.677C265.014 240.677 259.13 212.562 253.381 202.431C248.761 194.292 244.141 182.529 239.948 178.362Z" fill="#9FC67E"/>
<path d="M253.087 221.172C253.109 221.165 253.226 221.439 253.418 221.943C253.608 222.447 253.868 223.184 254.159 224.102C254.752 225.936 255.476 228.499 256.207 231.346C256.935 234.194 257.542 236.784 257.965 238.663C258.158 239.552 258.32 240.298 258.449 240.891C258.556 241.419 258.605 241.714 258.582 241.719C258.56 241.725 258.467 241.441 258.32 240.923C258.163 240.336 257.966 239.598 257.731 238.72C257.239 236.785 256.592 234.242 255.877 231.43C255.147 228.587 254.461 226.02 253.929 224.172C253.675 223.3 253.462 222.567 253.292 221.985C253.139 221.469 253.065 221.18 253.087 221.172Z" fill="#263238"/>
<path d="M261.813 241.198C261.807 241.198 261.795 241.14 261.777 241.027C261.758 240.893 261.734 240.727 261.704 240.52C261.637 240.075 261.577 239.415 261.441 238.573C261.205 236.883 260.784 234.448 260.093 231.478C259.406 228.507 258.405 225.013 257.083 221.204C255.763 217.393 254.109 213.276 252.234 209.016C248.45 200.504 244.67 192.954 242.187 187.372C240.931 184.587 239.959 182.314 239.319 180.73C238.993 179.941 238.76 179.319 238.597 178.9C238.524 178.705 238.465 178.547 238.418 178.421C238.38 178.312 238.363 178.255 238.368 178.253C238.374 178.251 238.402 178.303 238.451 178.408C238.506 178.531 238.575 178.685 238.661 178.874C238.85 179.311 239.111 179.913 239.442 180.678C240.119 182.245 241.124 184.501 242.406 187.271C244.944 192.823 248.757 200.353 252.546 208.877C254.424 213.144 256.073 217.275 257.38 221.1C258.69 224.925 259.67 228.437 260.328 231.423C260.991 234.408 261.378 236.856 261.573 238.553C261.689 239.4 261.728 240.064 261.774 240.511C261.79 240.719 261.803 240.887 261.813 241.021C261.819 241.138 261.82 241.198 261.813 241.198Z" fill="#263238"/>
<path d="M265.014 240.678C264.991 240.68 264.915 240.296 264.797 239.597C264.669 238.841 264.501 237.845 264.297 236.64C263.854 234.149 263.177 230.717 262.204 226.981C261.241 223.242 260.156 219.916 259.321 217.527C258.911 216.376 258.573 215.423 258.315 214.702C258.075 214.036 257.951 213.663 257.973 213.654C257.995 213.646 258.159 214.002 258.439 214.653C258.716 215.306 259.103 216.257 259.548 217.444C260.442 219.817 261.567 223.144 262.534 226.895C263.51 230.643 264.151 234.094 264.534 236.601C264.717 237.856 264.857 238.872 264.928 239.578C265.006 240.283 265.037 240.675 265.014 240.678Z" fill="#263238"/>
<path d="M278.214 239.753H253.11V270.338H278.214V239.753Z" fill="#37474F"/>
<g opacity="0.3">
<path d="M278.214 239.753H253.11V270.338H278.214V239.753Z" fill="black"/>
</g>
<path d="M270.205 239.753H247.934V270.338H270.205V239.753Z" fill="#37474F"/>
</svg>
