<svg width="1119" height="380" viewBox="0 0 1119 380" fill="none" xmlns="http://www.w3.org/2000/svg">
<rect width="1119" height="380" rx="50" fill="#007BFF"/>
<rect width="1119" height="380" fill="#007BFF"/>
<mask id="mask0_742_74" style="mask-type:alpha" maskUnits="userSpaceOnUse" x="0" y="0" width="1119" height="380">
<rect width="1119" height="380" fill="#007BFF"/>
</mask>
<g mask="url(#mask0_742_74)">
<path fill-rule="evenodd" clip-rule="evenodd" d="M1045.41 -18.1734C1064.93 -7.75554 1086.54 -1.72884 1106.69 7.31415C1111.74 9.57761 1127.06 13.6383 1127.62 18.9955C1127.95 22.1278 1124.1 26.6174 1122.47 29.0327C1119.68 33.1703 1117.09 37.3212 1114.59 41.6399C1103.11 61.416 1092.46 81.2552 1079.71 100.282C1077.79 103.145 1072.6 116.287 1069.6 110.494C1068.24 107.868 1068.66 104.661 1065.72 102.432C1064.21 101.283 1058.96 101.233 1060.08 98.1949C1061.15 98.5168 1062.21 98.8399 1063.27 99.1605C1062.19 96.9932 1061.92 94.4988 1060.47 92.5068C1059.57 91.2693 1058.07 90.8252 1057.38 89.3888C1056.43 87.4041 1057.26 84.8419 1056.79 82.729C1056.32 80.6222 1054.96 78.7512 1054.04 76.8259C1048.58 65.4133 1045.61 53.5762 1042 41.5353C1038.43 29.6208 1033.81 18.232 1030.99 6.08141C1028.01 -6.75246 1024.74 -19.5223 1020.96 -32.1458C1024.74 -32.11 1028.12 -28.426 1031.05 -26.4765C1035.64 -23.4127 1040.55 -20.7705 1045.41 -18.1734ZM1048.01 109.539C1047.07 108.978 1046.3 108.238 1045.69 107.321C1053.86 101.804 1049.56 109.945 1048.01 109.539ZM1041.47 100.932C1037.8 102.492 1035.09 103.068 1031.94 101.875C1031.65 101.762 1031.81 100.565 1031.28 100.394C1030.81 100.246 1030.18 100.589 1029.78 100.445C1028.41 99.9581 1026.36 101.69 1025.81 99.2084C1030.48 97.0677 1034.89 93.6698 1039.97 92.5267C1047.02 90.9395 1047.65 98.3031 1041.47 100.932ZM1022.87 88.6593C1017.83 90.5696 1013.92 93.9958 1008.3 93.9762C1003.02 93.9596 998.161 91.8433 993.659 89.2595C1003.51 84.9917 1014.17 83.0511 1024.02 78.8797C1027.23 77.5218 1031.28 74.5213 1035 75.0256C1039.13 75.5864 1039.88 79.3156 1041.52 82.5819C1035.3 84.5786 1028.99 86.3398 1022.87 88.6593ZM988.436 78.4163C983.599 80.2772 978.84 83.5797 974.066 79.5914C973.295 78.9479 972.801 79.7568 972.584 77.4901C972.354 75.1001 974.295 73.2852 976.027 72.2047C980.101 69.6648 986.343 70.1374 990.906 69.2414C998.187 67.8139 1005.46 65.2919 1012.56 63.1513C1017.48 61.6699 1022.43 59.1673 1027.62 58.849C1031.62 58.6034 1036.86 61.3802 1031.4 64.6276C1026.44 67.5862 1018.5 68.279 1012.92 70.0113C1004.68 72.5721 996.494 75.3158 988.436 78.4163ZM980.436 55.3768C980.804 55.6665 981.171 55.9562 981.538 56.2459C981.483 56.2404 983.24 54.3745 983.756 54.2594C986.259 53.7037 988.829 53.5437 991.346 53.0653C997.146 51.963 1002.9 50.1611 1008.49 48.2749C1013.05 46.7384 1017.6 44.5245 1022.46 44.288C1026.68 44.0826 1027.23 44.8852 1028.03 48.9013C1017.4 50.3026 1006.41 51.5202 996.261 55.166C989.651 57.5387 982.731 62.9236 978.278 55.4468C978.998 55.4234 979.717 55.4002 980.436 55.3768ZM984.825 37.3458C987.729 39.0225 994.474 34.7093 997.591 33.9567C1000.97 33.1383 1004.15 32.3328 1007.37 31.033C1010.22 29.8794 1019.47 24.7737 1022.21 28.1288C1026.42 33.2689 1012.51 36.1464 1010.32 36.7168C1001.14 39.1096 991.585 41.417 982.825 45.0822C983.492 42.5038 984.158 39.9254 984.825 37.3458ZM995.128 16.6474C996.151 19.1447 1016.01 6.82889 1017.31 13.7071C1018.3 18.9843 997.465 24.4246 993.595 24.4599C994.165 21.8944 996.249 19.3895 995.128 16.6474ZM1000.07 -0.548677C999.836 -5.82619 1000.53 -5.88759 1004.62 -6.92635C1007.74 -7.71861 1011.85 -10.1633 1011.77 -4.36613C1011.71 0.597774 1000.32 4.77682 1000.07 -0.548677ZM1005.26 -19.4981C1005.89 -22.4314 1008.63 -18.9566 1008.87 -17.5382C1009.49 -13.7636 1006.53 -14.208 1003.79 -13.8463C1004.32 -15.7178 1004.81 -17.6044 1005.26 -19.4981ZM1037.24 -45.1072C1036.59 -45.7131 1033.41 -45.5586 1032.47 -45.7705C1030.17 -46.2933 1030.25 -48.0663 1027.66 -45.9874C1027.5 -46.1118 1027.6 -47.4312 1027.44 -47.47C1027.36 -47.49 1025.29 -47.98 1024.59 -48.3095C1022.91 -49.1039 1021.39 -49.8972 1019.8 -50.9628C1018.12 -52.0943 1016.35 -53.8263 1014.48 -54.6586C1013.7 -55.0091 1013.02 -55.5641 1012.12 -55.5852C1009.8 -55.6389 1010.66 -54.1271 1008.72 -53.5477C1007.52 -53.1905 1006.43 -54.5152 1004.91 -53.682C1003.6 -52.9627 1003.05 -50.8991 1002.59 -49.6527C1000.9 -45.117 999.774 -40.3252 998.142 -35.7506C989.797 -12.3577 979.808 10.4059 971.842 33.9568C968.006 45.3021 963.951 56.7514 961.755 68.5607C960.172 77.0778 955.738 89.7994 961.98 97.279C966.519 102.717 974.379 104.288 980.758 106.364C990.358 109.488 999.426 114.03 1009.11 117.009C1020.65 120.562 1031.91 124.386 1043.26 128.558C1048.1 130.336 1052.63 133.22 1057.44 134.875C1060.38 135.887 1064.33 132.978 1065.65 136.014C1068.55 131.337 1074.52 133.414 1078.13 129.914C1080.25 127.856 1081.51 124.186 1083.19 121.774C1085.71 118.158 1088.51 114.742 1091.1 111.174C1101.36 97.006 1110.64 82.435 1119.71 67.4752C1128.37 53.189 1138.86 39.3867 1145.75 24.0897C1148.49 18.0172 1148.34 12.0462 1145.23 6.14561C1142.96 1.8415 1138.02 -4.45928 1132.66 -0.703907C1134.36 -4.64879 1125.42 -7.44335 1122.76 -7.82124C1122.72 -7.82619 1122.59 -4.9506 1121.87 -4.92688C1122.13 -4.93525 1118.9 -10.8686 1117.75 -11.5313C1114.31 -13.5035 1110.14 -15.784 1106.47 -17.2972C1103.1 -18.6846 1099.68 -19.1413 1096.39 -20.7561C1092.39 -22.7126 1088.64 -25.1627 1084.63 -27.1011C1080.76 -28.9721 1076.43 -31.2158 1072.28 -32.3064C1068.69 -33.2526 1065.59 -33.1223 1062.22 -35.0053C1058.04 -37.3354 1054.48 -38.8189 1049.84 -40.1919C1045.83 -41.3794 1040.38 -42.161 1037.24 -45.1072Z" fill="#3597FF"/>
<path fill-rule="evenodd" clip-rule="evenodd" d="M961.483 387.328C962.393 385.147 963.299 382.967 964.209 380.788C965.333 384.589 965.648 386.479 961.483 387.328ZM962.693 397.399C960.723 397.758 961.499 391.45 961.499 390.35C964.902 392.317 962.084 394.674 962.693 397.399ZM959.621 379.198C961.301 378.185 962.981 377.174 964.66 376.161C962.321 380.584 963.239 377.82 964.204 380.775C962.44 381.292 960.724 380.689 959.621 379.198ZM949.667 413.772C943.37 437.089 923.372 455.478 902.249 465.003C890.112 470.475 878.178 471.844 865.071 471.234C860.016 470.999 854.067 469.322 849.202 469.634C845.456 469.875 845.625 470.04 842.522 473.277C841.149 470.697 842.143 468.886 839.39 467.384C835.954 465.511 834.528 467.693 832.824 470.287C830.594 467.928 829.681 466.696 826.791 465.295C826.882 465.34 824.024 465.229 824.141 465.265C823.625 465.103 820.517 463.063 819.544 462.692C815.551 461.163 810.935 460.535 807.25 458.341C804.028 456.426 801.373 451.049 797.686 455.181C797.683 448.277 788.571 445.414 784.3 441.797C777.627 436.147 772.322 427.78 768.995 419.688C765.447 411.057 764.263 402.784 762.603 393.89C761.443 387.676 753.847 378.693 758.408 372.422C759.495 375.052 758.985 377.744 760.79 380.128C762.414 376.933 763.308 373.359 764.042 369.862C764.403 368.149 766.492 363.122 766.254 361.63C765.772 358.576 762.068 358.41 764.122 354.666C768.381 359.396 771.818 351.09 768.6 347.779C767.011 349.607 766.428 351.685 765.696 353.95C761.508 345.321 773.098 348.1 770.562 340.311C774.793 339.48 777.224 338.392 778.833 334.126C780.621 329.379 779.305 328.345 783.366 325.208C784.763 324.13 788.714 322.58 789.437 320.806C790.836 317.378 787.276 316.362 790.394 313.151C791.446 315.036 795.55 318.768 797.796 315.216C798.246 314.508 796.357 314.006 797.731 312.375C799.767 309.96 802.044 307.593 805.486 308.1C802.761 301.145 820.178 300.594 824.638 298.953C829.109 297.31 832.902 296.23 837.642 295.849C842.377 295.468 842.613 294.052 846.622 291.142C846.962 295.305 847.943 294.39 850.842 295.124C851.539 293.904 852.254 293.766 852.985 294.713C853.713 295.419 854.603 295.751 855.652 295.711C857.244 295.796 859.051 295.584 860.719 295.618C864.635 295.696 868.675 295.363 872.517 295.448C873.508 295.279 874.434 294.927 875.301 294.392C875.664 295.088 876.028 295.786 876.388 296.484C878.424 296.744 878.581 299.347 881.085 296.501C881.825 300.12 883.953 298.237 886.201 299.218C888.252 300.115 888.578 301.548 890.471 302.547C891.715 303.577 893.048 303.713 894.475 302.959C895.831 303.985 897.209 304.981 898.606 305.948C901.18 307.432 904.215 308.341 906.928 309.513C908.732 310.272 910.526 311.063 912.305 311.882C912.358 314.074 913.322 314.848 915.193 314.203C916.884 315.648 917.36 315.591 919.001 318.05C922.717 323.623 926.015 327.952 930.71 332.933C951.114 354.586 957.383 385.2 949.667 413.772ZM955.929 321.694C946.717 309.103 933.677 294.685 921.96 286.733C916.021 282.701 907.685 275.463 900.422 273.331C898.7 272.825 896.918 272.792 895.225 272.262C893.918 271.852 893.206 270.483 891.715 270.236C890.672 270.063 890.557 272.446 889.449 272.227C887.132 271.766 885.664 269.42 884.028 267.952C880.514 274.132 878.607 263.739 873.448 270.726C867.308 260.899 852.883 263.048 843.077 263.544C840.17 263.69 838.804 264.746 836.226 265.528C833.826 266.256 833.589 266.069 830.969 266.049C824.444 265.998 818.651 266.835 812.619 269.76C802.486 274.673 793.184 282.328 783.56 288.249C772.803 294.866 763.106 303.289 754.877 312.966C725.127 347.961 717.172 399.04 740.894 439.609C778.573 504.042 875.764 510.927 930.838 467.208C973.387 433.429 989.579 367.678 955.929 321.694Z" fill="#3597FF"/>
<path fill-rule="evenodd" clip-rule="evenodd" d="M1035.42 218.62C1033.3 217.844 1030.67 216.329 1028.31 216.845C1025.81 217.394 1024.8 219.904 1022.98 221.413C1018.02 225.517 1015.14 219.401 1012.41 216.049C1009.84 212.884 1006.71 212.116 1003.08 214.061C1001.63 214.836 995.543 218.388 996.605 220.664C997.369 222.302 1000.38 220.831 1001.4 220.474C1003.63 219.698 1005.7 219.02 1007.98 220.15C1012.25 222.27 1013.36 228.081 1018.53 228.987C1023.88 229.925 1024.05 224.837 1027.87 222.922C1030.43 221.639 1032.21 223.91 1034.67 223.458C1037.03 223.027 1038.11 219.605 1035.42 218.62Z" fill="#3597FF"/>
<path fill-rule="evenodd" clip-rule="evenodd" d="M992.256 239.125C994.147 239.535 995.381 235.868 996.564 234.938C998.528 233.396 1001.93 233.085 1003.93 234.637C1007.84 237.666 1006.49 244.206 1012.05 245.911C1017.02 247.435 1019.36 240.891 1023.54 239.262C1025.97 238.314 1028.64 237.694 1027.69 234.295C1027.04 231.944 1025.11 231.34 1023.01 232.243C1019.4 233.794 1018.18 240.11 1013.9 240.223C1009.47 240.34 1008.99 233.961 1007.09 231.183C1004.2 226.948 998.245 225.925 994.862 229.975C993.841 231.196 988.655 238.345 992.256 239.125Z" fill="#3597FF"/>
</g>
</svg>
