<svg width="201" height="53" viewBox="0 0 201 53" fill="none" xmlns="http://www.w3.org/2000/svg">
<path d="M43.5242 15.8759C43.5242 20.9454 43.5535 26.0138 43.5102 31.0833C43.4914 33.2454 43.2031 35.3829 42.4602 37.4407C41.6563 39.6673 40.4551 41.6548 38.934 43.4501C37.1727 45.5302 35.1383 47.3009 32.8145 48.74C30.3805 50.247 27.7754 51.3462 25.0262 52.1208C24.7039 52.2122 24.384 52.313 24.0629 52.4067C23.75 52.497 23.6047 52.3903 23.6059 52.0505C23.607 51.6087 23.5649 51.1657 23.5649 50.7239C23.5684 47.7825 23.5789 44.8399 23.5824 41.8985C23.5824 41.547 23.5695 41.1931 23.5274 40.8439C23.4617 40.2896 23.7266 39.9767 24.2188 39.8067C25.5957 39.331 26.8977 38.7005 28.1188 37.906C30.5563 36.3204 32.2262 34.1724 33.0149 31.3411C33.4719 29.6993 33.5668 28.0341 33.6617 26.3442C33.8164 23.6185 33.6992 20.8962 33.7543 18.1728C33.766 17.5939 33.7508 17.588 33.227 17.854C30.1695 19.4067 27.1133 20.9607 24.0582 22.5157C23.5813 22.7583 23.5344 22.7372 23.5344 22.1841C23.5309 19.7735 23.4465 17.3595 23.559 14.9536C23.6609 12.7739 24.5715 10.9153 26.2789 9.47042C28.4902 7.59659 31.0508 6.31221 33.6055 5.00792C35.9516 3.81026 38.2836 2.58448 40.6227 1.37393C41.409 0.967291 42.1977 0.567682 42.9863 0.165729C43.5078 -0.0991151 43.5254 -0.0885682 43.5266 0.509088V15.8759H43.5242ZM9.81173 22.7478C9.81173 24.2712 9.75665 25.7982 9.82345 27.3192C9.95587 30.3567 10.7293 33.2021 12.7215 35.5845C13.6496 36.6954 14.7758 37.6071 16.0484 38.3173C17.1652 38.9407 18.3289 39.4657 19.5301 39.9028C19.8324 40.013 19.9649 40.1888 19.9649 40.531C19.9695 44.3583 19.9813 48.1857 20.0129 52.013C20.0164 52.456 19.7879 52.5134 19.4938 52.4173C17.777 51.8571 16.0168 51.4353 14.3727 50.6454C12.7965 49.8884 11.2449 49.1056 9.79532 48.1212C7.69884 46.6974 5.88361 44.9829 4.27814 43.0235C2.69845 41.0958 1.51954 38.9548 0.742591 36.5982C0.439075 35.6782 0.188294 34.722 0.140247 33.7482C-0.117566 28.5825 0.0652465 23.4122 0.0336058 18.2442C-0.0015504 12.3427 0.0265751 6.43995 0.027747 0.538385C0.027747 0.12276 0.221887 0.0118224 0.610168 0.205572C2.85548 1.33409 5.0879 2.48604 7.29806 3.68253C9.13907 4.67862 11.0281 5.58565 12.8832 6.55596C14.6797 7.49464 16.3742 8.58917 17.8309 10.0165C18.9781 11.1403 19.5828 12.5267 19.8102 14.1028C20.1055 16.156 20.0762 18.2208 19.9988 20.281C19.9719 20.9817 19.9192 21.6837 19.9156 22.388C19.9156 22.6341 19.843 22.7161 19.6027 22.5942C19.1844 22.3833 18.7531 22.197 18.3406 21.9767C16.7844 21.1435 15.1988 20.3642 13.6309 19.5544C12.5094 18.9755 11.3703 18.4306 10.2676 17.82C9.86798 17.5997 9.80353 17.6431 9.80587 18.0708C9.81759 19.6306 9.81056 21.1892 9.81056 22.7489L9.81173 22.7478Z" fill="#007BFF"/>
<path d="M66.732 36.392C65.1827 36.392 63.7453 36.1493 62.42 35.664C61.1133 35.16 59.9747 34.4507 59.004 33.536C58.052 32.6213 57.3053 31.548 56.764 30.316C56.2227 29.0653 55.952 27.6933 55.952 26.2C55.952 24.7067 56.2227 23.344 56.764 22.112C57.3053 20.8613 58.052 19.7787 59.004 18.864C59.9747 17.9493 61.1133 17.2493 62.42 16.764C63.7453 16.26 65.1827 16.008 66.732 16.008C68.5427 16.008 70.1573 16.3253 71.576 16.96C73.0133 17.5947 74.208 18.5093 75.16 19.704L71.632 22.896C70.9973 22.1493 70.2973 21.58 69.532 21.188C68.7853 20.796 67.9453 20.6 67.012 20.6C66.2093 20.6 65.472 20.7307 64.8 20.992C64.128 21.2533 63.5493 21.636 63.064 22.14C62.5973 22.6253 62.224 23.2133 61.944 23.904C61.6827 24.5947 61.552 25.36 61.552 26.2C61.552 27.04 61.6827 27.8053 61.944 28.496C62.224 29.1867 62.5973 29.784 63.064 30.288C63.5493 30.7733 64.128 31.1467 64.8 31.408C65.472 31.6693 66.2093 31.8 67.012 31.8C67.9453 31.8 68.7853 31.604 69.532 31.212C70.2973 30.82 70.9973 30.2507 71.632 29.504L75.16 32.696C74.208 33.872 73.0133 34.7867 71.576 35.44C70.1573 36.0747 68.5427 36.392 66.732 36.392ZM88.3839 20.572C89.5599 20.572 90.6239 20.8147 91.5759 21.3C92.5279 21.7667 93.2745 22.4947 93.8159 23.484C94.3759 24.4733 94.6559 25.752 94.6559 27.32V36H89.3359V28.188C89.3359 27.1053 89.1119 26.3213 88.6639 25.836C88.2345 25.332 87.6279 25.08 86.8439 25.08C86.2839 25.08 85.7705 25.2107 85.3039 25.472C84.8372 25.7147 84.4732 26.0973 84.2119 26.62C83.9505 27.1427 83.8199 27.824 83.8199 28.664V36H78.4999V15.224H83.8199V25.136L82.5879 23.876C83.1665 22.7747 83.9599 21.9533 84.9679 21.412C85.9759 20.852 87.1145 20.572 88.3839 20.572ZM108.384 36V33.172L108.02 32.472V27.264C108.02 26.424 107.759 25.78 107.236 25.332C106.732 24.8653 105.92 24.632 104.8 24.632C104.072 24.632 103.335 24.7533 102.588 24.996C101.841 25.22 101.207 25.5373 100.684 25.948L98.892 22.336C99.7506 21.776 100.777 21.3467 101.972 21.048C103.185 20.7307 104.389 20.572 105.584 20.572C108.048 20.572 109.952 21.1413 111.296 22.28C112.659 23.4 113.34 25.164 113.34 27.572V36H108.384ZM103.904 36.252C102.691 36.252 101.664 36.0467 100.824 35.636C99.984 35.2253 99.34 34.6653 98.892 33.956C98.4626 33.2467 98.248 32.4533 98.248 31.576C98.248 30.6427 98.4813 29.84 98.948 29.168C99.4333 28.4773 100.171 27.9547 101.16 27.6C102.149 27.2267 103.428 27.04 104.996 27.04H108.58V29.812H105.724C104.865 29.812 104.259 29.952 103.904 30.232C103.568 30.512 103.4 30.8853 103.4 31.352C103.4 31.8187 103.577 32.192 103.932 32.472C104.287 32.752 104.772 32.892 105.388 32.892C105.967 32.892 106.489 32.752 106.956 32.472C107.441 32.1733 107.796 31.7253 108.02 31.128L108.748 33.088C108.468 34.1333 107.917 34.9267 107.096 35.468C106.293 35.9907 105.229 36.252 103.904 36.252ZM117.818 36V20.824H122.886V25.248L122.13 23.988C122.578 22.8493 123.306 22 124.314 21.44C125.322 20.8613 126.545 20.572 127.982 20.572V25.36C127.739 25.3227 127.525 25.304 127.338 25.304C127.17 25.2853 126.983 25.276 126.778 25.276C125.695 25.276 124.818 25.5747 124.146 26.172C123.474 26.7507 123.138 27.7027 123.138 29.028V36H117.818ZM138.538 36.252C136.597 36.252 135.085 35.776 134.002 34.824C132.92 33.8533 132.378 32.3973 132.378 30.456V17.436H137.698V30.4C137.698 30.9413 137.848 31.3707 138.146 31.688C138.445 31.9867 138.828 32.136 139.294 32.136C139.929 32.136 140.47 31.9773 140.918 31.66L142.234 35.384C141.786 35.6827 141.236 35.8973 140.582 36.028C139.929 36.1773 139.248 36.252 138.538 36.252ZM130.166 25.36V21.384H141.17V25.36H130.166Z" fill="black"/>
<path d="M149.83 36V20.796H143.81V16.4H161.366V20.796H155.374V36H149.83ZM169.507 31.66L169.199 25.444L177.627 16.4H183.731L175.331 25.5L172.251 28.72L169.507 31.66ZM164.551 36V16.4H170.039V36H164.551ZM177.711 36L171.327 27.908L174.939 24.044L184.151 36H177.711ZM191.01 36.392C189.572 36.392 188.266 36.1493 187.09 35.664C185.932 35.16 184.971 34.4413 184.206 33.508L187.23 29.924C187.752 30.596 188.294 31.1093 188.854 31.464C189.414 31.8 190.002 31.968 190.618 31.968C192.26 31.968 193.082 31.016 193.082 29.112V20.684H186.306V16.4H198.57V28.776C198.57 31.3333 197.926 33.2467 196.638 34.516C195.35 35.7667 193.474 36.392 191.01 36.392Z" fill="#007BFF"/>
</svg>
