<svg width="44" height="53" viewBox="0 0 44 53" fill="none" xmlns="http://www.w3.org/2000/svg">
<path d="M43.5242 15.8759C43.5242 20.9454 43.5535 26.0138 43.5102 31.0833C43.4914 33.2454 43.2031 35.3829 42.4602 37.4407C41.6563 39.6673 40.4551 41.6548 38.934 43.4501C37.1727 45.5302 35.1383 47.3009 32.8145 48.74C30.3805 50.247 27.7754 51.3462 25.0262 52.1208C24.7039 52.2122 24.384 52.313 24.0629 52.4067C23.75 52.497 23.6047 52.3903 23.6059 52.0505C23.607 51.6087 23.5649 51.1657 23.5649 50.7239C23.5684 47.7825 23.5789 44.8399 23.5824 41.8985C23.5824 41.547 23.5695 41.1931 23.5274 40.8439C23.4617 40.2896 23.7266 39.9767 24.2188 39.8067C25.5957 39.331 26.8977 38.7005 28.1188 37.906C30.5563 36.3204 32.2262 34.1724 33.0149 31.3411C33.4719 29.6993 33.5668 28.0341 33.6617 26.3442C33.8164 23.6185 33.6992 20.8962 33.7543 18.1728C33.766 17.5939 33.7508 17.588 33.227 17.854C30.1695 19.4067 27.1133 20.9607 24.0582 22.5157C23.5813 22.7583 23.5344 22.7372 23.5344 22.1841C23.5309 19.7735 23.4465 17.3595 23.559 14.9536C23.6609 12.7739 24.5715 10.9153 26.2789 9.47042C28.4902 7.59659 31.0508 6.31221 33.6055 5.00792C35.9516 3.81026 38.2836 2.58448 40.6227 1.37393C41.409 0.967291 42.1977 0.567682 42.9863 0.165729C43.5078 -0.0991151 43.5254 -0.0885682 43.5266 0.509088V15.8759H43.5242ZM9.81173 22.7478C9.81173 24.2712 9.75665 25.7982 9.82345 27.3192C9.95587 30.3567 10.7293 33.2021 12.7215 35.5845C13.6496 36.6954 14.7758 37.6071 16.0484 38.3173C17.1652 38.9407 18.3289 39.4657 19.5301 39.9028C19.8324 40.013 19.9649 40.1888 19.9649 40.531C19.9695 44.3583 19.9813 48.1857 20.0129 52.013C20.0164 52.456 19.7879 52.5134 19.4938 52.4173C17.777 51.8571 16.0168 51.4353 14.3727 50.6454C12.7965 49.8884 11.2449 49.1056 9.79532 48.1212C7.69884 46.6974 5.88361 44.9829 4.27814 43.0235C2.69845 41.0958 1.51954 38.9548 0.742591 36.5982C0.439075 35.6782 0.188294 34.722 0.140247 33.7482C-0.117566 28.5825 0.0652465 23.4122 0.0336058 18.2442C-0.0015504 12.3427 0.0265751 6.43995 0.027747 0.538385C0.027747 0.12276 0.221887 0.0118224 0.610168 0.205572C2.85548 1.33409 5.0879 2.48604 7.29806 3.68253C9.13907 4.67862 11.0281 5.58565 12.8832 6.55596C14.6797 7.49464 16.3742 8.58917 17.8309 10.0165C18.9781 11.1403 19.5828 12.5267 19.8102 14.1028C20.1055 16.156 20.0762 18.2208 19.9988 20.281C19.9719 20.9817 19.9192 21.6837 19.9156 22.388C19.9156 22.6341 19.843 22.7161 19.6027 22.5942C19.1844 22.3833 18.7531 22.197 18.3406 21.9767C16.7844 21.1435 15.1988 20.3642 13.6309 19.5544C12.5094 18.9755 11.3703 18.4306 10.2676 17.82C9.86798 17.5997 9.80353 17.6431 9.80587 18.0708C9.81759 19.6306 9.81056 21.1892 9.81056 22.7489L9.81173 22.7478Z" fill="#007BFF"/>
</svg>
